%TF.GenerationSoftware,KiCad,Pcbnew,7.0.10*%
%TF.CreationDate,2024-02-15T15:55:25-05:00*%
%TF.ProjectId,CANRxPCB,43414e52-7850-4434-922e-6b696361645f,rev?*%
%TF.SameCoordinates,Original*%
%TF.FileFunction,Copper,L2,Bot*%
%TF.FilePolarity,Positive*%
%FSLAX46Y46*%
G04 Gerber Fmt 4.6, Leading zero omitted, Abs format (unit mm)*
G04 Created by KiCad (PCBNEW 7.0.10) date 2024-02-15 15:55:25*
%MOMM*%
%LPD*%
G01*
G04 APERTURE LIST*
G04 Aperture macros list*
%AMRoundRect*
0 Rectangle with rounded corners*
0 $1 Rounding radius*
0 $2 $3 $4 $5 $6 $7 $8 $9 X,Y pos of 4 corners*
0 Add a 4 corners polygon primitive as box body*
4,1,4,$2,$3,$4,$5,$6,$7,$8,$9,$2,$3,0*
0 Add four circle primitives for the rounded corners*
1,1,$1+$1,$2,$3*
1,1,$1+$1,$4,$5*
1,1,$1+$1,$6,$7*
1,1,$1+$1,$8,$9*
0 Add four rect primitives between the rounded corners*
20,1,$1+$1,$2,$3,$4,$5,0*
20,1,$1+$1,$4,$5,$6,$7,0*
20,1,$1+$1,$6,$7,$8,$9,0*
20,1,$1+$1,$8,$9,$2,$3,0*%
G04 Aperture macros list end*
%TA.AperFunction,ComponentPad*%
%ADD10C,1.524000*%
%TD*%
%TA.AperFunction,ComponentPad*%
%ADD11C,1.400000*%
%TD*%
%TA.AperFunction,ComponentPad*%
%ADD12RoundRect,0.250000X0.600000X0.750000X-0.600000X0.750000X-0.600000X-0.750000X0.600000X-0.750000X0*%
%TD*%
%TA.AperFunction,ComponentPad*%
%ADD13O,1.700000X2.000000*%
%TD*%
%TA.AperFunction,ComponentPad*%
%ADD14R,1.800000X1.500000*%
%TD*%
%TA.AperFunction,ComponentPad*%
%ADD15O,1.800000X1.500000*%
%TD*%
%TA.AperFunction,ComponentPad*%
%ADD16C,1.600000*%
%TD*%
%TA.AperFunction,ComponentPad*%
%ADD17O,1.600000X1.600000*%
%TD*%
%TA.AperFunction,ComponentPad*%
%ADD18RoundRect,0.250000X0.600000X0.725000X-0.600000X0.725000X-0.600000X-0.725000X0.600000X-0.725000X0*%
%TD*%
%TA.AperFunction,ComponentPad*%
%ADD19O,1.700000X1.950000*%
%TD*%
%TA.AperFunction,ComponentPad*%
%ADD20C,1.701800*%
%TD*%
%TA.AperFunction,ComponentPad*%
%ADD21RoundRect,0.250000X-0.600000X-0.725000X0.600000X-0.725000X0.600000X0.725000X-0.600000X0.725000X0*%
%TD*%
%TA.AperFunction,ComponentPad*%
%ADD22R,1.508000X1.508000*%
%TD*%
%TA.AperFunction,ComponentPad*%
%ADD23C,1.508000*%
%TD*%
%TA.AperFunction,ViaPad*%
%ADD24C,0.800000*%
%TD*%
%TA.AperFunction,Conductor*%
%ADD25C,0.250000*%
%TD*%
G04 APERTURE END LIST*
D10*
%TO.P,U3,1,3V3*%
%TO.N,+3.3V*%
X132890000Y-76050000D03*
%TO.P,U3,2,GND*%
%TO.N,GND*%
X135430000Y-76050000D03*
%TO.P,U3,3,CANRx*%
%TO.N,/PD0*%
X137970000Y-76050000D03*
%TO.P,U3,4,CANTx*%
%TO.N,/PD1*%
X140510000Y-76050000D03*
%TD*%
D11*
%TO.P,C1,1*%
%TO.N,+3.3V*%
X129630000Y-60150000D03*
%TO.P,C1,2*%
%TO.N,GND*%
X127130000Y-60150000D03*
%TD*%
%TO.P,C3,1*%
%TO.N,+5V*%
X129520000Y-56500000D03*
%TO.P,C3,2*%
%TO.N,GND*%
X127020000Y-56500000D03*
%TD*%
D12*
%TO.P,J1,1,Pin_1*%
%TO.N,Net-(J1-Pin_1)*%
X167640000Y-110744000D03*
D13*
%TO.P,J1,2,Pin_2*%
%TO.N,/PG0*%
X165140000Y-110744000D03*
%TD*%
D14*
%TO.P,CN2,1,1*%
%TO.N,/PC6*%
X172720000Y-54356000D03*
D15*
%TO.P,CN2,2,2*%
%TO.N,/PB8*%
X175260000Y-54356000D03*
%TO.P,CN2,3,3*%
%TO.N,/PB15*%
X172720000Y-56896000D03*
%TO.P,CN2,4,4*%
%TO.N,/PB9*%
X175260000Y-56896000D03*
%TO.P,CN2,5,5*%
%TO.N,/PB13*%
X172720000Y-59436000D03*
%TO.P,CN2,6,6*%
%TO.N,unconnected-(CN2-Pad6)*%
X175260000Y-59436000D03*
%TO.P,CN2,7,7*%
%TO.N,/PB12*%
X172720000Y-61976000D03*
%TO.P,CN2,8,8*%
%TO.N,GND*%
X175260000Y-61976000D03*
%TO.P,CN2,9,9*%
%TO.N,/PA15*%
X172720000Y-64516000D03*
%TO.P,CN2,10,10*%
%TO.N,/PA5*%
X175260000Y-64516000D03*
%TO.P,CN2,11,11*%
%TO.N,/PC7*%
X172720000Y-67056000D03*
%TO.P,CN2,12,12*%
%TO.N,/PA6*%
X175260000Y-67056000D03*
%TO.P,CN2,13,13*%
%TO.N,/PB5*%
X172720000Y-69596000D03*
%TO.P,CN2,14,14*%
%TO.N,unconnected-(CN2-Pad14)*%
X175260000Y-69596000D03*
%TO.P,CN2,15,15*%
%TO.N,/PB3*%
X172720000Y-72136000D03*
%TO.P,CN2,16,16*%
%TO.N,/PD14*%
X175260000Y-72136000D03*
%TO.P,CN2,17,17*%
%TO.N,/PA4*%
X172720000Y-74676000D03*
%TO.P,CN2,18,18*%
%TO.N,/PD15*%
X175260000Y-74676000D03*
%TO.P,CN2,19,19*%
%TO.N,/PB4*%
X172720000Y-77216000D03*
%TO.P,CN2,20,20*%
%TO.N,/PF12*%
X175260000Y-77216000D03*
%TD*%
D16*
%TO.P,R2,1*%
%TO.N,Net-(J1-Pin_1)*%
X159867600Y-109677200D03*
D17*
%TO.P,R2,2*%
%TO.N,+3.3V*%
X159867600Y-102057200D03*
%TD*%
D12*
%TO.P,J2,1,Pin_1*%
%TO.N,/PG0*%
X167473000Y-120015000D03*
D13*
%TO.P,J2,2,Pin_2*%
%TO.N,Net-(J2-Pin_2)*%
X164973000Y-120015000D03*
%TD*%
D11*
%TO.P,C4,1*%
%TO.N,/PG3*%
X136702800Y-85191600D03*
%TO.P,C4,2*%
%TO.N,GND*%
X136702800Y-87691600D03*
%TD*%
D14*
%TO.P,CN3,1,1*%
%TO.N,/PA3*%
X127000000Y-86360000D03*
D15*
%TO.P,CN3,2,2*%
%TO.N,/PD7*%
X129540000Y-86360000D03*
%TO.P,CN3,3,3*%
%TO.N,/PC0*%
X127000000Y-88900000D03*
%TO.P,CN3,4,4*%
%TO.N,/PD6*%
X129540000Y-88900000D03*
%TO.P,CN3,5,5*%
%TO.N,/PC3*%
X127000000Y-91440000D03*
%TO.P,CN3,6,6*%
%TO.N,/PD5*%
X129540000Y-91440000D03*
%TO.P,CN3,7,7*%
%TO.N,/PF3*%
X127000000Y-93980000D03*
%TO.P,CN3,8,8*%
%TO.N,/PD4*%
X129540000Y-93980000D03*
%TO.P,CN3,9,9*%
%TO.N,/PF5*%
X127000000Y-96520000D03*
%TO.P,CN3,10,10*%
%TO.N,/PD3*%
X129540000Y-96520000D03*
%TO.P,CN3,11,11*%
%TO.N,/PF10*%
X127000000Y-99060000D03*
%TO.P,CN3,12,12*%
%TO.N,GND*%
X129540000Y-99060000D03*
%TO.P,CN3,13,13*%
%TO.N,unconnected-(CN3-Pad13)*%
X127000000Y-101600000D03*
%TO.P,CN3,14,14*%
%TO.N,unconnected-(CN3-Pad14)*%
X129540000Y-101600000D03*
%TO.P,CN3,15,15*%
%TO.N,unconnected-(CN3-Pad15)*%
X127000000Y-104140000D03*
%TO.P,CN3,16,16*%
%TO.N,/PE4*%
X129540000Y-104140000D03*
%TO.P,CN3,17,17*%
%TO.N,/PF2*%
X127000000Y-106680000D03*
%TO.P,CN3,18,18*%
%TO.N,/PE5*%
X129540000Y-106680000D03*
%TO.P,CN3,19,19*%
%TO.N,/PF1*%
X127000000Y-109220000D03*
%TO.P,CN3,20,20*%
%TO.N,/PE6*%
X129540000Y-109220000D03*
%TO.P,CN3,21,21*%
%TO.N,/PF0*%
X127000000Y-111760000D03*
%TO.P,CN3,22,22*%
%TO.N,/PE3*%
X129540000Y-111760000D03*
%TO.P,CN3,23,23*%
%TO.N,GND*%
X127000000Y-114300000D03*
%TO.P,CN3,24,24*%
%TO.N,/PF8*%
X129540000Y-114300000D03*
%TO.P,CN3,25,25*%
%TO.N,/PD0*%
X127000000Y-116840000D03*
%TO.P,CN3,26,26*%
%TO.N,/PF7*%
X129540000Y-116840000D03*
%TO.P,CN3,27,27*%
%TO.N,/PD1*%
X127000000Y-119380000D03*
%TO.P,CN3,28,28*%
%TO.N,/PF9*%
X129540000Y-119380000D03*
%TO.P,CN3,29,29*%
%TO.N,/PG0*%
X127000000Y-121920000D03*
%TO.P,CN3,30,30*%
%TO.N,/PG1*%
X129540000Y-121920000D03*
%TD*%
D18*
%TO.P,J4,1,Pin_1*%
%TO.N,+3.3V*%
X167640000Y-94869000D03*
D19*
%TO.P,J4,2,Pin_2*%
%TO.N,GND*%
X165140000Y-94869000D03*
%TO.P,J4,3,Pin_3*%
%TO.N,/PG1*%
X162640000Y-94869000D03*
%TD*%
D10*
%TO.P,U4,1,5V*%
%TO.N,+5VD*%
X169164000Y-72339200D03*
%TO.P,U4,2,GND*%
%TO.N,GND*%
X169164000Y-69799200D03*
%TO.P,U4,3,SQW*%
%TO.N,unconnected-(U4-SQW-Pad3)*%
X169164000Y-67259200D03*
%TO.P,U4,4,SCL*%
%TO.N,/PB8*%
X169164000Y-64719200D03*
%TO.P,U4,5,SCA*%
%TO.N,/PB9*%
X169164000Y-62179200D03*
%TD*%
D16*
%TO.P,R3,1*%
%TO.N,GND*%
X159867600Y-122428000D03*
D17*
%TO.P,R3,2*%
%TO.N,Net-(J2-Pin_2)*%
X159867600Y-114808000D03*
%TD*%
D20*
%TO.P,U5,1,OUTPUT*%
%TO.N,+5V*%
X143990000Y-61420000D03*
%TO.P,U5,2,GND*%
%TO.N,GND*%
X146530000Y-61420000D03*
%TO.P,U5,3,INPUT*%
%TO.N,+12V*%
X149070000Y-61420000D03*
%TD*%
D21*
%TO.P,J3,1,Pin_1*%
%TO.N,+12V*%
X157720000Y-55120000D03*
D19*
%TO.P,J3,2,Pin_2*%
%TO.N,GND*%
X160220000Y-55120000D03*
%TO.P,J3,3,Pin_3*%
%TO.N,/CANH*%
X162720000Y-55120000D03*
%TO.P,J3,4,Pin_4*%
%TO.N,/CANL*%
X165220000Y-55120000D03*
%TO.P,J3,5,Pin_5*%
%TO.N,/PG0*%
X167720000Y-55120000D03*
%TD*%
D16*
%TO.P,R1,1*%
%TO.N,/PG3*%
X133299200Y-85039200D03*
D17*
%TO.P,R1,2*%
%TO.N,GND*%
X133299200Y-92659200D03*
%TD*%
D12*
%TO.P,J5,1,Pin_1*%
%TO.N,+3.3V*%
X167640000Y-102362000D03*
D13*
%TO.P,J5,2,Pin_2*%
%TO.N,/PG3*%
X165140000Y-102362000D03*
%TD*%
D11*
%TO.P,C2,1*%
%TO.N,+12V*%
X144680000Y-53330000D03*
%TO.P,C2,2*%
%TO.N,GND*%
X144680000Y-55830000D03*
%TD*%
D14*
%TO.P,CN1,1,1*%
%TO.N,unconnected-(CN1-Pad1)*%
X127000000Y-63500000D03*
D15*
%TO.P,CN1,2,2*%
%TO.N,/PC8*%
X129540000Y-63500000D03*
%TO.P,CN1,3,3*%
%TO.N,/IOREF*%
X127000000Y-66040000D03*
%TO.P,CN1,4,4*%
%TO.N,/PC9*%
X129540000Y-66040000D03*
%TO.P,CN1,5,5*%
%TO.N,/NRST*%
X127000000Y-68580000D03*
%TO.P,CN1,6,6*%
%TO.N,/PC10*%
X129540000Y-68580000D03*
%TO.P,CN1,7,7*%
%TO.N,+3.3V*%
X127000000Y-71120000D03*
%TO.P,CN1,8,8*%
%TO.N,/PC11*%
X129540000Y-71120000D03*
%TO.P,CN1,9,9*%
%TO.N,+5VD*%
X127000000Y-73660000D03*
%TO.P,CN1,10,10*%
%TO.N,/PC12*%
X129540000Y-73660000D03*
%TO.P,CN1,11,11*%
%TO.N,GND*%
X127000000Y-76200000D03*
%TO.P,CN1,12,12*%
%TO.N,/PD2*%
X129540000Y-76200000D03*
%TO.P,CN1,13,13*%
%TO.N,GND*%
X127000000Y-78740000D03*
%TO.P,CN1,14,14*%
%TO.N,/PG2*%
X129540000Y-78740000D03*
%TO.P,CN1,15,15*%
%TO.N,+5V*%
X127000000Y-81280000D03*
%TO.P,CN1,16,16*%
%TO.N,/PG3*%
X129540000Y-81280000D03*
%TD*%
D14*
%TO.P,CN4,1,1*%
%TO.N,unconnected-(CN4-Pad1)*%
X172720000Y-81280000D03*
D15*
%TO.P,CN4,2,2*%
%TO.N,/PF13*%
X175260000Y-81280000D03*
%TO.P,CN4,3,3*%
%TO.N,GNDA*%
X172720000Y-83820000D03*
%TO.P,CN4,4,4*%
%TO.N,/PE9*%
X175260000Y-83820000D03*
%TO.P,CN4,5,5*%
%TO.N,GND*%
X172720000Y-86360000D03*
%TO.P,CN4,6,6*%
%TO.N,/PE11*%
X175260000Y-86360000D03*
%TO.P,CN4,7,7*%
%TO.N,/PB1*%
X172720000Y-88900000D03*
%TO.P,CN4,8,8*%
%TO.N,/PF14*%
X175260000Y-88900000D03*
%TO.P,CN4,9,9*%
%TO.N,/PC2*%
X172720000Y-91440000D03*
%TO.P,CN4,10,10*%
%TO.N,/PE13*%
X175260000Y-91440000D03*
%TO.P,CN4,11,11*%
%TO.N,/PF4*%
X172720000Y-93980000D03*
%TO.P,CN4,12,12*%
%TO.N,/PF15*%
X175260000Y-93980000D03*
%TO.P,CN4,13,13*%
%TO.N,/PB6*%
X172720000Y-96520000D03*
%TO.P,CN4,14,14*%
%TO.N,/PG14*%
X175260000Y-96520000D03*
%TO.P,CN4,15,15*%
%TO.N,/PB2*%
X172720000Y-99060000D03*
%TO.P,CN4,16,16*%
%TO.N,/PG9*%
X175260000Y-99060000D03*
%TO.P,CN4,17,17*%
%TO.N,GND*%
X172720000Y-101600000D03*
%TO.P,CN4,18,18*%
%TO.N,/PE8*%
X175260000Y-101600000D03*
%TO.P,CN4,19,19*%
%TO.N,/PD13*%
X172720000Y-104140000D03*
%TO.P,CN4,20,20*%
%TO.N,/PE7*%
X175260000Y-104140000D03*
%TO.P,CN4,21,21*%
%TO.N,/PD12*%
X172720000Y-106680000D03*
%TO.P,CN4,22,22*%
%TO.N,GND*%
X175260000Y-106680000D03*
%TO.P,CN4,23,23*%
%TO.N,/PD11*%
X172720000Y-109220000D03*
%TO.P,CN4,24,24*%
%TO.N,/PE10*%
X175260000Y-109220000D03*
%TO.P,CN4,25,25*%
%TO.N,unconnected-(CN4-Pad25)*%
X172720000Y-111760000D03*
%TO.P,CN4,26,26*%
%TO.N,/PE12*%
X175260000Y-111760000D03*
%TO.P,CN4,27,27*%
%TO.N,GND*%
X172720000Y-114300000D03*
%TO.P,CN4,28,28*%
%TO.N,/PE14*%
X175260000Y-114300000D03*
%TO.P,CN4,29,29*%
%TO.N,/PA0*%
X172720000Y-116840000D03*
%TO.P,CN4,30,30*%
%TO.N,/PE15*%
X175260000Y-116840000D03*
%TO.P,CN4,31,31*%
%TO.N,/PB0*%
X172720000Y-119380000D03*
%TO.P,CN4,32,32*%
%TO.N,/PB10*%
X175260000Y-119380000D03*
%TO.P,CN4,33,33*%
%TO.N,/PE0*%
X172720000Y-121920000D03*
%TO.P,CN4,34,34*%
%TO.N,/PB11*%
X175260000Y-121920000D03*
%TD*%
D22*
%TO.P,U2,1,3V*%
%TO.N,+3.3V*%
X154381200Y-103073200D03*
D23*
%TO.P,U2,2,GND*%
%TO.N,GND*%
X151841200Y-103073200D03*
%TO.P,U2,3,CLK*%
%TO.N,/PC12*%
X149301200Y-103073200D03*
%TO.P,U2,4,D0/SO*%
%TO.N,/PC8*%
X146761200Y-103073200D03*
%TO.P,U2,5,CMD/SI*%
%TO.N,/PD2*%
X144221200Y-103073200D03*
%TO.P,U2,6,D3/CS*%
%TO.N,/PC11*%
X141681200Y-103073200D03*
%TO.P,U2,7,DAT1*%
%TO.N,/PC9*%
X139141200Y-103073200D03*
%TO.P,U2,8,DAT2*%
%TO.N,/PC10*%
X136601200Y-103073200D03*
%TO.P,U2,9,DET*%
%TO.N,/PG2*%
X134061200Y-103073200D03*
%TD*%
D24*
%TO.N,+3.3V*%
X148420000Y-82310000D03*
%TO.N,GND*%
X139800000Y-64880000D03*
X152620000Y-53250000D03*
%TO.N,/PD0*%
X149350000Y-73470000D03*
%TO.N,/PD1*%
X157470000Y-76530000D03*
%TD*%
D25*
%TO.N,+3.3V*%
X148590000Y-82310000D02*
X148420000Y-82310000D01*
X132890000Y-76050000D02*
X139150000Y-82310000D01*
X139150000Y-82310000D02*
X148420000Y-82310000D01*
%TO.N,+5V*%
X125775000Y-74105280D02*
X126779720Y-75110000D01*
X129078451Y-56500000D02*
X129520000Y-56500000D01*
X128225000Y-75754720D02*
X128225000Y-80055000D01*
X130028000Y-56540400D02*
X129038051Y-56540400D01*
X139070000Y-56500000D02*
X129520000Y-56500000D01*
X125775000Y-59803451D02*
X125775000Y-74105280D01*
X128225000Y-80055000D02*
X127000000Y-81280000D01*
X125775000Y-59803451D02*
X129078451Y-56500000D01*
X126779720Y-75110000D02*
X127580280Y-75110000D01*
X127580280Y-75110000D02*
X128225000Y-75754720D01*
X143990000Y-61420000D02*
X139070000Y-56500000D01*
%TO.N,/PG3*%
X143142200Y-103520137D02*
X146505263Y-106883200D01*
X131775200Y-81280000D02*
X133299200Y-82804000D01*
X132791200Y-81280000D02*
X136702800Y-85191600D01*
X133299200Y-82804000D02*
X133299200Y-85039200D01*
X160618800Y-106883200D02*
X148830000Y-106883200D01*
X129540000Y-81280000D02*
X131775200Y-81280000D01*
X146505263Y-106883200D02*
X148830000Y-106883200D01*
X165140000Y-102362000D02*
X160618800Y-106883200D01*
X136702800Y-85191600D02*
X143142200Y-91631000D01*
X143142200Y-91631000D02*
X143142200Y-103520137D01*
X131775200Y-81280000D02*
X132791200Y-81280000D01*
%TO.N,+5VD*%
X127000000Y-73660000D02*
X128320800Y-72339200D01*
X128320800Y-72339200D02*
X169164000Y-72339200D01*
%TO.N,/PC12*%
X131520000Y-77130250D02*
X145669750Y-91280000D01*
X145669750Y-99441750D02*
X149301200Y-103073200D01*
X129610000Y-73660000D02*
X131520000Y-75570000D01*
X129540000Y-73660000D02*
X129610000Y-73660000D01*
X131520000Y-75570000D02*
X131520000Y-77130250D01*
X145669750Y-91280000D02*
X145669750Y-99441750D01*
%TO.N,/PD2*%
X129540000Y-76200000D02*
X144221200Y-90881200D01*
X144221200Y-90881200D02*
X144221200Y-103073200D01*
%TO.N,/PB8*%
X171196000Y-52578000D02*
X173482000Y-52578000D01*
X173482000Y-52578000D02*
X175260000Y-54356000D01*
X169164000Y-64719200D02*
X167771600Y-63326800D01*
X169926000Y-53848000D02*
X171196000Y-52578000D01*
X169926000Y-57556400D02*
X169926000Y-53848000D01*
X167771600Y-59710800D02*
X169926000Y-57556400D01*
X167771600Y-63326800D02*
X167771600Y-59710800D01*
%TO.N,/PB9*%
X169164000Y-61101570D02*
X172251970Y-58013600D01*
X174142400Y-58013600D02*
X175260000Y-56896000D01*
X172251970Y-58013600D02*
X174142400Y-58013600D01*
X169164000Y-62179200D02*
X169164000Y-61101570D01*
%TO.N,/PD0*%
X137970000Y-76050000D02*
X140550000Y-73470000D01*
X140550000Y-73470000D02*
X149350000Y-73470000D01*
%TO.N,/PD1*%
X140510000Y-76050000D02*
X156990000Y-76050000D01*
X156990000Y-76050000D02*
X157470000Y-76530000D01*
%TD*%
%TA.AperFunction,Conductor*%
%TO.N,GND*%
G36*
X177235039Y-51327685D02*
G01*
X177280794Y-51380489D01*
X177292000Y-51432000D01*
X177292000Y-123828000D01*
X177272315Y-123895039D01*
X177219511Y-123940794D01*
X177168000Y-123952000D01*
X125092000Y-123952000D01*
X125024961Y-123932315D01*
X124979206Y-123879511D01*
X124968000Y-123828000D01*
X124968000Y-121976330D01*
X125595710Y-121976330D01*
X125625925Y-122199387D01*
X125625926Y-122199390D01*
X125695483Y-122413465D01*
X125802146Y-122611678D01*
X125802148Y-122611681D01*
X125942489Y-122787663D01*
X125942491Y-122787664D01*
X125942492Y-122787666D01*
X126112004Y-122935765D01*
X126305236Y-123051215D01*
X126515976Y-123130307D01*
X126737450Y-123170500D01*
X126737453Y-123170500D01*
X127206148Y-123170500D01*
X127206155Y-123170500D01*
X127374188Y-123155377D01*
X127374192Y-123155376D01*
X127591160Y-123095496D01*
X127591162Y-123095495D01*
X127591170Y-123095493D01*
X127793973Y-122997829D01*
X127976078Y-122865522D01*
X128131632Y-122702825D01*
X128165864Y-122650964D01*
X128219221Y-122605861D01*
X128288496Y-122596763D01*
X128351692Y-122626562D01*
X128366297Y-122641963D01*
X128482489Y-122787663D01*
X128482491Y-122787664D01*
X128482492Y-122787666D01*
X128652004Y-122935765D01*
X128845236Y-123051215D01*
X129055976Y-123130307D01*
X129277450Y-123170500D01*
X129277453Y-123170500D01*
X129746148Y-123170500D01*
X129746155Y-123170500D01*
X129914188Y-123155377D01*
X129914192Y-123155376D01*
X130131160Y-123095496D01*
X130131162Y-123095495D01*
X130131170Y-123095493D01*
X130333973Y-122997829D01*
X130516078Y-122865522D01*
X130671632Y-122702825D01*
X130795635Y-122514968D01*
X130884103Y-122307988D01*
X130934191Y-122088537D01*
X130944290Y-121863670D01*
X130914075Y-121640613D01*
X130844517Y-121426536D01*
X130737852Y-121228319D01*
X130623029Y-121084336D01*
X130597510Y-121052336D01*
X130579271Y-121036401D01*
X130449280Y-120922830D01*
X132155885Y-120922830D01*
X132186328Y-121199501D01*
X132186330Y-121199512D01*
X132256729Y-121468793D01*
X132256731Y-121468799D01*
X132312007Y-121598875D01*
X132329742Y-121640609D01*
X132365593Y-121724972D01*
X132439708Y-121846415D01*
X132510590Y-121962560D01*
X132510597Y-121962569D01*
X132688640Y-122176510D01*
X132688646Y-122176516D01*
X132835378Y-122307988D01*
X132895945Y-122362256D01*
X133128083Y-122515837D01*
X133380109Y-122633982D01*
X133380116Y-122633984D01*
X133380118Y-122633985D01*
X133646639Y-122714170D01*
X133646646Y-122714171D01*
X133646651Y-122714173D01*
X133922028Y-122754700D01*
X133922033Y-122754700D01*
X134130687Y-122754700D01*
X134130689Y-122754700D01*
X134130694Y-122754699D01*
X134130706Y-122754699D01*
X134169286Y-122751875D01*
X134338801Y-122739468D01*
X134452355Y-122714173D01*
X134610479Y-122678950D01*
X134610481Y-122678949D01*
X134610486Y-122678948D01*
X134870463Y-122579515D01*
X135113193Y-122443289D01*
X135333501Y-122273172D01*
X135526692Y-122072792D01*
X135688649Y-121846418D01*
X135751088Y-121724972D01*
X135815912Y-121598890D01*
X135815914Y-121598883D01*
X135815919Y-121598875D01*
X135897163Y-121360731D01*
X135905787Y-121335452D01*
X135905787Y-121335448D01*
X135905791Y-121335439D01*
X135956348Y-121061726D01*
X135961424Y-120922830D01*
X152475885Y-120922830D01*
X152506328Y-121199501D01*
X152506330Y-121199512D01*
X152576729Y-121468793D01*
X152576731Y-121468799D01*
X152632007Y-121598875D01*
X152649742Y-121640609D01*
X152685593Y-121724972D01*
X152759708Y-121846415D01*
X152830590Y-121962560D01*
X152830597Y-121962569D01*
X153008640Y-122176510D01*
X153008646Y-122176516D01*
X153155378Y-122307988D01*
X153215945Y-122362256D01*
X153448083Y-122515837D01*
X153700109Y-122633982D01*
X153700116Y-122633984D01*
X153700118Y-122633985D01*
X153966639Y-122714170D01*
X153966646Y-122714171D01*
X153966651Y-122714173D01*
X154242028Y-122754700D01*
X154242033Y-122754700D01*
X154450687Y-122754700D01*
X154450689Y-122754700D01*
X154450694Y-122754699D01*
X154450706Y-122754699D01*
X154489286Y-122751875D01*
X154658801Y-122739468D01*
X154772355Y-122714173D01*
X154930479Y-122678950D01*
X154930481Y-122678949D01*
X154930486Y-122678948D01*
X155190463Y-122579515D01*
X155433193Y-122443289D01*
X155653501Y-122273172D01*
X155846692Y-122072792D01*
X155915705Y-121976330D01*
X171315710Y-121976330D01*
X171345925Y-122199387D01*
X171345926Y-122199390D01*
X171415483Y-122413465D01*
X171522146Y-122611678D01*
X171522148Y-122611681D01*
X171662489Y-122787663D01*
X171662491Y-122787664D01*
X171662492Y-122787666D01*
X171832004Y-122935765D01*
X172025236Y-123051215D01*
X172235976Y-123130307D01*
X172457450Y-123170500D01*
X172457453Y-123170500D01*
X172926148Y-123170500D01*
X172926155Y-123170500D01*
X173094188Y-123155377D01*
X173094192Y-123155376D01*
X173311160Y-123095496D01*
X173311162Y-123095495D01*
X173311170Y-123095493D01*
X173513973Y-122997829D01*
X173696078Y-122865522D01*
X173851632Y-122702825D01*
X173885864Y-122650964D01*
X173939221Y-122605861D01*
X174008496Y-122596763D01*
X174071692Y-122626562D01*
X174086297Y-122641963D01*
X174202489Y-122787663D01*
X174202491Y-122787664D01*
X174202492Y-122787666D01*
X174372004Y-122935765D01*
X174565236Y-123051215D01*
X174775976Y-123130307D01*
X174997450Y-123170500D01*
X174997453Y-123170500D01*
X175466148Y-123170500D01*
X175466155Y-123170500D01*
X175634188Y-123155377D01*
X175634192Y-123155376D01*
X175851160Y-123095496D01*
X175851162Y-123095495D01*
X175851170Y-123095493D01*
X176053973Y-122997829D01*
X176236078Y-122865522D01*
X176391632Y-122702825D01*
X176515635Y-122514968D01*
X176604103Y-122307988D01*
X176654191Y-122088537D01*
X176664290Y-121863670D01*
X176634075Y-121640613D01*
X176564517Y-121426536D01*
X176457852Y-121228319D01*
X176343029Y-121084336D01*
X176317510Y-121052336D01*
X176299271Y-121036401D01*
X176147996Y-120904235D01*
X175954767Y-120788787D01*
X175954768Y-120788787D01*
X175954766Y-120788786D01*
X175954764Y-120788785D01*
X175895896Y-120766691D01*
X175840050Y-120724706D01*
X175815767Y-120659191D01*
X175830759Y-120590949D01*
X175880265Y-120541645D01*
X175885610Y-120538907D01*
X176053973Y-120457829D01*
X176236078Y-120325522D01*
X176391632Y-120162825D01*
X176515635Y-119974968D01*
X176604103Y-119767988D01*
X176654191Y-119548537D01*
X176664290Y-119323670D01*
X176634075Y-119100613D01*
X176564517Y-118886536D01*
X176457852Y-118688319D01*
X176385167Y-118597175D01*
X176317510Y-118512336D01*
X176314082Y-118509341D01*
X176147996Y-118364235D01*
X175954767Y-118248787D01*
X175954768Y-118248787D01*
X175954766Y-118248786D01*
X175954764Y-118248785D01*
X175895896Y-118226691D01*
X175840050Y-118184706D01*
X175815767Y-118119191D01*
X175830759Y-118050949D01*
X175880265Y-118001645D01*
X175885610Y-117998907D01*
X176053973Y-117917829D01*
X176236078Y-117785522D01*
X176391632Y-117622825D01*
X176515635Y-117434968D01*
X176604103Y-117227988D01*
X176654191Y-117008537D01*
X176664290Y-116783670D01*
X176634075Y-116560613D01*
X176564517Y-116346536D01*
X176457852Y-116148319D01*
X176367274Y-116034738D01*
X176317510Y-115972336D01*
X176317508Y-115972334D01*
X176147996Y-115824235D01*
X175954767Y-115708787D01*
X175954768Y-115708787D01*
X175954766Y-115708786D01*
X175954764Y-115708785D01*
X175895896Y-115686691D01*
X175840050Y-115644706D01*
X175815767Y-115579191D01*
X175830759Y-115510949D01*
X175880265Y-115461645D01*
X175885610Y-115458907D01*
X176053973Y-115377829D01*
X176236078Y-115245522D01*
X176391632Y-115082825D01*
X176515635Y-114894968D01*
X176604103Y-114687988D01*
X176654191Y-114468537D01*
X176664290Y-114243670D01*
X176634075Y-114020613D01*
X176564517Y-113806536D01*
X176457852Y-113608319D01*
X176411070Y-113549657D01*
X176317510Y-113432336D01*
X176317508Y-113432334D01*
X176147996Y-113284235D01*
X175954767Y-113168787D01*
X175954768Y-113168787D01*
X175954766Y-113168786D01*
X175954764Y-113168785D01*
X175895896Y-113146691D01*
X175840050Y-113104706D01*
X175815767Y-113039191D01*
X175830759Y-112970949D01*
X175880265Y-112921645D01*
X175885610Y-112918907D01*
X176053973Y-112837829D01*
X176236078Y-112705522D01*
X176391632Y-112542825D01*
X176515635Y-112354968D01*
X176560647Y-112249659D01*
X176604100Y-112147995D01*
X176604099Y-112147995D01*
X176604103Y-112147988D01*
X176654191Y-111928537D01*
X176664290Y-111703670D01*
X176634075Y-111480613D01*
X176564517Y-111266536D01*
X176457852Y-111068319D01*
X176373729Y-110962833D01*
X176317510Y-110892336D01*
X176317508Y-110892334D01*
X176147996Y-110744235D01*
X175954767Y-110628787D01*
X175954768Y-110628787D01*
X175954766Y-110628786D01*
X175954764Y-110628785D01*
X175895896Y-110606691D01*
X175840050Y-110564706D01*
X175815767Y-110499191D01*
X175830759Y-110430949D01*
X175880265Y-110381645D01*
X175885610Y-110378907D01*
X176053973Y-110297829D01*
X176236078Y-110165522D01*
X176391632Y-110002825D01*
X176515635Y-109814968D01*
X176555117Y-109722597D01*
X176604100Y-109607995D01*
X176604099Y-109607995D01*
X176604103Y-109607988D01*
X176654191Y-109388537D01*
X176664290Y-109163670D01*
X176634075Y-108940613D01*
X176564517Y-108726536D01*
X176457852Y-108528319D01*
X176348793Y-108391564D01*
X176317510Y-108352336D01*
X176317508Y-108352334D01*
X176147996Y-108204235D01*
X175954764Y-108088785D01*
X175836775Y-108044503D01*
X175744023Y-108009692D01*
X175522550Y-107969500D01*
X175522547Y-107969500D01*
X175053845Y-107969500D01*
X175015399Y-107972960D01*
X174885813Y-107984622D01*
X174885807Y-107984623D01*
X174668839Y-108044503D01*
X174668826Y-108044508D01*
X174466033Y-108142167D01*
X174466025Y-108142171D01*
X174283927Y-108274473D01*
X174283925Y-108274474D01*
X174128367Y-108437175D01*
X174094134Y-108489036D01*
X174040774Y-108534140D01*
X173971498Y-108543235D01*
X173908303Y-108513434D01*
X173893701Y-108498035D01*
X173777512Y-108352338D01*
X173777509Y-108352335D01*
X173777508Y-108352334D01*
X173607996Y-108204235D01*
X173414767Y-108088787D01*
X173414768Y-108088787D01*
X173414766Y-108088786D01*
X173414764Y-108088785D01*
X173355896Y-108066691D01*
X173300050Y-108024706D01*
X173275767Y-107959191D01*
X173290759Y-107890949D01*
X173340265Y-107841645D01*
X173345610Y-107838907D01*
X173513973Y-107757829D01*
X173696078Y-107625522D01*
X173851632Y-107462825D01*
X173975635Y-107274968D01*
X174064103Y-107067988D01*
X174114191Y-106848537D01*
X174124290Y-106623670D01*
X174094075Y-106400613D01*
X174024517Y-106186536D01*
X173917852Y-105988319D01*
X173845167Y-105897175D01*
X173777510Y-105812336D01*
X173777508Y-105812334D01*
X173607996Y-105664235D01*
X173414767Y-105548787D01*
X173414768Y-105548787D01*
X173414766Y-105548786D01*
X173414764Y-105548785D01*
X173355896Y-105526691D01*
X173300050Y-105484706D01*
X173275767Y-105419191D01*
X173290759Y-105350949D01*
X173340265Y-105301645D01*
X173345610Y-105298907D01*
X173513973Y-105217829D01*
X173696078Y-105085522D01*
X173851632Y-104922825D01*
X173885864Y-104870964D01*
X173939221Y-104825861D01*
X174008496Y-104816763D01*
X174071692Y-104846562D01*
X174086297Y-104861963D01*
X174202489Y-105007663D01*
X174202491Y-105007664D01*
X174202492Y-105007666D01*
X174372004Y-105155765D01*
X174565236Y-105271215D01*
X174735969Y-105335292D01*
X174775976Y-105350307D01*
X174997450Y-105390500D01*
X174997453Y-105390500D01*
X175466148Y-105390500D01*
X175466155Y-105390500D01*
X175634188Y-105375377D01*
X175722700Y-105350949D01*
X175851160Y-105315496D01*
X175851162Y-105315495D01*
X175851170Y-105315493D01*
X176053973Y-105217829D01*
X176236078Y-105085522D01*
X176391632Y-104922825D01*
X176515635Y-104734968D01*
X176604103Y-104527988D01*
X176654191Y-104308537D01*
X176664290Y-104083670D01*
X176634075Y-103860613D01*
X176564517Y-103646536D01*
X176529065Y-103580656D01*
X176457853Y-103448321D01*
X176457851Y-103448318D01*
X176445981Y-103433434D01*
X176406081Y-103383401D01*
X176317510Y-103272336D01*
X176308879Y-103264795D01*
X176147996Y-103124235D01*
X175954767Y-103008787D01*
X175954768Y-103008787D01*
X175954766Y-103008786D01*
X175954764Y-103008785D01*
X175895896Y-102986691D01*
X175840050Y-102944706D01*
X175815767Y-102879191D01*
X175830759Y-102810949D01*
X175880265Y-102761645D01*
X175885610Y-102758907D01*
X176053973Y-102677829D01*
X176236078Y-102545522D01*
X176391632Y-102382825D01*
X176515635Y-102194968D01*
X176533560Y-102153032D01*
X176604100Y-101987995D01*
X176604099Y-101987995D01*
X176604103Y-101987988D01*
X176654191Y-101768537D01*
X176664290Y-101543670D01*
X176634075Y-101320613D01*
X176564517Y-101106536D01*
X176527618Y-101037967D01*
X176457853Y-100908321D01*
X176457851Y-100908318D01*
X176445981Y-100893434D01*
X176348793Y-100771564D01*
X176317510Y-100732336D01*
X176317508Y-100732334D01*
X176147996Y-100584235D01*
X175954767Y-100468787D01*
X175954768Y-100468787D01*
X175954766Y-100468786D01*
X175954764Y-100468785D01*
X175895896Y-100446691D01*
X175840050Y-100404706D01*
X175815767Y-100339191D01*
X175830759Y-100270949D01*
X175880265Y-100221645D01*
X175885610Y-100218907D01*
X176053973Y-100137829D01*
X176236078Y-100005522D01*
X176391632Y-99842825D01*
X176515635Y-99654968D01*
X176604103Y-99447988D01*
X176654191Y-99228537D01*
X176664290Y-99003670D01*
X176634075Y-98780613D01*
X176564517Y-98566536D01*
X176457852Y-98368319D01*
X176385167Y-98277175D01*
X176317510Y-98192336D01*
X176317508Y-98192334D01*
X176147996Y-98044235D01*
X175954767Y-97928787D01*
X175954768Y-97928787D01*
X175954766Y-97928786D01*
X175954764Y-97928785D01*
X175895896Y-97906691D01*
X175840050Y-97864706D01*
X175815767Y-97799191D01*
X175830759Y-97730949D01*
X175880265Y-97681645D01*
X175885610Y-97678907D01*
X176053973Y-97597829D01*
X176236078Y-97465522D01*
X176391632Y-97302825D01*
X176515635Y-97114968D01*
X176604103Y-96907988D01*
X176654191Y-96688537D01*
X176664290Y-96463670D01*
X176634075Y-96240613D01*
X176564517Y-96026536D01*
X176457852Y-95828319D01*
X176392839Y-95746796D01*
X176317510Y-95652336D01*
X176317508Y-95652334D01*
X176147996Y-95504235D01*
X175954767Y-95388787D01*
X175954768Y-95388787D01*
X175954766Y-95388786D01*
X175954764Y-95388785D01*
X175895896Y-95366691D01*
X175840050Y-95324706D01*
X175815767Y-95259191D01*
X175830759Y-95190949D01*
X175880265Y-95141645D01*
X175885610Y-95138907D01*
X176053973Y-95057829D01*
X176236078Y-94925522D01*
X176391632Y-94762825D01*
X176515635Y-94574968D01*
X176604103Y-94367988D01*
X176654191Y-94148537D01*
X176664290Y-93923670D01*
X176634075Y-93700613D01*
X176564517Y-93486536D01*
X176457852Y-93288319D01*
X176385167Y-93197175D01*
X176317510Y-93112336D01*
X176317508Y-93112334D01*
X176147996Y-92964235D01*
X175954767Y-92848787D01*
X175954768Y-92848787D01*
X175954766Y-92848786D01*
X175954764Y-92848785D01*
X175895896Y-92826691D01*
X175840050Y-92784706D01*
X175815767Y-92719191D01*
X175830759Y-92650949D01*
X175880265Y-92601645D01*
X175885610Y-92598907D01*
X176053973Y-92517829D01*
X176236078Y-92385522D01*
X176391632Y-92222825D01*
X176515635Y-92034968D01*
X176604103Y-91827988D01*
X176654191Y-91608537D01*
X176664290Y-91383670D01*
X176634075Y-91160613D01*
X176564517Y-90946536D01*
X176561502Y-90940934D01*
X176457853Y-90748321D01*
X176457851Y-90748318D01*
X176445981Y-90733434D01*
X176385167Y-90657175D01*
X176317510Y-90572336D01*
X176317508Y-90572334D01*
X176147996Y-90424235D01*
X175954767Y-90308787D01*
X175954768Y-90308787D01*
X175954766Y-90308786D01*
X175954764Y-90308785D01*
X175895896Y-90286691D01*
X175840050Y-90244706D01*
X175815767Y-90179191D01*
X175830759Y-90110949D01*
X175880265Y-90061645D01*
X175885610Y-90058907D01*
X176053973Y-89977829D01*
X176236078Y-89845522D01*
X176391632Y-89682825D01*
X176515635Y-89494968D01*
X176604103Y-89287988D01*
X176654191Y-89068537D01*
X176664290Y-88843670D01*
X176634075Y-88620613D01*
X176564517Y-88406536D01*
X176457852Y-88208319D01*
X176385167Y-88117175D01*
X176317510Y-88032336D01*
X176317508Y-88032334D01*
X176147996Y-87884235D01*
X175954767Y-87768787D01*
X175954768Y-87768787D01*
X175954766Y-87768786D01*
X175954764Y-87768785D01*
X175895896Y-87746691D01*
X175840050Y-87704706D01*
X175815767Y-87639191D01*
X175830759Y-87570949D01*
X175880265Y-87521645D01*
X175885610Y-87518907D01*
X176053973Y-87437829D01*
X176236078Y-87305522D01*
X176391632Y-87142825D01*
X176515635Y-86954968D01*
X176604103Y-86747988D01*
X176654191Y-86528537D01*
X176664290Y-86303670D01*
X176634075Y-86080613D01*
X176564517Y-85866536D01*
X176457852Y-85668319D01*
X176411070Y-85609657D01*
X176317510Y-85492336D01*
X176279187Y-85458854D01*
X176147996Y-85344235D01*
X175954767Y-85228787D01*
X175954768Y-85228787D01*
X175954766Y-85228786D01*
X175954764Y-85228785D01*
X175895896Y-85206691D01*
X175840050Y-85164706D01*
X175815767Y-85099191D01*
X175830759Y-85030949D01*
X175880265Y-84981645D01*
X175885610Y-84978907D01*
X176053973Y-84897829D01*
X176236078Y-84765522D01*
X176391632Y-84602825D01*
X176515635Y-84414968D01*
X176527818Y-84386466D01*
X176604100Y-84207995D01*
X176604099Y-84207995D01*
X176604103Y-84207988D01*
X176654191Y-83988537D01*
X176664290Y-83763670D01*
X176634075Y-83540613D01*
X176564517Y-83326536D01*
X176457852Y-83128319D01*
X176319782Y-82955185D01*
X176317510Y-82952336D01*
X176317508Y-82952334D01*
X176147996Y-82804235D01*
X175954767Y-82688787D01*
X175954768Y-82688787D01*
X175954766Y-82688786D01*
X175954764Y-82688785D01*
X175895896Y-82666691D01*
X175840050Y-82624706D01*
X175815767Y-82559191D01*
X175830759Y-82490949D01*
X175880265Y-82441645D01*
X175885610Y-82438907D01*
X176053973Y-82357829D01*
X176236078Y-82225522D01*
X176391632Y-82062825D01*
X176515635Y-81874968D01*
X176604103Y-81667988D01*
X176654191Y-81448537D01*
X176664290Y-81223670D01*
X176634075Y-81000613D01*
X176564517Y-80786536D01*
X176457852Y-80588319D01*
X176411070Y-80529657D01*
X176317510Y-80412336D01*
X176279187Y-80378854D01*
X176147996Y-80264235D01*
X175954764Y-80148785D01*
X175836037Y-80104226D01*
X175744023Y-80069692D01*
X175522550Y-80029500D01*
X175522547Y-80029500D01*
X175053845Y-80029500D01*
X175015645Y-80032938D01*
X174885813Y-80044622D01*
X174885807Y-80044623D01*
X174668839Y-80104503D01*
X174668826Y-80104508D01*
X174466033Y-80202167D01*
X174466025Y-80202171D01*
X174283927Y-80334473D01*
X174283917Y-80334481D01*
X174274814Y-80344003D01*
X174214257Y-80378854D01*
X174144471Y-80375433D01*
X174087613Y-80334825D01*
X174069008Y-80301642D01*
X174063797Y-80287671D01*
X174063793Y-80287664D01*
X173977547Y-80172455D01*
X173977544Y-80172452D01*
X173862335Y-80086206D01*
X173862328Y-80086202D01*
X173727482Y-80035908D01*
X173727483Y-80035908D01*
X173667883Y-80029501D01*
X173667881Y-80029500D01*
X173667873Y-80029500D01*
X173667864Y-80029500D01*
X171772129Y-80029500D01*
X171772123Y-80029501D01*
X171712516Y-80035908D01*
X171577671Y-80086202D01*
X171577664Y-80086206D01*
X171462455Y-80172452D01*
X171462452Y-80172455D01*
X171376206Y-80287664D01*
X171376202Y-80287671D01*
X171325908Y-80422517D01*
X171319501Y-80482116D01*
X171319500Y-80482135D01*
X171319500Y-82077870D01*
X171319501Y-82077876D01*
X171325908Y-82137483D01*
X171376202Y-82272328D01*
X171376206Y-82272335D01*
X171462452Y-82387544D01*
X171462455Y-82387547D01*
X171577664Y-82473793D01*
X171577671Y-82473797D01*
X171712517Y-82524091D01*
X171712516Y-82524091D01*
X171719444Y-82524835D01*
X171772127Y-82530500D01*
X171835735Y-82530499D01*
X171902772Y-82550183D01*
X171948528Y-82602986D01*
X171958472Y-82672144D01*
X171929448Y-82735700D01*
X171908620Y-82754817D01*
X171743924Y-82874476D01*
X171588366Y-83037176D01*
X171464363Y-83225033D01*
X171375899Y-83432004D01*
X171375895Y-83432017D01*
X171325810Y-83651457D01*
X171325808Y-83651468D01*
X171315904Y-83872009D01*
X171315710Y-83876330D01*
X171345925Y-84099387D01*
X171345926Y-84099390D01*
X171415483Y-84313465D01*
X171522146Y-84511678D01*
X171522148Y-84511681D01*
X171662489Y-84687663D01*
X171662491Y-84687664D01*
X171662492Y-84687666D01*
X171832004Y-84835765D01*
X172025236Y-84951215D01*
X172195969Y-85015292D01*
X172235976Y-85030307D01*
X172457450Y-85070500D01*
X172457453Y-85070500D01*
X172926148Y-85070500D01*
X172926155Y-85070500D01*
X173094188Y-85055377D01*
X173152800Y-85039201D01*
X173311160Y-84995496D01*
X173311162Y-84995495D01*
X173311170Y-84995493D01*
X173513973Y-84897829D01*
X173696078Y-84765522D01*
X173851632Y-84602825D01*
X173885864Y-84550964D01*
X173939221Y-84505861D01*
X174008496Y-84496763D01*
X174071692Y-84526562D01*
X174086297Y-84541963D01*
X174202489Y-84687663D01*
X174202491Y-84687664D01*
X174202492Y-84687666D01*
X174372004Y-84835765D01*
X174565236Y-84951215D01*
X174624102Y-84973307D01*
X174679949Y-85015292D01*
X174704232Y-85080806D01*
X174689241Y-85149049D01*
X174639735Y-85198353D01*
X174634331Y-85201120D01*
X174466033Y-85282167D01*
X174466025Y-85282171D01*
X174283927Y-85414473D01*
X174283925Y-85414474D01*
X174128366Y-85577176D01*
X174004363Y-85765033D01*
X173915899Y-85972004D01*
X173915895Y-85972017D01*
X173865810Y-86191457D01*
X173865808Y-86191468D01*
X173856798Y-86392100D01*
X173855710Y-86416330D01*
X173885925Y-86639387D01*
X173885926Y-86639390D01*
X173955483Y-86853465D01*
X174062146Y-87051678D01*
X174062148Y-87051681D01*
X174202489Y-87227663D01*
X174202491Y-87227664D01*
X174202492Y-87227666D01*
X174372004Y-87375765D01*
X174565236Y-87491215D01*
X174624102Y-87513307D01*
X174679949Y-87555292D01*
X174704232Y-87620806D01*
X174689241Y-87689049D01*
X174639735Y-87738353D01*
X174634331Y-87741120D01*
X174466033Y-87822167D01*
X174466025Y-87822171D01*
X174283927Y-87954473D01*
X174283925Y-87954474D01*
X174128367Y-88117175D01*
X174094134Y-88169036D01*
X174040774Y-88214140D01*
X173971498Y-88223235D01*
X173908303Y-88193434D01*
X173893701Y-88178035D01*
X173777512Y-88032338D01*
X173777509Y-88032335D01*
X173777508Y-88032334D01*
X173607996Y-87884235D01*
X173414764Y-87768785D01*
X173287087Y-87720867D01*
X173204023Y-87689692D01*
X172982550Y-87649500D01*
X172982547Y-87649500D01*
X172513845Y-87649500D01*
X172475399Y-87652960D01*
X172345813Y-87664622D01*
X172345807Y-87664623D01*
X172128839Y-87724503D01*
X172128826Y-87724508D01*
X171926033Y-87822167D01*
X171926025Y-87822171D01*
X171743927Y-87954473D01*
X171743925Y-87954474D01*
X171588366Y-88117176D01*
X171464363Y-88305033D01*
X171375899Y-88512004D01*
X171375895Y-88512017D01*
X171325810Y-88731457D01*
X171325808Y-88731468D01*
X171320769Y-88843674D01*
X171315710Y-88956330D01*
X171345925Y-89179387D01*
X171345926Y-89179390D01*
X171415483Y-89393465D01*
X171522146Y-89591678D01*
X171522148Y-89591681D01*
X171662489Y-89767663D01*
X171662491Y-89767664D01*
X171662492Y-89767666D01*
X171832004Y-89915765D01*
X172025236Y-90031215D01*
X172084102Y-90053307D01*
X172139949Y-90095292D01*
X172164232Y-90160806D01*
X172149241Y-90229049D01*
X172099735Y-90278353D01*
X172094331Y-90281120D01*
X171926033Y-90362167D01*
X171926025Y-90362171D01*
X171743927Y-90494473D01*
X171743925Y-90494474D01*
X171588366Y-90657176D01*
X171464363Y-90845033D01*
X171375899Y-91052004D01*
X171375895Y-91052017D01*
X171325810Y-91271457D01*
X171325808Y-91271468D01*
X171320769Y-91383674D01*
X171315710Y-91496330D01*
X171345925Y-91719387D01*
X171345926Y-91719390D01*
X171415483Y-91933465D01*
X171522146Y-92131678D01*
X171522148Y-92131681D01*
X171662489Y-92307663D01*
X171662491Y-92307664D01*
X171662492Y-92307666D01*
X171832004Y-92455765D01*
X172025236Y-92571215D01*
X172084102Y-92593307D01*
X172139949Y-92635292D01*
X172164232Y-92700806D01*
X172149241Y-92769049D01*
X172099735Y-92818353D01*
X172094331Y-92821120D01*
X171926033Y-92902167D01*
X171926025Y-92902171D01*
X171743927Y-93034473D01*
X171743925Y-93034474D01*
X171588366Y-93197176D01*
X171464363Y-93385033D01*
X171375899Y-93592004D01*
X171375895Y-93592017D01*
X171325810Y-93811457D01*
X171325808Y-93811468D01*
X171315710Y-94036325D01*
X171315710Y-94036330D01*
X171345925Y-94259387D01*
X171345926Y-94259390D01*
X171415483Y-94473465D01*
X171522146Y-94671678D01*
X171522148Y-94671681D01*
X171662489Y-94847663D01*
X171662491Y-94847664D01*
X171662492Y-94847666D01*
X171832004Y-94995765D01*
X172025236Y-95111215D01*
X172084102Y-95133307D01*
X172139949Y-95175292D01*
X172164232Y-95240806D01*
X172149241Y-95309049D01*
X172099735Y-95358353D01*
X172094331Y-95361120D01*
X171926033Y-95442167D01*
X171926025Y-95442171D01*
X171743927Y-95574473D01*
X171743925Y-95574474D01*
X171588366Y-95737176D01*
X171464363Y-95925033D01*
X171375899Y-96132004D01*
X171375895Y-96132017D01*
X171325810Y-96351457D01*
X171325808Y-96351468D01*
X171320769Y-96463674D01*
X171315710Y-96576330D01*
X171345925Y-96799387D01*
X171345926Y-96799390D01*
X171415483Y-97013465D01*
X171522146Y-97211678D01*
X171522148Y-97211681D01*
X171662489Y-97387663D01*
X171662491Y-97387664D01*
X171662492Y-97387666D01*
X171832004Y-97535765D01*
X172025236Y-97651215D01*
X172084102Y-97673307D01*
X172139949Y-97715292D01*
X172164232Y-97780806D01*
X172149241Y-97849049D01*
X172099735Y-97898353D01*
X172094331Y-97901120D01*
X171926033Y-97982167D01*
X171926025Y-97982171D01*
X171743927Y-98114473D01*
X171743925Y-98114474D01*
X171588366Y-98277176D01*
X171464363Y-98465033D01*
X171375899Y-98672004D01*
X171375895Y-98672017D01*
X171325810Y-98891457D01*
X171325808Y-98891468D01*
X171320769Y-99003674D01*
X171315710Y-99116330D01*
X171345925Y-99339387D01*
X171345926Y-99339390D01*
X171415483Y-99553465D01*
X171522146Y-99751678D01*
X171522148Y-99751681D01*
X171662489Y-99927663D01*
X171662491Y-99927664D01*
X171662492Y-99927666D01*
X171832004Y-100075765D01*
X172025236Y-100191215D01*
X172195969Y-100255292D01*
X172235976Y-100270307D01*
X172457450Y-100310500D01*
X172457453Y-100310500D01*
X172926148Y-100310500D01*
X172926155Y-100310500D01*
X173094188Y-100295377D01*
X173182700Y-100270949D01*
X173311160Y-100235496D01*
X173311162Y-100235495D01*
X173311170Y-100235493D01*
X173513973Y-100137829D01*
X173696078Y-100005522D01*
X173851632Y-99842825D01*
X173885864Y-99790964D01*
X173939221Y-99745861D01*
X174008496Y-99736763D01*
X174071692Y-99766562D01*
X174086297Y-99781963D01*
X174202489Y-99927663D01*
X174202491Y-99927664D01*
X174202492Y-99927666D01*
X174372004Y-100075765D01*
X174565236Y-100191215D01*
X174624102Y-100213307D01*
X174679949Y-100255292D01*
X174704232Y-100320806D01*
X174689241Y-100389049D01*
X174639735Y-100438353D01*
X174634331Y-100441120D01*
X174466033Y-100522167D01*
X174466025Y-100522171D01*
X174283927Y-100654473D01*
X174283925Y-100654474D01*
X174128366Y-100817176D01*
X174004363Y-101005033D01*
X173915899Y-101212004D01*
X173915895Y-101212017D01*
X173865810Y-101431457D01*
X173865808Y-101431468D01*
X173855710Y-101656325D01*
X173855710Y-101656330D01*
X173885925Y-101879387D01*
X173885926Y-101879390D01*
X173955483Y-102093465D01*
X174062146Y-102291678D01*
X174062148Y-102291681D01*
X174202489Y-102467663D01*
X174202491Y-102467664D01*
X174202492Y-102467666D01*
X174372004Y-102615765D01*
X174565236Y-102731215D01*
X174624102Y-102753307D01*
X174679949Y-102795292D01*
X174704232Y-102860806D01*
X174689241Y-102929049D01*
X174639735Y-102978353D01*
X174634331Y-102981120D01*
X174466033Y-103062167D01*
X174466025Y-103062171D01*
X174283927Y-103194473D01*
X174283925Y-103194474D01*
X174128367Y-103357175D01*
X174094134Y-103409036D01*
X174040774Y-103454140D01*
X173971498Y-103463235D01*
X173908303Y-103433434D01*
X173893701Y-103418035D01*
X173892608Y-103416665D01*
X173866081Y-103383401D01*
X173777512Y-103272338D01*
X173777509Y-103272335D01*
X173777508Y-103272334D01*
X173607996Y-103124235D01*
X173414764Y-103008785D01*
X173296775Y-102964503D01*
X173204023Y-102929692D01*
X172982550Y-102889500D01*
X172982547Y-102889500D01*
X172513845Y-102889500D01*
X172475399Y-102892960D01*
X172345813Y-102904622D01*
X172345807Y-102904623D01*
X172128839Y-102964503D01*
X172128826Y-102964508D01*
X171926033Y-103062167D01*
X171926025Y-103062171D01*
X171743927Y-103194473D01*
X171743925Y-103194474D01*
X171588366Y-103357176D01*
X171464363Y-103545033D01*
X171375899Y-103752004D01*
X171375895Y-103752017D01*
X171325810Y-103971457D01*
X171325808Y-103971468D01*
X171317538Y-104155625D01*
X171315710Y-104196330D01*
X171345925Y-104419387D01*
X171345926Y-104419390D01*
X171415483Y-104633465D01*
X171522146Y-104831678D01*
X171522148Y-104831681D01*
X171662489Y-105007663D01*
X171662491Y-105007664D01*
X171662492Y-105007666D01*
X171832004Y-105155765D01*
X172025236Y-105271215D01*
X172084102Y-105293307D01*
X172139949Y-105335292D01*
X172164232Y-105400806D01*
X172149241Y-105469049D01*
X172099735Y-105518353D01*
X172094331Y-105521120D01*
X171926033Y-105602167D01*
X171926025Y-105602171D01*
X171743927Y-105734473D01*
X171743925Y-105734474D01*
X171588366Y-105897176D01*
X171464363Y-106085033D01*
X171375899Y-106292004D01*
X171375895Y-106292017D01*
X171325810Y-106511457D01*
X171325808Y-106511468D01*
X171320769Y-106623674D01*
X171315710Y-106736330D01*
X171345925Y-106959387D01*
X171345926Y-106959390D01*
X171415483Y-107173465D01*
X171522146Y-107371678D01*
X171522148Y-107371681D01*
X171662489Y-107547663D01*
X171662491Y-107547664D01*
X171662492Y-107547666D01*
X171832004Y-107695765D01*
X172025236Y-107811215D01*
X172084102Y-107833307D01*
X172139949Y-107875292D01*
X172164232Y-107940806D01*
X172149241Y-108009049D01*
X172099735Y-108058353D01*
X172094331Y-108061120D01*
X171926033Y-108142167D01*
X171926025Y-108142171D01*
X171743927Y-108274473D01*
X171743925Y-108274474D01*
X171588366Y-108437176D01*
X171464363Y-108625033D01*
X171375899Y-108832004D01*
X171375895Y-108832017D01*
X171325810Y-109051457D01*
X171325808Y-109051468D01*
X171317416Y-109238341D01*
X171315710Y-109276330D01*
X171345925Y-109499387D01*
X171345926Y-109499390D01*
X171415483Y-109713465D01*
X171522146Y-109911678D01*
X171522148Y-109911681D01*
X171662489Y-110087663D01*
X171662491Y-110087664D01*
X171662492Y-110087666D01*
X171832004Y-110235765D01*
X172025236Y-110351215D01*
X172084102Y-110373307D01*
X172139949Y-110415292D01*
X172164232Y-110480806D01*
X172149241Y-110549049D01*
X172099735Y-110598353D01*
X172094331Y-110601120D01*
X171926033Y-110682167D01*
X171926025Y-110682171D01*
X171743927Y-110814473D01*
X171743925Y-110814474D01*
X171588366Y-110977176D01*
X171464363Y-111165033D01*
X171375899Y-111372004D01*
X171375895Y-111372017D01*
X171325810Y-111591457D01*
X171325808Y-111591468D01*
X171315844Y-111813336D01*
X171315710Y-111816330D01*
X171345925Y-112039387D01*
X171345926Y-112039390D01*
X171415483Y-112253465D01*
X171522146Y-112451678D01*
X171522148Y-112451681D01*
X171662489Y-112627663D01*
X171662491Y-112627664D01*
X171662492Y-112627666D01*
X171832004Y-112775765D01*
X172025236Y-112891215D01*
X172195969Y-112955292D01*
X172235976Y-112970307D01*
X172457450Y-113010500D01*
X172457453Y-113010500D01*
X172926148Y-113010500D01*
X172926155Y-113010500D01*
X173094188Y-112995377D01*
X173182700Y-112970949D01*
X173311160Y-112935496D01*
X173311162Y-112935495D01*
X173311170Y-112935493D01*
X173513973Y-112837829D01*
X173696078Y-112705522D01*
X173851632Y-112542825D01*
X173885864Y-112490964D01*
X173939221Y-112445861D01*
X174008496Y-112436763D01*
X174071692Y-112466562D01*
X174086297Y-112481963D01*
X174202489Y-112627663D01*
X174202491Y-112627664D01*
X174202492Y-112627666D01*
X174372004Y-112775765D01*
X174565236Y-112891215D01*
X174624102Y-112913307D01*
X174679949Y-112955292D01*
X174704232Y-113020806D01*
X174689241Y-113089049D01*
X174639735Y-113138353D01*
X174634331Y-113141120D01*
X174466033Y-113222167D01*
X174466025Y-113222171D01*
X174283927Y-113354473D01*
X174283925Y-113354474D01*
X174128366Y-113517176D01*
X174004363Y-113705033D01*
X173915899Y-113912004D01*
X173915895Y-113912017D01*
X173865810Y-114131457D01*
X173865808Y-114131468D01*
X173860769Y-114243674D01*
X173855710Y-114356330D01*
X173885925Y-114579387D01*
X173885926Y-114579390D01*
X173955483Y-114793465D01*
X174062146Y-114991678D01*
X174062148Y-114991681D01*
X174202489Y-115167663D01*
X174202491Y-115167664D01*
X174202492Y-115167666D01*
X174372004Y-115315765D01*
X174565236Y-115431215D01*
X174624102Y-115453307D01*
X174679949Y-115495292D01*
X174704232Y-115560806D01*
X174689241Y-115629049D01*
X174639735Y-115678353D01*
X174634331Y-115681120D01*
X174466033Y-115762167D01*
X174466025Y-115762171D01*
X174283927Y-115894473D01*
X174283925Y-115894474D01*
X174128367Y-116057175D01*
X174094134Y-116109036D01*
X174040774Y-116154140D01*
X173971498Y-116163235D01*
X173908303Y-116133434D01*
X173893701Y-116118035D01*
X173777512Y-115972338D01*
X173777509Y-115972335D01*
X173777508Y-115972334D01*
X173607996Y-115824235D01*
X173414764Y-115708785D01*
X173296775Y-115664503D01*
X173204023Y-115629692D01*
X172982550Y-115589500D01*
X172982547Y-115589500D01*
X172513845Y-115589500D01*
X172475399Y-115592960D01*
X172345813Y-115604622D01*
X172345807Y-115604623D01*
X172128839Y-115664503D01*
X172128826Y-115664508D01*
X171926033Y-115762167D01*
X171926025Y-115762171D01*
X171743927Y-115894473D01*
X171743925Y-115894474D01*
X171588366Y-116057176D01*
X171464363Y-116245033D01*
X171375899Y-116452004D01*
X171375895Y-116452017D01*
X171325810Y-116671457D01*
X171325808Y-116671468D01*
X171320769Y-116783674D01*
X171315710Y-116896330D01*
X171345925Y-117119387D01*
X171345926Y-117119390D01*
X171415483Y-117333465D01*
X171522146Y-117531678D01*
X171522148Y-117531681D01*
X171662489Y-117707663D01*
X171662491Y-117707664D01*
X171662492Y-117707666D01*
X171832004Y-117855765D01*
X172025236Y-117971215D01*
X172084102Y-117993307D01*
X172139949Y-118035292D01*
X172164232Y-118100806D01*
X172149241Y-118169049D01*
X172099735Y-118218353D01*
X172094331Y-118221120D01*
X171926033Y-118302167D01*
X171926025Y-118302171D01*
X171743927Y-118434473D01*
X171743925Y-118434474D01*
X171588366Y-118597176D01*
X171464363Y-118785033D01*
X171375899Y-118992004D01*
X171375895Y-118992017D01*
X171325810Y-119211457D01*
X171325808Y-119211468D01*
X171317281Y-119401344D01*
X171315710Y-119436330D01*
X171345925Y-119659387D01*
X171345926Y-119659390D01*
X171415483Y-119873465D01*
X171522146Y-120071678D01*
X171522148Y-120071681D01*
X171662489Y-120247663D01*
X171662491Y-120247664D01*
X171662492Y-120247666D01*
X171832004Y-120395765D01*
X172025236Y-120511215D01*
X172084102Y-120533307D01*
X172139949Y-120575292D01*
X172164232Y-120640806D01*
X172149241Y-120709049D01*
X172099735Y-120758353D01*
X172094331Y-120761120D01*
X171926033Y-120842167D01*
X171926025Y-120842171D01*
X171743927Y-120974473D01*
X171743925Y-120974474D01*
X171588366Y-121137176D01*
X171464363Y-121325033D01*
X171375899Y-121532004D01*
X171375895Y-121532017D01*
X171325810Y-121751457D01*
X171325808Y-121751468D01*
X171320769Y-121863674D01*
X171315710Y-121976330D01*
X155915705Y-121976330D01*
X156008649Y-121846418D01*
X156071088Y-121724972D01*
X156135912Y-121598890D01*
X156135914Y-121598883D01*
X156135919Y-121598875D01*
X156217163Y-121360731D01*
X156225787Y-121335452D01*
X156225787Y-121335448D01*
X156225791Y-121335439D01*
X156276348Y-121061726D01*
X156286514Y-120783568D01*
X156256071Y-120506894D01*
X156185669Y-120237601D01*
X156179875Y-120223967D01*
X163622500Y-120223967D01*
X163637936Y-120400403D01*
X163637938Y-120400413D01*
X163699094Y-120628655D01*
X163699096Y-120628659D01*
X163699097Y-120628663D01*
X163713333Y-120659191D01*
X163798964Y-120842828D01*
X163798965Y-120842830D01*
X163934505Y-121036402D01*
X164035279Y-121137175D01*
X164101599Y-121203495D01*
X164144675Y-121233657D01*
X164295165Y-121339032D01*
X164295167Y-121339033D01*
X164295170Y-121339035D01*
X164509337Y-121438903D01*
X164737592Y-121500063D01*
X164914034Y-121515500D01*
X164972999Y-121520659D01*
X164973000Y-121520659D01*
X164973001Y-121520659D01*
X165031966Y-121515500D01*
X165208408Y-121500063D01*
X165436663Y-121438903D01*
X165650829Y-121339035D01*
X165844401Y-121203495D01*
X165991602Y-121056293D01*
X166052924Y-121022810D01*
X166122615Y-121027794D01*
X166178549Y-121069665D01*
X166184821Y-121078879D01*
X166188186Y-121084334D01*
X166280288Y-121233656D01*
X166404344Y-121357712D01*
X166553666Y-121449814D01*
X166720203Y-121504999D01*
X166822991Y-121515500D01*
X168123008Y-121515499D01*
X168225797Y-121504999D01*
X168392334Y-121449814D01*
X168541656Y-121357712D01*
X168665712Y-121233656D01*
X168757814Y-121084334D01*
X168812999Y-120917797D01*
X168823500Y-120815009D01*
X168823499Y-119214992D01*
X168812999Y-119112203D01*
X168757814Y-118945666D01*
X168665712Y-118796344D01*
X168541656Y-118672288D01*
X168448888Y-118615069D01*
X168392336Y-118580187D01*
X168392331Y-118580185D01*
X168390862Y-118579698D01*
X168225797Y-118525001D01*
X168225795Y-118525000D01*
X168123010Y-118514500D01*
X166822998Y-118514500D01*
X166822981Y-118514501D01*
X166720203Y-118525000D01*
X166720200Y-118525001D01*
X166553668Y-118580185D01*
X166553663Y-118580187D01*
X166404342Y-118672289D01*
X166280289Y-118796342D01*
X166184821Y-118951121D01*
X166132873Y-118997845D01*
X166063910Y-119009068D01*
X165999828Y-118981224D01*
X165991601Y-118973705D01*
X165844402Y-118826506D01*
X165844395Y-118826501D01*
X165650834Y-118690967D01*
X165650830Y-118690965D01*
X165645156Y-118688319D01*
X165436663Y-118591097D01*
X165436659Y-118591096D01*
X165436655Y-118591094D01*
X165208413Y-118529938D01*
X165208403Y-118529936D01*
X164973001Y-118509341D01*
X164972999Y-118509341D01*
X164737596Y-118529936D01*
X164737586Y-118529938D01*
X164509344Y-118591094D01*
X164509335Y-118591098D01*
X164295171Y-118690964D01*
X164295169Y-118690965D01*
X164101597Y-118826505D01*
X163934505Y-118993597D01*
X163798965Y-119187169D01*
X163798964Y-119187171D01*
X163699098Y-119401335D01*
X163699094Y-119401344D01*
X163637938Y-119629586D01*
X163637936Y-119629596D01*
X163622500Y-119806032D01*
X163622500Y-120223967D01*
X156179875Y-120223967D01*
X156076807Y-119981428D01*
X155931807Y-119743836D01*
X155924908Y-119735546D01*
X155753759Y-119529889D01*
X155753753Y-119529883D01*
X155546455Y-119344144D01*
X155314319Y-119190564D01*
X155249406Y-119160134D01*
X155062291Y-119072418D01*
X155062286Y-119072416D01*
X155062281Y-119072414D01*
X154795760Y-118992229D01*
X154795746Y-118992226D01*
X154669894Y-118973705D01*
X154520372Y-118951700D01*
X154311711Y-118951700D01*
X154311693Y-118951700D01*
X154103599Y-118966932D01*
X154103585Y-118966934D01*
X153831920Y-119027449D01*
X153831913Y-119027452D01*
X153571934Y-119126886D01*
X153329210Y-119263109D01*
X153108894Y-119433231D01*
X152915711Y-119633604D01*
X152915709Y-119633606D01*
X152753752Y-119859980D01*
X152753749Y-119859984D01*
X152626487Y-120107509D01*
X152626478Y-120107531D01*
X152536612Y-120370947D01*
X152536608Y-120370965D01*
X152486052Y-120644674D01*
X152486051Y-120644681D01*
X152475885Y-120922830D01*
X135961424Y-120922830D01*
X135966514Y-120783568D01*
X135936071Y-120506894D01*
X135865669Y-120237601D01*
X135756807Y-119981428D01*
X135611807Y-119743836D01*
X135604908Y-119735546D01*
X135433759Y-119529889D01*
X135433753Y-119529883D01*
X135226455Y-119344144D01*
X134994319Y-119190564D01*
X134929406Y-119160134D01*
X134742291Y-119072418D01*
X134742286Y-119072416D01*
X134742281Y-119072414D01*
X134475760Y-118992229D01*
X134475746Y-118992226D01*
X134349894Y-118973705D01*
X134200372Y-118951700D01*
X133991711Y-118951700D01*
X133991693Y-118951700D01*
X133783599Y-118966932D01*
X133783585Y-118966934D01*
X133511920Y-119027449D01*
X133511913Y-119027452D01*
X133251934Y-119126886D01*
X133009210Y-119263109D01*
X132788894Y-119433231D01*
X132595711Y-119633604D01*
X132595709Y-119633606D01*
X132433752Y-119859980D01*
X132433749Y-119859984D01*
X132306487Y-120107509D01*
X132306478Y-120107531D01*
X132216612Y-120370947D01*
X132216608Y-120370965D01*
X132166052Y-120644674D01*
X132166051Y-120644681D01*
X132155885Y-120922830D01*
X130449280Y-120922830D01*
X130427996Y-120904235D01*
X130234767Y-120788787D01*
X130234768Y-120788787D01*
X130234766Y-120788786D01*
X130234764Y-120788785D01*
X130175896Y-120766691D01*
X130120050Y-120724706D01*
X130095767Y-120659191D01*
X130110759Y-120590949D01*
X130160265Y-120541645D01*
X130165610Y-120538907D01*
X130333973Y-120457829D01*
X130516078Y-120325522D01*
X130671632Y-120162825D01*
X130795635Y-119974968D01*
X130884103Y-119767988D01*
X130934191Y-119548537D01*
X130944290Y-119323670D01*
X130914075Y-119100613D01*
X130844517Y-118886536D01*
X130737852Y-118688319D01*
X130665167Y-118597175D01*
X130597510Y-118512336D01*
X130594082Y-118509341D01*
X130427996Y-118364235D01*
X130234767Y-118248787D01*
X130234768Y-118248787D01*
X130234766Y-118248786D01*
X130234764Y-118248785D01*
X130175896Y-118226691D01*
X130120050Y-118184706D01*
X130095767Y-118119191D01*
X130110759Y-118050949D01*
X130160265Y-118001645D01*
X130165610Y-117998907D01*
X130333973Y-117917829D01*
X130516078Y-117785522D01*
X130671632Y-117622825D01*
X130795635Y-117434968D01*
X130884103Y-117227988D01*
X130934191Y-117008537D01*
X130944290Y-116783670D01*
X130914075Y-116560613D01*
X130844517Y-116346536D01*
X130737852Y-116148319D01*
X130647274Y-116034738D01*
X130597510Y-115972336D01*
X130597508Y-115972334D01*
X130427996Y-115824235D01*
X130234767Y-115708787D01*
X130234768Y-115708787D01*
X130234766Y-115708786D01*
X130234764Y-115708785D01*
X130175896Y-115686691D01*
X130120050Y-115644706D01*
X130095767Y-115579191D01*
X130110759Y-115510949D01*
X130160265Y-115461645D01*
X130165610Y-115458907D01*
X130333973Y-115377829D01*
X130516078Y-115245522D01*
X130671632Y-115082825D01*
X130795635Y-114894968D01*
X130832807Y-114808001D01*
X158562132Y-114808001D01*
X158581964Y-115034686D01*
X158581966Y-115034697D01*
X158640858Y-115254488D01*
X158640861Y-115254497D01*
X158737031Y-115460732D01*
X158737032Y-115460734D01*
X158867554Y-115647141D01*
X159028458Y-115808045D01*
X159028461Y-115808047D01*
X159214866Y-115938568D01*
X159421104Y-116034739D01*
X159640908Y-116093635D01*
X159802830Y-116107801D01*
X159867598Y-116113468D01*
X159867600Y-116113468D01*
X159867602Y-116113468D01*
X159924273Y-116108509D01*
X160094292Y-116093635D01*
X160314096Y-116034739D01*
X160520334Y-115938568D01*
X160706739Y-115808047D01*
X160867647Y-115647139D01*
X160998168Y-115460734D01*
X161094339Y-115254496D01*
X161153235Y-115034692D01*
X161173068Y-114808000D01*
X161153235Y-114581308D01*
X161094339Y-114361504D01*
X160998168Y-114155266D01*
X160867647Y-113968861D01*
X160867645Y-113968858D01*
X160706741Y-113807954D01*
X160520334Y-113677432D01*
X160520332Y-113677431D01*
X160314097Y-113581261D01*
X160314088Y-113581258D01*
X160094297Y-113522366D01*
X160094293Y-113522365D01*
X160094292Y-113522365D01*
X160094291Y-113522364D01*
X160094286Y-113522364D01*
X159867602Y-113502532D01*
X159867598Y-113502532D01*
X159640913Y-113522364D01*
X159640902Y-113522366D01*
X159421111Y-113581258D01*
X159421102Y-113581261D01*
X159214867Y-113677431D01*
X159214865Y-113677432D01*
X159028458Y-113807954D01*
X158867554Y-113968858D01*
X158737032Y-114155265D01*
X158737031Y-114155267D01*
X158640861Y-114361502D01*
X158640858Y-114361511D01*
X158581966Y-114581302D01*
X158581964Y-114581313D01*
X158562132Y-114807998D01*
X158562132Y-114808001D01*
X130832807Y-114808001D01*
X130884103Y-114687988D01*
X130934191Y-114468537D01*
X130944290Y-114243670D01*
X130914075Y-114020613D01*
X130844517Y-113806536D01*
X130737852Y-113608319D01*
X130691070Y-113549657D01*
X130597510Y-113432336D01*
X130597508Y-113432334D01*
X130427996Y-113284235D01*
X130234767Y-113168787D01*
X130234768Y-113168787D01*
X130234766Y-113168786D01*
X130234764Y-113168785D01*
X130175896Y-113146691D01*
X130120050Y-113104706D01*
X130095767Y-113039191D01*
X130110759Y-112970949D01*
X130160265Y-112921645D01*
X130165610Y-112918907D01*
X130333973Y-112837829D01*
X130516078Y-112705522D01*
X130671632Y-112542825D01*
X130795635Y-112354968D01*
X130840647Y-112249659D01*
X130884100Y-112147995D01*
X130884099Y-112147995D01*
X130884103Y-112147988D01*
X130934191Y-111928537D01*
X130944290Y-111703670D01*
X130914075Y-111480613D01*
X130844517Y-111266536D01*
X130737852Y-111068319D01*
X130653729Y-110962833D01*
X130597510Y-110892336D01*
X130597508Y-110892334D01*
X130427996Y-110744235D01*
X130234767Y-110628787D01*
X130234768Y-110628787D01*
X130234766Y-110628786D01*
X130234764Y-110628785D01*
X130175896Y-110606691D01*
X130120050Y-110564706D01*
X130095767Y-110499191D01*
X130110759Y-110430949D01*
X130160265Y-110381645D01*
X130165610Y-110378907D01*
X130333973Y-110297829D01*
X130516078Y-110165522D01*
X130671632Y-110002825D01*
X130795635Y-109814968D01*
X130835117Y-109722597D01*
X130854520Y-109677201D01*
X158562132Y-109677201D01*
X158581964Y-109903886D01*
X158581966Y-109903897D01*
X158640858Y-110123688D01*
X158640861Y-110123697D01*
X158737031Y-110329932D01*
X158737032Y-110329934D01*
X158867554Y-110516341D01*
X159028458Y-110677245D01*
X159035493Y-110682171D01*
X159214866Y-110807768D01*
X159421104Y-110903939D01*
X159640908Y-110962835D01*
X159802830Y-110977001D01*
X159867598Y-110982668D01*
X159867600Y-110982668D01*
X159867602Y-110982668D01*
X159930385Y-110977175D01*
X160094292Y-110962835D01*
X160131120Y-110952967D01*
X163789500Y-110952967D01*
X163804936Y-111129403D01*
X163804938Y-111129413D01*
X163866094Y-111357655D01*
X163866096Y-111357659D01*
X163866097Y-111357663D01*
X163916031Y-111464746D01*
X163965964Y-111571828D01*
X163965965Y-111571830D01*
X164101505Y-111765402D01*
X164264635Y-111928531D01*
X164268599Y-111932495D01*
X164311675Y-111962657D01*
X164462165Y-112068032D01*
X164462167Y-112068033D01*
X164462170Y-112068035D01*
X164676337Y-112167903D01*
X164904592Y-112229063D01*
X165081034Y-112244500D01*
X165139999Y-112249659D01*
X165140000Y-112249659D01*
X165140001Y-112249659D01*
X165198966Y-112244500D01*
X165375408Y-112229063D01*
X165603663Y-112167903D01*
X165817829Y-112068035D01*
X166011401Y-111932495D01*
X166158602Y-111785293D01*
X166219924Y-111751810D01*
X166289615Y-111756794D01*
X166345549Y-111798665D01*
X166351821Y-111807879D01*
X166355186Y-111813334D01*
X166447288Y-111962656D01*
X166571344Y-112086712D01*
X166720666Y-112178814D01*
X166887203Y-112233999D01*
X166989991Y-112244500D01*
X168290008Y-112244499D01*
X168392797Y-112233999D01*
X168559334Y-112178814D01*
X168708656Y-112086712D01*
X168832712Y-111962656D01*
X168924814Y-111813334D01*
X168979999Y-111646797D01*
X168990500Y-111544009D01*
X168990499Y-109943992D01*
X168979999Y-109841203D01*
X168924814Y-109674666D01*
X168832712Y-109525344D01*
X168708656Y-109401288D01*
X168615888Y-109344069D01*
X168559336Y-109309187D01*
X168559331Y-109309185D01*
X168557862Y-109308698D01*
X168392797Y-109254001D01*
X168392795Y-109254000D01*
X168290010Y-109243500D01*
X166989998Y-109243500D01*
X166989981Y-109243501D01*
X166887203Y-109254000D01*
X166887200Y-109254001D01*
X166720668Y-109309185D01*
X166720663Y-109309187D01*
X166571342Y-109401289D01*
X166447289Y-109525342D01*
X166351821Y-109680121D01*
X166299873Y-109726845D01*
X166230910Y-109738068D01*
X166166828Y-109710224D01*
X166158601Y-109702705D01*
X166011402Y-109555506D01*
X166011395Y-109555501D01*
X165817834Y-109419967D01*
X165817830Y-109419965D01*
X165750443Y-109388542D01*
X165603663Y-109320097D01*
X165603659Y-109320096D01*
X165603655Y-109320094D01*
X165375413Y-109258938D01*
X165375403Y-109258936D01*
X165140001Y-109238341D01*
X165139999Y-109238341D01*
X164904596Y-109258936D01*
X164904586Y-109258938D01*
X164676344Y-109320094D01*
X164676335Y-109320098D01*
X164462171Y-109419964D01*
X164462169Y-109419965D01*
X164268597Y-109555505D01*
X164101505Y-109722597D01*
X163965965Y-109916169D01*
X163965964Y-109916171D01*
X163866098Y-110130335D01*
X163866094Y-110130344D01*
X163804938Y-110358586D01*
X163804936Y-110358596D01*
X163789500Y-110535032D01*
X163789500Y-110952967D01*
X160131120Y-110952967D01*
X160314096Y-110903939D01*
X160520334Y-110807768D01*
X160706739Y-110677247D01*
X160867647Y-110516339D01*
X160998168Y-110329934D01*
X161094339Y-110123696D01*
X161153235Y-109903892D01*
X161170837Y-109702705D01*
X161173068Y-109677201D01*
X161173068Y-109677198D01*
X161159782Y-109525342D01*
X161153235Y-109450508D01*
X161094339Y-109230704D01*
X160998168Y-109024466D01*
X160867647Y-108838061D01*
X160867645Y-108838058D01*
X160706741Y-108677154D01*
X160520334Y-108546632D01*
X160520332Y-108546631D01*
X160314097Y-108450461D01*
X160314088Y-108450458D01*
X160094297Y-108391566D01*
X160094293Y-108391565D01*
X160094292Y-108391565D01*
X160094291Y-108391564D01*
X160094286Y-108391564D01*
X159867602Y-108371732D01*
X159867598Y-108371732D01*
X159640913Y-108391564D01*
X159640902Y-108391566D01*
X159421111Y-108450458D01*
X159421102Y-108450461D01*
X159214867Y-108546631D01*
X159214865Y-108546632D01*
X159028458Y-108677154D01*
X158867554Y-108838058D01*
X158737032Y-109024465D01*
X158737031Y-109024467D01*
X158640861Y-109230702D01*
X158640858Y-109230711D01*
X158581966Y-109450502D01*
X158581964Y-109450513D01*
X158562132Y-109677198D01*
X158562132Y-109677201D01*
X130854520Y-109677201D01*
X130884100Y-109607995D01*
X130884099Y-109607995D01*
X130884103Y-109607988D01*
X130934191Y-109388537D01*
X130944290Y-109163670D01*
X130914075Y-108940613D01*
X130844517Y-108726536D01*
X130737852Y-108528319D01*
X130628793Y-108391564D01*
X130597510Y-108352336D01*
X130597508Y-108352334D01*
X130427996Y-108204235D01*
X130234767Y-108088787D01*
X130234768Y-108088787D01*
X130234766Y-108088786D01*
X130234764Y-108088785D01*
X130175896Y-108066691D01*
X130120050Y-108024706D01*
X130095767Y-107959191D01*
X130110759Y-107890949D01*
X130160265Y-107841645D01*
X130165610Y-107838907D01*
X130333973Y-107757829D01*
X130516078Y-107625522D01*
X130671632Y-107462825D01*
X130795635Y-107274968D01*
X130884103Y-107067988D01*
X130934191Y-106848537D01*
X130944290Y-106623670D01*
X130914075Y-106400613D01*
X130844517Y-106186536D01*
X130737852Y-105988319D01*
X130665167Y-105897175D01*
X130597510Y-105812336D01*
X130597508Y-105812334D01*
X130427996Y-105664235D01*
X130234767Y-105548787D01*
X130234768Y-105548787D01*
X130234766Y-105548786D01*
X130234764Y-105548785D01*
X130175896Y-105526691D01*
X130120050Y-105484706D01*
X130095767Y-105419191D01*
X130110759Y-105350949D01*
X130160265Y-105301645D01*
X130165610Y-105298907D01*
X130333973Y-105217829D01*
X130516078Y-105085522D01*
X130671632Y-104922825D01*
X130795635Y-104734968D01*
X130884103Y-104527988D01*
X130934191Y-104308537D01*
X130944290Y-104083670D01*
X130914075Y-103860613D01*
X130844517Y-103646536D01*
X130809065Y-103580656D01*
X130737853Y-103448321D01*
X130737851Y-103448318D01*
X130725981Y-103433434D01*
X130686081Y-103383401D01*
X130597510Y-103272336D01*
X130588879Y-103264795D01*
X130427996Y-103124235D01*
X130234767Y-103008787D01*
X130234768Y-103008787D01*
X130234766Y-103008786D01*
X130234764Y-103008785D01*
X130175896Y-102986691D01*
X130120050Y-102944706D01*
X130095767Y-102879191D01*
X130110759Y-102810949D01*
X130160265Y-102761645D01*
X130165610Y-102758907D01*
X130333973Y-102677829D01*
X130516078Y-102545522D01*
X130671632Y-102382825D01*
X130795635Y-102194968D01*
X130813560Y-102153032D01*
X130884100Y-101987995D01*
X130884099Y-101987995D01*
X130884103Y-101987988D01*
X130934191Y-101768537D01*
X130944290Y-101543670D01*
X130914075Y-101320613D01*
X130844517Y-101106536D01*
X130807618Y-101037967D01*
X130737853Y-100908321D01*
X130737851Y-100908318D01*
X130725981Y-100893434D01*
X130628793Y-100771564D01*
X130597510Y-100732336D01*
X130597508Y-100732334D01*
X130427996Y-100584235D01*
X130234764Y-100468785D01*
X130116775Y-100424503D01*
X130024023Y-100389692D01*
X129802550Y-100349500D01*
X129802547Y-100349500D01*
X129333845Y-100349500D01*
X129295399Y-100352960D01*
X129165813Y-100364622D01*
X129165807Y-100364623D01*
X128948839Y-100424503D01*
X128948826Y-100424508D01*
X128746033Y-100522167D01*
X128746025Y-100522171D01*
X128563927Y-100654473D01*
X128563925Y-100654474D01*
X128408367Y-100817175D01*
X128374134Y-100869036D01*
X128320774Y-100914140D01*
X128251498Y-100923235D01*
X128188303Y-100893434D01*
X128173701Y-100878035D01*
X128172825Y-100876937D01*
X128088794Y-100771565D01*
X128057512Y-100732338D01*
X128057509Y-100732335D01*
X128057508Y-100732334D01*
X127887996Y-100584235D01*
X127694767Y-100468787D01*
X127694768Y-100468787D01*
X127694766Y-100468786D01*
X127694764Y-100468785D01*
X127635896Y-100446691D01*
X127580050Y-100404706D01*
X127555767Y-100339191D01*
X127570759Y-100270949D01*
X127620265Y-100221645D01*
X127625610Y-100218907D01*
X127793973Y-100137829D01*
X127976078Y-100005522D01*
X128131632Y-99842825D01*
X128255635Y-99654968D01*
X128344103Y-99447988D01*
X128394191Y-99228537D01*
X128404290Y-99003670D01*
X128374075Y-98780613D01*
X128304517Y-98566536D01*
X128197852Y-98368319D01*
X128125167Y-98277175D01*
X128057510Y-98192336D01*
X128057508Y-98192334D01*
X127887996Y-98044235D01*
X127694767Y-97928787D01*
X127694768Y-97928787D01*
X127694766Y-97928786D01*
X127694764Y-97928785D01*
X127635896Y-97906691D01*
X127580050Y-97864706D01*
X127555767Y-97799191D01*
X127570759Y-97730949D01*
X127620265Y-97681645D01*
X127625610Y-97678907D01*
X127793973Y-97597829D01*
X127976078Y-97465522D01*
X128131632Y-97302825D01*
X128165864Y-97250964D01*
X128219221Y-97205861D01*
X128288496Y-97196763D01*
X128351692Y-97226562D01*
X128366297Y-97241963D01*
X128482489Y-97387663D01*
X128482491Y-97387664D01*
X128482492Y-97387666D01*
X128652004Y-97535765D01*
X128845236Y-97651215D01*
X129015969Y-97715292D01*
X129055976Y-97730307D01*
X129277450Y-97770500D01*
X129277453Y-97770500D01*
X129746148Y-97770500D01*
X129746155Y-97770500D01*
X129914188Y-97755377D01*
X130002700Y-97730949D01*
X130131160Y-97695496D01*
X130131162Y-97695495D01*
X130131170Y-97695493D01*
X130333973Y-97597829D01*
X130516078Y-97465522D01*
X130671632Y-97302825D01*
X130795635Y-97114968D01*
X130884103Y-96907988D01*
X130934191Y-96688537D01*
X130944290Y-96463670D01*
X130914075Y-96240613D01*
X130844517Y-96026536D01*
X130737852Y-95828319D01*
X130672839Y-95746796D01*
X130597510Y-95652336D01*
X130597508Y-95652334D01*
X130427996Y-95504235D01*
X130234767Y-95388787D01*
X130234768Y-95388787D01*
X130234766Y-95388786D01*
X130234764Y-95388785D01*
X130175896Y-95366691D01*
X130120050Y-95324706D01*
X130095767Y-95259191D01*
X130110759Y-95190949D01*
X130160265Y-95141645D01*
X130165610Y-95138907D01*
X130333973Y-95057829D01*
X130516078Y-94925522D01*
X130671632Y-94762825D01*
X130795635Y-94574968D01*
X130884103Y-94367988D01*
X130934191Y-94148537D01*
X130944290Y-93923670D01*
X130914075Y-93700613D01*
X130844517Y-93486536D01*
X130737852Y-93288319D01*
X130665167Y-93197175D01*
X130597510Y-93112336D01*
X130597508Y-93112334D01*
X130427996Y-92964235D01*
X130234767Y-92848787D01*
X130234768Y-92848787D01*
X130234766Y-92848786D01*
X130234764Y-92848785D01*
X130175896Y-92826691D01*
X130120050Y-92784706D01*
X130095767Y-92719191D01*
X130110759Y-92650949D01*
X130160265Y-92601645D01*
X130165610Y-92598907D01*
X130333973Y-92517829D01*
X130516078Y-92385522D01*
X130671632Y-92222825D01*
X130795635Y-92034968D01*
X130884103Y-91827988D01*
X130934191Y-91608537D01*
X130944290Y-91383670D01*
X130914075Y-91160613D01*
X130844517Y-90946536D01*
X130841502Y-90940934D01*
X130737853Y-90748321D01*
X130737851Y-90748318D01*
X130725981Y-90733434D01*
X130665167Y-90657175D01*
X130597510Y-90572336D01*
X130597508Y-90572334D01*
X130427996Y-90424235D01*
X130234767Y-90308787D01*
X130234768Y-90308787D01*
X130234766Y-90308786D01*
X130234764Y-90308785D01*
X130175896Y-90286691D01*
X130120050Y-90244706D01*
X130095767Y-90179191D01*
X130110759Y-90110949D01*
X130160265Y-90061645D01*
X130165610Y-90058907D01*
X130333973Y-89977829D01*
X130516078Y-89845522D01*
X130671632Y-89682825D01*
X130795635Y-89494968D01*
X130884103Y-89287988D01*
X130934191Y-89068537D01*
X130944290Y-88843670D01*
X130914075Y-88620613D01*
X130844517Y-88406536D01*
X130737852Y-88208319D01*
X130665167Y-88117175D01*
X130597510Y-88032336D01*
X130597508Y-88032334D01*
X130427996Y-87884235D01*
X130234767Y-87768787D01*
X130234768Y-87768787D01*
X130234766Y-87768786D01*
X130234764Y-87768785D01*
X130175896Y-87746691D01*
X130120050Y-87704706D01*
X130095767Y-87639191D01*
X130110759Y-87570949D01*
X130160265Y-87521645D01*
X130165610Y-87518907D01*
X130333973Y-87437829D01*
X130516078Y-87305522D01*
X130671632Y-87142825D01*
X130795635Y-86954968D01*
X130884103Y-86747988D01*
X130934191Y-86528537D01*
X130944290Y-86303670D01*
X130914075Y-86080613D01*
X130844517Y-85866536D01*
X130737852Y-85668319D01*
X130691070Y-85609657D01*
X130597510Y-85492336D01*
X130559187Y-85458854D01*
X130427996Y-85344235D01*
X130234764Y-85228785D01*
X130116775Y-85184503D01*
X130024023Y-85149692D01*
X129802550Y-85109500D01*
X129802547Y-85109500D01*
X129333845Y-85109500D01*
X129295399Y-85112960D01*
X129165813Y-85124622D01*
X129165807Y-85124623D01*
X128948839Y-85184503D01*
X128948826Y-85184508D01*
X128746033Y-85282167D01*
X128746025Y-85282171D01*
X128563927Y-85414473D01*
X128563917Y-85414481D01*
X128554814Y-85424003D01*
X128494257Y-85458854D01*
X128424471Y-85455433D01*
X128367613Y-85414825D01*
X128349008Y-85381642D01*
X128343797Y-85367671D01*
X128343793Y-85367664D01*
X128257547Y-85252455D01*
X128257544Y-85252452D01*
X128142335Y-85166206D01*
X128142328Y-85166202D01*
X128007482Y-85115908D01*
X128007483Y-85115908D01*
X127947883Y-85109501D01*
X127947881Y-85109500D01*
X127947873Y-85109500D01*
X127947864Y-85109500D01*
X126052129Y-85109500D01*
X126052123Y-85109501D01*
X125992516Y-85115908D01*
X125857671Y-85166202D01*
X125857664Y-85166206D01*
X125742455Y-85252452D01*
X125742452Y-85252455D01*
X125656206Y-85367664D01*
X125656202Y-85367671D01*
X125605908Y-85502517D01*
X125599501Y-85562116D01*
X125599500Y-85562135D01*
X125599500Y-87157870D01*
X125599501Y-87157876D01*
X125605908Y-87217483D01*
X125656202Y-87352328D01*
X125656206Y-87352335D01*
X125742452Y-87467544D01*
X125742455Y-87467547D01*
X125857664Y-87553793D01*
X125857671Y-87553797D01*
X125992517Y-87604091D01*
X125992516Y-87604091D01*
X125999444Y-87604835D01*
X126052127Y-87610500D01*
X126115735Y-87610499D01*
X126182772Y-87630183D01*
X126228528Y-87682986D01*
X126238472Y-87752144D01*
X126209448Y-87815700D01*
X126188620Y-87834817D01*
X126023924Y-87954476D01*
X125868366Y-88117176D01*
X125744363Y-88305033D01*
X125655899Y-88512004D01*
X125655895Y-88512017D01*
X125605810Y-88731457D01*
X125605808Y-88731468D01*
X125600769Y-88843674D01*
X125595710Y-88956330D01*
X125625925Y-89179387D01*
X125625926Y-89179390D01*
X125695483Y-89393465D01*
X125802146Y-89591678D01*
X125802148Y-89591681D01*
X125942489Y-89767663D01*
X125942491Y-89767664D01*
X125942492Y-89767666D01*
X126112004Y-89915765D01*
X126305236Y-90031215D01*
X126364102Y-90053307D01*
X126419949Y-90095292D01*
X126444232Y-90160806D01*
X126429241Y-90229049D01*
X126379735Y-90278353D01*
X126374331Y-90281120D01*
X126206033Y-90362167D01*
X126206025Y-90362171D01*
X126023927Y-90494473D01*
X126023925Y-90494474D01*
X125868366Y-90657176D01*
X125744363Y-90845033D01*
X125655899Y-91052004D01*
X125655895Y-91052017D01*
X125605810Y-91271457D01*
X125605808Y-91271468D01*
X125600769Y-91383674D01*
X125595710Y-91496330D01*
X125625925Y-91719387D01*
X125625926Y-91719390D01*
X125695483Y-91933465D01*
X125802146Y-92131678D01*
X125802148Y-92131681D01*
X125942489Y-92307663D01*
X125942491Y-92307664D01*
X125942492Y-92307666D01*
X126112004Y-92455765D01*
X126305236Y-92571215D01*
X126364102Y-92593307D01*
X126419949Y-92635292D01*
X126444232Y-92700806D01*
X126429241Y-92769049D01*
X126379735Y-92818353D01*
X126374331Y-92821120D01*
X126206033Y-92902167D01*
X126206025Y-92902171D01*
X126023927Y-93034473D01*
X126023925Y-93034474D01*
X125868366Y-93197176D01*
X125744363Y-93385033D01*
X125655899Y-93592004D01*
X125655895Y-93592017D01*
X125605810Y-93811457D01*
X125605808Y-93811468D01*
X125595710Y-94036325D01*
X125595710Y-94036330D01*
X125625925Y-94259387D01*
X125625926Y-94259390D01*
X125695483Y-94473465D01*
X125802146Y-94671678D01*
X125802148Y-94671681D01*
X125942489Y-94847663D01*
X125942491Y-94847664D01*
X125942492Y-94847666D01*
X126112004Y-94995765D01*
X126305236Y-95111215D01*
X126364102Y-95133307D01*
X126419949Y-95175292D01*
X126444232Y-95240806D01*
X126429241Y-95309049D01*
X126379735Y-95358353D01*
X126374331Y-95361120D01*
X126206033Y-95442167D01*
X126206025Y-95442171D01*
X126023927Y-95574473D01*
X126023925Y-95574474D01*
X125868366Y-95737176D01*
X125744363Y-95925033D01*
X125655899Y-96132004D01*
X125655895Y-96132017D01*
X125605810Y-96351457D01*
X125605808Y-96351468D01*
X125600769Y-96463674D01*
X125595710Y-96576330D01*
X125625925Y-96799387D01*
X125625926Y-96799390D01*
X125695483Y-97013465D01*
X125802146Y-97211678D01*
X125802148Y-97211681D01*
X125942489Y-97387663D01*
X125942491Y-97387664D01*
X125942492Y-97387666D01*
X126112004Y-97535765D01*
X126305236Y-97651215D01*
X126364102Y-97673307D01*
X126419949Y-97715292D01*
X126444232Y-97780806D01*
X126429241Y-97849049D01*
X126379735Y-97898353D01*
X126374331Y-97901120D01*
X126206033Y-97982167D01*
X126206025Y-97982171D01*
X126023927Y-98114473D01*
X126023925Y-98114474D01*
X125868366Y-98277176D01*
X125744363Y-98465033D01*
X125655899Y-98672004D01*
X125655895Y-98672017D01*
X125605810Y-98891457D01*
X125605808Y-98891468D01*
X125600769Y-99003674D01*
X125595710Y-99116330D01*
X125625925Y-99339387D01*
X125625926Y-99339390D01*
X125695483Y-99553465D01*
X125802146Y-99751678D01*
X125802148Y-99751681D01*
X125942489Y-99927663D01*
X125942491Y-99927664D01*
X125942492Y-99927666D01*
X126112004Y-100075765D01*
X126305236Y-100191215D01*
X126364102Y-100213307D01*
X126419949Y-100255292D01*
X126444232Y-100320806D01*
X126429241Y-100389049D01*
X126379735Y-100438353D01*
X126374331Y-100441120D01*
X126206033Y-100522167D01*
X126206025Y-100522171D01*
X126023927Y-100654473D01*
X126023925Y-100654474D01*
X125868366Y-100817176D01*
X125744363Y-101005033D01*
X125655899Y-101212004D01*
X125655895Y-101212017D01*
X125605810Y-101431457D01*
X125605808Y-101431468D01*
X125595710Y-101656325D01*
X125595710Y-101656330D01*
X125625925Y-101879387D01*
X125625926Y-101879390D01*
X125695483Y-102093465D01*
X125802146Y-102291678D01*
X125802148Y-102291681D01*
X125942489Y-102467663D01*
X125942491Y-102467664D01*
X125942492Y-102467666D01*
X126112004Y-102615765D01*
X126305236Y-102731215D01*
X126364102Y-102753307D01*
X126419949Y-102795292D01*
X126444232Y-102860806D01*
X126429241Y-102929049D01*
X126379735Y-102978353D01*
X126374331Y-102981120D01*
X126206033Y-103062167D01*
X126206025Y-103062171D01*
X126023927Y-103194473D01*
X126023925Y-103194474D01*
X125868366Y-103357176D01*
X125744363Y-103545033D01*
X125655899Y-103752004D01*
X125655895Y-103752017D01*
X125605810Y-103971457D01*
X125605808Y-103971468D01*
X125597538Y-104155625D01*
X125595710Y-104196330D01*
X125625925Y-104419387D01*
X125625926Y-104419390D01*
X125695483Y-104633465D01*
X125802146Y-104831678D01*
X125802148Y-104831681D01*
X125942489Y-105007663D01*
X125942491Y-105007664D01*
X125942492Y-105007666D01*
X126112004Y-105155765D01*
X126305236Y-105271215D01*
X126364102Y-105293307D01*
X126419949Y-105335292D01*
X126444232Y-105400806D01*
X126429241Y-105469049D01*
X126379735Y-105518353D01*
X126374331Y-105521120D01*
X126206033Y-105602167D01*
X126206025Y-105602171D01*
X126023927Y-105734473D01*
X126023925Y-105734474D01*
X125868366Y-105897176D01*
X125744363Y-106085033D01*
X125655899Y-106292004D01*
X125655895Y-106292017D01*
X125605810Y-106511457D01*
X125605808Y-106511468D01*
X125600769Y-106623674D01*
X125595710Y-106736330D01*
X125625925Y-106959387D01*
X125625926Y-106959390D01*
X125695483Y-107173465D01*
X125802146Y-107371678D01*
X125802148Y-107371681D01*
X125942489Y-107547663D01*
X125942491Y-107547664D01*
X125942492Y-107547666D01*
X126112004Y-107695765D01*
X126305236Y-107811215D01*
X126364102Y-107833307D01*
X126419949Y-107875292D01*
X126444232Y-107940806D01*
X126429241Y-108009049D01*
X126379735Y-108058353D01*
X126374331Y-108061120D01*
X126206033Y-108142167D01*
X126206025Y-108142171D01*
X126023927Y-108274473D01*
X126023925Y-108274474D01*
X125868366Y-108437176D01*
X125744363Y-108625033D01*
X125655899Y-108832004D01*
X125655895Y-108832017D01*
X125605810Y-109051457D01*
X125605808Y-109051468D01*
X125597416Y-109238341D01*
X125595710Y-109276330D01*
X125625925Y-109499387D01*
X125625926Y-109499390D01*
X125695483Y-109713465D01*
X125802146Y-109911678D01*
X125802148Y-109911681D01*
X125942489Y-110087663D01*
X125942491Y-110087664D01*
X125942492Y-110087666D01*
X126112004Y-110235765D01*
X126305236Y-110351215D01*
X126364102Y-110373307D01*
X126419949Y-110415292D01*
X126444232Y-110480806D01*
X126429241Y-110549049D01*
X126379735Y-110598353D01*
X126374331Y-110601120D01*
X126206033Y-110682167D01*
X126206025Y-110682171D01*
X126023927Y-110814473D01*
X126023925Y-110814474D01*
X125868366Y-110977176D01*
X125744363Y-111165033D01*
X125655899Y-111372004D01*
X125655895Y-111372017D01*
X125605810Y-111591457D01*
X125605808Y-111591468D01*
X125595844Y-111813336D01*
X125595710Y-111816330D01*
X125625925Y-112039387D01*
X125625926Y-112039390D01*
X125695483Y-112253465D01*
X125802146Y-112451678D01*
X125802148Y-112451681D01*
X125942489Y-112627663D01*
X125942491Y-112627664D01*
X125942492Y-112627666D01*
X126112004Y-112775765D01*
X126305236Y-112891215D01*
X126475969Y-112955292D01*
X126515976Y-112970307D01*
X126737450Y-113010500D01*
X126737453Y-113010500D01*
X127206148Y-113010500D01*
X127206155Y-113010500D01*
X127374188Y-112995377D01*
X127462700Y-112970949D01*
X127591160Y-112935496D01*
X127591162Y-112935495D01*
X127591170Y-112935493D01*
X127793973Y-112837829D01*
X127976078Y-112705522D01*
X128131632Y-112542825D01*
X128165864Y-112490964D01*
X128219221Y-112445861D01*
X128288496Y-112436763D01*
X128351692Y-112466562D01*
X128366297Y-112481963D01*
X128482489Y-112627663D01*
X128482491Y-112627664D01*
X128482492Y-112627666D01*
X128652004Y-112775765D01*
X128845236Y-112891215D01*
X128904102Y-112913307D01*
X128959949Y-112955292D01*
X128984232Y-113020806D01*
X128969241Y-113089049D01*
X128919735Y-113138353D01*
X128914331Y-113141120D01*
X128746033Y-113222167D01*
X128746025Y-113222171D01*
X128563927Y-113354473D01*
X128563925Y-113354474D01*
X128408366Y-113517176D01*
X128284363Y-113705033D01*
X128195899Y-113912004D01*
X128195895Y-113912017D01*
X128145810Y-114131457D01*
X128145808Y-114131468D01*
X128140769Y-114243674D01*
X128135710Y-114356330D01*
X128165925Y-114579387D01*
X128165926Y-114579390D01*
X128235483Y-114793465D01*
X128342146Y-114991678D01*
X128342148Y-114991681D01*
X128482489Y-115167663D01*
X128482491Y-115167664D01*
X128482492Y-115167666D01*
X128652004Y-115315765D01*
X128845236Y-115431215D01*
X128904102Y-115453307D01*
X128959949Y-115495292D01*
X128984232Y-115560806D01*
X128969241Y-115629049D01*
X128919735Y-115678353D01*
X128914331Y-115681120D01*
X128746033Y-115762167D01*
X128746025Y-115762171D01*
X128563927Y-115894473D01*
X128563925Y-115894474D01*
X128408367Y-116057175D01*
X128374134Y-116109036D01*
X128320774Y-116154140D01*
X128251498Y-116163235D01*
X128188303Y-116133434D01*
X128173701Y-116118035D01*
X128057512Y-115972338D01*
X128057509Y-115972335D01*
X128057508Y-115972334D01*
X127887996Y-115824235D01*
X127694764Y-115708785D01*
X127576775Y-115664503D01*
X127484023Y-115629692D01*
X127262550Y-115589500D01*
X127262547Y-115589500D01*
X126793845Y-115589500D01*
X126755399Y-115592960D01*
X126625813Y-115604622D01*
X126625807Y-115604623D01*
X126408839Y-115664503D01*
X126408826Y-115664508D01*
X126206033Y-115762167D01*
X126206025Y-115762171D01*
X126023927Y-115894473D01*
X126023925Y-115894474D01*
X125868366Y-116057176D01*
X125744363Y-116245033D01*
X125655899Y-116452004D01*
X125655895Y-116452017D01*
X125605810Y-116671457D01*
X125605808Y-116671468D01*
X125600769Y-116783674D01*
X125595710Y-116896330D01*
X125625925Y-117119387D01*
X125625926Y-117119390D01*
X125695483Y-117333465D01*
X125802146Y-117531678D01*
X125802148Y-117531681D01*
X125942489Y-117707663D01*
X125942491Y-117707664D01*
X125942492Y-117707666D01*
X126112004Y-117855765D01*
X126305236Y-117971215D01*
X126364102Y-117993307D01*
X126419949Y-118035292D01*
X126444232Y-118100806D01*
X126429241Y-118169049D01*
X126379735Y-118218353D01*
X126374331Y-118221120D01*
X126206033Y-118302167D01*
X126206025Y-118302171D01*
X126023927Y-118434473D01*
X126023925Y-118434474D01*
X125868366Y-118597176D01*
X125744363Y-118785033D01*
X125655899Y-118992004D01*
X125655895Y-118992017D01*
X125605810Y-119211457D01*
X125605808Y-119211468D01*
X125597281Y-119401344D01*
X125595710Y-119436330D01*
X125625925Y-119659387D01*
X125625926Y-119659390D01*
X125695483Y-119873465D01*
X125802146Y-120071678D01*
X125802148Y-120071681D01*
X125942489Y-120247663D01*
X125942491Y-120247664D01*
X125942492Y-120247666D01*
X126112004Y-120395765D01*
X126305236Y-120511215D01*
X126364102Y-120533307D01*
X126419949Y-120575292D01*
X126444232Y-120640806D01*
X126429241Y-120709049D01*
X126379735Y-120758353D01*
X126374331Y-120761120D01*
X126206033Y-120842167D01*
X126206025Y-120842171D01*
X126023927Y-120974473D01*
X126023925Y-120974474D01*
X125868366Y-121137176D01*
X125744363Y-121325033D01*
X125655899Y-121532004D01*
X125655895Y-121532017D01*
X125605810Y-121751457D01*
X125605808Y-121751468D01*
X125600769Y-121863674D01*
X125595710Y-121976330D01*
X124968000Y-121976330D01*
X124968000Y-74422765D01*
X124987685Y-74355726D01*
X125040489Y-74309971D01*
X125109647Y-74300027D01*
X125173203Y-74329052D01*
X125198732Y-74359643D01*
X125203918Y-74368414D01*
X125206580Y-74372914D01*
X125215138Y-74390383D01*
X125222514Y-74409012D01*
X125248181Y-74444340D01*
X125254593Y-74454101D01*
X125276828Y-74491697D01*
X125276833Y-74491704D01*
X125290990Y-74505860D01*
X125303628Y-74520656D01*
X125315405Y-74536866D01*
X125315406Y-74536867D01*
X125349057Y-74564705D01*
X125357698Y-74572568D01*
X126278914Y-75493784D01*
X126288739Y-75506048D01*
X126288960Y-75505866D01*
X126293930Y-75511874D01*
X126342959Y-75557915D01*
X126345756Y-75560626D01*
X126365250Y-75580120D01*
X126368415Y-75582575D01*
X126377291Y-75590156D01*
X126409138Y-75620062D01*
X126426693Y-75629713D01*
X126442951Y-75640392D01*
X126458784Y-75652674D01*
X126494130Y-75667968D01*
X126498875Y-75670022D01*
X126509355Y-75675155D01*
X126547628Y-75696197D01*
X126567032Y-75701179D01*
X126585430Y-75707478D01*
X126603825Y-75715438D01*
X126646974Y-75722271D01*
X126658400Y-75724638D01*
X126700701Y-75735500D01*
X126720736Y-75735500D01*
X126740133Y-75737026D01*
X126759916Y-75740160D01*
X126803395Y-75736050D01*
X126815064Y-75735500D01*
X127269828Y-75735500D01*
X127336867Y-75755185D01*
X127357509Y-75771819D01*
X127563181Y-75977491D01*
X127596666Y-76038814D01*
X127599500Y-76065172D01*
X127599500Y-79744546D01*
X127579815Y-79811585D01*
X127563181Y-79832228D01*
X127395954Y-79999454D01*
X127334631Y-80032938D01*
X127286133Y-80033780D01*
X127262547Y-80029500D01*
X126793845Y-80029500D01*
X126755645Y-80032938D01*
X126625813Y-80044622D01*
X126625807Y-80044623D01*
X126408839Y-80104503D01*
X126408826Y-80104508D01*
X126206033Y-80202167D01*
X126206025Y-80202171D01*
X126023927Y-80334473D01*
X126023925Y-80334474D01*
X125868366Y-80497176D01*
X125744363Y-80685033D01*
X125655899Y-80892004D01*
X125655895Y-80892017D01*
X125605810Y-81111457D01*
X125605808Y-81111468D01*
X125600769Y-81223674D01*
X125595710Y-81336330D01*
X125625925Y-81559387D01*
X125625926Y-81559390D01*
X125695483Y-81773465D01*
X125802146Y-81971678D01*
X125802148Y-81971681D01*
X125942489Y-82147663D01*
X125942491Y-82147664D01*
X125942492Y-82147666D01*
X126112004Y-82295765D01*
X126305236Y-82411215D01*
X126475969Y-82475292D01*
X126515976Y-82490307D01*
X126737450Y-82530500D01*
X126737453Y-82530500D01*
X127206148Y-82530500D01*
X127206155Y-82530500D01*
X127374188Y-82515377D01*
X127462700Y-82490949D01*
X127591160Y-82455496D01*
X127591162Y-82455495D01*
X127591170Y-82455493D01*
X127793973Y-82357829D01*
X127976078Y-82225522D01*
X128131632Y-82062825D01*
X128165864Y-82010964D01*
X128219221Y-81965861D01*
X128288496Y-81956763D01*
X128351692Y-81986562D01*
X128366297Y-82001963D01*
X128482489Y-82147663D01*
X128482491Y-82147664D01*
X128482492Y-82147666D01*
X128652004Y-82295765D01*
X128845236Y-82411215D01*
X129015969Y-82475292D01*
X129055976Y-82490307D01*
X129277450Y-82530500D01*
X129277453Y-82530500D01*
X129746148Y-82530500D01*
X129746155Y-82530500D01*
X129914188Y-82515377D01*
X130002700Y-82490949D01*
X130131160Y-82455496D01*
X130131162Y-82455495D01*
X130131170Y-82455493D01*
X130333973Y-82357829D01*
X130516078Y-82225522D01*
X130671632Y-82062825D01*
X130738721Y-81961188D01*
X130792081Y-81916084D01*
X130842208Y-81905500D01*
X131464748Y-81905500D01*
X131531787Y-81925185D01*
X131552429Y-81941819D01*
X132637381Y-83026771D01*
X132670866Y-83088094D01*
X132673700Y-83114452D01*
X132673700Y-83825011D01*
X132654015Y-83892050D01*
X132620823Y-83926586D01*
X132460059Y-84039153D01*
X132299154Y-84200058D01*
X132168632Y-84386465D01*
X132168631Y-84386467D01*
X132072461Y-84592702D01*
X132072458Y-84592711D01*
X132013566Y-84812502D01*
X132013564Y-84812513D01*
X131993732Y-85039198D01*
X131993732Y-85039201D01*
X132013564Y-85265886D01*
X132013566Y-85265897D01*
X132072458Y-85485688D01*
X132072461Y-85485697D01*
X132168631Y-85691932D01*
X132168632Y-85691934D01*
X132299154Y-85878341D01*
X132460058Y-86039245D01*
X132460061Y-86039247D01*
X132646466Y-86169768D01*
X132852704Y-86265939D01*
X132852709Y-86265940D01*
X132852711Y-86265941D01*
X132871021Y-86270847D01*
X133072508Y-86324835D01*
X133234430Y-86339001D01*
X133299198Y-86344668D01*
X133299200Y-86344668D01*
X133299202Y-86344668D01*
X133355873Y-86339709D01*
X133525892Y-86324835D01*
X133745696Y-86265939D01*
X133951934Y-86169768D01*
X134138339Y-86039247D01*
X134299247Y-85878339D01*
X134429768Y-85691934D01*
X134525939Y-85485696D01*
X134584835Y-85265892D01*
X134604668Y-85039200D01*
X134584835Y-84812508D01*
X134525939Y-84592704D01*
X134429768Y-84386466D01*
X134304802Y-84207995D01*
X134299245Y-84200058D01*
X134138340Y-84039153D01*
X133977577Y-83926586D01*
X133933952Y-83872009D01*
X133924700Y-83825011D01*
X133924700Y-83597452D01*
X133944385Y-83530413D01*
X133997189Y-83484658D01*
X134066347Y-83474714D01*
X134129903Y-83503739D01*
X134136381Y-83509771D01*
X135483907Y-84857297D01*
X135517392Y-84918620D01*
X135518066Y-84964342D01*
X135518214Y-84964356D01*
X135518087Y-84965725D01*
X135518117Y-84967753D01*
X135517684Y-84970065D01*
X135497157Y-85191599D01*
X135497157Y-85191600D01*
X135517684Y-85413135D01*
X135517685Y-85413137D01*
X135578569Y-85627123D01*
X135578575Y-85627138D01*
X135677738Y-85826283D01*
X135677743Y-85826291D01*
X135811820Y-86003838D01*
X135976237Y-86153723D01*
X135976239Y-86153725D01*
X136165395Y-86270845D01*
X136165396Y-86270845D01*
X136165399Y-86270847D01*
X136372860Y-86351218D01*
X136591557Y-86392100D01*
X136591559Y-86392100D01*
X136814041Y-86392100D01*
X136814043Y-86392100D01*
X136922229Y-86371876D01*
X136991743Y-86378907D01*
X137032694Y-86406084D01*
X142480381Y-91853771D01*
X142513866Y-91915094D01*
X142516700Y-91941452D01*
X142516700Y-101888559D01*
X142497015Y-101955598D01*
X142444211Y-102001353D01*
X142375053Y-102011297D01*
X142321579Y-101990136D01*
X142310847Y-101982621D01*
X142310842Y-101982619D01*
X142111908Y-101889855D01*
X142111906Y-101889854D01*
X142111903Y-101889853D01*
X141961085Y-101849440D01*
X141899875Y-101833039D01*
X141899868Y-101833038D01*
X141681202Y-101813908D01*
X141681198Y-101813908D01*
X141462531Y-101833038D01*
X141462524Y-101833039D01*
X141340102Y-101865842D01*
X141250497Y-101889853D01*
X141250495Y-101889853D01*
X141250491Y-101889855D01*
X141051557Y-101982619D01*
X141051549Y-101982623D01*
X140871747Y-102108522D01*
X140871741Y-102108527D01*
X140716527Y-102263741D01*
X140716522Y-102263747D01*
X140590623Y-102443549D01*
X140590619Y-102443557D01*
X140523582Y-102587320D01*
X140477410Y-102639760D01*
X140410217Y-102658912D01*
X140343335Y-102638696D01*
X140298818Y-102587320D01*
X140259820Y-102503688D01*
X140231779Y-102443554D01*
X140231777Y-102443551D01*
X140231776Y-102443549D01*
X140105877Y-102263747D01*
X140105872Y-102263741D01*
X139950658Y-102108527D01*
X139950652Y-102108522D01*
X139770850Y-101982623D01*
X139770842Y-101982619D01*
X139571908Y-101889855D01*
X139571906Y-101889854D01*
X139571903Y-101889853D01*
X139421085Y-101849440D01*
X139359875Y-101833039D01*
X139359868Y-101833038D01*
X139141202Y-101813908D01*
X139141198Y-101813908D01*
X138922531Y-101833038D01*
X138922524Y-101833039D01*
X138800102Y-101865842D01*
X138710497Y-101889853D01*
X138710495Y-101889853D01*
X138710491Y-101889855D01*
X138511557Y-101982619D01*
X138511549Y-101982623D01*
X138331747Y-102108522D01*
X138331741Y-102108527D01*
X138176527Y-102263741D01*
X138176522Y-102263747D01*
X138050623Y-102443549D01*
X138050619Y-102443557D01*
X137983582Y-102587320D01*
X137937410Y-102639760D01*
X137870217Y-102658912D01*
X137803335Y-102638696D01*
X137758818Y-102587320D01*
X137719820Y-102503688D01*
X137691779Y-102443554D01*
X137691777Y-102443551D01*
X137691776Y-102443549D01*
X137565877Y-102263747D01*
X137565872Y-102263741D01*
X137410658Y-102108527D01*
X137410652Y-102108522D01*
X137230850Y-101982623D01*
X137230842Y-101982619D01*
X137031908Y-101889855D01*
X137031906Y-101889854D01*
X137031903Y-101889853D01*
X136881085Y-101849440D01*
X136819875Y-101833039D01*
X136819868Y-101833038D01*
X136601202Y-101813908D01*
X136601198Y-101813908D01*
X136382531Y-101833038D01*
X136382524Y-101833039D01*
X136260102Y-101865842D01*
X136170497Y-101889853D01*
X136170495Y-101889853D01*
X136170491Y-101889855D01*
X135971557Y-101982619D01*
X135971549Y-101982623D01*
X135791747Y-102108522D01*
X135791741Y-102108527D01*
X135636527Y-102263741D01*
X135636522Y-102263747D01*
X135510623Y-102443549D01*
X135510619Y-102443557D01*
X135443582Y-102587320D01*
X135397410Y-102639760D01*
X135330217Y-102658912D01*
X135263335Y-102638696D01*
X135218818Y-102587320D01*
X135179820Y-102503688D01*
X135151779Y-102443554D01*
X135151777Y-102443551D01*
X135151776Y-102443549D01*
X135025877Y-102263747D01*
X135025872Y-102263741D01*
X134870658Y-102108527D01*
X134870652Y-102108522D01*
X134690850Y-101982623D01*
X134690842Y-101982619D01*
X134491908Y-101889855D01*
X134491906Y-101889854D01*
X134491903Y-101889853D01*
X134341085Y-101849440D01*
X134279875Y-101833039D01*
X134279868Y-101833038D01*
X134061202Y-101813908D01*
X134061198Y-101813908D01*
X133842531Y-101833038D01*
X133842524Y-101833039D01*
X133720102Y-101865842D01*
X133630497Y-101889853D01*
X133630495Y-101889853D01*
X133630491Y-101889855D01*
X133431557Y-101982619D01*
X133431549Y-101982623D01*
X133251747Y-102108522D01*
X133251741Y-102108527D01*
X133096527Y-102263741D01*
X133096522Y-102263747D01*
X132970623Y-102443549D01*
X132970619Y-102443557D01*
X132877855Y-102642491D01*
X132821039Y-102854524D01*
X132821038Y-102854531D01*
X132801908Y-103073197D01*
X132801908Y-103073202D01*
X132820344Y-103283939D01*
X132821039Y-103291874D01*
X132877853Y-103503903D01*
X132877854Y-103503906D01*
X132877855Y-103503908D01*
X132970619Y-103702842D01*
X132970623Y-103702850D01*
X133096522Y-103882652D01*
X133096527Y-103882658D01*
X133251741Y-104037872D01*
X133251747Y-104037877D01*
X133431549Y-104163776D01*
X133431551Y-104163777D01*
X133431554Y-104163779D01*
X133630497Y-104256547D01*
X133842526Y-104313361D01*
X133998721Y-104327026D01*
X134061198Y-104332492D01*
X134061200Y-104332492D01*
X134061202Y-104332492D01*
X134115997Y-104327698D01*
X134279874Y-104313361D01*
X134491903Y-104256547D01*
X134690846Y-104163779D01*
X134870657Y-104037874D01*
X135025874Y-103882657D01*
X135151779Y-103702846D01*
X135218818Y-103559078D01*
X135264990Y-103506639D01*
X135332183Y-103487487D01*
X135399064Y-103507702D01*
X135443582Y-103559079D01*
X135510619Y-103702842D01*
X135510623Y-103702850D01*
X135636522Y-103882652D01*
X135636527Y-103882658D01*
X135791741Y-104037872D01*
X135791747Y-104037877D01*
X135971549Y-104163776D01*
X135971551Y-104163777D01*
X135971554Y-104163779D01*
X136170497Y-104256547D01*
X136382526Y-104313361D01*
X136538721Y-104327026D01*
X136601198Y-104332492D01*
X136601200Y-104332492D01*
X136601202Y-104332492D01*
X136655997Y-104327698D01*
X136819874Y-104313361D01*
X137031903Y-104256547D01*
X137230846Y-104163779D01*
X137410657Y-104037874D01*
X137565874Y-103882657D01*
X137691779Y-103702846D01*
X137758818Y-103559078D01*
X137804990Y-103506639D01*
X137872183Y-103487487D01*
X137939064Y-103507702D01*
X137983582Y-103559079D01*
X138050619Y-103702842D01*
X138050623Y-103702850D01*
X138176522Y-103882652D01*
X138176527Y-103882658D01*
X138331741Y-104037872D01*
X138331747Y-104037877D01*
X138511549Y-104163776D01*
X138511551Y-104163777D01*
X138511554Y-104163779D01*
X138710497Y-104256547D01*
X138922526Y-104313361D01*
X139078721Y-104327026D01*
X139141198Y-104332492D01*
X139141200Y-104332492D01*
X139141202Y-104332492D01*
X139195997Y-104327698D01*
X139359874Y-104313361D01*
X139571903Y-104256547D01*
X139770846Y-104163779D01*
X139950657Y-104037874D01*
X140105874Y-103882657D01*
X140231779Y-103702846D01*
X140298818Y-103559078D01*
X140344990Y-103506639D01*
X140412183Y-103487487D01*
X140479064Y-103507702D01*
X140523582Y-103559079D01*
X140590619Y-103702842D01*
X140590623Y-103702850D01*
X140716522Y-103882652D01*
X140716527Y-103882658D01*
X140871741Y-104037872D01*
X140871747Y-104037877D01*
X141051549Y-104163776D01*
X141051551Y-104163777D01*
X141051554Y-104163779D01*
X141250497Y-104256547D01*
X141462526Y-104313361D01*
X141618721Y-104327026D01*
X141681198Y-104332492D01*
X141681200Y-104332492D01*
X141681202Y-104332492D01*
X141735997Y-104327698D01*
X141899874Y-104313361D01*
X142111903Y-104256547D01*
X142310846Y-104163779D01*
X142490657Y-104037874D01*
X142544922Y-103983608D01*
X142606244Y-103950123D01*
X142675936Y-103955107D01*
X142711643Y-103975745D01*
X142716257Y-103979562D01*
X142724898Y-103987425D01*
X146004460Y-107266988D01*
X146014285Y-107279251D01*
X146014506Y-107279069D01*
X146019474Y-107285074D01*
X146068485Y-107331099D01*
X146071284Y-107333812D01*
X146090785Y-107353314D01*
X146090789Y-107353317D01*
X146090792Y-107353320D01*
X146093965Y-107355781D01*
X146102837Y-107363359D01*
X146134681Y-107393262D01*
X146152239Y-107402914D01*
X146168498Y-107413595D01*
X146184327Y-107425873D01*
X146224418Y-107443221D01*
X146234889Y-107448351D01*
X146257443Y-107460750D01*
X146273165Y-107469394D01*
X146273167Y-107469395D01*
X146273171Y-107469397D01*
X146292579Y-107474380D01*
X146310982Y-107480681D01*
X146329364Y-107488636D01*
X146329365Y-107488636D01*
X146329367Y-107488637D01*
X146372513Y-107495470D01*
X146383935Y-107497836D01*
X146426244Y-107508700D01*
X146446279Y-107508700D01*
X146465677Y-107510226D01*
X146485457Y-107513359D01*
X146485458Y-107513360D01*
X146485458Y-107513359D01*
X146485459Y-107513360D01*
X146528938Y-107509250D01*
X146540607Y-107508700D01*
X148750981Y-107508700D01*
X160536057Y-107508700D01*
X160551677Y-107510424D01*
X160551704Y-107510139D01*
X160559460Y-107510871D01*
X160559467Y-107510873D01*
X160626673Y-107508761D01*
X160630568Y-107508700D01*
X160658146Y-107508700D01*
X160658150Y-107508700D01*
X160662124Y-107508197D01*
X160673763Y-107507280D01*
X160717427Y-107505909D01*
X160736669Y-107500317D01*
X160755712Y-107496374D01*
X160775592Y-107493864D01*
X160816201Y-107477785D01*
X160827244Y-107474003D01*
X160869190Y-107461818D01*
X160886429Y-107451622D01*
X160903903Y-107443062D01*
X160922527Y-107435688D01*
X160922527Y-107435687D01*
X160922532Y-107435686D01*
X160957883Y-107410000D01*
X160967614Y-107403608D01*
X161005220Y-107381370D01*
X161019389Y-107367199D01*
X161034179Y-107354568D01*
X161050387Y-107342794D01*
X161078238Y-107309126D01*
X161086079Y-107300509D01*
X164566052Y-103820537D01*
X164627373Y-103787054D01*
X164685823Y-103788444D01*
X164904592Y-103847063D01*
X165081034Y-103862500D01*
X165139999Y-103867659D01*
X165140000Y-103867659D01*
X165140001Y-103867659D01*
X165198966Y-103862500D01*
X165375408Y-103847063D01*
X165603663Y-103785903D01*
X165817829Y-103686035D01*
X166011401Y-103550495D01*
X166158602Y-103403293D01*
X166219924Y-103369810D01*
X166289615Y-103374794D01*
X166345549Y-103416665D01*
X166351821Y-103425879D01*
X166389821Y-103487487D01*
X166447288Y-103580656D01*
X166571344Y-103704712D01*
X166720666Y-103796814D01*
X166887203Y-103851999D01*
X166989991Y-103862500D01*
X168290008Y-103862499D01*
X168392797Y-103851999D01*
X168559334Y-103796814D01*
X168708656Y-103704712D01*
X168832712Y-103580656D01*
X168924814Y-103431334D01*
X168979999Y-103264797D01*
X168990500Y-103162009D01*
X168990499Y-101561992D01*
X168979999Y-101459203D01*
X168924814Y-101292666D01*
X168832712Y-101143344D01*
X168708656Y-101019288D01*
X168615888Y-100962069D01*
X168559336Y-100927187D01*
X168559331Y-100927185D01*
X168547411Y-100923235D01*
X168392797Y-100872001D01*
X168392795Y-100872000D01*
X168290010Y-100861500D01*
X166989998Y-100861500D01*
X166989981Y-100861501D01*
X166887203Y-100872000D01*
X166887200Y-100872001D01*
X166720668Y-100927185D01*
X166720663Y-100927187D01*
X166571342Y-101019289D01*
X166447289Y-101143342D01*
X166351821Y-101298121D01*
X166299873Y-101344845D01*
X166230910Y-101356068D01*
X166166828Y-101328224D01*
X166158601Y-101320705D01*
X166011402Y-101173506D01*
X166011395Y-101173501D01*
X165817834Y-101037967D01*
X165817830Y-101037965D01*
X165747205Y-101005032D01*
X165603663Y-100938097D01*
X165603659Y-100938096D01*
X165603655Y-100938094D01*
X165375413Y-100876938D01*
X165375403Y-100876936D01*
X165140001Y-100856341D01*
X165139999Y-100856341D01*
X164904596Y-100876936D01*
X164904586Y-100876938D01*
X164676344Y-100938094D01*
X164676335Y-100938098D01*
X164462171Y-101037964D01*
X164462169Y-101037965D01*
X164268597Y-101173505D01*
X164101505Y-101340597D01*
X163965965Y-101534169D01*
X163965964Y-101534171D01*
X163872401Y-101734816D01*
X163869053Y-101741999D01*
X163866098Y-101748335D01*
X163866094Y-101748344D01*
X163804938Y-101976586D01*
X163804936Y-101976596D01*
X163789500Y-102153032D01*
X163789500Y-102570970D01*
X163805131Y-102749635D01*
X163791364Y-102818135D01*
X163769284Y-102848123D01*
X160396028Y-106221381D01*
X160334705Y-106254866D01*
X160308347Y-106257700D01*
X146815716Y-106257700D01*
X146748677Y-106238015D01*
X146728035Y-106221381D01*
X144849227Y-104342573D01*
X144815742Y-104281250D01*
X144820726Y-104211558D01*
X144862598Y-104155625D01*
X144865718Y-104153365D01*
X145030657Y-104037874D01*
X145185874Y-103882657D01*
X145311779Y-103702846D01*
X145378818Y-103559078D01*
X145424990Y-103506639D01*
X145492183Y-103487487D01*
X145559064Y-103507702D01*
X145603582Y-103559079D01*
X145670619Y-103702842D01*
X145670623Y-103702850D01*
X145796522Y-103882652D01*
X145796527Y-103882658D01*
X145951741Y-104037872D01*
X145951747Y-104037877D01*
X146131549Y-104163776D01*
X146131551Y-104163777D01*
X146131554Y-104163779D01*
X146330497Y-104256547D01*
X146542526Y-104313361D01*
X146698721Y-104327026D01*
X146761198Y-104332492D01*
X146761200Y-104332492D01*
X146761202Y-104332492D01*
X146815997Y-104327698D01*
X146979874Y-104313361D01*
X147191903Y-104256547D01*
X147390846Y-104163779D01*
X147570657Y-104037874D01*
X147725874Y-103882657D01*
X147851779Y-103702846D01*
X147918818Y-103559078D01*
X147964990Y-103506639D01*
X148032183Y-103487487D01*
X148099064Y-103507702D01*
X148143582Y-103559079D01*
X148210619Y-103702842D01*
X148210623Y-103702850D01*
X148336522Y-103882652D01*
X148336527Y-103882658D01*
X148491741Y-104037872D01*
X148491747Y-104037877D01*
X148671549Y-104163776D01*
X148671551Y-104163777D01*
X148671554Y-104163779D01*
X148870497Y-104256547D01*
X149082526Y-104313361D01*
X149238721Y-104327026D01*
X149301198Y-104332492D01*
X149301200Y-104332492D01*
X149301202Y-104332492D01*
X149355997Y-104327698D01*
X149519874Y-104313361D01*
X149731903Y-104256547D01*
X149930846Y-104163779D01*
X150110657Y-104037874D01*
X150265874Y-103882657D01*
X150271186Y-103875070D01*
X153126700Y-103875070D01*
X153126701Y-103875076D01*
X153133108Y-103934683D01*
X153183402Y-104069528D01*
X153183406Y-104069535D01*
X153269652Y-104184744D01*
X153269655Y-104184747D01*
X153384864Y-104270993D01*
X153384871Y-104270997D01*
X153519717Y-104321291D01*
X153519716Y-104321291D01*
X153526644Y-104322035D01*
X153579327Y-104327700D01*
X155183072Y-104327699D01*
X155242683Y-104321291D01*
X155377531Y-104270996D01*
X155492746Y-104184746D01*
X155578996Y-104069531D01*
X155629291Y-103934683D01*
X155635700Y-103875073D01*
X155635699Y-102271328D01*
X155629291Y-102211717D01*
X155623043Y-102194966D01*
X155578997Y-102076871D01*
X155578993Y-102076864D01*
X155564273Y-102057201D01*
X158562132Y-102057201D01*
X158581964Y-102283886D01*
X158581966Y-102283897D01*
X158640858Y-102503688D01*
X158640861Y-102503697D01*
X158737031Y-102709932D01*
X158737032Y-102709934D01*
X158867554Y-102896341D01*
X159028458Y-103057245D01*
X159035493Y-103062171D01*
X159214866Y-103187768D01*
X159421104Y-103283939D01*
X159421109Y-103283940D01*
X159421111Y-103283941D01*
X159450718Y-103291874D01*
X159640908Y-103342835D01*
X159802830Y-103357001D01*
X159867598Y-103362668D01*
X159867600Y-103362668D01*
X159867602Y-103362668D01*
X159930385Y-103357175D01*
X160094292Y-103342835D01*
X160314096Y-103283939D01*
X160520334Y-103187768D01*
X160706739Y-103057247D01*
X160867647Y-102896339D01*
X160998168Y-102709934D01*
X161094339Y-102503696D01*
X161153235Y-102283892D01*
X161173068Y-102057200D01*
X161153235Y-101830508D01*
X161094339Y-101610704D01*
X160998168Y-101404466D01*
X160867647Y-101218061D01*
X160867645Y-101218058D01*
X160706741Y-101057154D01*
X160520334Y-100926632D01*
X160520332Y-100926631D01*
X160314097Y-100830461D01*
X160314088Y-100830458D01*
X160094297Y-100771566D01*
X160094293Y-100771565D01*
X160094292Y-100771565D01*
X160094291Y-100771564D01*
X160094286Y-100771564D01*
X159867602Y-100751732D01*
X159867598Y-100751732D01*
X159640913Y-100771564D01*
X159640902Y-100771566D01*
X159421111Y-100830458D01*
X159421102Y-100830461D01*
X159214867Y-100926631D01*
X159214865Y-100926632D01*
X159028458Y-101057154D01*
X158867554Y-101218058D01*
X158737032Y-101404465D01*
X158737031Y-101404467D01*
X158640861Y-101610702D01*
X158640858Y-101610711D01*
X158581966Y-101830502D01*
X158581964Y-101830513D01*
X158562132Y-102057198D01*
X158562132Y-102057201D01*
X155564273Y-102057201D01*
X155492747Y-101961655D01*
X155492744Y-101961652D01*
X155377535Y-101875406D01*
X155377528Y-101875402D01*
X155242682Y-101825108D01*
X155242683Y-101825108D01*
X155183083Y-101818701D01*
X155183081Y-101818700D01*
X155183073Y-101818700D01*
X155183064Y-101818700D01*
X153579329Y-101818700D01*
X153579323Y-101818701D01*
X153519716Y-101825108D01*
X153384871Y-101875402D01*
X153384864Y-101875406D01*
X153269655Y-101961652D01*
X153269652Y-101961655D01*
X153183406Y-102076864D01*
X153183402Y-102076871D01*
X153133108Y-102211717D01*
X153127515Y-102263743D01*
X153126701Y-102271323D01*
X153126700Y-102271335D01*
X153126700Y-103875070D01*
X150271186Y-103875070D01*
X150391779Y-103702846D01*
X150484547Y-103503903D01*
X150541361Y-103291874D01*
X150560492Y-103073200D01*
X150559096Y-103057247D01*
X150550982Y-102964503D01*
X150541361Y-102854526D01*
X150484547Y-102642497D01*
X150391779Y-102443554D01*
X150391777Y-102443551D01*
X150391776Y-102443549D01*
X150265877Y-102263747D01*
X150265872Y-102263741D01*
X150110658Y-102108527D01*
X150110652Y-102108522D01*
X149930850Y-101982623D01*
X149930842Y-101982619D01*
X149731908Y-101889855D01*
X149731906Y-101889854D01*
X149731903Y-101889853D01*
X149581085Y-101849440D01*
X149519875Y-101833039D01*
X149519868Y-101833038D01*
X149301202Y-101813908D01*
X149301198Y-101813908D01*
X149082531Y-101833038D01*
X149082524Y-101833039D01*
X149043707Y-101843440D01*
X148973857Y-101841775D01*
X148923935Y-101811345D01*
X147634761Y-100522171D01*
X146331569Y-99218978D01*
X146298084Y-99157655D01*
X146295250Y-99131297D01*
X146295250Y-95052967D01*
X161289500Y-95052967D01*
X161304936Y-95229403D01*
X161304938Y-95229413D01*
X161366094Y-95457655D01*
X161366096Y-95457659D01*
X161366097Y-95457663D01*
X161387814Y-95504235D01*
X161465964Y-95671828D01*
X161465965Y-95671830D01*
X161601505Y-95865402D01*
X161696835Y-95960731D01*
X161768599Y-96032495D01*
X161811675Y-96062657D01*
X161962165Y-96168032D01*
X161962167Y-96168033D01*
X161962170Y-96168035D01*
X162176337Y-96267903D01*
X162404592Y-96329063D01*
X162581034Y-96344500D01*
X162639999Y-96349659D01*
X162640000Y-96349659D01*
X162640001Y-96349659D01*
X162698966Y-96344500D01*
X162875408Y-96329063D01*
X163103663Y-96267903D01*
X163317829Y-96168035D01*
X163511401Y-96032495D01*
X163678495Y-95865401D01*
X163814035Y-95671829D01*
X163827012Y-95644001D01*
X166289500Y-95644001D01*
X166289501Y-95644018D01*
X166300000Y-95746796D01*
X166300001Y-95746799D01*
X166355185Y-95913331D01*
X166355187Y-95913336D01*
X166390069Y-95969888D01*
X166447288Y-96062656D01*
X166571344Y-96186712D01*
X166720666Y-96278814D01*
X166887203Y-96333999D01*
X166989991Y-96344500D01*
X168290008Y-96344499D01*
X168392797Y-96333999D01*
X168559334Y-96278814D01*
X168708656Y-96186712D01*
X168832712Y-96062656D01*
X168924814Y-95913334D01*
X168979999Y-95746797D01*
X168990500Y-95644009D01*
X168990499Y-94093992D01*
X168979999Y-93991203D01*
X168924814Y-93824666D01*
X168832712Y-93675344D01*
X168708656Y-93551288D01*
X168603676Y-93486536D01*
X168559336Y-93459187D01*
X168559331Y-93459185D01*
X168557862Y-93458698D01*
X168392797Y-93404001D01*
X168392795Y-93404000D01*
X168290010Y-93393500D01*
X166989998Y-93393500D01*
X166989981Y-93393501D01*
X166887203Y-93404000D01*
X166887200Y-93404001D01*
X166720668Y-93459185D01*
X166720663Y-93459187D01*
X166571342Y-93551289D01*
X166447289Y-93675342D01*
X166355187Y-93824663D01*
X166355185Y-93824668D01*
X166327349Y-93908670D01*
X166300001Y-93991203D01*
X166300001Y-93991204D01*
X166300000Y-93991204D01*
X166289500Y-94093983D01*
X166289500Y-95644001D01*
X163827012Y-95644001D01*
X163913903Y-95457663D01*
X163975063Y-95229408D01*
X163990500Y-95052966D01*
X163990500Y-94685034D01*
X163975063Y-94508592D01*
X163913903Y-94280337D01*
X163814035Y-94066171D01*
X163793141Y-94036330D01*
X163678494Y-93872597D01*
X163511402Y-93705506D01*
X163511395Y-93705501D01*
X163504414Y-93700613D01*
X163468324Y-93675342D01*
X163317834Y-93569967D01*
X163317830Y-93569965D01*
X163277777Y-93551288D01*
X163103663Y-93470097D01*
X163103659Y-93470096D01*
X163103655Y-93470094D01*
X162875413Y-93408938D01*
X162875403Y-93408936D01*
X162640001Y-93388341D01*
X162639999Y-93388341D01*
X162404596Y-93408936D01*
X162404586Y-93408938D01*
X162176344Y-93470094D01*
X162176335Y-93470098D01*
X161962171Y-93569964D01*
X161962169Y-93569965D01*
X161768597Y-93705505D01*
X161601505Y-93872597D01*
X161465965Y-94066169D01*
X161465964Y-94066171D01*
X161366098Y-94280335D01*
X161366094Y-94280344D01*
X161304938Y-94508586D01*
X161304936Y-94508596D01*
X161289500Y-94685032D01*
X161289500Y-95052967D01*
X146295250Y-95052967D01*
X146295250Y-91362737D01*
X146296974Y-91347123D01*
X146296688Y-91347096D01*
X146297422Y-91339333D01*
X146295311Y-91272143D01*
X146295250Y-91268249D01*
X146295250Y-91240651D01*
X146295250Y-91240650D01*
X146294747Y-91236670D01*
X146293830Y-91225021D01*
X146292459Y-91181374D01*
X146292459Y-91181372D01*
X146286870Y-91162137D01*
X146282924Y-91143084D01*
X146282571Y-91140290D01*
X146280414Y-91123208D01*
X146264328Y-91082581D01*
X146260553Y-91071554D01*
X146248367Y-91029610D01*
X146238171Y-91012369D01*
X146229610Y-90994893D01*
X146222236Y-90976269D01*
X146222235Y-90976267D01*
X146196559Y-90940926D01*
X146190162Y-90931190D01*
X146167920Y-90893579D01*
X146167917Y-90893576D01*
X146167915Y-90893573D01*
X146153755Y-90879413D01*
X146141120Y-90864620D01*
X146129343Y-90848412D01*
X146095695Y-90820576D01*
X146087054Y-90812713D01*
X132803345Y-77529004D01*
X132769860Y-77467681D01*
X132774844Y-77397989D01*
X132816716Y-77342056D01*
X132882180Y-77317639D01*
X132889295Y-77317384D01*
X132889996Y-77317322D01*
X132890000Y-77317323D01*
X133110068Y-77298070D01*
X133154022Y-77286292D01*
X133223870Y-77287955D01*
X133273795Y-77318385D01*
X135974600Y-80019191D01*
X138649197Y-82693788D01*
X138659022Y-82706051D01*
X138659243Y-82705869D01*
X138664211Y-82711874D01*
X138664213Y-82711876D01*
X138664214Y-82711877D01*
X138709940Y-82754817D01*
X138713222Y-82757899D01*
X138716021Y-82760612D01*
X138735522Y-82780114D01*
X138735526Y-82780117D01*
X138735529Y-82780120D01*
X138738702Y-82782581D01*
X138747574Y-82790159D01*
X138779418Y-82820062D01*
X138796976Y-82829714D01*
X138813233Y-82840393D01*
X138829064Y-82852673D01*
X138858803Y-82865542D01*
X138869152Y-82870021D01*
X138879641Y-82875160D01*
X138903457Y-82888252D01*
X138917908Y-82896197D01*
X138930523Y-82899435D01*
X138937305Y-82901177D01*
X138955719Y-82907481D01*
X138974104Y-82915438D01*
X139017261Y-82922273D01*
X139028656Y-82924632D01*
X139070981Y-82935500D01*
X139091016Y-82935500D01*
X139110413Y-82937026D01*
X139130196Y-82940160D01*
X139173675Y-82936050D01*
X139185344Y-82935500D01*
X147716252Y-82935500D01*
X147783291Y-82955185D01*
X147808400Y-82976526D01*
X147814126Y-82982885D01*
X147814130Y-82982889D01*
X147967265Y-83094148D01*
X147967270Y-83094151D01*
X148140192Y-83171142D01*
X148140197Y-83171144D01*
X148325354Y-83210500D01*
X148325355Y-83210500D01*
X148514644Y-83210500D01*
X148514646Y-83210500D01*
X148699803Y-83171144D01*
X148872730Y-83094151D01*
X149025871Y-82982888D01*
X149152533Y-82842216D01*
X149247179Y-82678284D01*
X149305674Y-82498256D01*
X149325460Y-82310000D01*
X149305674Y-82121744D01*
X149251112Y-81953823D01*
X149247181Y-81941722D01*
X149247180Y-81941721D01*
X149247179Y-81941716D01*
X149152533Y-81777784D01*
X149025871Y-81637112D01*
X149025870Y-81637111D01*
X148872734Y-81525851D01*
X148872729Y-81525848D01*
X148699807Y-81448857D01*
X148699802Y-81448855D01*
X148554001Y-81417865D01*
X148514646Y-81409500D01*
X148325354Y-81409500D01*
X148292897Y-81416398D01*
X148140197Y-81448855D01*
X148140192Y-81448857D01*
X147967270Y-81525848D01*
X147967265Y-81525851D01*
X147814130Y-81637110D01*
X147814126Y-81637114D01*
X147808400Y-81643474D01*
X147748913Y-81680121D01*
X147716252Y-81684500D01*
X139460452Y-81684500D01*
X139393413Y-81664815D01*
X139372771Y-81648181D01*
X134158386Y-76433795D01*
X134124901Y-76372472D01*
X134126293Y-76314018D01*
X134138069Y-76270072D01*
X134138069Y-76270070D01*
X134138070Y-76270068D01*
X134157323Y-76050000D01*
X134156492Y-76040507D01*
X134141688Y-75871292D01*
X134138070Y-75829932D01*
X134080894Y-75616550D01*
X133987534Y-75416339D01*
X133885745Y-75270968D01*
X133860827Y-75235381D01*
X133785026Y-75159580D01*
X133704620Y-75079174D01*
X133704616Y-75079171D01*
X133704615Y-75079170D01*
X133523666Y-74952468D01*
X133523662Y-74952466D01*
X133517301Y-74949500D01*
X133323450Y-74859106D01*
X133323447Y-74859105D01*
X133323445Y-74859104D01*
X133110070Y-74801930D01*
X133110062Y-74801929D01*
X132890002Y-74782677D01*
X132889998Y-74782677D01*
X132669937Y-74801929D01*
X132669929Y-74801930D01*
X132456554Y-74859104D01*
X132456548Y-74859107D01*
X132256340Y-74952465D01*
X132256338Y-74952466D01*
X132075380Y-75079173D01*
X132074543Y-75079876D01*
X132074099Y-75080069D01*
X132070945Y-75082279D01*
X132070501Y-75081644D01*
X132010534Y-75107889D01*
X131941542Y-75096848D01*
X131907157Y-75072567D01*
X130932279Y-74097688D01*
X130898794Y-74036365D01*
X130899068Y-73982417D01*
X130934191Y-73828537D01*
X130944290Y-73603670D01*
X130914075Y-73380613D01*
X130844517Y-73166536D01*
X130837675Y-73153821D01*
X130834252Y-73147459D01*
X130819818Y-73079096D01*
X130844636Y-73013783D01*
X130900825Y-72972255D01*
X130943446Y-72964700D01*
X139871347Y-72964700D01*
X139938386Y-72984385D01*
X139984141Y-73037189D01*
X139994085Y-73106347D01*
X139965060Y-73169903D01*
X139959028Y-73176381D01*
X138353794Y-74781613D01*
X138292471Y-74815098D01*
X138234020Y-74813707D01*
X138190068Y-74801930D01*
X138055899Y-74790192D01*
X137970002Y-74782677D01*
X137969998Y-74782677D01*
X137749937Y-74801929D01*
X137749929Y-74801930D01*
X137536554Y-74859104D01*
X137536548Y-74859107D01*
X137336340Y-74952465D01*
X137336338Y-74952466D01*
X137155377Y-75079175D01*
X136999175Y-75235377D01*
X136872466Y-75416338D01*
X136872465Y-75416340D01*
X136779107Y-75616548D01*
X136779104Y-75616554D01*
X136721930Y-75829929D01*
X136721929Y-75829937D01*
X136702677Y-76049997D01*
X136702677Y-76050002D01*
X136721929Y-76270062D01*
X136721930Y-76270070D01*
X136779104Y-76483445D01*
X136779105Y-76483447D01*
X136779106Y-76483450D01*
X136800813Y-76530000D01*
X136872466Y-76683662D01*
X136872468Y-76683666D01*
X136999170Y-76864615D01*
X136999175Y-76864621D01*
X137155378Y-77020824D01*
X137155384Y-77020829D01*
X137336333Y-77147531D01*
X137336335Y-77147532D01*
X137336338Y-77147534D01*
X137536550Y-77240894D01*
X137749932Y-77298070D01*
X137907123Y-77311822D01*
X137969998Y-77317323D01*
X137970000Y-77317323D01*
X137970002Y-77317323D01*
X138025017Y-77312509D01*
X138190068Y-77298070D01*
X138403450Y-77240894D01*
X138603662Y-77147534D01*
X138784620Y-77020826D01*
X138940826Y-76864620D01*
X139067534Y-76683662D01*
X139127618Y-76554811D01*
X139173790Y-76502371D01*
X139240983Y-76483219D01*
X139307865Y-76503435D01*
X139352382Y-76554811D01*
X139412464Y-76683658D01*
X139412468Y-76683666D01*
X139539170Y-76864615D01*
X139539175Y-76864621D01*
X139695378Y-77020824D01*
X139695384Y-77020829D01*
X139876333Y-77147531D01*
X139876335Y-77147532D01*
X139876338Y-77147534D01*
X140076550Y-77240894D01*
X140289932Y-77298070D01*
X140447123Y-77311822D01*
X140509998Y-77317323D01*
X140510000Y-77317323D01*
X140510002Y-77317323D01*
X140565017Y-77312509D01*
X140730068Y-77298070D01*
X140943450Y-77240894D01*
X141143662Y-77147534D01*
X141324620Y-77020826D01*
X141480826Y-76864620D01*
X141576225Y-76728376D01*
X141630802Y-76684752D01*
X141677800Y-76675500D01*
X156480343Y-76675500D01*
X156547382Y-76695185D01*
X156593137Y-76747989D01*
X156598274Y-76761182D01*
X156642818Y-76898278D01*
X156642821Y-76898284D01*
X156737467Y-77062216D01*
X156814287Y-77147533D01*
X156864129Y-77202888D01*
X157017265Y-77314148D01*
X157017270Y-77314151D01*
X157190192Y-77391142D01*
X157190197Y-77391144D01*
X157375354Y-77430500D01*
X157375355Y-77430500D01*
X157564644Y-77430500D01*
X157564646Y-77430500D01*
X157749803Y-77391144D01*
X157922730Y-77314151D01*
X158075871Y-77202888D01*
X158202533Y-77062216D01*
X158297179Y-76898284D01*
X158355674Y-76718256D01*
X158375460Y-76530000D01*
X158355674Y-76341744D01*
X158315737Y-76218830D01*
X165988685Y-76218830D01*
X166019128Y-76495501D01*
X166019130Y-76495512D01*
X166085136Y-76747989D01*
X166089531Y-76764799D01*
X166144807Y-76894875D01*
X166162542Y-76936609D01*
X166198393Y-77020972D01*
X166223563Y-77062214D01*
X166343390Y-77258560D01*
X166343397Y-77258569D01*
X166521440Y-77472510D01*
X166521446Y-77472516D01*
X166668178Y-77603988D01*
X166728745Y-77658256D01*
X166960883Y-77811837D01*
X167212909Y-77929982D01*
X167212916Y-77929984D01*
X167212918Y-77929985D01*
X167479439Y-78010170D01*
X167479446Y-78010171D01*
X167479451Y-78010173D01*
X167754828Y-78050700D01*
X167754833Y-78050700D01*
X167963487Y-78050700D01*
X167963489Y-78050700D01*
X167963494Y-78050699D01*
X167963506Y-78050699D01*
X168002086Y-78047875D01*
X168171601Y-78035468D01*
X168285155Y-78010173D01*
X168443279Y-77974950D01*
X168443281Y-77974949D01*
X168443286Y-77974948D01*
X168703263Y-77875515D01*
X168945993Y-77739289D01*
X169166301Y-77569172D01*
X169359492Y-77368792D01*
X169521449Y-77142418D01*
X169583888Y-77020972D01*
X169648712Y-76894890D01*
X169648714Y-76894883D01*
X169648719Y-76894875D01*
X169720775Y-76683662D01*
X169738587Y-76631452D01*
X169738587Y-76631448D01*
X169738591Y-76631439D01*
X169789148Y-76357726D01*
X169799314Y-76079568D01*
X169768871Y-75802894D01*
X169698469Y-75533601D01*
X169589607Y-75277428D01*
X169444607Y-75039836D01*
X169382014Y-74964623D01*
X169266559Y-74825889D01*
X169266553Y-74825883D01*
X169059255Y-74640144D01*
X168827119Y-74486564D01*
X168757869Y-74454101D01*
X168575091Y-74368418D01*
X168575086Y-74368416D01*
X168575081Y-74368414D01*
X168308560Y-74288229D01*
X168308546Y-74288226D01*
X168189723Y-74270739D01*
X168033172Y-74247700D01*
X167824511Y-74247700D01*
X167824493Y-74247700D01*
X167616399Y-74262932D01*
X167616385Y-74262934D01*
X167344720Y-74323449D01*
X167344713Y-74323452D01*
X167084734Y-74422886D01*
X166842010Y-74559109D01*
X166621694Y-74729231D01*
X166428511Y-74929604D01*
X166428509Y-74929606D01*
X166266552Y-75155980D01*
X166266549Y-75155984D01*
X166139287Y-75403509D01*
X166139278Y-75403531D01*
X166049412Y-75666947D01*
X166049408Y-75666965D01*
X165998852Y-75940674D01*
X165998851Y-75940681D01*
X165988685Y-76218830D01*
X158315737Y-76218830D01*
X158297179Y-76161716D01*
X158202533Y-75997784D01*
X158075871Y-75857112D01*
X158049077Y-75837645D01*
X157922734Y-75745851D01*
X157922729Y-75745848D01*
X157749807Y-75668857D01*
X157749802Y-75668855D01*
X157587760Y-75634413D01*
X157564646Y-75629500D01*
X157564645Y-75629500D01*
X157505453Y-75629500D01*
X157438414Y-75609815D01*
X157417774Y-75593183D01*
X157404471Y-75579880D01*
X157401286Y-75577409D01*
X157392434Y-75569848D01*
X157360582Y-75539938D01*
X157360580Y-75539936D01*
X157360577Y-75539935D01*
X157343029Y-75530288D01*
X157326763Y-75519604D01*
X157310932Y-75507324D01*
X157270849Y-75489978D01*
X157260363Y-75484841D01*
X157222094Y-75463803D01*
X157222092Y-75463802D01*
X157202693Y-75458822D01*
X157184281Y-75452518D01*
X157165898Y-75444562D01*
X157165892Y-75444560D01*
X157122760Y-75437729D01*
X157111322Y-75435361D01*
X157069020Y-75424500D01*
X157069019Y-75424500D01*
X157048984Y-75424500D01*
X157029586Y-75422973D01*
X157022162Y-75421797D01*
X157009805Y-75419840D01*
X157009804Y-75419840D01*
X156966325Y-75423950D01*
X156954656Y-75424500D01*
X141677799Y-75424500D01*
X141610760Y-75404815D01*
X141576224Y-75371623D01*
X141480827Y-75235381D01*
X141405026Y-75159580D01*
X141324620Y-75079174D01*
X141324616Y-75079171D01*
X141324615Y-75079170D01*
X141143666Y-74952468D01*
X141143662Y-74952466D01*
X141137301Y-74949500D01*
X140943450Y-74859106D01*
X140943447Y-74859105D01*
X140943445Y-74859104D01*
X140730070Y-74801930D01*
X140730062Y-74801929D01*
X140510002Y-74782677D01*
X140509997Y-74782677D01*
X140424093Y-74790192D01*
X140355594Y-74776425D01*
X140305411Y-74727809D01*
X140289478Y-74659781D01*
X140312854Y-74593937D01*
X140325597Y-74578992D01*
X140772772Y-74131819D01*
X140834095Y-74098334D01*
X140860453Y-74095500D01*
X148646252Y-74095500D01*
X148713291Y-74115185D01*
X148738400Y-74136526D01*
X148744126Y-74142885D01*
X148744130Y-74142889D01*
X148897265Y-74254148D01*
X148897270Y-74254151D01*
X149070192Y-74331142D01*
X149070197Y-74331144D01*
X149255354Y-74370500D01*
X149255355Y-74370500D01*
X149444644Y-74370500D01*
X149444646Y-74370500D01*
X149629803Y-74331144D01*
X149802730Y-74254151D01*
X149955871Y-74142888D01*
X150082533Y-74002216D01*
X150177179Y-73838284D01*
X150235674Y-73658256D01*
X150255460Y-73470000D01*
X150235674Y-73281744D01*
X150185399Y-73127017D01*
X150183405Y-73057177D01*
X150219485Y-72997344D01*
X150282186Y-72966516D01*
X150303331Y-72964700D01*
X167996200Y-72964700D01*
X168063239Y-72984385D01*
X168097775Y-73017576D01*
X168193174Y-73153820D01*
X168193175Y-73153821D01*
X168349378Y-73310024D01*
X168349384Y-73310029D01*
X168530333Y-73436731D01*
X168530335Y-73436732D01*
X168530338Y-73436734D01*
X168730550Y-73530094D01*
X168943932Y-73587270D01*
X169101123Y-73601022D01*
X169163998Y-73606523D01*
X169164000Y-73606523D01*
X169164002Y-73606523D01*
X169219017Y-73601709D01*
X169384068Y-73587270D01*
X169597450Y-73530094D01*
X169797662Y-73436734D01*
X169978620Y-73310026D01*
X170134826Y-73153820D01*
X170261534Y-72972862D01*
X170354894Y-72772650D01*
X170412070Y-72559268D01*
X170431323Y-72339200D01*
X170431209Y-72337901D01*
X170412070Y-72119137D01*
X170412070Y-72119132D01*
X170354894Y-71905750D01*
X170261534Y-71705539D01*
X170168067Y-71572053D01*
X170134827Y-71524581D01*
X170060386Y-71450140D01*
X169978620Y-71368374D01*
X169978616Y-71368371D01*
X169978615Y-71368370D01*
X169797666Y-71241668D01*
X169797662Y-71241666D01*
X169797660Y-71241665D01*
X169597450Y-71148306D01*
X169597447Y-71148305D01*
X169597445Y-71148304D01*
X169384070Y-71091130D01*
X169384062Y-71091129D01*
X169164002Y-71071877D01*
X169163998Y-71071877D01*
X168943937Y-71091129D01*
X168943929Y-71091130D01*
X168730554Y-71148304D01*
X168730548Y-71148307D01*
X168530340Y-71241665D01*
X168530338Y-71241666D01*
X168349377Y-71368375D01*
X168193175Y-71524577D01*
X168097776Y-71660823D01*
X168043199Y-71704448D01*
X167996201Y-71713700D01*
X130984029Y-71713700D01*
X130916990Y-71694015D01*
X130871235Y-71641211D01*
X130861291Y-71572053D01*
X130870006Y-71540967D01*
X130884103Y-71507988D01*
X130934191Y-71288537D01*
X130944290Y-71063670D01*
X130914075Y-70840613D01*
X130844517Y-70626536D01*
X130737852Y-70428319D01*
X130637564Y-70302562D01*
X130597510Y-70252336D01*
X130527269Y-70190968D01*
X130427996Y-70104235D01*
X130234767Y-69988787D01*
X130234768Y-69988787D01*
X130234766Y-69988786D01*
X130234764Y-69988785D01*
X130175896Y-69966691D01*
X130120050Y-69924706D01*
X130095767Y-69859191D01*
X130110759Y-69790949D01*
X130160265Y-69741645D01*
X130165610Y-69738907D01*
X130333973Y-69657829D01*
X130516078Y-69525522D01*
X130671632Y-69362825D01*
X130795635Y-69174968D01*
X130884103Y-68967988D01*
X130934191Y-68748537D01*
X130944290Y-68523670D01*
X130914075Y-68300613D01*
X130844517Y-68086536D01*
X130737852Y-67888319D01*
X130637564Y-67762562D01*
X130597510Y-67712336D01*
X130527269Y-67650968D01*
X130427996Y-67564235D01*
X130234767Y-67448787D01*
X130234768Y-67448787D01*
X130234766Y-67448786D01*
X130234764Y-67448785D01*
X130175896Y-67426691D01*
X130120050Y-67384706D01*
X130095767Y-67319191D01*
X130110759Y-67250949D01*
X130160265Y-67201645D01*
X130165610Y-67198907D01*
X130333973Y-67117829D01*
X130516078Y-66985522D01*
X130671632Y-66822825D01*
X130795635Y-66634968D01*
X130884103Y-66427988D01*
X130934191Y-66208537D01*
X130944290Y-65983670D01*
X130914075Y-65760613D01*
X130844517Y-65546536D01*
X130737852Y-65348319D01*
X130637564Y-65222562D01*
X130597510Y-65172336D01*
X130527269Y-65110968D01*
X130427996Y-65024235D01*
X130234767Y-64908787D01*
X130234768Y-64908787D01*
X130234766Y-64908786D01*
X130234764Y-64908785D01*
X130175896Y-64886691D01*
X130120050Y-64844706D01*
X130095767Y-64779191D01*
X130110759Y-64710949D01*
X130160265Y-64661645D01*
X130165610Y-64658907D01*
X130333973Y-64577829D01*
X130516078Y-64445522D01*
X130671632Y-64282825D01*
X130795635Y-64094968D01*
X130801734Y-64080700D01*
X130884100Y-63887995D01*
X130884099Y-63887995D01*
X130884103Y-63887988D01*
X130934191Y-63668537D01*
X130944290Y-63443670D01*
X130914075Y-63220613D01*
X130844517Y-63006536D01*
X130737852Y-62808319D01*
X130679013Y-62734537D01*
X130597510Y-62632336D01*
X130559187Y-62598854D01*
X130427996Y-62484235D01*
X130234764Y-62368785D01*
X130116775Y-62324503D01*
X130024023Y-62289692D01*
X129802550Y-62249500D01*
X129802547Y-62249500D01*
X129333845Y-62249500D01*
X129296190Y-62252889D01*
X129165813Y-62264622D01*
X129165807Y-62264623D01*
X128948839Y-62324503D01*
X128948826Y-62324508D01*
X128746033Y-62422167D01*
X128746025Y-62422171D01*
X128563927Y-62554473D01*
X128563917Y-62554481D01*
X128554814Y-62564003D01*
X128494257Y-62598854D01*
X128424471Y-62595433D01*
X128367613Y-62554825D01*
X128349008Y-62521642D01*
X128343797Y-62507671D01*
X128343793Y-62507664D01*
X128257547Y-62392455D01*
X128257544Y-62392452D01*
X128142335Y-62306206D01*
X128142328Y-62306202D01*
X128007482Y-62255908D01*
X128007483Y-62255908D01*
X127947883Y-62249501D01*
X127947881Y-62249500D01*
X127947873Y-62249500D01*
X127947865Y-62249500D01*
X126524500Y-62249500D01*
X126457461Y-62229815D01*
X126411706Y-62177011D01*
X126400500Y-62125500D01*
X126400500Y-60150000D01*
X128424357Y-60150000D01*
X128444884Y-60371535D01*
X128444885Y-60371537D01*
X128505769Y-60585523D01*
X128505775Y-60585538D01*
X128604938Y-60784683D01*
X128604943Y-60784691D01*
X128739020Y-60962238D01*
X128903437Y-61112123D01*
X128903439Y-61112125D01*
X129092595Y-61229245D01*
X129092596Y-61229245D01*
X129092599Y-61229247D01*
X129300060Y-61309618D01*
X129518757Y-61350500D01*
X129518759Y-61350500D01*
X129741241Y-61350500D01*
X129741243Y-61350500D01*
X129959940Y-61309618D01*
X130167401Y-61229247D01*
X130356562Y-61112124D01*
X130507432Y-60974588D01*
X130520979Y-60962238D01*
X130522966Y-60959608D01*
X130655058Y-60784689D01*
X130754229Y-60585528D01*
X130815115Y-60371536D01*
X130835643Y-60150000D01*
X130833814Y-60130267D01*
X130815115Y-59928464D01*
X130815114Y-59928462D01*
X130812906Y-59920703D01*
X130754229Y-59714472D01*
X130754224Y-59714461D01*
X130655061Y-59515316D01*
X130655056Y-59515308D01*
X130520979Y-59337761D01*
X130356562Y-59187876D01*
X130356560Y-59187874D01*
X130167404Y-59070754D01*
X130167398Y-59070752D01*
X129959940Y-58990382D01*
X129741243Y-58949500D01*
X129518757Y-58949500D01*
X129300060Y-58990382D01*
X129168864Y-59041207D01*
X129092601Y-59070752D01*
X129092595Y-59070754D01*
X128903439Y-59187874D01*
X128903437Y-59187876D01*
X128739020Y-59337761D01*
X128604943Y-59515308D01*
X128604938Y-59515316D01*
X128505775Y-59714461D01*
X128505769Y-59714476D01*
X128444885Y-59928462D01*
X128444884Y-59928464D01*
X128424357Y-60149999D01*
X128424357Y-60150000D01*
X126400500Y-60150000D01*
X126400500Y-60113903D01*
X126420185Y-60046864D01*
X126436819Y-60026222D01*
X127622009Y-58841032D01*
X128854251Y-57608789D01*
X128915572Y-57575306D01*
X128985264Y-57580290D01*
X128986718Y-57580843D01*
X129190060Y-57659618D01*
X129408757Y-57700500D01*
X129408759Y-57700500D01*
X129631241Y-57700500D01*
X129631243Y-57700500D01*
X129849940Y-57659618D01*
X130057401Y-57579247D01*
X130246562Y-57462124D01*
X130387516Y-57333627D01*
X130410979Y-57312238D01*
X130432308Y-57283995D01*
X130514788Y-57174772D01*
X130570897Y-57133137D01*
X130613742Y-57125500D01*
X138759548Y-57125500D01*
X138826587Y-57145185D01*
X138847229Y-57161819D01*
X142649066Y-60963656D01*
X142682551Y-61024979D01*
X142681591Y-61081776D01*
X142652462Y-61196805D01*
X142633968Y-61419994D01*
X142633968Y-61420005D01*
X142652461Y-61643187D01*
X142652463Y-61643199D01*
X142707441Y-61860301D01*
X142797405Y-62065401D01*
X142919898Y-62252889D01*
X142919906Y-62252900D01*
X143071581Y-62417661D01*
X143071591Y-62417670D01*
X143157115Y-62484236D01*
X143248321Y-62555225D01*
X143248323Y-62555226D01*
X143248326Y-62555228D01*
X143322619Y-62595433D01*
X143445288Y-62661818D01*
X143657114Y-62734538D01*
X143878020Y-62771400D01*
X144101980Y-62771400D01*
X144322886Y-62734538D01*
X144534712Y-62661818D01*
X144731679Y-62555225D01*
X144908415Y-62417665D01*
X145057324Y-62255908D01*
X145060093Y-62252900D01*
X145060094Y-62252898D01*
X145060100Y-62252892D01*
X145182595Y-62065400D01*
X145272558Y-61860303D01*
X145327537Y-61643196D01*
X145327538Y-61643187D01*
X145346032Y-61420005D01*
X147713968Y-61420005D01*
X147732461Y-61643187D01*
X147732463Y-61643199D01*
X147787441Y-61860301D01*
X147877405Y-62065401D01*
X147999898Y-62252889D01*
X147999906Y-62252900D01*
X148151581Y-62417661D01*
X148151591Y-62417670D01*
X148237115Y-62484236D01*
X148328321Y-62555225D01*
X148328323Y-62555226D01*
X148328326Y-62555228D01*
X148402619Y-62595433D01*
X148525288Y-62661818D01*
X148737114Y-62734538D01*
X148958020Y-62771400D01*
X149181980Y-62771400D01*
X149402886Y-62734538D01*
X149614712Y-62661818D01*
X149811679Y-62555225D01*
X149988415Y-62417665D01*
X150137324Y-62255908D01*
X150140093Y-62252900D01*
X150140094Y-62252898D01*
X150140100Y-62252892D01*
X150142754Y-62248830D01*
X152018685Y-62248830D01*
X152049128Y-62525501D01*
X152049130Y-62525512D01*
X152119529Y-62794793D01*
X152119531Y-62794799D01*
X152174807Y-62924875D01*
X152209509Y-63006536D01*
X152228393Y-63050972D01*
X152289740Y-63151493D01*
X152373390Y-63288560D01*
X152373397Y-63288569D01*
X152551440Y-63502510D01*
X152551446Y-63502516D01*
X152634788Y-63577190D01*
X152758745Y-63688256D01*
X152990883Y-63841837D01*
X153242909Y-63959982D01*
X153242916Y-63959984D01*
X153242918Y-63959985D01*
X153509439Y-64040170D01*
X153509446Y-64040171D01*
X153509451Y-64040173D01*
X153784828Y-64080700D01*
X153784833Y-64080700D01*
X153993487Y-64080700D01*
X153993489Y-64080700D01*
X153993494Y-64080699D01*
X153993506Y-64080699D01*
X154032086Y-64077875D01*
X154201601Y-64065468D01*
X154315155Y-64040173D01*
X154473279Y-64004950D01*
X154473281Y-64004949D01*
X154473286Y-64004948D01*
X154733263Y-63905515D01*
X154975993Y-63769289D01*
X155196301Y-63599172D01*
X155389492Y-63398792D01*
X155551449Y-63172418D01*
X155613888Y-63050972D01*
X155678712Y-62924890D01*
X155678714Y-62924883D01*
X155678719Y-62924875D01*
X155723097Y-62794793D01*
X155768587Y-62661452D01*
X155768587Y-62661448D01*
X155768591Y-62661439D01*
X155819148Y-62387726D01*
X155829314Y-62109568D01*
X155798871Y-61832894D01*
X155728469Y-61563601D01*
X155619607Y-61307428D01*
X155474607Y-61069836D01*
X155383396Y-60960235D01*
X155296559Y-60855889D01*
X155296553Y-60855883D01*
X155089255Y-60670144D01*
X154857119Y-60516564D01*
X154851283Y-60513828D01*
X154605091Y-60398418D01*
X154605086Y-60398416D01*
X154605081Y-60398414D01*
X154338560Y-60318229D01*
X154338546Y-60318226D01*
X154219723Y-60300739D01*
X154063172Y-60277700D01*
X153854511Y-60277700D01*
X153854493Y-60277700D01*
X153646399Y-60292932D01*
X153646385Y-60292934D01*
X153374720Y-60353449D01*
X153374713Y-60353452D01*
X153114734Y-60452886D01*
X152872010Y-60589109D01*
X152872008Y-60589110D01*
X152872007Y-60589111D01*
X152817381Y-60631292D01*
X152651694Y-60759231D01*
X152458511Y-60959604D01*
X152458509Y-60959606D01*
X152296552Y-61185980D01*
X152296549Y-61185984D01*
X152169287Y-61433509D01*
X152169278Y-61433531D01*
X152079412Y-61696947D01*
X152079408Y-61696965D01*
X152028852Y-61970674D01*
X152028851Y-61970681D01*
X152018685Y-62248830D01*
X150142754Y-62248830D01*
X150262595Y-62065400D01*
X150352558Y-61860303D01*
X150407537Y-61643196D01*
X150407538Y-61643187D01*
X150426032Y-61420005D01*
X150426032Y-61419994D01*
X150407538Y-61196812D01*
X150407536Y-61196800D01*
X150378380Y-61081666D01*
X150352558Y-60979697D01*
X150262595Y-60774600D01*
X150256190Y-60764797D01*
X150158835Y-60615784D01*
X150140100Y-60587108D01*
X150140097Y-60587105D01*
X150140093Y-60587099D01*
X149988418Y-60422338D01*
X149988408Y-60422329D01*
X149811682Y-60284777D01*
X149811673Y-60284771D01*
X149614718Y-60178185D01*
X149614715Y-60178184D01*
X149614712Y-60178182D01*
X149614706Y-60178180D01*
X149614704Y-60178179D01*
X149402888Y-60105462D01*
X149181980Y-60068600D01*
X148958020Y-60068600D01*
X148737111Y-60105462D01*
X148525295Y-60178179D01*
X148525281Y-60178185D01*
X148328326Y-60284771D01*
X148328317Y-60284777D01*
X148151591Y-60422329D01*
X148151581Y-60422338D01*
X147999906Y-60587099D01*
X147999898Y-60587110D01*
X147877405Y-60774598D01*
X147787441Y-60979698D01*
X147732463Y-61196800D01*
X147732461Y-61196812D01*
X147713968Y-61419994D01*
X147713968Y-61420005D01*
X145346032Y-61420005D01*
X145346032Y-61419994D01*
X145327538Y-61196812D01*
X145327536Y-61196800D01*
X145298380Y-61081666D01*
X145272558Y-60979697D01*
X145182595Y-60774600D01*
X145176190Y-60764797D01*
X145078835Y-60615784D01*
X145060100Y-60587108D01*
X145060097Y-60587105D01*
X145060093Y-60587099D01*
X144908418Y-60422338D01*
X144908408Y-60422329D01*
X144731682Y-60284777D01*
X144731673Y-60284771D01*
X144534718Y-60178185D01*
X144534715Y-60178184D01*
X144534712Y-60178182D01*
X144534706Y-60178180D01*
X144534704Y-60178179D01*
X144322888Y-60105462D01*
X144101980Y-60068600D01*
X143878020Y-60068600D01*
X143657108Y-60105462D01*
X143652144Y-60106720D01*
X143651814Y-60105417D01*
X143588264Y-60108283D01*
X143530124Y-60075534D01*
X141561539Y-58106949D01*
X139570803Y-56116212D01*
X139560980Y-56103950D01*
X139560759Y-56104134D01*
X139555786Y-56098122D01*
X139506776Y-56052099D01*
X139503977Y-56049386D01*
X139484477Y-56029885D01*
X139482483Y-56028338D01*
X139481286Y-56027409D01*
X139472434Y-56019848D01*
X139440582Y-55989938D01*
X139440580Y-55989936D01*
X139440577Y-55989935D01*
X139423029Y-55980288D01*
X139406763Y-55969604D01*
X139390932Y-55957324D01*
X139350849Y-55939978D01*
X139340363Y-55934841D01*
X139302094Y-55913803D01*
X139302092Y-55913802D01*
X139282693Y-55908822D01*
X139264281Y-55902518D01*
X139246912Y-55895001D01*
X156369500Y-55895001D01*
X156369501Y-55895018D01*
X156380000Y-55997796D01*
X156380001Y-55997799D01*
X156435185Y-56164331D01*
X156435187Y-56164336D01*
X156450668Y-56189434D01*
X156527288Y-56313656D01*
X156651344Y-56437712D01*
X156800666Y-56529814D01*
X156967203Y-56584999D01*
X157069991Y-56595500D01*
X158370008Y-56595499D01*
X158472797Y-56584999D01*
X158639334Y-56529814D01*
X158788656Y-56437712D01*
X158912712Y-56313656D01*
X159004814Y-56164334D01*
X159059999Y-55997797D01*
X159070500Y-55895009D01*
X159070500Y-55303967D01*
X161369500Y-55303967D01*
X161384936Y-55480403D01*
X161384938Y-55480413D01*
X161446094Y-55708655D01*
X161446096Y-55708659D01*
X161446097Y-55708663D01*
X161494144Y-55811700D01*
X161545964Y-55922828D01*
X161545965Y-55922830D01*
X161681505Y-56116402D01*
X161769422Y-56204318D01*
X161848599Y-56283495D01*
X161891675Y-56313657D01*
X162042165Y-56419032D01*
X162042167Y-56419033D01*
X162042170Y-56419035D01*
X162256337Y-56518903D01*
X162484592Y-56580063D01*
X162661034Y-56595500D01*
X162719999Y-56600659D01*
X162720000Y-56600659D01*
X162720001Y-56600659D01*
X162778966Y-56595500D01*
X162955408Y-56580063D01*
X163183663Y-56518903D01*
X163397829Y-56419035D01*
X163591401Y-56283495D01*
X163758495Y-56116401D01*
X163868426Y-55959401D01*
X163923001Y-55915778D01*
X163992500Y-55908584D01*
X164054855Y-55940106D01*
X164071571Y-55959398D01*
X164142144Y-56060187D01*
X164181506Y-56116403D01*
X164269422Y-56204318D01*
X164348599Y-56283495D01*
X164391675Y-56313657D01*
X164542165Y-56419032D01*
X164542167Y-56419033D01*
X164542170Y-56419035D01*
X164756337Y-56518903D01*
X164984592Y-56580063D01*
X165161034Y-56595500D01*
X165219999Y-56600659D01*
X165220000Y-56600659D01*
X165220001Y-56600659D01*
X165278966Y-56595500D01*
X165455408Y-56580063D01*
X165683663Y-56518903D01*
X165897829Y-56419035D01*
X166091401Y-56283495D01*
X166258495Y-56116401D01*
X166368426Y-55959401D01*
X166423001Y-55915778D01*
X166492500Y-55908584D01*
X166554855Y-55940106D01*
X166571571Y-55959398D01*
X166642144Y-56060187D01*
X166681506Y-56116403D01*
X166769422Y-56204318D01*
X166848599Y-56283495D01*
X166891675Y-56313657D01*
X167042165Y-56419032D01*
X167042167Y-56419033D01*
X167042170Y-56419035D01*
X167256337Y-56518903D01*
X167484592Y-56580063D01*
X167661034Y-56595500D01*
X167719999Y-56600659D01*
X167720000Y-56600659D01*
X167720001Y-56600659D01*
X167778966Y-56595500D01*
X167955408Y-56580063D01*
X168183663Y-56518903D01*
X168397829Y-56419035D01*
X168591401Y-56283495D01*
X168758495Y-56116401D01*
X168894035Y-55922829D01*
X168993903Y-55708663D01*
X169055063Y-55480408D01*
X169055063Y-55480407D01*
X169056464Y-55475179D01*
X169058602Y-55475752D01*
X169085403Y-55421664D01*
X169145347Y-55385768D01*
X169215181Y-55387979D01*
X169272735Y-55427594D01*
X169299735Y-55492036D01*
X169300500Y-55505791D01*
X169300500Y-57245946D01*
X169280815Y-57312985D01*
X169264181Y-57333627D01*
X167387808Y-59209999D01*
X167375551Y-59219820D01*
X167375734Y-59220041D01*
X167369722Y-59225014D01*
X167323698Y-59274023D01*
X167320991Y-59276816D01*
X167301489Y-59296317D01*
X167301475Y-59296334D01*
X167299007Y-59299515D01*
X167291443Y-59308370D01*
X167261537Y-59340218D01*
X167261536Y-59340220D01*
X167251884Y-59357776D01*
X167241210Y-59374026D01*
X167228929Y-59389861D01*
X167228924Y-59389868D01*
X167211575Y-59429958D01*
X167206438Y-59440444D01*
X167185403Y-59478706D01*
X167180422Y-59498107D01*
X167174121Y-59516510D01*
X167166162Y-59534902D01*
X167166161Y-59534905D01*
X167159328Y-59578043D01*
X167156960Y-59589474D01*
X167146101Y-59631771D01*
X167146100Y-59631782D01*
X167146100Y-59651816D01*
X167144573Y-59671215D01*
X167141440Y-59690994D01*
X167141440Y-59690995D01*
X167145550Y-59734474D01*
X167146100Y-59746143D01*
X167146100Y-63244055D01*
X167144375Y-63259672D01*
X167144661Y-63259699D01*
X167143926Y-63267465D01*
X167146039Y-63334672D01*
X167146100Y-63338567D01*
X167146100Y-63366157D01*
X167146603Y-63370135D01*
X167147518Y-63381767D01*
X167148890Y-63425424D01*
X167148891Y-63425427D01*
X167154480Y-63444667D01*
X167158424Y-63463711D01*
X167159362Y-63471130D01*
X167160936Y-63483592D01*
X167177014Y-63524203D01*
X167180797Y-63535252D01*
X167192981Y-63577188D01*
X167203180Y-63594434D01*
X167211736Y-63611900D01*
X167215604Y-63621668D01*
X167219114Y-63630532D01*
X167244781Y-63665860D01*
X167251193Y-63675621D01*
X167273428Y-63713217D01*
X167273433Y-63713224D01*
X167287590Y-63727380D01*
X167300227Y-63742175D01*
X167312006Y-63758387D01*
X167325184Y-63769289D01*
X167345657Y-63786225D01*
X167354298Y-63794088D01*
X167895613Y-64335404D01*
X167929098Y-64396727D01*
X167927707Y-64455177D01*
X167915931Y-64499126D01*
X167915930Y-64499133D01*
X167896677Y-64719197D01*
X167896677Y-64719202D01*
X167915929Y-64939262D01*
X167915930Y-64939270D01*
X167973104Y-65152645D01*
X167973105Y-65152647D01*
X167973106Y-65152650D01*
X168012888Y-65237963D01*
X168066466Y-65352862D01*
X168066468Y-65352866D01*
X168193170Y-65533815D01*
X168193175Y-65533821D01*
X168349378Y-65690024D01*
X168349384Y-65690029D01*
X168530333Y-65816731D01*
X168530335Y-65816732D01*
X168530338Y-65816734D01*
X168624637Y-65860706D01*
X168659189Y-65876818D01*
X168711628Y-65922990D01*
X168730780Y-65990184D01*
X168710564Y-66057065D01*
X168659189Y-66101582D01*
X168530340Y-66161665D01*
X168530338Y-66161666D01*
X168349377Y-66288375D01*
X168193175Y-66444577D01*
X168066466Y-66625538D01*
X168066465Y-66625540D01*
X167973107Y-66825748D01*
X167973104Y-66825754D01*
X167915930Y-67039129D01*
X167915929Y-67039137D01*
X167896677Y-67259197D01*
X167896677Y-67259202D01*
X167915929Y-67479262D01*
X167915930Y-67479270D01*
X167973104Y-67692645D01*
X167973105Y-67692647D01*
X167973106Y-67692650D01*
X168012888Y-67777963D01*
X168066466Y-67892862D01*
X168066468Y-67892866D01*
X168193170Y-68073815D01*
X168193175Y-68073821D01*
X168349378Y-68230024D01*
X168349384Y-68230029D01*
X168530333Y-68356731D01*
X168530335Y-68356732D01*
X168530338Y-68356734D01*
X168730550Y-68450094D01*
X168943932Y-68507270D01*
X169101123Y-68521022D01*
X169163998Y-68526523D01*
X169164000Y-68526523D01*
X169164002Y-68526523D01*
X169219017Y-68521709D01*
X169384068Y-68507270D01*
X169597450Y-68450094D01*
X169797662Y-68356734D01*
X169978620Y-68230026D01*
X170134826Y-68073820D01*
X170261534Y-67892862D01*
X170354894Y-67692650D01*
X170412070Y-67479268D01*
X170431323Y-67259200D01*
X170429231Y-67235292D01*
X170412070Y-67039137D01*
X170412070Y-67039132D01*
X170354894Y-66825750D01*
X170261534Y-66625539D01*
X170171342Y-66496731D01*
X170134827Y-66444581D01*
X170060386Y-66370140D01*
X169978620Y-66288374D01*
X169978616Y-66288371D01*
X169978615Y-66288370D01*
X169797666Y-66161668D01*
X169797658Y-66161664D01*
X169668811Y-66101582D01*
X169616371Y-66055410D01*
X169597219Y-65988217D01*
X169617435Y-65921335D01*
X169668811Y-65876818D01*
X169703363Y-65860706D01*
X169797662Y-65816734D01*
X169978620Y-65690026D01*
X170134826Y-65533820D01*
X170261534Y-65352862D01*
X170354894Y-65152650D01*
X170412070Y-64939268D01*
X170431323Y-64719200D01*
X170429231Y-64695292D01*
X170412070Y-64499137D01*
X170412070Y-64499133D01*
X170412070Y-64499132D01*
X170354894Y-64285750D01*
X170261534Y-64085539D01*
X170171342Y-63956731D01*
X170134827Y-63904581D01*
X170060386Y-63830140D01*
X169978620Y-63748374D01*
X169978616Y-63748371D01*
X169978615Y-63748370D01*
X169797666Y-63621668D01*
X169797658Y-63621664D01*
X169668811Y-63561582D01*
X169616371Y-63515410D01*
X169597219Y-63448217D01*
X169617435Y-63381335D01*
X169668811Y-63336818D01*
X169703363Y-63320706D01*
X169797662Y-63276734D01*
X169978620Y-63150026D01*
X170134826Y-62993820D01*
X170261534Y-62812862D01*
X170354894Y-62612650D01*
X170412070Y-62399268D01*
X170431323Y-62179200D01*
X170431131Y-62177011D01*
X170413080Y-61970681D01*
X170412070Y-61959132D01*
X170354894Y-61745750D01*
X170261534Y-61545539D01*
X170183106Y-61433531D01*
X170134827Y-61364581D01*
X170120746Y-61350500D01*
X170047881Y-61277635D01*
X170014398Y-61216315D01*
X170019382Y-61146623D01*
X170047881Y-61102277D01*
X171229457Y-59920701D01*
X171290779Y-59887218D01*
X171360471Y-59892202D01*
X171416404Y-59934074D01*
X171426331Y-59949624D01*
X171522146Y-60127678D01*
X171522148Y-60127681D01*
X171662489Y-60303663D01*
X171662491Y-60303664D01*
X171662492Y-60303666D01*
X171832004Y-60451765D01*
X172025236Y-60567215D01*
X172084102Y-60589307D01*
X172139949Y-60631292D01*
X172164232Y-60696806D01*
X172149241Y-60765049D01*
X172099735Y-60814353D01*
X172094331Y-60817120D01*
X171926033Y-60898167D01*
X171926025Y-60898171D01*
X171743927Y-61030473D01*
X171743925Y-61030474D01*
X171588366Y-61193176D01*
X171464363Y-61381033D01*
X171375899Y-61588004D01*
X171375895Y-61588017D01*
X171325810Y-61807457D01*
X171325808Y-61807468D01*
X171315710Y-62032325D01*
X171315710Y-62032330D01*
X171345925Y-62255387D01*
X171345926Y-62255390D01*
X171415483Y-62469465D01*
X171522146Y-62667678D01*
X171522148Y-62667681D01*
X171662489Y-62843663D01*
X171662491Y-62843664D01*
X171662492Y-62843666D01*
X171832004Y-62991765D01*
X172025236Y-63107215D01*
X172084102Y-63129307D01*
X172139949Y-63171292D01*
X172164232Y-63236806D01*
X172149241Y-63305049D01*
X172099735Y-63354353D01*
X172094331Y-63357120D01*
X171926033Y-63438167D01*
X171926025Y-63438171D01*
X171743927Y-63570473D01*
X171743925Y-63570474D01*
X171588366Y-63733176D01*
X171464363Y-63921033D01*
X171375899Y-64128004D01*
X171375895Y-64128017D01*
X171325810Y-64347457D01*
X171325808Y-64347468D01*
X171318997Y-64499132D01*
X171315710Y-64572330D01*
X171345925Y-64795387D01*
X171348926Y-64804623D01*
X171415483Y-65009465D01*
X171522146Y-65207678D01*
X171522148Y-65207681D01*
X171662489Y-65383663D01*
X171662491Y-65383664D01*
X171662492Y-65383666D01*
X171832004Y-65531765D01*
X172025236Y-65647215D01*
X172084102Y-65669307D01*
X172139949Y-65711292D01*
X172164232Y-65776806D01*
X172149241Y-65845049D01*
X172099735Y-65894353D01*
X172094331Y-65897120D01*
X171926033Y-65978167D01*
X171926025Y-65978171D01*
X171743927Y-66110473D01*
X171743925Y-66110474D01*
X171588366Y-66273176D01*
X171464363Y-66461033D01*
X171375899Y-66668004D01*
X171375895Y-66668017D01*
X171325810Y-66887457D01*
X171325808Y-66887468D01*
X171318997Y-67039132D01*
X171315710Y-67112330D01*
X171345925Y-67335387D01*
X171345926Y-67335390D01*
X171415483Y-67549465D01*
X171522146Y-67747678D01*
X171522148Y-67747681D01*
X171662489Y-67923663D01*
X171662491Y-67923664D01*
X171662492Y-67923666D01*
X171832004Y-68071765D01*
X172025236Y-68187215D01*
X172084102Y-68209307D01*
X172139949Y-68251292D01*
X172164232Y-68316806D01*
X172149241Y-68385049D01*
X172099735Y-68434353D01*
X172094331Y-68437120D01*
X171926033Y-68518167D01*
X171926025Y-68518171D01*
X171743927Y-68650473D01*
X171743925Y-68650474D01*
X171588366Y-68813176D01*
X171464363Y-69001033D01*
X171375899Y-69208004D01*
X171375895Y-69208017D01*
X171325810Y-69427457D01*
X171325808Y-69427468D01*
X171320769Y-69539674D01*
X171315710Y-69652330D01*
X171345925Y-69875387D01*
X171345926Y-69875390D01*
X171415483Y-70089465D01*
X171522146Y-70287678D01*
X171522148Y-70287681D01*
X171662489Y-70463663D01*
X171662491Y-70463664D01*
X171662492Y-70463666D01*
X171832004Y-70611765D01*
X172025236Y-70727215D01*
X172084102Y-70749307D01*
X172139949Y-70791292D01*
X172164232Y-70856806D01*
X172149241Y-70925049D01*
X172099735Y-70974353D01*
X172094331Y-70977120D01*
X171926033Y-71058167D01*
X171926025Y-71058171D01*
X171743927Y-71190473D01*
X171743925Y-71190474D01*
X171588366Y-71353176D01*
X171464363Y-71541033D01*
X171375899Y-71748004D01*
X171375895Y-71748017D01*
X171325810Y-71967457D01*
X171325808Y-71967468D01*
X171318997Y-72119132D01*
X171315710Y-72192330D01*
X171345925Y-72415387D01*
X171345926Y-72415390D01*
X171415483Y-72629465D01*
X171522146Y-72827678D01*
X171522148Y-72827681D01*
X171662489Y-73003663D01*
X171662491Y-73003664D01*
X171662492Y-73003666D01*
X171832004Y-73151765D01*
X172025236Y-73267215D01*
X172084102Y-73289307D01*
X172139949Y-73331292D01*
X172164232Y-73396806D01*
X172149241Y-73465049D01*
X172099735Y-73514353D01*
X172094331Y-73517120D01*
X171926033Y-73598167D01*
X171926025Y-73598171D01*
X171743927Y-73730473D01*
X171743925Y-73730474D01*
X171588366Y-73893176D01*
X171464363Y-74081033D01*
X171375899Y-74288004D01*
X171375895Y-74288017D01*
X171325810Y-74507457D01*
X171325808Y-74507468D01*
X171315985Y-74726212D01*
X171315710Y-74732330D01*
X171345925Y-74955387D01*
X171345926Y-74955390D01*
X171415483Y-75169465D01*
X171522146Y-75367678D01*
X171522148Y-75367681D01*
X171662489Y-75543663D01*
X171662491Y-75543664D01*
X171662492Y-75543666D01*
X171832004Y-75691765D01*
X172025236Y-75807215D01*
X172084102Y-75829307D01*
X172139949Y-75871292D01*
X172164232Y-75936806D01*
X172149241Y-76005049D01*
X172099735Y-76054353D01*
X172094331Y-76057120D01*
X171926033Y-76138167D01*
X171926025Y-76138171D01*
X171743927Y-76270473D01*
X171743925Y-76270474D01*
X171588366Y-76433176D01*
X171464363Y-76621033D01*
X171375899Y-76828004D01*
X171375895Y-76828017D01*
X171325810Y-77047457D01*
X171325808Y-77047468D01*
X171316328Y-77258560D01*
X171315710Y-77272330D01*
X171345925Y-77495387D01*
X171345926Y-77495390D01*
X171415483Y-77709465D01*
X171522146Y-77907678D01*
X171522148Y-77907681D01*
X171662489Y-78083663D01*
X171662491Y-78083664D01*
X171662492Y-78083666D01*
X171832004Y-78231765D01*
X172025236Y-78347215D01*
X172235976Y-78426307D01*
X172457450Y-78466500D01*
X172457453Y-78466500D01*
X172926148Y-78466500D01*
X172926155Y-78466500D01*
X173094188Y-78451377D01*
X173094192Y-78451376D01*
X173311160Y-78391496D01*
X173311162Y-78391495D01*
X173311170Y-78391493D01*
X173513973Y-78293829D01*
X173696078Y-78161522D01*
X173851632Y-77998825D01*
X173885864Y-77946964D01*
X173939221Y-77901861D01*
X174008496Y-77892763D01*
X174071692Y-77922562D01*
X174086297Y-77937963D01*
X174202489Y-78083663D01*
X174202491Y-78083664D01*
X174202492Y-78083666D01*
X174372004Y-78231765D01*
X174565236Y-78347215D01*
X174775976Y-78426307D01*
X174997450Y-78466500D01*
X174997453Y-78466500D01*
X175466148Y-78466500D01*
X175466155Y-78466500D01*
X175634188Y-78451377D01*
X175634192Y-78451376D01*
X175851160Y-78391496D01*
X175851162Y-78391495D01*
X175851170Y-78391493D01*
X176053973Y-78293829D01*
X176236078Y-78161522D01*
X176391632Y-77998825D01*
X176515635Y-77810968D01*
X176604103Y-77603988D01*
X176654191Y-77384537D01*
X176664290Y-77159670D01*
X176634075Y-76936613D01*
X176564517Y-76722536D01*
X176562215Y-76718259D01*
X176457853Y-76524321D01*
X176457851Y-76524318D01*
X176445981Y-76509434D01*
X176324992Y-76357718D01*
X176317510Y-76348336D01*
X176309965Y-76341744D01*
X176147996Y-76200235D01*
X175954767Y-76084787D01*
X175954768Y-76084787D01*
X175954766Y-76084786D01*
X175954764Y-76084785D01*
X175895896Y-76062691D01*
X175840050Y-76020706D01*
X175815767Y-75955191D01*
X175830759Y-75886949D01*
X175880265Y-75837645D01*
X175885610Y-75834907D01*
X176053973Y-75753829D01*
X176236078Y-75621522D01*
X176391632Y-75458825D01*
X176515635Y-75270968D01*
X176530848Y-75235377D01*
X176604100Y-75063995D01*
X176604099Y-75063995D01*
X176604103Y-75063988D01*
X176654191Y-74844537D01*
X176664290Y-74619670D01*
X176634075Y-74396613D01*
X176564517Y-74182536D01*
X176457852Y-73984319D01*
X176385167Y-73893175D01*
X176317510Y-73808336D01*
X176317508Y-73808334D01*
X176147996Y-73660235D01*
X175954767Y-73544787D01*
X175954768Y-73544787D01*
X175954766Y-73544786D01*
X175954764Y-73544785D01*
X175895896Y-73522691D01*
X175840050Y-73480706D01*
X175815767Y-73415191D01*
X175830759Y-73346949D01*
X175880265Y-73297645D01*
X175885610Y-73294907D01*
X176053973Y-73213829D01*
X176236078Y-73081522D01*
X176391632Y-72918825D01*
X176515635Y-72730968D01*
X176604103Y-72523988D01*
X176654191Y-72304537D01*
X176664290Y-72079670D01*
X176634075Y-71856613D01*
X176564517Y-71642536D01*
X176457852Y-71444319D01*
X176385167Y-71353175D01*
X176317510Y-71268336D01*
X176286983Y-71241665D01*
X176147996Y-71120235D01*
X175954767Y-71004787D01*
X175954768Y-71004787D01*
X175954766Y-71004786D01*
X175954764Y-71004785D01*
X175895896Y-70982691D01*
X175840050Y-70940706D01*
X175815767Y-70875191D01*
X175830759Y-70806949D01*
X175880265Y-70757645D01*
X175885610Y-70754907D01*
X176053973Y-70673829D01*
X176236078Y-70541522D01*
X176391632Y-70378825D01*
X176515635Y-70190968D01*
X176604103Y-69983988D01*
X176654191Y-69764537D01*
X176664290Y-69539670D01*
X176634075Y-69316613D01*
X176564517Y-69102536D01*
X176457852Y-68904319D01*
X176385167Y-68813175D01*
X176317510Y-68728336D01*
X176317508Y-68728334D01*
X176147996Y-68580235D01*
X175954767Y-68464787D01*
X175954768Y-68464787D01*
X175954766Y-68464786D01*
X175954764Y-68464785D01*
X175895896Y-68442691D01*
X175840050Y-68400706D01*
X175815767Y-68335191D01*
X175830759Y-68266949D01*
X175880265Y-68217645D01*
X175885610Y-68214907D01*
X176053973Y-68133829D01*
X176236078Y-68001522D01*
X176391632Y-67838825D01*
X176515635Y-67650968D01*
X176604103Y-67443988D01*
X176654191Y-67224537D01*
X176664290Y-66999670D01*
X176634075Y-66776613D01*
X176564517Y-66562536D01*
X176457852Y-66364319D01*
X176385167Y-66273175D01*
X176317510Y-66188336D01*
X176286983Y-66161665D01*
X176147996Y-66040235D01*
X175954767Y-65924787D01*
X175954768Y-65924787D01*
X175954766Y-65924786D01*
X175954764Y-65924785D01*
X175895896Y-65902691D01*
X175840050Y-65860706D01*
X175815767Y-65795191D01*
X175830759Y-65726949D01*
X175880265Y-65677645D01*
X175885610Y-65674907D01*
X176053973Y-65593829D01*
X176236078Y-65461522D01*
X176391632Y-65298825D01*
X176515635Y-65110968D01*
X176604103Y-64903988D01*
X176654191Y-64684537D01*
X176664290Y-64459670D01*
X176634075Y-64236613D01*
X176564517Y-64022536D01*
X176457852Y-63824319D01*
X176385167Y-63733175D01*
X176317510Y-63648336D01*
X176286984Y-63621666D01*
X176147996Y-63500235D01*
X175954764Y-63384785D01*
X175831617Y-63338567D01*
X175744023Y-63305692D01*
X175522550Y-63265500D01*
X175522547Y-63265500D01*
X175053845Y-63265500D01*
X175015399Y-63268960D01*
X174885813Y-63280622D01*
X174885807Y-63280623D01*
X174668839Y-63340503D01*
X174668826Y-63340508D01*
X174466033Y-63438167D01*
X174466025Y-63438171D01*
X174283927Y-63570473D01*
X174283925Y-63570474D01*
X174128367Y-63733175D01*
X174094134Y-63785036D01*
X174040774Y-63830140D01*
X173971498Y-63839235D01*
X173908303Y-63809434D01*
X173893701Y-63794035D01*
X173777512Y-63648338D01*
X173777509Y-63648335D01*
X173777508Y-63648334D01*
X173607996Y-63500235D01*
X173414767Y-63384787D01*
X173414768Y-63384787D01*
X173414766Y-63384786D01*
X173414764Y-63384785D01*
X173355896Y-63362691D01*
X173300050Y-63320706D01*
X173275767Y-63255191D01*
X173290759Y-63186949D01*
X173340265Y-63137645D01*
X173345610Y-63134907D01*
X173513973Y-63053829D01*
X173696078Y-62921522D01*
X173851632Y-62758825D01*
X173975635Y-62570968D01*
X174002691Y-62507669D01*
X174064100Y-62363995D01*
X174064099Y-62363995D01*
X174064103Y-62363988D01*
X174114191Y-62144537D01*
X174124290Y-61919670D01*
X174094075Y-61696613D01*
X174024517Y-61482536D01*
X173998134Y-61433509D01*
X173917853Y-61284321D01*
X173917851Y-61284318D01*
X173777510Y-61108336D01*
X173733447Y-61069839D01*
X173607996Y-60960235D01*
X173414767Y-60844787D01*
X173414768Y-60844787D01*
X173414766Y-60844786D01*
X173414764Y-60844785D01*
X173355896Y-60822691D01*
X173300050Y-60780706D01*
X173275767Y-60715191D01*
X173290759Y-60646949D01*
X173340265Y-60597645D01*
X173345610Y-60594907D01*
X173513973Y-60513829D01*
X173696078Y-60381522D01*
X173851632Y-60218825D01*
X173885864Y-60166964D01*
X173939221Y-60121861D01*
X174008496Y-60112763D01*
X174071692Y-60142562D01*
X174086297Y-60157963D01*
X174202489Y-60303663D01*
X174202491Y-60303664D01*
X174202492Y-60303666D01*
X174372004Y-60451765D01*
X174565236Y-60567215D01*
X174735969Y-60631292D01*
X174775976Y-60646307D01*
X174997450Y-60686500D01*
X174997453Y-60686500D01*
X175466148Y-60686500D01*
X175466155Y-60686500D01*
X175634188Y-60671377D01*
X175638656Y-60670144D01*
X175851160Y-60611496D01*
X175851162Y-60611495D01*
X175851170Y-60611493D01*
X176053973Y-60513829D01*
X176236078Y-60381522D01*
X176391632Y-60218825D01*
X176515635Y-60030968D01*
X176604103Y-59823988D01*
X176654191Y-59604537D01*
X176664290Y-59379670D01*
X176634075Y-59156613D01*
X176564517Y-58942536D01*
X176457852Y-58744319D01*
X176317508Y-58568334D01*
X176147996Y-58420235D01*
X175954767Y-58304787D01*
X175954768Y-58304787D01*
X175954766Y-58304786D01*
X175954764Y-58304785D01*
X175895896Y-58282691D01*
X175840050Y-58240706D01*
X175815767Y-58175191D01*
X175830759Y-58106949D01*
X175880265Y-58057645D01*
X175885610Y-58054907D01*
X176053973Y-57973829D01*
X176236078Y-57841522D01*
X176391632Y-57678825D01*
X176515635Y-57490968D01*
X176604103Y-57283988D01*
X176654191Y-57064537D01*
X176664290Y-56839670D01*
X176634075Y-56616613D01*
X176564517Y-56402536D01*
X176457852Y-56204319D01*
X176387740Y-56116402D01*
X176317510Y-56028336D01*
X176316457Y-56027416D01*
X176147996Y-55880235D01*
X175954767Y-55764787D01*
X175954768Y-55764787D01*
X175954766Y-55764786D01*
X175954764Y-55764785D01*
X175895896Y-55742691D01*
X175840050Y-55700706D01*
X175815767Y-55635191D01*
X175830759Y-55566949D01*
X175880265Y-55517645D01*
X175885610Y-55514907D01*
X176053973Y-55433829D01*
X176236078Y-55301522D01*
X176391632Y-55138825D01*
X176515635Y-54950968D01*
X176560073Y-54847002D01*
X176604100Y-54743995D01*
X176604099Y-54743995D01*
X176604103Y-54743988D01*
X176654191Y-54524537D01*
X176664290Y-54299670D01*
X176634075Y-54076613D01*
X176564517Y-53862536D01*
X176457852Y-53664319D01*
X176367910Y-53551536D01*
X176317510Y-53488336D01*
X176305016Y-53477420D01*
X176147996Y-53340235D01*
X175954764Y-53224785D01*
X175849394Y-53185239D01*
X175744023Y-53145692D01*
X175522550Y-53105500D01*
X175522547Y-53105500D01*
X175053845Y-53105500D01*
X175053843Y-53105500D01*
X174965055Y-53113490D01*
X174896521Y-53099893D01*
X174866261Y-53077670D01*
X173982803Y-52194212D01*
X173972980Y-52181950D01*
X173972759Y-52182134D01*
X173967786Y-52176122D01*
X173918776Y-52130099D01*
X173915977Y-52127386D01*
X173896477Y-52107885D01*
X173896471Y-52107880D01*
X173893286Y-52105409D01*
X173884434Y-52097848D01*
X173852582Y-52067938D01*
X173852580Y-52067936D01*
X173852577Y-52067935D01*
X173835029Y-52058288D01*
X173818763Y-52047604D01*
X173802932Y-52035324D01*
X173762849Y-52017978D01*
X173752363Y-52012841D01*
X173714094Y-51991803D01*
X173714092Y-51991802D01*
X173694693Y-51986822D01*
X173676281Y-51980518D01*
X173657898Y-51972562D01*
X173657892Y-51972560D01*
X173614760Y-51965729D01*
X173603322Y-51963361D01*
X173561020Y-51952500D01*
X173561019Y-51952500D01*
X173540984Y-51952500D01*
X173521586Y-51950973D01*
X173514162Y-51949797D01*
X173501805Y-51947840D01*
X173501804Y-51947840D01*
X173458325Y-51951950D01*
X173446656Y-51952500D01*
X171278737Y-51952500D01*
X171263120Y-51950776D01*
X171263093Y-51951062D01*
X171255331Y-51950327D01*
X171188144Y-51952439D01*
X171184250Y-51952500D01*
X171156650Y-51952500D01*
X171152962Y-51952965D01*
X171152649Y-51953005D01*
X171141031Y-51953918D01*
X171097373Y-51955290D01*
X171097372Y-51955290D01*
X171078129Y-51960881D01*
X171059079Y-51964825D01*
X171039211Y-51967334D01*
X171039210Y-51967335D01*
X170998600Y-51983413D01*
X170987553Y-51987195D01*
X170945610Y-51999381D01*
X170945609Y-51999382D01*
X170928367Y-52009579D01*
X170910899Y-52018137D01*
X170892269Y-52025513D01*
X170892266Y-52025515D01*
X170856939Y-52051181D01*
X170847180Y-52057592D01*
X170809579Y-52079830D01*
X170795408Y-52094000D01*
X170780623Y-52106628D01*
X170764412Y-52118407D01*
X170736571Y-52152059D01*
X170728711Y-52160696D01*
X169542208Y-53347199D01*
X169529951Y-53357020D01*
X169530134Y-53357241D01*
X169524122Y-53362214D01*
X169478098Y-53411223D01*
X169475391Y-53414016D01*
X169455889Y-53433517D01*
X169455875Y-53433534D01*
X169453407Y-53436715D01*
X169445843Y-53445570D01*
X169415937Y-53477418D01*
X169415936Y-53477420D01*
X169406284Y-53494976D01*
X169395610Y-53511226D01*
X169383329Y-53527061D01*
X169383324Y-53527068D01*
X169365975Y-53567158D01*
X169360838Y-53577644D01*
X169339803Y-53615906D01*
X169334822Y-53635307D01*
X169328521Y-53653710D01*
X169320562Y-53672102D01*
X169320561Y-53672105D01*
X169313728Y-53715243D01*
X169311360Y-53726674D01*
X169300501Y-53768971D01*
X169300500Y-53768982D01*
X169300500Y-53789016D01*
X169298973Y-53808415D01*
X169295840Y-53828194D01*
X169295840Y-53828195D01*
X169299950Y-53871674D01*
X169300500Y-53883343D01*
X169300500Y-54734208D01*
X169280815Y-54801247D01*
X169228011Y-54847002D01*
X169158853Y-54856946D01*
X169095297Y-54827921D01*
X169057523Y-54769143D01*
X169056507Y-54764809D01*
X169056464Y-54764821D01*
X168993905Y-54531344D01*
X168993904Y-54531343D01*
X168993903Y-54531337D01*
X168894035Y-54317171D01*
X168881936Y-54299891D01*
X168758494Y-54123597D01*
X168591402Y-53956506D01*
X168591395Y-53956501D01*
X168397834Y-53820967D01*
X168397830Y-53820965D01*
X168397828Y-53820964D01*
X168183663Y-53721097D01*
X168183659Y-53721096D01*
X168183655Y-53721094D01*
X167955413Y-53659938D01*
X167955403Y-53659936D01*
X167720001Y-53639341D01*
X167719999Y-53639341D01*
X167484596Y-53659936D01*
X167484586Y-53659938D01*
X167256344Y-53721094D01*
X167256335Y-53721098D01*
X167042171Y-53820964D01*
X167042169Y-53820965D01*
X166848597Y-53956505D01*
X166681505Y-54123597D01*
X166571575Y-54280595D01*
X166516998Y-54324220D01*
X166447500Y-54331414D01*
X166385145Y-54299891D01*
X166368425Y-54280595D01*
X166258494Y-54123597D01*
X166091402Y-53956506D01*
X166091395Y-53956501D01*
X165897834Y-53820967D01*
X165897830Y-53820965D01*
X165897828Y-53820964D01*
X165683663Y-53721097D01*
X165683659Y-53721096D01*
X165683655Y-53721094D01*
X165455413Y-53659938D01*
X165455403Y-53659936D01*
X165220001Y-53639341D01*
X165219999Y-53639341D01*
X164984596Y-53659936D01*
X164984586Y-53659938D01*
X164756344Y-53721094D01*
X164756335Y-53721098D01*
X164542171Y-53820964D01*
X164542169Y-53820965D01*
X164348597Y-53956505D01*
X164181505Y-54123597D01*
X164071575Y-54280595D01*
X164016998Y-54324220D01*
X163947500Y-54331414D01*
X163885145Y-54299891D01*
X163868425Y-54280595D01*
X163758494Y-54123597D01*
X163591402Y-53956506D01*
X163591395Y-53956501D01*
X163397834Y-53820967D01*
X163397830Y-53820965D01*
X163397828Y-53820964D01*
X163183663Y-53721097D01*
X163183659Y-53721096D01*
X163183655Y-53721094D01*
X162955413Y-53659938D01*
X162955403Y-53659936D01*
X162720001Y-53639341D01*
X162719999Y-53639341D01*
X162484596Y-53659936D01*
X162484586Y-53659938D01*
X162256344Y-53721094D01*
X162256335Y-53721098D01*
X162042171Y-53820964D01*
X162042169Y-53820965D01*
X161848597Y-53956505D01*
X161681505Y-54123597D01*
X161545965Y-54317169D01*
X161545964Y-54317171D01*
X161446098Y-54531335D01*
X161446094Y-54531344D01*
X161384938Y-54759586D01*
X161384936Y-54759596D01*
X161369500Y-54936032D01*
X161369500Y-55303967D01*
X159070500Y-55303967D01*
X159070499Y-54344992D01*
X159065098Y-54292124D01*
X159059999Y-54242203D01*
X159059998Y-54242200D01*
X159004814Y-54075666D01*
X158912712Y-53926344D01*
X158788656Y-53802288D01*
X158695888Y-53745069D01*
X158639336Y-53710187D01*
X158639331Y-53710185D01*
X158637862Y-53709698D01*
X158472797Y-53655001D01*
X158472795Y-53655000D01*
X158370010Y-53644500D01*
X157069998Y-53644500D01*
X157069981Y-53644501D01*
X156967203Y-53655000D01*
X156967200Y-53655001D01*
X156800668Y-53710185D01*
X156800663Y-53710187D01*
X156651342Y-53802289D01*
X156527289Y-53926342D01*
X156435187Y-54075663D01*
X156435185Y-54075668D01*
X156413127Y-54142236D01*
X156380001Y-54242203D01*
X156380001Y-54242204D01*
X156380000Y-54242204D01*
X156369500Y-54344983D01*
X156369500Y-55895001D01*
X139246912Y-55895001D01*
X139245898Y-55894562D01*
X139245892Y-55894560D01*
X139202760Y-55887729D01*
X139191322Y-55885361D01*
X139149020Y-55874500D01*
X139149019Y-55874500D01*
X139128984Y-55874500D01*
X139109586Y-55872973D01*
X139102162Y-55871797D01*
X139089805Y-55869840D01*
X139089804Y-55869840D01*
X139046325Y-55873950D01*
X139034656Y-55874500D01*
X130613742Y-55874500D01*
X130546703Y-55854815D01*
X130514788Y-55825227D01*
X130410979Y-55687761D01*
X130246562Y-55537876D01*
X130246560Y-55537874D01*
X130057404Y-55420754D01*
X130057398Y-55420752D01*
X129849940Y-55340382D01*
X129631243Y-55299500D01*
X129408757Y-55299500D01*
X129190060Y-55340382D01*
X129067198Y-55387979D01*
X128982601Y-55420752D01*
X128982595Y-55420754D01*
X128793439Y-55537874D01*
X128793437Y-55537876D01*
X128629020Y-55687761D01*
X128494943Y-55865308D01*
X128494938Y-55865316D01*
X128395775Y-56064461D01*
X128395769Y-56064476D01*
X128334885Y-56278462D01*
X128334885Y-56278463D01*
X128330793Y-56322617D01*
X128305006Y-56387554D01*
X128295003Y-56398855D01*
X125391208Y-59302650D01*
X125378951Y-59312471D01*
X125379134Y-59312692D01*
X125373122Y-59317665D01*
X125327098Y-59366674D01*
X125324391Y-59369467D01*
X125304889Y-59388968D01*
X125304875Y-59388985D01*
X125302407Y-59392166D01*
X125294843Y-59401021D01*
X125264937Y-59432869D01*
X125264936Y-59432871D01*
X125255284Y-59450427D01*
X125244610Y-59466677D01*
X125232329Y-59482512D01*
X125232324Y-59482519D01*
X125214975Y-59522609D01*
X125209838Y-59533094D01*
X125200663Y-59549784D01*
X125151118Y-59599049D01*
X125082803Y-59613707D01*
X125017408Y-59589105D01*
X124975696Y-59533053D01*
X124968000Y-59490049D01*
X124968000Y-53330000D01*
X143474357Y-53330000D01*
X143494884Y-53551535D01*
X143494885Y-53551537D01*
X143555769Y-53765523D01*
X143555775Y-53765538D01*
X143654938Y-53964683D01*
X143654943Y-53964691D01*
X143789020Y-54142238D01*
X143953437Y-54292123D01*
X143953439Y-54292125D01*
X144142595Y-54409245D01*
X144142596Y-54409245D01*
X144142599Y-54409247D01*
X144350060Y-54489618D01*
X144568757Y-54530500D01*
X144568759Y-54530500D01*
X144791241Y-54530500D01*
X144791243Y-54530500D01*
X145009940Y-54489618D01*
X145217401Y-54409247D01*
X145406562Y-54292124D01*
X145570981Y-54142236D01*
X145705058Y-53964689D01*
X145804229Y-53765528D01*
X145865115Y-53551536D01*
X145885643Y-53330000D01*
X145865115Y-53108464D01*
X145804229Y-52894472D01*
X145804224Y-52894461D01*
X145705061Y-52695316D01*
X145705056Y-52695308D01*
X145570979Y-52517761D01*
X145406562Y-52367876D01*
X145406560Y-52367874D01*
X145217404Y-52250754D01*
X145217398Y-52250752D01*
X145009940Y-52170382D01*
X144791243Y-52129500D01*
X144568757Y-52129500D01*
X144350060Y-52170382D01*
X144288548Y-52194212D01*
X144142601Y-52250752D01*
X144142595Y-52250754D01*
X143953439Y-52367874D01*
X143953437Y-52367876D01*
X143789020Y-52517761D01*
X143654943Y-52695308D01*
X143654938Y-52695316D01*
X143555775Y-52894461D01*
X143555769Y-52894476D01*
X143494885Y-53108462D01*
X143494884Y-53108464D01*
X143474357Y-53329999D01*
X143474357Y-53330000D01*
X124968000Y-53330000D01*
X124968000Y-51432000D01*
X124987685Y-51364961D01*
X125040489Y-51319206D01*
X125092000Y-51308000D01*
X177168000Y-51308000D01*
X177235039Y-51327685D01*
G37*
%TD.AperFunction*%
%TD*%
M02*
