%TF.GenerationSoftware,KiCad,Pcbnew,7.0.10*%
%TF.CreationDate,2024-02-15T22:38:08-05:00*%
%TF.ProjectId,CANRxPCB,43414e52-7850-4434-922e-6b696361645f,rev?*%
%TF.SameCoordinates,Original*%
%TF.FileFunction,Soldermask,Top*%
%TF.FilePolarity,Negative*%
%FSLAX46Y46*%
G04 Gerber Fmt 4.6, Leading zero omitted, Abs format (unit mm)*
G04 Created by KiCad (PCBNEW 7.0.10) date 2024-02-15 22:38:08*
%MOMM*%
%LPD*%
G01*
G04 APERTURE LIST*
G04 Aperture macros list*
%AMRoundRect*
0 Rectangle with rounded corners*
0 $1 Rounding radius*
0 $2 $3 $4 $5 $6 $7 $8 $9 X,Y pos of 4 corners*
0 Add a 4 corners polygon primitive as box body*
4,1,4,$2,$3,$4,$5,$6,$7,$8,$9,$2,$3,0*
0 Add four circle primitives for the rounded corners*
1,1,$1+$1,$2,$3*
1,1,$1+$1,$4,$5*
1,1,$1+$1,$6,$7*
1,1,$1+$1,$8,$9*
0 Add four rect primitives between the rounded corners*
20,1,$1+$1,$2,$3,$4,$5,0*
20,1,$1+$1,$4,$5,$6,$7,0*
20,1,$1+$1,$6,$7,$8,$9,0*
20,1,$1+$1,$8,$9,$2,$3,0*%
G04 Aperture macros list end*
%ADD10C,1.400000*%
%ADD11O,1.600000X1.600000*%
%ADD12C,1.600000*%
%ADD13C,1.524000*%
%ADD14RoundRect,0.250000X0.600000X0.750000X-0.600000X0.750000X-0.600000X-0.750000X0.600000X-0.750000X0*%
%ADD15O,1.700000X2.000000*%
%ADD16RoundRect,0.250000X0.600000X0.725000X-0.600000X0.725000X-0.600000X-0.725000X0.600000X-0.725000X0*%
%ADD17O,1.700000X1.950000*%
%ADD18C,3.302000*%
%ADD19C,1.701800*%
%ADD20RoundRect,0.250000X-0.600000X-0.725000X0.600000X-0.725000X0.600000X0.725000X-0.600000X0.725000X0*%
%ADD21R,0.977900X0.508000*%
%ADD22RoundRect,0.102000X0.754000X0.754000X-0.754000X0.754000X-0.754000X-0.754000X0.754000X-0.754000X0*%
%ADD23C,1.712000*%
%ADD24O,1.450000X0.599999*%
G04 APERTURE END LIST*
D10*
%TO.C,C3*%
X150220000Y-57520000D03*
X152720000Y-57520000D03*
%TD*%
D11*
%TO.C,R1*%
X159580000Y-113780000D03*
D12*
X159580000Y-121400000D03*
%TD*%
D13*
%TO.C,U3*%
X132890000Y-76050000D03*
X135430000Y-76050000D03*
X137970000Y-76050000D03*
X140510000Y-76050000D03*
%TD*%
D10*
%TO.C,C2*%
X127090000Y-60230000D03*
X129590000Y-60230000D03*
%TD*%
%TO.C,C4*%
X145880000Y-58460000D03*
X143380000Y-58460000D03*
%TD*%
D14*
%TO.C,J2*%
X166920000Y-111150000D03*
D15*
X164420000Y-111150000D03*
%TD*%
D14*
%TO.C,J3*%
X167160000Y-119935000D03*
D15*
X164660000Y-119935000D03*
%TD*%
D10*
%TO.C,C1*%
X136702800Y-85191600D03*
X136702800Y-87691600D03*
%TD*%
D16*
%TO.C,J5*%
X166920000Y-95060000D03*
D17*
X164420000Y-95060000D03*
X161920000Y-95060000D03*
%TD*%
D18*
%TO.C,U6*%
X167894000Y-76149200D03*
X153924000Y-62179200D03*
D13*
X169164000Y-72339200D03*
X169164000Y-69799200D03*
X169164000Y-67259200D03*
X169164000Y-64719200D03*
X169164000Y-62179200D03*
%TD*%
D19*
%TO.C,U1*%
X144110000Y-62660000D03*
X146650000Y-62660000D03*
X149190000Y-62660000D03*
%TD*%
D20*
%TO.C,J1*%
X157720000Y-55120000D03*
D17*
X160220000Y-55120000D03*
X162720000Y-55120000D03*
X165220000Y-55120000D03*
X167720000Y-55120000D03*
%TD*%
D12*
%TO.C,R2*%
X133299200Y-85039200D03*
D11*
X133299200Y-92659200D03*
%TD*%
D21*
%TO.C,U4*%
X146205250Y-55600001D03*
X146205250Y-54650000D03*
X146205250Y-53699999D03*
X143474750Y-53699999D03*
X143474750Y-55600001D03*
%TD*%
D14*
%TO.C,J4*%
X166820000Y-103090000D03*
D15*
X164320000Y-103090000D03*
%TD*%
D18*
%TO.C,U5*%
X154381200Y-120853200D03*
X134061200Y-120853200D03*
D22*
X154381200Y-103073200D03*
D23*
X151841200Y-103073200D03*
X149301200Y-103073200D03*
X146761200Y-103073200D03*
X144221200Y-103073200D03*
X141681200Y-103073200D03*
X139141200Y-103073200D03*
X136601200Y-103073200D03*
X134061200Y-103073200D03*
%TD*%
D24*
%TO.C,U2*%
X143884999Y-66715000D03*
X143884999Y-67985000D03*
X143884999Y-69255000D03*
X143884999Y-70525000D03*
X149334998Y-70525000D03*
X149334998Y-69255000D03*
X149334998Y-67985000D03*
X149334998Y-66715000D03*
%TD*%
M02*
