%TF.GenerationSoftware,KiCad,Pcbnew,7.0.10*%
%TF.CreationDate,2024-02-15T22:38:07-05:00*%
%TF.ProjectId,CANRxPCB,43414e52-7850-4434-922e-6b696361645f,rev?*%
%TF.SameCoordinates,Original*%
%TF.FileFunction,Copper,L2,Bot*%
%TF.FilePolarity,Positive*%
%FSLAX46Y46*%
G04 Gerber Fmt 4.6, Leading zero omitted, Abs format (unit mm)*
G04 Created by KiCad (PCBNEW 7.0.10) date 2024-02-15 22:38:07*
%MOMM*%
%LPD*%
G01*
G04 APERTURE LIST*
G04 Aperture macros list*
%AMRoundRect*
0 Rectangle with rounded corners*
0 $1 Rounding radius*
0 $2 $3 $4 $5 $6 $7 $8 $9 X,Y pos of 4 corners*
0 Add a 4 corners polygon primitive as box body*
4,1,4,$2,$3,$4,$5,$6,$7,$8,$9,$2,$3,0*
0 Add four circle primitives for the rounded corners*
1,1,$1+$1,$2,$3*
1,1,$1+$1,$4,$5*
1,1,$1+$1,$6,$7*
1,1,$1+$1,$8,$9*
0 Add four rect primitives between the rounded corners*
20,1,$1+$1,$2,$3,$4,$5,0*
20,1,$1+$1,$4,$5,$6,$7,0*
20,1,$1+$1,$6,$7,$8,$9,0*
20,1,$1+$1,$8,$9,$2,$3,0*%
G04 Aperture macros list end*
%TA.AperFunction,ComponentPad*%
%ADD10C,1.400000*%
%TD*%
%TA.AperFunction,ComponentPad*%
%ADD11O,1.600000X1.600000*%
%TD*%
%TA.AperFunction,ComponentPad*%
%ADD12C,1.600000*%
%TD*%
%TA.AperFunction,ComponentPad*%
%ADD13C,1.524000*%
%TD*%
%TA.AperFunction,ComponentPad*%
%ADD14RoundRect,0.250000X0.600000X0.750000X-0.600000X0.750000X-0.600000X-0.750000X0.600000X-0.750000X0*%
%TD*%
%TA.AperFunction,ComponentPad*%
%ADD15O,1.700000X2.000000*%
%TD*%
%TA.AperFunction,ComponentPad*%
%ADD16R,1.800000X1.500000*%
%TD*%
%TA.AperFunction,ComponentPad*%
%ADD17O,1.800000X1.500000*%
%TD*%
%TA.AperFunction,ComponentPad*%
%ADD18RoundRect,0.250000X0.600000X0.725000X-0.600000X0.725000X-0.600000X-0.725000X0.600000X-0.725000X0*%
%TD*%
%TA.AperFunction,ComponentPad*%
%ADD19O,1.700000X1.950000*%
%TD*%
%TA.AperFunction,ComponentPad*%
%ADD20C,1.701800*%
%TD*%
%TA.AperFunction,ComponentPad*%
%ADD21RoundRect,0.250000X-0.600000X-0.725000X0.600000X-0.725000X0.600000X0.725000X-0.600000X0.725000X0*%
%TD*%
%TA.AperFunction,ComponentPad*%
%ADD22R,1.508000X1.508000*%
%TD*%
%TA.AperFunction,ComponentPad*%
%ADD23C,1.508000*%
%TD*%
%TA.AperFunction,ViaPad*%
%ADD24C,0.800000*%
%TD*%
%TA.AperFunction,Conductor*%
%ADD25C,0.250000*%
%TD*%
G04 APERTURE END LIST*
D10*
%TO.P,C3,1*%
%TO.N,+12VA*%
X150220000Y-57520000D03*
%TO.P,C3,2*%
%TO.N,GND*%
X152720000Y-57520000D03*
%TD*%
D11*
%TO.P,R1,2*%
%TO.N,Net-(J2-Pin_2)*%
X159580000Y-113780000D03*
D12*
%TO.P,R1,1*%
%TO.N,/PG0*%
X159580000Y-121400000D03*
%TD*%
D13*
%TO.P,U3,1,3V3*%
%TO.N,+3.3V*%
X132890000Y-76050000D03*
%TO.P,U3,2,GND*%
%TO.N,GND*%
X135430000Y-76050000D03*
%TO.P,U3,3,CANRx*%
%TO.N,/PD0*%
X137970000Y-76050000D03*
%TO.P,U3,4,CANTx*%
%TO.N,/PD1*%
X140510000Y-76050000D03*
%TD*%
D10*
%TO.P,C2,1*%
%TO.N,+3.3V*%
X127090000Y-60230000D03*
%TO.P,C2,2*%
%TO.N,GND*%
X129590000Y-60230000D03*
%TD*%
%TO.P,C4,1*%
%TO.N,+12V*%
X145880000Y-58460000D03*
%TO.P,C4,2*%
%TO.N,GND*%
X143380000Y-58460000D03*
%TD*%
D14*
%TO.P,J2,1,Pin_1*%
%TO.N,+3.3V*%
X166920000Y-111150000D03*
D15*
%TO.P,J2,2,Pin_2*%
%TO.N,Net-(J2-Pin_2)*%
X164420000Y-111150000D03*
%TD*%
D16*
%TO.P,CN3,1,1*%
%TO.N,/PC6*%
X172720000Y-54356000D03*
D17*
%TO.P,CN3,2,2*%
%TO.N,/PB8*%
X175260000Y-54356000D03*
%TO.P,CN3,3,3*%
%TO.N,/PB15*%
X172720000Y-56896000D03*
%TO.P,CN3,4,4*%
%TO.N,/PB9*%
X175260000Y-56896000D03*
%TO.P,CN3,5,5*%
%TO.N,/PB13*%
X172720000Y-59436000D03*
%TO.P,CN3,6,6*%
%TO.N,unconnected-(CN3-Pad6)*%
X175260000Y-59436000D03*
%TO.P,CN3,7,7*%
%TO.N,/PB12*%
X172720000Y-61976000D03*
%TO.P,CN3,8,8*%
%TO.N,GND*%
X175260000Y-61976000D03*
%TO.P,CN3,9,9*%
%TO.N,/PA15*%
X172720000Y-64516000D03*
%TO.P,CN3,10,10*%
%TO.N,/PA5*%
X175260000Y-64516000D03*
%TO.P,CN3,11,11*%
%TO.N,/PC7*%
X172720000Y-67056000D03*
%TO.P,CN3,12,12*%
%TO.N,/PA6*%
X175260000Y-67056000D03*
%TO.P,CN3,13,13*%
%TO.N,/PB5*%
X172720000Y-69596000D03*
%TO.P,CN3,14,14*%
%TO.N,unconnected-(CN3-Pad14)*%
X175260000Y-69596000D03*
%TO.P,CN3,15,15*%
%TO.N,/PB3*%
X172720000Y-72136000D03*
%TO.P,CN3,16,16*%
%TO.N,/PD14*%
X175260000Y-72136000D03*
%TO.P,CN3,17,17*%
%TO.N,/PA4*%
X172720000Y-74676000D03*
%TO.P,CN3,18,18*%
%TO.N,/PD15*%
X175260000Y-74676000D03*
%TO.P,CN3,19,19*%
%TO.N,/PB4*%
X172720000Y-77216000D03*
%TO.P,CN3,20,20*%
%TO.N,/PF12*%
X175260000Y-77216000D03*
%TD*%
D14*
%TO.P,J3,1,Pin_1*%
%TO.N,Net-(J2-Pin_2)*%
X167160000Y-119935000D03*
D15*
%TO.P,J3,2,Pin_2*%
%TO.N,GND*%
X164660000Y-119935000D03*
%TD*%
D10*
%TO.P,C1,1*%
%TO.N,/PG3*%
X136702800Y-85191600D03*
%TO.P,C1,2*%
%TO.N,GND*%
X136702800Y-87691600D03*
%TD*%
D16*
%TO.P,CN2,1,1*%
%TO.N,/PA3*%
X127000000Y-86360000D03*
D17*
%TO.P,CN2,2,2*%
%TO.N,/PD7*%
X129540000Y-86360000D03*
%TO.P,CN2,3,3*%
%TO.N,/PC0*%
X127000000Y-88900000D03*
%TO.P,CN2,4,4*%
%TO.N,/PD6*%
X129540000Y-88900000D03*
%TO.P,CN2,5,5*%
%TO.N,/PC3*%
X127000000Y-91440000D03*
%TO.P,CN2,6,6*%
%TO.N,/PD5*%
X129540000Y-91440000D03*
%TO.P,CN2,7,7*%
%TO.N,/PF3*%
X127000000Y-93980000D03*
%TO.P,CN2,8,8*%
%TO.N,/PD4*%
X129540000Y-93980000D03*
%TO.P,CN2,9,9*%
%TO.N,/PF5*%
X127000000Y-96520000D03*
%TO.P,CN2,10,10*%
%TO.N,/PD3*%
X129540000Y-96520000D03*
%TO.P,CN2,11,11*%
%TO.N,/PF10*%
X127000000Y-99060000D03*
%TO.P,CN2,12,12*%
%TO.N,GND*%
X129540000Y-99060000D03*
%TO.P,CN2,13,13*%
%TO.N,unconnected-(CN2-Pad13)*%
X127000000Y-101600000D03*
%TO.P,CN2,14,14*%
%TO.N,unconnected-(CN2-Pad14)*%
X129540000Y-101600000D03*
%TO.P,CN2,15,15*%
%TO.N,unconnected-(CN2-Pad15)*%
X127000000Y-104140000D03*
%TO.P,CN2,16,16*%
%TO.N,/PE4*%
X129540000Y-104140000D03*
%TO.P,CN2,17,17*%
%TO.N,/PF2*%
X127000000Y-106680000D03*
%TO.P,CN2,18,18*%
%TO.N,/PE5*%
X129540000Y-106680000D03*
%TO.P,CN2,19,19*%
%TO.N,/PF1*%
X127000000Y-109220000D03*
%TO.P,CN2,20,20*%
%TO.N,/PE6*%
X129540000Y-109220000D03*
%TO.P,CN2,21,21*%
%TO.N,/PF0*%
X127000000Y-111760000D03*
%TO.P,CN2,22,22*%
%TO.N,/PE3*%
X129540000Y-111760000D03*
%TO.P,CN2,23,23*%
%TO.N,GND*%
X127000000Y-114300000D03*
%TO.P,CN2,24,24*%
%TO.N,/PF8*%
X129540000Y-114300000D03*
%TO.P,CN2,25,25*%
%TO.N,/PD0*%
X127000000Y-116840000D03*
%TO.P,CN2,26,26*%
%TO.N,/PF7*%
X129540000Y-116840000D03*
%TO.P,CN2,27,27*%
%TO.N,/PD1*%
X127000000Y-119380000D03*
%TO.P,CN2,28,28*%
%TO.N,/PF9*%
X129540000Y-119380000D03*
%TO.P,CN2,29,29*%
%TO.N,/PG0*%
X127000000Y-121920000D03*
%TO.P,CN2,30,30*%
%TO.N,/PG1*%
X129540000Y-121920000D03*
%TD*%
D18*
%TO.P,J5,1,Pin_1*%
%TO.N,+3.3V*%
X166920000Y-95060000D03*
D19*
%TO.P,J5,2,Pin_2*%
%TO.N,GND*%
X164420000Y-95060000D03*
%TO.P,J5,3,Pin_3*%
%TO.N,/PG1*%
X161920000Y-95060000D03*
%TD*%
D13*
%TO.P,U6,1,5V*%
%TO.N,+5VD*%
X169164000Y-72339200D03*
%TO.P,U6,2,GND*%
%TO.N,GND*%
X169164000Y-69799200D03*
%TO.P,U6,3,SQW*%
%TO.N,unconnected-(U6-SQW-Pad3)*%
X169164000Y-67259200D03*
%TO.P,U6,4,SCL*%
%TO.N,/PB8*%
X169164000Y-64719200D03*
%TO.P,U6,5,SCA*%
%TO.N,/PB9*%
X169164000Y-62179200D03*
%TD*%
D20*
%TO.P,U1,1,OUTPUT*%
%TO.N,+12V*%
X144110000Y-62660000D03*
%TO.P,U1,2,GND*%
%TO.N,GND*%
X146650000Y-62660000D03*
%TO.P,U1,3,INPUT*%
%TO.N,+12VA*%
X149190000Y-62660000D03*
%TD*%
D21*
%TO.P,J1,1,Pin_1*%
%TO.N,+12VA*%
X157720000Y-55120000D03*
D19*
%TO.P,J1,2,Pin_2*%
%TO.N,GND*%
X160220000Y-55120000D03*
%TO.P,J1,3,Pin_3*%
%TO.N,/CANH*%
X162720000Y-55120000D03*
%TO.P,J1,4,Pin_4*%
%TO.N,/CANL*%
X165220000Y-55120000D03*
%TO.P,J1,5,Pin_5*%
%TO.N,/PG0*%
X167720000Y-55120000D03*
%TD*%
D12*
%TO.P,R2,1*%
%TO.N,/PG3*%
X133299200Y-85039200D03*
D11*
%TO.P,R2,2*%
%TO.N,GND*%
X133299200Y-92659200D03*
%TD*%
D14*
%TO.P,J4,1,Pin_1*%
%TO.N,+3.3V*%
X166820000Y-103090000D03*
D15*
%TO.P,J4,2,Pin_2*%
%TO.N,/PG3*%
X164320000Y-103090000D03*
%TD*%
D16*
%TO.P,CN1,1,1*%
%TO.N,unconnected-(CN1-Pad1)*%
X127000000Y-63500000D03*
D17*
%TO.P,CN1,2,2*%
%TO.N,/PC8*%
X129540000Y-63500000D03*
%TO.P,CN1,3,3*%
%TO.N,/IOREF*%
X127000000Y-66040000D03*
%TO.P,CN1,4,4*%
%TO.N,/PC9*%
X129540000Y-66040000D03*
%TO.P,CN1,5,5*%
%TO.N,/NRST*%
X127000000Y-68580000D03*
%TO.P,CN1,6,6*%
%TO.N,/PC10*%
X129540000Y-68580000D03*
%TO.P,CN1,7,7*%
%TO.N,+3.3V*%
X127000000Y-71120000D03*
%TO.P,CN1,8,8*%
%TO.N,/PC11*%
X129540000Y-71120000D03*
%TO.P,CN1,9,9*%
%TO.N,+5VD*%
X127000000Y-73660000D03*
%TO.P,CN1,10,10*%
%TO.N,/PC12*%
X129540000Y-73660000D03*
%TO.P,CN1,11,11*%
%TO.N,GND*%
X127000000Y-76200000D03*
%TO.P,CN1,12,12*%
%TO.N,/PD2*%
X129540000Y-76200000D03*
%TO.P,CN1,13,13*%
%TO.N,GND*%
X127000000Y-78740000D03*
%TO.P,CN1,14,14*%
%TO.N,/PG2*%
X129540000Y-78740000D03*
%TO.P,CN1,15,15*%
%TO.N,+12V*%
X127000000Y-81280000D03*
%TO.P,CN1,16,16*%
%TO.N,/PG3*%
X129540000Y-81280000D03*
%TD*%
D16*
%TO.P,CN4,1,1*%
%TO.N,unconnected-(CN4-Pad1)*%
X172720000Y-81280000D03*
D17*
%TO.P,CN4,2,2*%
%TO.N,/PF13*%
X175260000Y-81280000D03*
%TO.P,CN4,3,3*%
%TO.N,GNDA*%
X172720000Y-83820000D03*
%TO.P,CN4,4,4*%
%TO.N,/PE9*%
X175260000Y-83820000D03*
%TO.P,CN4,5,5*%
%TO.N,GND*%
X172720000Y-86360000D03*
%TO.P,CN4,6,6*%
%TO.N,/PE11*%
X175260000Y-86360000D03*
%TO.P,CN4,7,7*%
%TO.N,/PB1*%
X172720000Y-88900000D03*
%TO.P,CN4,8,8*%
%TO.N,/PF14*%
X175260000Y-88900000D03*
%TO.P,CN4,9,9*%
%TO.N,/PC2*%
X172720000Y-91440000D03*
%TO.P,CN4,10,10*%
%TO.N,/PE13*%
X175260000Y-91440000D03*
%TO.P,CN4,11,11*%
%TO.N,/PF4*%
X172720000Y-93980000D03*
%TO.P,CN4,12,12*%
%TO.N,/PF15*%
X175260000Y-93980000D03*
%TO.P,CN4,13,13*%
%TO.N,/PB6*%
X172720000Y-96520000D03*
%TO.P,CN4,14,14*%
%TO.N,/PG14*%
X175260000Y-96520000D03*
%TO.P,CN4,15,15*%
%TO.N,/PB2*%
X172720000Y-99060000D03*
%TO.P,CN4,16,16*%
%TO.N,/PG9*%
X175260000Y-99060000D03*
%TO.P,CN4,17,17*%
%TO.N,GND*%
X172720000Y-101600000D03*
%TO.P,CN4,18,18*%
%TO.N,/PE8*%
X175260000Y-101600000D03*
%TO.P,CN4,19,19*%
%TO.N,/PD13*%
X172720000Y-104140000D03*
%TO.P,CN4,20,20*%
%TO.N,/PE7*%
X175260000Y-104140000D03*
%TO.P,CN4,21,21*%
%TO.N,/PD12*%
X172720000Y-106680000D03*
%TO.P,CN4,22,22*%
%TO.N,GND*%
X175260000Y-106680000D03*
%TO.P,CN4,23,23*%
%TO.N,/PD11*%
X172720000Y-109220000D03*
%TO.P,CN4,24,24*%
%TO.N,/PE10*%
X175260000Y-109220000D03*
%TO.P,CN4,25,25*%
%TO.N,unconnected-(CN4-Pad25)*%
X172720000Y-111760000D03*
%TO.P,CN4,26,26*%
%TO.N,/PE12*%
X175260000Y-111760000D03*
%TO.P,CN4,27,27*%
%TO.N,GND*%
X172720000Y-114300000D03*
%TO.P,CN4,28,28*%
%TO.N,/PE14*%
X175260000Y-114300000D03*
%TO.P,CN4,29,29*%
%TO.N,/PA0*%
X172720000Y-116840000D03*
%TO.P,CN4,30,30*%
%TO.N,/PE15*%
X175260000Y-116840000D03*
%TO.P,CN4,31,31*%
%TO.N,/PB0*%
X172720000Y-119380000D03*
%TO.P,CN4,32,32*%
%TO.N,/PB10*%
X175260000Y-119380000D03*
%TO.P,CN4,33,33*%
%TO.N,/PE0*%
X172720000Y-121920000D03*
%TO.P,CN4,34,34*%
%TO.N,/PB11*%
X175260000Y-121920000D03*
%TD*%
D22*
%TO.P,U5,1,3V*%
%TO.N,+3.3V*%
X154381200Y-103073200D03*
D23*
%TO.P,U5,2,GND*%
%TO.N,GND*%
X151841200Y-103073200D03*
%TO.P,U5,3,CLK*%
%TO.N,/PC12*%
X149301200Y-103073200D03*
%TO.P,U5,4,D0/SO*%
%TO.N,/PC8*%
X146761200Y-103073200D03*
%TO.P,U5,5,CMD/SI*%
%TO.N,/PD2*%
X144221200Y-103073200D03*
%TO.P,U5,6,D3/CS*%
%TO.N,/PC11*%
X141681200Y-103073200D03*
%TO.P,U5,7,DAT1*%
%TO.N,/PC9*%
X139141200Y-103073200D03*
%TO.P,U5,8,DAT2*%
%TO.N,/PC10*%
X136601200Y-103073200D03*
%TO.P,U5,9,DET*%
%TO.N,/PG2*%
X134061200Y-103073200D03*
%TD*%
D24*
%TO.N,GND*%
X148380000Y-54240000D03*
X138440000Y-65430000D03*
%TO.N,+3.3V*%
X148420000Y-82310000D03*
%TO.N,/PD0*%
X149350000Y-73470000D03*
%TO.N,/PD1*%
X157470000Y-76530000D03*
%TD*%
D25*
%TO.N,Net-(J2-Pin_2)*%
X167160000Y-119935000D02*
X161005000Y-113780000D01*
X161005000Y-113780000D02*
X159580000Y-113780000D01*
X164420000Y-111150000D02*
X162210000Y-111150000D01*
X162210000Y-111150000D02*
X159580000Y-113780000D01*
%TO.N,/PG3*%
X136702800Y-85191600D02*
X143142200Y-91631000D01*
X143142200Y-91631000D02*
X143142200Y-103520137D01*
X143142200Y-103520137D02*
X145852063Y-106230000D01*
X145852063Y-106230000D02*
X160440000Y-106230000D01*
X160440000Y-106230000D02*
X163580000Y-103090000D01*
X163580000Y-103090000D02*
X164320000Y-103090000D01*
%TO.N,/PG0*%
X127000000Y-121920000D02*
X128800000Y-123720000D01*
X128800000Y-123720000D02*
X157260000Y-123720000D01*
X157260000Y-123720000D02*
X159580000Y-121400000D01*
%TO.N,+12V*%
X125775000Y-72140000D02*
X125775000Y-74105280D01*
X125775000Y-70674720D02*
X125775000Y-72140000D01*
X144110000Y-62660000D02*
X136725000Y-70045000D01*
X136725000Y-70045000D02*
X126404720Y-70045000D01*
X126404720Y-70045000D02*
X125775000Y-70674720D01*
X145880000Y-58460000D02*
X145880000Y-60890000D01*
X145880000Y-60890000D02*
X144110000Y-62660000D01*
%TO.N,+3.3V*%
X148590000Y-82310000D02*
X148420000Y-82310000D01*
X132890000Y-76050000D02*
X139150000Y-82310000D01*
X139150000Y-82310000D02*
X148420000Y-82310000D01*
%TO.N,+12V*%
X125775000Y-74105280D02*
X126779720Y-75110000D01*
X128225000Y-75754720D02*
X128225000Y-80055000D01*
X128225000Y-80055000D02*
X127000000Y-81280000D01*
X126779720Y-75110000D02*
X127580280Y-75110000D01*
X127580280Y-75110000D02*
X128225000Y-75754720D01*
%TO.N,/PG3*%
X131775200Y-81280000D02*
X133299200Y-82804000D01*
X132791200Y-81280000D02*
X136702800Y-85191600D01*
X133299200Y-82804000D02*
X133299200Y-85039200D01*
X129540000Y-81280000D02*
X131775200Y-81280000D01*
X131775200Y-81280000D02*
X132791200Y-81280000D01*
%TO.N,+5VD*%
X127000000Y-73660000D02*
X128320800Y-72339200D01*
X128320800Y-72339200D02*
X169164000Y-72339200D01*
%TO.N,/PC12*%
X131520000Y-77130250D02*
X145669750Y-91280000D01*
X145669750Y-99441750D02*
X149301200Y-103073200D01*
X129610000Y-73660000D02*
X131520000Y-75570000D01*
X129540000Y-73660000D02*
X129610000Y-73660000D01*
X131520000Y-75570000D02*
X131520000Y-77130250D01*
X145669750Y-91280000D02*
X145669750Y-99441750D01*
%TO.N,/PD2*%
X129540000Y-76200000D02*
X144221200Y-90881200D01*
X144221200Y-90881200D02*
X144221200Y-103073200D01*
%TO.N,/PB8*%
X171196000Y-52578000D02*
X173482000Y-52578000D01*
X173482000Y-52578000D02*
X175260000Y-54356000D01*
X169164000Y-64719200D02*
X167771600Y-63326800D01*
X169926000Y-53848000D02*
X171196000Y-52578000D01*
X169926000Y-57556400D02*
X169926000Y-53848000D01*
X167771600Y-59710800D02*
X169926000Y-57556400D01*
X167771600Y-63326800D02*
X167771600Y-59710800D01*
%TO.N,/PB9*%
X169164000Y-61101570D02*
X172251970Y-58013600D01*
X174142400Y-58013600D02*
X175260000Y-56896000D01*
X172251970Y-58013600D02*
X174142400Y-58013600D01*
X169164000Y-62179200D02*
X169164000Y-61101570D01*
%TO.N,/PD0*%
X137970000Y-76050000D02*
X140550000Y-73470000D01*
X140550000Y-73470000D02*
X149350000Y-73470000D01*
%TO.N,/PD1*%
X140510000Y-76050000D02*
X156990000Y-76050000D01*
X156990000Y-76050000D02*
X157470000Y-76530000D01*
%TD*%
%TA.AperFunction,Conductor*%
%TO.N,GND*%
G36*
X177235039Y-51327685D02*
G01*
X177280794Y-51380489D01*
X177292000Y-51432000D01*
X177292000Y-123828000D01*
X177272315Y-123895039D01*
X177219511Y-123940794D01*
X177168000Y-123952000D01*
X158211951Y-123952000D01*
X158144912Y-123932315D01*
X158099157Y-123879511D01*
X158089213Y-123810353D01*
X158118238Y-123746797D01*
X158124270Y-123740319D01*
X158783204Y-123081385D01*
X158829266Y-123052261D01*
X160010323Y-122631485D01*
X160019817Y-122628528D01*
X160026496Y-122626739D01*
X160030422Y-122624907D01*
X160041228Y-122620475D01*
X160044217Y-122619411D01*
X160055326Y-122615306D01*
X160055864Y-122615100D01*
X160116876Y-122586957D01*
X160116886Y-122586949D01*
X160122457Y-122583635D01*
X160122568Y-122583822D01*
X160136866Y-122575272D01*
X160232734Y-122530568D01*
X160419139Y-122400047D01*
X160580047Y-122239139D01*
X160710568Y-122052734D01*
X160746196Y-121976330D01*
X171315710Y-121976330D01*
X171345925Y-122199387D01*
X171345926Y-122199390D01*
X171415483Y-122413465D01*
X171522146Y-122611678D01*
X171522148Y-122611681D01*
X171662489Y-122787663D01*
X171662491Y-122787664D01*
X171662492Y-122787666D01*
X171832004Y-122935765D01*
X172025236Y-123051215D01*
X172235971Y-123130305D01*
X172235976Y-123130307D01*
X172457450Y-123170500D01*
X172457453Y-123170500D01*
X172926148Y-123170500D01*
X172926155Y-123170500D01*
X173094188Y-123155377D01*
X173094192Y-123155376D01*
X173311160Y-123095496D01*
X173311162Y-123095495D01*
X173311170Y-123095493D01*
X173513973Y-122997829D01*
X173696078Y-122865522D01*
X173851632Y-122702825D01*
X173885864Y-122650964D01*
X173939221Y-122605861D01*
X174008496Y-122596763D01*
X174071692Y-122626562D01*
X174086297Y-122641963D01*
X174202489Y-122787663D01*
X174202491Y-122787664D01*
X174202492Y-122787666D01*
X174372004Y-122935765D01*
X174565236Y-123051215D01*
X174775971Y-123130305D01*
X174775976Y-123130307D01*
X174997450Y-123170500D01*
X174997453Y-123170500D01*
X175466148Y-123170500D01*
X175466155Y-123170500D01*
X175634188Y-123155377D01*
X175634192Y-123155376D01*
X175851160Y-123095496D01*
X175851162Y-123095495D01*
X175851170Y-123095493D01*
X176053973Y-122997829D01*
X176236078Y-122865522D01*
X176391632Y-122702825D01*
X176515635Y-122514968D01*
X176604103Y-122307988D01*
X176654191Y-122088537D01*
X176664290Y-121863670D01*
X176634075Y-121640613D01*
X176564517Y-121426536D01*
X176457852Y-121228319D01*
X176324992Y-121061718D01*
X176317510Y-121052336D01*
X176262570Y-121004336D01*
X176147996Y-120904235D01*
X175954767Y-120788787D01*
X175954768Y-120788787D01*
X175954766Y-120788786D01*
X175954764Y-120788785D01*
X175895896Y-120766691D01*
X175840050Y-120724706D01*
X175815767Y-120659191D01*
X175830759Y-120590949D01*
X175880265Y-120541645D01*
X175885610Y-120538907D01*
X176053973Y-120457829D01*
X176236078Y-120325522D01*
X176391632Y-120162825D01*
X176515635Y-119974968D01*
X176604103Y-119767988D01*
X176654191Y-119548537D01*
X176664290Y-119323670D01*
X176634075Y-119100613D01*
X176564517Y-118886536D01*
X176553287Y-118865668D01*
X176457853Y-118688321D01*
X176457851Y-118688318D01*
X176445981Y-118673434D01*
X176381270Y-118592289D01*
X176317510Y-118512336D01*
X176317508Y-118512334D01*
X176147996Y-118364235D01*
X175954767Y-118248787D01*
X175954768Y-118248787D01*
X175954766Y-118248786D01*
X175954764Y-118248785D01*
X175895896Y-118226691D01*
X175840050Y-118184706D01*
X175815767Y-118119191D01*
X175830759Y-118050949D01*
X175880265Y-118001645D01*
X175885610Y-117998907D01*
X176053973Y-117917829D01*
X176236078Y-117785522D01*
X176391632Y-117622825D01*
X176515635Y-117434968D01*
X176604103Y-117227988D01*
X176654191Y-117008537D01*
X176664290Y-116783670D01*
X176634075Y-116560613D01*
X176564517Y-116346536D01*
X176457852Y-116148319D01*
X176385167Y-116057175D01*
X176317510Y-115972336D01*
X176317508Y-115972334D01*
X176147996Y-115824235D01*
X175954767Y-115708787D01*
X175954768Y-115708787D01*
X175954766Y-115708786D01*
X175954764Y-115708785D01*
X175895896Y-115686691D01*
X175840050Y-115644706D01*
X175815767Y-115579191D01*
X175830759Y-115510949D01*
X175880265Y-115461645D01*
X175885610Y-115458907D01*
X176053973Y-115377829D01*
X176236078Y-115245522D01*
X176391632Y-115082825D01*
X176515635Y-114894968D01*
X176604103Y-114687988D01*
X176654191Y-114468537D01*
X176664290Y-114243670D01*
X176634075Y-114020613D01*
X176564517Y-113806536D01*
X176457852Y-113608319D01*
X176317508Y-113432334D01*
X176147996Y-113284235D01*
X175954767Y-113168787D01*
X175954768Y-113168787D01*
X175954766Y-113168786D01*
X175954764Y-113168785D01*
X175895896Y-113146691D01*
X175840050Y-113104706D01*
X175815767Y-113039191D01*
X175830759Y-112970949D01*
X175880265Y-112921645D01*
X175885610Y-112918907D01*
X176053973Y-112837829D01*
X176236078Y-112705522D01*
X176391632Y-112542825D01*
X176515635Y-112354968D01*
X176604103Y-112147988D01*
X176654191Y-111928537D01*
X176664290Y-111703670D01*
X176634075Y-111480613D01*
X176564517Y-111266536D01*
X176457852Y-111068319D01*
X176385167Y-110977175D01*
X176317510Y-110892336D01*
X176317508Y-110892334D01*
X176147996Y-110744235D01*
X175954767Y-110628787D01*
X175954768Y-110628787D01*
X175954766Y-110628786D01*
X175954764Y-110628785D01*
X175895896Y-110606691D01*
X175840050Y-110564706D01*
X175815767Y-110499191D01*
X175830759Y-110430949D01*
X175880265Y-110381645D01*
X175885610Y-110378907D01*
X176053973Y-110297829D01*
X176236078Y-110165522D01*
X176391632Y-110002825D01*
X176515635Y-109814968D01*
X176604103Y-109607988D01*
X176654191Y-109388537D01*
X176664290Y-109163670D01*
X176634075Y-108940613D01*
X176564517Y-108726536D01*
X176457852Y-108528319D01*
X176385167Y-108437175D01*
X176317510Y-108352336D01*
X176317508Y-108352334D01*
X176147996Y-108204235D01*
X175954764Y-108088785D01*
X175836775Y-108044503D01*
X175744023Y-108009692D01*
X175522550Y-107969500D01*
X175522547Y-107969500D01*
X175053845Y-107969500D01*
X175015399Y-107972960D01*
X174885813Y-107984622D01*
X174885807Y-107984623D01*
X174668839Y-108044503D01*
X174668826Y-108044508D01*
X174466033Y-108142167D01*
X174466025Y-108142171D01*
X174283927Y-108274473D01*
X174283925Y-108274474D01*
X174128367Y-108437175D01*
X174094134Y-108489036D01*
X174040774Y-108534140D01*
X173971498Y-108543235D01*
X173908303Y-108513434D01*
X173893701Y-108498035D01*
X173777512Y-108352338D01*
X173777509Y-108352335D01*
X173777508Y-108352334D01*
X173607996Y-108204235D01*
X173414767Y-108088787D01*
X173414768Y-108088787D01*
X173414766Y-108088786D01*
X173414764Y-108088785D01*
X173355896Y-108066691D01*
X173300050Y-108024706D01*
X173275767Y-107959191D01*
X173290759Y-107890949D01*
X173340265Y-107841645D01*
X173345610Y-107838907D01*
X173513973Y-107757829D01*
X173696078Y-107625522D01*
X173851632Y-107462825D01*
X173975635Y-107274968D01*
X174064103Y-107067988D01*
X174114191Y-106848537D01*
X174124290Y-106623670D01*
X174094075Y-106400613D01*
X174024517Y-106186536D01*
X173917852Y-105988319D01*
X173845167Y-105897175D01*
X173777510Y-105812336D01*
X173777508Y-105812334D01*
X173607996Y-105664235D01*
X173414767Y-105548787D01*
X173414768Y-105548787D01*
X173414766Y-105548786D01*
X173414764Y-105548785D01*
X173355896Y-105526691D01*
X173300050Y-105484706D01*
X173275767Y-105419191D01*
X173290759Y-105350949D01*
X173340265Y-105301645D01*
X173345610Y-105298907D01*
X173513973Y-105217829D01*
X173696078Y-105085522D01*
X173851632Y-104922825D01*
X173885864Y-104870964D01*
X173939221Y-104825861D01*
X174008496Y-104816763D01*
X174071692Y-104846562D01*
X174086297Y-104861963D01*
X174202489Y-105007663D01*
X174202491Y-105007664D01*
X174202492Y-105007666D01*
X174372004Y-105155765D01*
X174565236Y-105271215D01*
X174735969Y-105335292D01*
X174775976Y-105350307D01*
X174997450Y-105390500D01*
X174997453Y-105390500D01*
X175466148Y-105390500D01*
X175466155Y-105390500D01*
X175634188Y-105375377D01*
X175722700Y-105350949D01*
X175851160Y-105315496D01*
X175851162Y-105315495D01*
X175851170Y-105315493D01*
X176053973Y-105217829D01*
X176236078Y-105085522D01*
X176391632Y-104922825D01*
X176515635Y-104734968D01*
X176583983Y-104575062D01*
X176604100Y-104527995D01*
X176604099Y-104527995D01*
X176604103Y-104527988D01*
X176654191Y-104308537D01*
X176664290Y-104083670D01*
X176634075Y-103860613D01*
X176564517Y-103646536D01*
X176457852Y-103448319D01*
X176385167Y-103357175D01*
X176317510Y-103272336D01*
X176317508Y-103272334D01*
X176147996Y-103124235D01*
X175954767Y-103008787D01*
X175954768Y-103008787D01*
X175954766Y-103008786D01*
X175954764Y-103008785D01*
X175895896Y-102986691D01*
X175840050Y-102944706D01*
X175815767Y-102879191D01*
X175830759Y-102810949D01*
X175880265Y-102761645D01*
X175885610Y-102758907D01*
X176053973Y-102677829D01*
X176236078Y-102545522D01*
X176391632Y-102382825D01*
X176515635Y-102194968D01*
X176604103Y-101987988D01*
X176654191Y-101768537D01*
X176664290Y-101543670D01*
X176634075Y-101320613D01*
X176564517Y-101106536D01*
X176457852Y-100908319D01*
X176385167Y-100817175D01*
X176317510Y-100732336D01*
X176317508Y-100732334D01*
X176147996Y-100584235D01*
X175954767Y-100468787D01*
X175954768Y-100468787D01*
X175954766Y-100468786D01*
X175954764Y-100468785D01*
X175895896Y-100446691D01*
X175840050Y-100404706D01*
X175815767Y-100339191D01*
X175830759Y-100270949D01*
X175880265Y-100221645D01*
X175885610Y-100218907D01*
X176053973Y-100137829D01*
X176236078Y-100005522D01*
X176391632Y-99842825D01*
X176515635Y-99654968D01*
X176604103Y-99447988D01*
X176654191Y-99228537D01*
X176664290Y-99003670D01*
X176634075Y-98780613D01*
X176564517Y-98566536D01*
X176457852Y-98368319D01*
X176385167Y-98277175D01*
X176317510Y-98192336D01*
X176317508Y-98192334D01*
X176147996Y-98044235D01*
X175954767Y-97928787D01*
X175954768Y-97928787D01*
X175954766Y-97928786D01*
X175954764Y-97928785D01*
X175895896Y-97906691D01*
X175840050Y-97864706D01*
X175815767Y-97799191D01*
X175830759Y-97730949D01*
X175880265Y-97681645D01*
X175885610Y-97678907D01*
X176053973Y-97597829D01*
X176236078Y-97465522D01*
X176391632Y-97302825D01*
X176515635Y-97114968D01*
X176604103Y-96907988D01*
X176654191Y-96688537D01*
X176664290Y-96463670D01*
X176634075Y-96240613D01*
X176564517Y-96026536D01*
X176457852Y-95828319D01*
X176385167Y-95737175D01*
X176317510Y-95652336D01*
X176313297Y-95648655D01*
X176147996Y-95504235D01*
X175954767Y-95388787D01*
X175954768Y-95388787D01*
X175954766Y-95388786D01*
X175954764Y-95388785D01*
X175895896Y-95366691D01*
X175840050Y-95324706D01*
X175815767Y-95259191D01*
X175830759Y-95190949D01*
X175880265Y-95141645D01*
X175885610Y-95138907D01*
X176053973Y-95057829D01*
X176236078Y-94925522D01*
X176391632Y-94762825D01*
X176515635Y-94574968D01*
X176604103Y-94367988D01*
X176654191Y-94148537D01*
X176664290Y-93923670D01*
X176634075Y-93700613D01*
X176564517Y-93486536D01*
X176457852Y-93288319D01*
X176385167Y-93197175D01*
X176317510Y-93112336D01*
X176317508Y-93112334D01*
X176147996Y-92964235D01*
X175954767Y-92848787D01*
X175954768Y-92848787D01*
X175954766Y-92848786D01*
X175954764Y-92848785D01*
X175895896Y-92826691D01*
X175840050Y-92784706D01*
X175815767Y-92719191D01*
X175830759Y-92650949D01*
X175880265Y-92601645D01*
X175885610Y-92598907D01*
X176053973Y-92517829D01*
X176236078Y-92385522D01*
X176391632Y-92222825D01*
X176515635Y-92034968D01*
X176604103Y-91827988D01*
X176654191Y-91608537D01*
X176664290Y-91383670D01*
X176634075Y-91160613D01*
X176564517Y-90946536D01*
X176561502Y-90940934D01*
X176457853Y-90748321D01*
X176457851Y-90748318D01*
X176445981Y-90733434D01*
X176385167Y-90657175D01*
X176317510Y-90572336D01*
X176317508Y-90572334D01*
X176147996Y-90424235D01*
X175954767Y-90308787D01*
X175954768Y-90308787D01*
X175954766Y-90308786D01*
X175954764Y-90308785D01*
X175895896Y-90286691D01*
X175840050Y-90244706D01*
X175815767Y-90179191D01*
X175830759Y-90110949D01*
X175880265Y-90061645D01*
X175885610Y-90058907D01*
X176053973Y-89977829D01*
X176236078Y-89845522D01*
X176391632Y-89682825D01*
X176515635Y-89494968D01*
X176604103Y-89287988D01*
X176654191Y-89068537D01*
X176664290Y-88843670D01*
X176634075Y-88620613D01*
X176564517Y-88406536D01*
X176457852Y-88208319D01*
X176385167Y-88117175D01*
X176317510Y-88032336D01*
X176317508Y-88032334D01*
X176147996Y-87884235D01*
X175954767Y-87768787D01*
X175954768Y-87768787D01*
X175954766Y-87768786D01*
X175954764Y-87768785D01*
X175895896Y-87746691D01*
X175840050Y-87704706D01*
X175815767Y-87639191D01*
X175830759Y-87570949D01*
X175880265Y-87521645D01*
X175885610Y-87518907D01*
X176053973Y-87437829D01*
X176236078Y-87305522D01*
X176391632Y-87142825D01*
X176515635Y-86954968D01*
X176604103Y-86747988D01*
X176654191Y-86528537D01*
X176664290Y-86303670D01*
X176634075Y-86080613D01*
X176564517Y-85866536D01*
X176457852Y-85668319D01*
X176411070Y-85609657D01*
X176317510Y-85492336D01*
X176279187Y-85458854D01*
X176147996Y-85344235D01*
X175954767Y-85228787D01*
X175954768Y-85228787D01*
X175954766Y-85228786D01*
X175954764Y-85228785D01*
X175895896Y-85206691D01*
X175840050Y-85164706D01*
X175815767Y-85099191D01*
X175830759Y-85030949D01*
X175880265Y-84981645D01*
X175885610Y-84978907D01*
X176053973Y-84897829D01*
X176236078Y-84765522D01*
X176391632Y-84602825D01*
X176515635Y-84414968D01*
X176604103Y-84207988D01*
X176654191Y-83988537D01*
X176664290Y-83763670D01*
X176634075Y-83540613D01*
X176564517Y-83326536D01*
X176457852Y-83128319D01*
X176341874Y-82982888D01*
X176317510Y-82952336D01*
X176307409Y-82943511D01*
X176147996Y-82804235D01*
X175954767Y-82688787D01*
X175954768Y-82688787D01*
X175954766Y-82688786D01*
X175954764Y-82688785D01*
X175895896Y-82666691D01*
X175840050Y-82624706D01*
X175815767Y-82559191D01*
X175830759Y-82490949D01*
X175880265Y-82441645D01*
X175885610Y-82438907D01*
X176053973Y-82357829D01*
X176236078Y-82225522D01*
X176391632Y-82062825D01*
X176515635Y-81874968D01*
X176604103Y-81667988D01*
X176654191Y-81448537D01*
X176664290Y-81223670D01*
X176634075Y-81000613D01*
X176564517Y-80786536D01*
X176457852Y-80588319D01*
X176411070Y-80529657D01*
X176317510Y-80412336D01*
X176279187Y-80378854D01*
X176147996Y-80264235D01*
X175954764Y-80148785D01*
X175836037Y-80104226D01*
X175744023Y-80069692D01*
X175522550Y-80029500D01*
X175522547Y-80029500D01*
X175053845Y-80029500D01*
X175015399Y-80032960D01*
X174885813Y-80044622D01*
X174885807Y-80044623D01*
X174668839Y-80104503D01*
X174668826Y-80104508D01*
X174466033Y-80202167D01*
X174466025Y-80202171D01*
X174283927Y-80334473D01*
X174283917Y-80334481D01*
X174274814Y-80344003D01*
X174214257Y-80378854D01*
X174144471Y-80375433D01*
X174087613Y-80334825D01*
X174069008Y-80301642D01*
X174063797Y-80287671D01*
X174063793Y-80287664D01*
X173977547Y-80172455D01*
X173977544Y-80172452D01*
X173862335Y-80086206D01*
X173862328Y-80086202D01*
X173727482Y-80035908D01*
X173727483Y-80035908D01*
X173667883Y-80029501D01*
X173667881Y-80029500D01*
X173667873Y-80029500D01*
X173667864Y-80029500D01*
X171772129Y-80029500D01*
X171772123Y-80029501D01*
X171712516Y-80035908D01*
X171577671Y-80086202D01*
X171577664Y-80086206D01*
X171462455Y-80172452D01*
X171462452Y-80172455D01*
X171376206Y-80287664D01*
X171376202Y-80287671D01*
X171325908Y-80422517D01*
X171319501Y-80482116D01*
X171319500Y-80482135D01*
X171319500Y-82077870D01*
X171319501Y-82077876D01*
X171325908Y-82137483D01*
X171376202Y-82272328D01*
X171376206Y-82272335D01*
X171462452Y-82387544D01*
X171462455Y-82387547D01*
X171577664Y-82473793D01*
X171577671Y-82473797D01*
X171712517Y-82524091D01*
X171712516Y-82524091D01*
X171719444Y-82524835D01*
X171772127Y-82530500D01*
X171835735Y-82530499D01*
X171902772Y-82550183D01*
X171948528Y-82602986D01*
X171958472Y-82672144D01*
X171929448Y-82735700D01*
X171908620Y-82754817D01*
X171743924Y-82874476D01*
X171588366Y-83037176D01*
X171464363Y-83225033D01*
X171375899Y-83432004D01*
X171375895Y-83432017D01*
X171325810Y-83651457D01*
X171325808Y-83651468D01*
X171319217Y-83798239D01*
X171315710Y-83876330D01*
X171345925Y-84099387D01*
X171345926Y-84099390D01*
X171415483Y-84313465D01*
X171522146Y-84511678D01*
X171522148Y-84511681D01*
X171662489Y-84687663D01*
X171662491Y-84687664D01*
X171662492Y-84687666D01*
X171832004Y-84835765D01*
X172025236Y-84951215D01*
X172195969Y-85015292D01*
X172235976Y-85030307D01*
X172457450Y-85070500D01*
X172457453Y-85070500D01*
X172926148Y-85070500D01*
X172926155Y-85070500D01*
X173094188Y-85055377D01*
X173152800Y-85039201D01*
X173311160Y-84995496D01*
X173311162Y-84995495D01*
X173311170Y-84995493D01*
X173513973Y-84897829D01*
X173696078Y-84765522D01*
X173851632Y-84602825D01*
X173885864Y-84550964D01*
X173939221Y-84505861D01*
X174008496Y-84496763D01*
X174071692Y-84526562D01*
X174086297Y-84541963D01*
X174202489Y-84687663D01*
X174202491Y-84687664D01*
X174202492Y-84687666D01*
X174372004Y-84835765D01*
X174565236Y-84951215D01*
X174624102Y-84973307D01*
X174679949Y-85015292D01*
X174704232Y-85080806D01*
X174689241Y-85149049D01*
X174639735Y-85198353D01*
X174634331Y-85201120D01*
X174466033Y-85282167D01*
X174466025Y-85282171D01*
X174283927Y-85414473D01*
X174283925Y-85414474D01*
X174128366Y-85577176D01*
X174004363Y-85765033D01*
X173915899Y-85972004D01*
X173915895Y-85972017D01*
X173865810Y-86191457D01*
X173865808Y-86191468D01*
X173859819Y-86324833D01*
X173855710Y-86416330D01*
X173885925Y-86639387D01*
X173885926Y-86639390D01*
X173955483Y-86853465D01*
X174062146Y-87051678D01*
X174062148Y-87051681D01*
X174202489Y-87227663D01*
X174202491Y-87227664D01*
X174202492Y-87227666D01*
X174372004Y-87375765D01*
X174565236Y-87491215D01*
X174624102Y-87513307D01*
X174679949Y-87555292D01*
X174704232Y-87620806D01*
X174689241Y-87689049D01*
X174639735Y-87738353D01*
X174634331Y-87741120D01*
X174466033Y-87822167D01*
X174466025Y-87822171D01*
X174283927Y-87954473D01*
X174283925Y-87954474D01*
X174128367Y-88117175D01*
X174094134Y-88169036D01*
X174040774Y-88214140D01*
X173971498Y-88223235D01*
X173908303Y-88193434D01*
X173893701Y-88178035D01*
X173777512Y-88032338D01*
X173777509Y-88032335D01*
X173777508Y-88032334D01*
X173607996Y-87884235D01*
X173414764Y-87768785D01*
X173287087Y-87720867D01*
X173204023Y-87689692D01*
X172982550Y-87649500D01*
X172982547Y-87649500D01*
X172513845Y-87649500D01*
X172475399Y-87652960D01*
X172345813Y-87664622D01*
X172345807Y-87664623D01*
X172128839Y-87724503D01*
X172128826Y-87724508D01*
X171926033Y-87822167D01*
X171926025Y-87822171D01*
X171743927Y-87954473D01*
X171743925Y-87954474D01*
X171588366Y-88117176D01*
X171464363Y-88305033D01*
X171375899Y-88512004D01*
X171375895Y-88512017D01*
X171325810Y-88731457D01*
X171325808Y-88731468D01*
X171320769Y-88843674D01*
X171315710Y-88956330D01*
X171345925Y-89179387D01*
X171345926Y-89179390D01*
X171415483Y-89393465D01*
X171522146Y-89591678D01*
X171522148Y-89591681D01*
X171662489Y-89767663D01*
X171662491Y-89767664D01*
X171662492Y-89767666D01*
X171832004Y-89915765D01*
X172025236Y-90031215D01*
X172084102Y-90053307D01*
X172139949Y-90095292D01*
X172164232Y-90160806D01*
X172149241Y-90229049D01*
X172099735Y-90278353D01*
X172094331Y-90281120D01*
X171926033Y-90362167D01*
X171926025Y-90362171D01*
X171743927Y-90494473D01*
X171743925Y-90494474D01*
X171588366Y-90657176D01*
X171464363Y-90845033D01*
X171375899Y-91052004D01*
X171375895Y-91052017D01*
X171325810Y-91271457D01*
X171325808Y-91271468D01*
X171320769Y-91383674D01*
X171315710Y-91496330D01*
X171345925Y-91719387D01*
X171345926Y-91719390D01*
X171415483Y-91933465D01*
X171522146Y-92131678D01*
X171522148Y-92131681D01*
X171662489Y-92307663D01*
X171662491Y-92307664D01*
X171662492Y-92307666D01*
X171832004Y-92455765D01*
X172025236Y-92571215D01*
X172084102Y-92593307D01*
X172139949Y-92635292D01*
X172164232Y-92700806D01*
X172149241Y-92769049D01*
X172099735Y-92818353D01*
X172094331Y-92821120D01*
X171926033Y-92902167D01*
X171926025Y-92902171D01*
X171743927Y-93034473D01*
X171743925Y-93034474D01*
X171588366Y-93197176D01*
X171464363Y-93385033D01*
X171375899Y-93592004D01*
X171375895Y-93592017D01*
X171325810Y-93811457D01*
X171325808Y-93811468D01*
X171320769Y-93923674D01*
X171315710Y-94036330D01*
X171345925Y-94259387D01*
X171345926Y-94259390D01*
X171415483Y-94473465D01*
X171522146Y-94671678D01*
X171522148Y-94671681D01*
X171662489Y-94847663D01*
X171662491Y-94847664D01*
X171662492Y-94847666D01*
X171832004Y-94995765D01*
X172025236Y-95111215D01*
X172084102Y-95133307D01*
X172139949Y-95175292D01*
X172164232Y-95240806D01*
X172149241Y-95309049D01*
X172099735Y-95358353D01*
X172094331Y-95361120D01*
X171926033Y-95442167D01*
X171926025Y-95442171D01*
X171743927Y-95574473D01*
X171743925Y-95574474D01*
X171588366Y-95737176D01*
X171464363Y-95925033D01*
X171375899Y-96132004D01*
X171375895Y-96132017D01*
X171325810Y-96351457D01*
X171325808Y-96351468D01*
X171317312Y-96540659D01*
X171315710Y-96576330D01*
X171345925Y-96799387D01*
X171345926Y-96799390D01*
X171415483Y-97013465D01*
X171522146Y-97211678D01*
X171522148Y-97211681D01*
X171662489Y-97387663D01*
X171662491Y-97387664D01*
X171662492Y-97387666D01*
X171832004Y-97535765D01*
X172025236Y-97651215D01*
X172084102Y-97673307D01*
X172139949Y-97715292D01*
X172164232Y-97780806D01*
X172149241Y-97849049D01*
X172099735Y-97898353D01*
X172094331Y-97901120D01*
X171926033Y-97982167D01*
X171926025Y-97982171D01*
X171743927Y-98114473D01*
X171743925Y-98114474D01*
X171588366Y-98277176D01*
X171464363Y-98465033D01*
X171375899Y-98672004D01*
X171375895Y-98672017D01*
X171325810Y-98891457D01*
X171325808Y-98891468D01*
X171320769Y-99003674D01*
X171315710Y-99116330D01*
X171345925Y-99339387D01*
X171345926Y-99339390D01*
X171415483Y-99553465D01*
X171522146Y-99751678D01*
X171522148Y-99751681D01*
X171662489Y-99927663D01*
X171662491Y-99927664D01*
X171662492Y-99927666D01*
X171832004Y-100075765D01*
X172025236Y-100191215D01*
X172195969Y-100255292D01*
X172235976Y-100270307D01*
X172457450Y-100310500D01*
X172457453Y-100310500D01*
X172926148Y-100310500D01*
X172926155Y-100310500D01*
X173094188Y-100295377D01*
X173182700Y-100270949D01*
X173311160Y-100235496D01*
X173311162Y-100235495D01*
X173311170Y-100235493D01*
X173513973Y-100137829D01*
X173696078Y-100005522D01*
X173851632Y-99842825D01*
X173885864Y-99790964D01*
X173939221Y-99745861D01*
X174008496Y-99736763D01*
X174071692Y-99766562D01*
X174086297Y-99781963D01*
X174202489Y-99927663D01*
X174202491Y-99927664D01*
X174202492Y-99927666D01*
X174372004Y-100075765D01*
X174565236Y-100191215D01*
X174624102Y-100213307D01*
X174679949Y-100255292D01*
X174704232Y-100320806D01*
X174689241Y-100389049D01*
X174639735Y-100438353D01*
X174634331Y-100441120D01*
X174466033Y-100522167D01*
X174466025Y-100522171D01*
X174283927Y-100654473D01*
X174283925Y-100654474D01*
X174128366Y-100817176D01*
X174004363Y-101005033D01*
X173915899Y-101212004D01*
X173915895Y-101212017D01*
X173865810Y-101431457D01*
X173865808Y-101431468D01*
X173855761Y-101655185D01*
X173855710Y-101656330D01*
X173885925Y-101879387D01*
X173885926Y-101879390D01*
X173955483Y-102093465D01*
X174062146Y-102291678D01*
X174062148Y-102291681D01*
X174202489Y-102467663D01*
X174202491Y-102467664D01*
X174202492Y-102467666D01*
X174372004Y-102615765D01*
X174565236Y-102731215D01*
X174624102Y-102753307D01*
X174679949Y-102795292D01*
X174704232Y-102860806D01*
X174689241Y-102929049D01*
X174639735Y-102978353D01*
X174634331Y-102981120D01*
X174466033Y-103062167D01*
X174466025Y-103062171D01*
X174283927Y-103194473D01*
X174283925Y-103194474D01*
X174128367Y-103357175D01*
X174094134Y-103409036D01*
X174040774Y-103454140D01*
X173971498Y-103463235D01*
X173908303Y-103433434D01*
X173893701Y-103418035D01*
X173777512Y-103272338D01*
X173777509Y-103272335D01*
X173777508Y-103272334D01*
X173607996Y-103124235D01*
X173414764Y-103008785D01*
X173296775Y-102964503D01*
X173204023Y-102929692D01*
X172982550Y-102889500D01*
X172982547Y-102889500D01*
X172513845Y-102889500D01*
X172475399Y-102892960D01*
X172345813Y-102904622D01*
X172345807Y-102904623D01*
X172128839Y-102964503D01*
X172128826Y-102964508D01*
X171926033Y-103062167D01*
X171926025Y-103062171D01*
X171743927Y-103194473D01*
X171743925Y-103194474D01*
X171588366Y-103357176D01*
X171464363Y-103545033D01*
X171375899Y-103752004D01*
X171375895Y-103752017D01*
X171325810Y-103971457D01*
X171325808Y-103971468D01*
X171317371Y-104159336D01*
X171315710Y-104196330D01*
X171345925Y-104419387D01*
X171345926Y-104419390D01*
X171415483Y-104633465D01*
X171522146Y-104831678D01*
X171522148Y-104831681D01*
X171662489Y-105007663D01*
X171662491Y-105007664D01*
X171662492Y-105007666D01*
X171832004Y-105155765D01*
X172025236Y-105271215D01*
X172084102Y-105293307D01*
X172139949Y-105335292D01*
X172164232Y-105400806D01*
X172149241Y-105469049D01*
X172099735Y-105518353D01*
X172094331Y-105521120D01*
X171926033Y-105602167D01*
X171926025Y-105602171D01*
X171743927Y-105734473D01*
X171743925Y-105734474D01*
X171588366Y-105897176D01*
X171464363Y-106085033D01*
X171375899Y-106292004D01*
X171375895Y-106292017D01*
X171325810Y-106511457D01*
X171325808Y-106511468D01*
X171316885Y-106710163D01*
X171315710Y-106736330D01*
X171345925Y-106959387D01*
X171345926Y-106959390D01*
X171415483Y-107173465D01*
X171522146Y-107371678D01*
X171522148Y-107371681D01*
X171662489Y-107547663D01*
X171662491Y-107547664D01*
X171662492Y-107547666D01*
X171832004Y-107695765D01*
X172025236Y-107811215D01*
X172084102Y-107833307D01*
X172139949Y-107875292D01*
X172164232Y-107940806D01*
X172149241Y-108009049D01*
X172099735Y-108058353D01*
X172094331Y-108061120D01*
X171926033Y-108142167D01*
X171926025Y-108142171D01*
X171743927Y-108274473D01*
X171743925Y-108274474D01*
X171588366Y-108437176D01*
X171464363Y-108625033D01*
X171375899Y-108832004D01*
X171375895Y-108832017D01*
X171325810Y-109051457D01*
X171325808Y-109051468D01*
X171320769Y-109163674D01*
X171315710Y-109276330D01*
X171345925Y-109499387D01*
X171345926Y-109499390D01*
X171415483Y-109713465D01*
X171522146Y-109911678D01*
X171522148Y-109911681D01*
X171662489Y-110087663D01*
X171662491Y-110087664D01*
X171662492Y-110087666D01*
X171832004Y-110235765D01*
X172025236Y-110351215D01*
X172084102Y-110373307D01*
X172139949Y-110415292D01*
X172164232Y-110480806D01*
X172149241Y-110549049D01*
X172099735Y-110598353D01*
X172094331Y-110601120D01*
X171926033Y-110682167D01*
X171926025Y-110682171D01*
X171743927Y-110814473D01*
X171743925Y-110814474D01*
X171588366Y-110977176D01*
X171464363Y-111165033D01*
X171375899Y-111372004D01*
X171375895Y-111372017D01*
X171325810Y-111591457D01*
X171325808Y-111591468D01*
X171315710Y-111816325D01*
X171315710Y-111816330D01*
X171345925Y-112039387D01*
X171345926Y-112039390D01*
X171415483Y-112253465D01*
X171522146Y-112451678D01*
X171522148Y-112451681D01*
X171662489Y-112627663D01*
X171662491Y-112627664D01*
X171662492Y-112627666D01*
X171832004Y-112775765D01*
X172025236Y-112891215D01*
X172195969Y-112955292D01*
X172235976Y-112970307D01*
X172457450Y-113010500D01*
X172457453Y-113010500D01*
X172926148Y-113010500D01*
X172926155Y-113010500D01*
X173094188Y-112995377D01*
X173094192Y-112995376D01*
X173311160Y-112935496D01*
X173311162Y-112935495D01*
X173311170Y-112935493D01*
X173513973Y-112837829D01*
X173696078Y-112705522D01*
X173851632Y-112542825D01*
X173885864Y-112490964D01*
X173939221Y-112445861D01*
X174008496Y-112436763D01*
X174071692Y-112466562D01*
X174086297Y-112481963D01*
X174202489Y-112627663D01*
X174202491Y-112627664D01*
X174202492Y-112627666D01*
X174372004Y-112775765D01*
X174565236Y-112891215D01*
X174624102Y-112913307D01*
X174679949Y-112955292D01*
X174704232Y-113020806D01*
X174689241Y-113089049D01*
X174639735Y-113138353D01*
X174634331Y-113141120D01*
X174466033Y-113222167D01*
X174466025Y-113222171D01*
X174283927Y-113354473D01*
X174283925Y-113354474D01*
X174128366Y-113517176D01*
X174004363Y-113705033D01*
X173915899Y-113912004D01*
X173915895Y-113912017D01*
X173865810Y-114131457D01*
X173865808Y-114131468D01*
X173860769Y-114243674D01*
X173855710Y-114356330D01*
X173885925Y-114579387D01*
X173885926Y-114579390D01*
X173955483Y-114793465D01*
X174062146Y-114991678D01*
X174062148Y-114991681D01*
X174202489Y-115167663D01*
X174202491Y-115167664D01*
X174202492Y-115167666D01*
X174372004Y-115315765D01*
X174565236Y-115431215D01*
X174624102Y-115453307D01*
X174679949Y-115495292D01*
X174704232Y-115560806D01*
X174689241Y-115629049D01*
X174639735Y-115678353D01*
X174634331Y-115681120D01*
X174466033Y-115762167D01*
X174466025Y-115762171D01*
X174283927Y-115894473D01*
X174283925Y-115894474D01*
X174128367Y-116057175D01*
X174094134Y-116109036D01*
X174040774Y-116154140D01*
X173971498Y-116163235D01*
X173908303Y-116133434D01*
X173893701Y-116118035D01*
X173777512Y-115972338D01*
X173777509Y-115972335D01*
X173777508Y-115972334D01*
X173607996Y-115824235D01*
X173414764Y-115708785D01*
X173296775Y-115664503D01*
X173204023Y-115629692D01*
X172982550Y-115589500D01*
X172982547Y-115589500D01*
X172513845Y-115589500D01*
X172475399Y-115592960D01*
X172345813Y-115604622D01*
X172345807Y-115604623D01*
X172128839Y-115664503D01*
X172128826Y-115664508D01*
X171926033Y-115762167D01*
X171926025Y-115762171D01*
X171743927Y-115894473D01*
X171743925Y-115894474D01*
X171588366Y-116057176D01*
X171464363Y-116245033D01*
X171375899Y-116452004D01*
X171375895Y-116452017D01*
X171325810Y-116671457D01*
X171325808Y-116671468D01*
X171320769Y-116783674D01*
X171315710Y-116896330D01*
X171345925Y-117119387D01*
X171345926Y-117119390D01*
X171415483Y-117333465D01*
X171522146Y-117531678D01*
X171522148Y-117531681D01*
X171662489Y-117707663D01*
X171662491Y-117707664D01*
X171662492Y-117707666D01*
X171832004Y-117855765D01*
X172025236Y-117971215D01*
X172084102Y-117993307D01*
X172139949Y-118035292D01*
X172164232Y-118100806D01*
X172149241Y-118169049D01*
X172099735Y-118218353D01*
X172094331Y-118221120D01*
X171926033Y-118302167D01*
X171926025Y-118302171D01*
X171743927Y-118434473D01*
X171743925Y-118434474D01*
X171588366Y-118597176D01*
X171464363Y-118785033D01*
X171375899Y-118992004D01*
X171375895Y-118992017D01*
X171325810Y-119211457D01*
X171325808Y-119211468D01*
X171320769Y-119323674D01*
X171315710Y-119436330D01*
X171345925Y-119659387D01*
X171345926Y-119659390D01*
X171415483Y-119873465D01*
X171522146Y-120071678D01*
X171522148Y-120071681D01*
X171662489Y-120247663D01*
X171662491Y-120247664D01*
X171662492Y-120247666D01*
X171832004Y-120395765D01*
X172025236Y-120511215D01*
X172084102Y-120533307D01*
X172139949Y-120575292D01*
X172164232Y-120640806D01*
X172149241Y-120709049D01*
X172099735Y-120758353D01*
X172094331Y-120761120D01*
X171926033Y-120842167D01*
X171926025Y-120842171D01*
X171743927Y-120974473D01*
X171743925Y-120974474D01*
X171588366Y-121137176D01*
X171464363Y-121325033D01*
X171375899Y-121532004D01*
X171375895Y-121532017D01*
X171325810Y-121751457D01*
X171325808Y-121751468D01*
X171320769Y-121863674D01*
X171315710Y-121976330D01*
X160746196Y-121976330D01*
X160806739Y-121846496D01*
X160865635Y-121626692D01*
X160885468Y-121400000D01*
X160865635Y-121173308D01*
X160806739Y-120953504D01*
X160710568Y-120747266D01*
X160580047Y-120560861D01*
X160580045Y-120560858D01*
X160419141Y-120399954D01*
X160232734Y-120269432D01*
X160232732Y-120269431D01*
X160026497Y-120173261D01*
X160026488Y-120173258D01*
X159806697Y-120114366D01*
X159806693Y-120114365D01*
X159806692Y-120114365D01*
X159806691Y-120114364D01*
X159806686Y-120114364D01*
X159580002Y-120094532D01*
X159579998Y-120094532D01*
X159353313Y-120114364D01*
X159353302Y-120114366D01*
X159133511Y-120173258D01*
X159133502Y-120173261D01*
X158927267Y-120269431D01*
X158927265Y-120269432D01*
X158740858Y-120399954D01*
X158579954Y-120560858D01*
X158449431Y-120747266D01*
X158370000Y-120917604D01*
X158367322Y-120922999D01*
X158360595Y-120935765D01*
X158360584Y-120935791D01*
X158359508Y-120938811D01*
X158355096Y-120949567D01*
X158353261Y-120953501D01*
X158353261Y-120953502D01*
X158351476Y-120960164D01*
X158348512Y-120969674D01*
X157927737Y-122150731D01*
X157898610Y-122196797D01*
X157037228Y-123058181D01*
X156975905Y-123091666D01*
X156949547Y-123094500D01*
X130582550Y-123094500D01*
X130515511Y-123074815D01*
X130469756Y-123022011D01*
X130459812Y-122952853D01*
X130488837Y-122889297D01*
X130509665Y-122870181D01*
X130516078Y-122865522D01*
X130671632Y-122702825D01*
X130795635Y-122514968D01*
X130884103Y-122307988D01*
X130934191Y-122088537D01*
X130944290Y-121863670D01*
X130914075Y-121640613D01*
X130844517Y-121426536D01*
X130737852Y-121228319D01*
X130604992Y-121061718D01*
X130597510Y-121052336D01*
X130542570Y-121004336D01*
X130449280Y-120922830D01*
X132155885Y-120922830D01*
X132186328Y-121199501D01*
X132186330Y-121199512D01*
X132256729Y-121468793D01*
X132256731Y-121468799D01*
X132312007Y-121598875D01*
X132329742Y-121640609D01*
X132365593Y-121724972D01*
X132444202Y-121853777D01*
X132510590Y-121962560D01*
X132510597Y-121962569D01*
X132688640Y-122176510D01*
X132688646Y-122176516D01*
X132835378Y-122307988D01*
X132895945Y-122362256D01*
X133128083Y-122515837D01*
X133380109Y-122633982D01*
X133380116Y-122633984D01*
X133380118Y-122633985D01*
X133646639Y-122714170D01*
X133646646Y-122714171D01*
X133646651Y-122714173D01*
X133922028Y-122754700D01*
X133922033Y-122754700D01*
X134130687Y-122754700D01*
X134130689Y-122754700D01*
X134130694Y-122754699D01*
X134130706Y-122754699D01*
X134169286Y-122751875D01*
X134338801Y-122739468D01*
X134452355Y-122714173D01*
X134610479Y-122678950D01*
X134610481Y-122678949D01*
X134610486Y-122678948D01*
X134870463Y-122579515D01*
X135113193Y-122443289D01*
X135333501Y-122273172D01*
X135526692Y-122072792D01*
X135688649Y-121846418D01*
X135751088Y-121724972D01*
X135815912Y-121598890D01*
X135815914Y-121598883D01*
X135815919Y-121598875D01*
X135875238Y-121424998D01*
X135905787Y-121335452D01*
X135905787Y-121335448D01*
X135905791Y-121335439D01*
X135956348Y-121061726D01*
X135961424Y-120922830D01*
X152475885Y-120922830D01*
X152506328Y-121199501D01*
X152506330Y-121199512D01*
X152576729Y-121468793D01*
X152576731Y-121468799D01*
X152632007Y-121598875D01*
X152649742Y-121640609D01*
X152685593Y-121724972D01*
X152764202Y-121853777D01*
X152830590Y-121962560D01*
X152830597Y-121962569D01*
X153008640Y-122176510D01*
X153008646Y-122176516D01*
X153155378Y-122307988D01*
X153215945Y-122362256D01*
X153448083Y-122515837D01*
X153700109Y-122633982D01*
X153700116Y-122633984D01*
X153700118Y-122633985D01*
X153966639Y-122714170D01*
X153966646Y-122714171D01*
X153966651Y-122714173D01*
X154242028Y-122754700D01*
X154242033Y-122754700D01*
X154450687Y-122754700D01*
X154450689Y-122754700D01*
X154450694Y-122754699D01*
X154450706Y-122754699D01*
X154489286Y-122751875D01*
X154658801Y-122739468D01*
X154772355Y-122714173D01*
X154930479Y-122678950D01*
X154930481Y-122678949D01*
X154930486Y-122678948D01*
X155190463Y-122579515D01*
X155433193Y-122443289D01*
X155653501Y-122273172D01*
X155846692Y-122072792D01*
X156008649Y-121846418D01*
X156071088Y-121724972D01*
X156135912Y-121598890D01*
X156135914Y-121598883D01*
X156135919Y-121598875D01*
X156195238Y-121424998D01*
X156225787Y-121335452D01*
X156225787Y-121335448D01*
X156225791Y-121335439D01*
X156276348Y-121061726D01*
X156286514Y-120783568D01*
X156256071Y-120506894D01*
X156185669Y-120237601D01*
X156076807Y-119981428D01*
X155931807Y-119743836D01*
X155924908Y-119735546D01*
X155753759Y-119529889D01*
X155753753Y-119529883D01*
X155546455Y-119344144D01*
X155314319Y-119190564D01*
X155314317Y-119190563D01*
X155062291Y-119072418D01*
X155062286Y-119072416D01*
X155062281Y-119072414D01*
X154795760Y-118992229D01*
X154795746Y-118992226D01*
X154676923Y-118974739D01*
X154520372Y-118951700D01*
X154311711Y-118951700D01*
X154311693Y-118951700D01*
X154103599Y-118966932D01*
X154103585Y-118966934D01*
X153831920Y-119027449D01*
X153831913Y-119027452D01*
X153571934Y-119126886D01*
X153329210Y-119263109D01*
X153108894Y-119433231D01*
X152915711Y-119633604D01*
X152915709Y-119633606D01*
X152753752Y-119859980D01*
X152753749Y-119859984D01*
X152626487Y-120107509D01*
X152626478Y-120107531D01*
X152536612Y-120370947D01*
X152536608Y-120370965D01*
X152486052Y-120644674D01*
X152486051Y-120644681D01*
X152475885Y-120922830D01*
X135961424Y-120922830D01*
X135966514Y-120783568D01*
X135936071Y-120506894D01*
X135865669Y-120237601D01*
X135756807Y-119981428D01*
X135611807Y-119743836D01*
X135604908Y-119735546D01*
X135433759Y-119529889D01*
X135433753Y-119529883D01*
X135226455Y-119344144D01*
X134994319Y-119190564D01*
X134994317Y-119190563D01*
X134742291Y-119072418D01*
X134742286Y-119072416D01*
X134742281Y-119072414D01*
X134475760Y-118992229D01*
X134475746Y-118992226D01*
X134356923Y-118974739D01*
X134200372Y-118951700D01*
X133991711Y-118951700D01*
X133991693Y-118951700D01*
X133783599Y-118966932D01*
X133783585Y-118966934D01*
X133511920Y-119027449D01*
X133511913Y-119027452D01*
X133251934Y-119126886D01*
X133009210Y-119263109D01*
X132788894Y-119433231D01*
X132595711Y-119633604D01*
X132595709Y-119633606D01*
X132433752Y-119859980D01*
X132433749Y-119859984D01*
X132306487Y-120107509D01*
X132306478Y-120107531D01*
X132216612Y-120370947D01*
X132216608Y-120370965D01*
X132166052Y-120644674D01*
X132166051Y-120644681D01*
X132155885Y-120922830D01*
X130449280Y-120922830D01*
X130427996Y-120904235D01*
X130234767Y-120788787D01*
X130234768Y-120788787D01*
X130234766Y-120788786D01*
X130234764Y-120788785D01*
X130175896Y-120766691D01*
X130120050Y-120724706D01*
X130095767Y-120659191D01*
X130110759Y-120590949D01*
X130160265Y-120541645D01*
X130165610Y-120538907D01*
X130333973Y-120457829D01*
X130516078Y-120325522D01*
X130671632Y-120162825D01*
X130795635Y-119974968D01*
X130884103Y-119767988D01*
X130934191Y-119548537D01*
X130944290Y-119323670D01*
X130914075Y-119100613D01*
X130844517Y-118886536D01*
X130833287Y-118865668D01*
X130737853Y-118688321D01*
X130737851Y-118688318D01*
X130725981Y-118673434D01*
X130661270Y-118592289D01*
X130597510Y-118512336D01*
X130597508Y-118512334D01*
X130427996Y-118364235D01*
X130234767Y-118248787D01*
X130234768Y-118248787D01*
X130234766Y-118248786D01*
X130234764Y-118248785D01*
X130175896Y-118226691D01*
X130120050Y-118184706D01*
X130095767Y-118119191D01*
X130110759Y-118050949D01*
X130160265Y-118001645D01*
X130165610Y-117998907D01*
X130333973Y-117917829D01*
X130516078Y-117785522D01*
X130671632Y-117622825D01*
X130795635Y-117434968D01*
X130884103Y-117227988D01*
X130934191Y-117008537D01*
X130944290Y-116783670D01*
X130914075Y-116560613D01*
X130844517Y-116346536D01*
X130737852Y-116148319D01*
X130665167Y-116057175D01*
X130597510Y-115972336D01*
X130597508Y-115972334D01*
X130427996Y-115824235D01*
X130234767Y-115708787D01*
X130234768Y-115708787D01*
X130234766Y-115708786D01*
X130234764Y-115708785D01*
X130175896Y-115686691D01*
X130120050Y-115644706D01*
X130095767Y-115579191D01*
X130110759Y-115510949D01*
X130160265Y-115461645D01*
X130165610Y-115458907D01*
X130333973Y-115377829D01*
X130516078Y-115245522D01*
X130671632Y-115082825D01*
X130795635Y-114894968D01*
X130884103Y-114687988D01*
X130934191Y-114468537D01*
X130944290Y-114243670D01*
X130914075Y-114020613D01*
X130844517Y-113806536D01*
X130830238Y-113780001D01*
X158274532Y-113780001D01*
X158294364Y-114006686D01*
X158294366Y-114006697D01*
X158353258Y-114226488D01*
X158353261Y-114226497D01*
X158449431Y-114432732D01*
X158449432Y-114432734D01*
X158579954Y-114619141D01*
X158740858Y-114780045D01*
X158740861Y-114780047D01*
X158927266Y-114910568D01*
X159133504Y-115006739D01*
X159353308Y-115065635D01*
X159515230Y-115079801D01*
X159579998Y-115085468D01*
X159580000Y-115085468D01*
X159580002Y-115085468D01*
X159636673Y-115080509D01*
X159806692Y-115065635D01*
X160026496Y-115006739D01*
X160071050Y-114985962D01*
X160088516Y-114979370D01*
X160107117Y-114973911D01*
X160857610Y-114631260D01*
X160926767Y-114621324D01*
X160990320Y-114650355D01*
X160996789Y-114656379D01*
X165182955Y-118842545D01*
X165210555Y-118884549D01*
X165340085Y-119211463D01*
X165799495Y-120370947D01*
X165800781Y-120374191D01*
X165809500Y-120419868D01*
X165809500Y-120735000D01*
X165809501Y-120735019D01*
X165820000Y-120837796D01*
X165820001Y-120837799D01*
X165858345Y-120953511D01*
X165875186Y-121004334D01*
X165967288Y-121153656D01*
X166091344Y-121277712D01*
X166240666Y-121369814D01*
X166407203Y-121424999D01*
X166509991Y-121435500D01*
X167810008Y-121435499D01*
X167912797Y-121424999D01*
X168079334Y-121369814D01*
X168228656Y-121277712D01*
X168352712Y-121153656D01*
X168444814Y-121004334D01*
X168499999Y-120837797D01*
X168510500Y-120735009D01*
X168510499Y-119134992D01*
X168499999Y-119032203D01*
X168444814Y-118865666D01*
X168352712Y-118716344D01*
X168228656Y-118592288D01*
X168099036Y-118512338D01*
X168079336Y-118500187D01*
X168079331Y-118500185D01*
X168077862Y-118499698D01*
X167912797Y-118445001D01*
X167912795Y-118445000D01*
X167810016Y-118434500D01*
X167810009Y-118434500D01*
X167480317Y-118434500D01*
X167440641Y-118427981D01*
X166104554Y-117976758D01*
X166056549Y-117946958D01*
X161582035Y-113472444D01*
X161575250Y-113465088D01*
X161571026Y-113460120D01*
X161571019Y-113460114D01*
X161570326Y-113459565D01*
X161559629Y-113450038D01*
X161505803Y-113396212D01*
X161495980Y-113383950D01*
X161495759Y-113384134D01*
X161490786Y-113378122D01*
X161441776Y-113332099D01*
X161438977Y-113329386D01*
X161419477Y-113309885D01*
X161419471Y-113309880D01*
X161416286Y-113307409D01*
X161407434Y-113299848D01*
X161375582Y-113269938D01*
X161375580Y-113269936D01*
X161375577Y-113269935D01*
X161358029Y-113260288D01*
X161341763Y-113249604D01*
X161325932Y-113237324D01*
X161287058Y-113220501D01*
X161233351Y-113175810D01*
X161212332Y-113109177D01*
X161219499Y-113065086D01*
X161225052Y-113049500D01*
X161232261Y-113029265D01*
X161261385Y-112983203D01*
X162432771Y-111811819D01*
X162494094Y-111778334D01*
X162520452Y-111775500D01*
X162541711Y-111775500D01*
X162604034Y-111792300D01*
X163568841Y-112353206D01*
X163577641Y-112358831D01*
X163742168Y-112474034D01*
X163742170Y-112474035D01*
X163956337Y-112573903D01*
X164184592Y-112635063D01*
X164361034Y-112650500D01*
X164419999Y-112655659D01*
X164420000Y-112655659D01*
X164420001Y-112655659D01*
X164478966Y-112650500D01*
X164655408Y-112635063D01*
X164883663Y-112573903D01*
X165097829Y-112474035D01*
X165291401Y-112338495D01*
X165438602Y-112191293D01*
X165499924Y-112157810D01*
X165569615Y-112162794D01*
X165625549Y-112204665D01*
X165631821Y-112213879D01*
X165635186Y-112219334D01*
X165727288Y-112368656D01*
X165851344Y-112492712D01*
X166000666Y-112584814D01*
X166167203Y-112639999D01*
X166269991Y-112650500D01*
X167570008Y-112650499D01*
X167580493Y-112649428D01*
X167587895Y-112648671D01*
X167672797Y-112639999D01*
X167839334Y-112584814D01*
X167988656Y-112492712D01*
X168112712Y-112368656D01*
X168204814Y-112219334D01*
X168259999Y-112052797D01*
X168270500Y-111950009D01*
X168270499Y-110349992D01*
X168265170Y-110297829D01*
X168259999Y-110247203D01*
X168259998Y-110247200D01*
X168232934Y-110165526D01*
X168204814Y-110080666D01*
X168112712Y-109931344D01*
X167988656Y-109807288D01*
X167895888Y-109750069D01*
X167839336Y-109715187D01*
X167839331Y-109715185D01*
X167834137Y-109713464D01*
X167672797Y-109660001D01*
X167672795Y-109660000D01*
X167570010Y-109649500D01*
X166269998Y-109649500D01*
X166269981Y-109649501D01*
X166167203Y-109660000D01*
X166167200Y-109660001D01*
X166000668Y-109715185D01*
X166000663Y-109715187D01*
X165851342Y-109807289D01*
X165727289Y-109931342D01*
X165631821Y-110086121D01*
X165579873Y-110132845D01*
X165510910Y-110144068D01*
X165446828Y-110116224D01*
X165438601Y-110108705D01*
X165291402Y-109961506D01*
X165291395Y-109961501D01*
X165097834Y-109825967D01*
X165097830Y-109825965D01*
X164997688Y-109779268D01*
X164883663Y-109726097D01*
X164883659Y-109726096D01*
X164883655Y-109726094D01*
X164655413Y-109664938D01*
X164655403Y-109664936D01*
X164420001Y-109644341D01*
X164419999Y-109644341D01*
X164184596Y-109664936D01*
X164184586Y-109664938D01*
X163956344Y-109726094D01*
X163956335Y-109726097D01*
X163742172Y-109825964D01*
X163577660Y-109941155D01*
X163568861Y-109946779D01*
X162604031Y-110507700D01*
X162541708Y-110524500D01*
X162292743Y-110524500D01*
X162277122Y-110522775D01*
X162277095Y-110523061D01*
X162269333Y-110522326D01*
X162202113Y-110524439D01*
X162198219Y-110524500D01*
X162170650Y-110524500D01*
X162166673Y-110525002D01*
X162155042Y-110525917D01*
X162111374Y-110527289D01*
X162111368Y-110527290D01*
X162092126Y-110532880D01*
X162073087Y-110536823D01*
X162053217Y-110539334D01*
X162053203Y-110539337D01*
X162012598Y-110555413D01*
X162001554Y-110559194D01*
X161959614Y-110571379D01*
X161959610Y-110571381D01*
X161942366Y-110581579D01*
X161924905Y-110590133D01*
X161906274Y-110597510D01*
X161906262Y-110597517D01*
X161870933Y-110623185D01*
X161861173Y-110629596D01*
X161823580Y-110651829D01*
X161809414Y-110665995D01*
X161794624Y-110678627D01*
X161778414Y-110690404D01*
X161778411Y-110690407D01*
X161750573Y-110724058D01*
X161742711Y-110732697D01*
X160376797Y-112098610D01*
X160330731Y-112127737D01*
X159149683Y-112548509D01*
X159140172Y-112551473D01*
X159133510Y-112553258D01*
X159133505Y-112553260D01*
X159129565Y-112555097D01*
X159118820Y-112559505D01*
X159115703Y-112560616D01*
X159103761Y-112565041D01*
X159103240Y-112565242D01*
X159103228Y-112565246D01*
X159043121Y-112593042D01*
X159037574Y-112596347D01*
X159037461Y-112596158D01*
X159023133Y-112604726D01*
X158927271Y-112649428D01*
X158927264Y-112649432D01*
X158740858Y-112779954D01*
X158579954Y-112940858D01*
X158449432Y-113127265D01*
X158449431Y-113127267D01*
X158353261Y-113333502D01*
X158353258Y-113333511D01*
X158294366Y-113553302D01*
X158294364Y-113553313D01*
X158274532Y-113779998D01*
X158274532Y-113780001D01*
X130830238Y-113780001D01*
X130737852Y-113608319D01*
X130597508Y-113432334D01*
X130427996Y-113284235D01*
X130234767Y-113168787D01*
X130234768Y-113168787D01*
X130234766Y-113168786D01*
X130234764Y-113168785D01*
X130175896Y-113146691D01*
X130120050Y-113104706D01*
X130095767Y-113039191D01*
X130110759Y-112970949D01*
X130160265Y-112921645D01*
X130165610Y-112918907D01*
X130333973Y-112837829D01*
X130516078Y-112705522D01*
X130671632Y-112542825D01*
X130795635Y-112354968D01*
X130884103Y-112147988D01*
X130934191Y-111928537D01*
X130944290Y-111703670D01*
X130914075Y-111480613D01*
X130844517Y-111266536D01*
X130737852Y-111068319D01*
X130665167Y-110977175D01*
X130597510Y-110892336D01*
X130597508Y-110892334D01*
X130427996Y-110744235D01*
X130234767Y-110628787D01*
X130234768Y-110628787D01*
X130234766Y-110628786D01*
X130234764Y-110628785D01*
X130175896Y-110606691D01*
X130120050Y-110564706D01*
X130095767Y-110499191D01*
X130110759Y-110430949D01*
X130160265Y-110381645D01*
X130165610Y-110378907D01*
X130333973Y-110297829D01*
X130516078Y-110165522D01*
X130671632Y-110002825D01*
X130795635Y-109814968D01*
X130884103Y-109607988D01*
X130934191Y-109388537D01*
X130944290Y-109163670D01*
X130914075Y-108940613D01*
X130844517Y-108726536D01*
X130737852Y-108528319D01*
X130665167Y-108437175D01*
X130597510Y-108352336D01*
X130597508Y-108352334D01*
X130427996Y-108204235D01*
X130234767Y-108088787D01*
X130234768Y-108088787D01*
X130234766Y-108088786D01*
X130234764Y-108088785D01*
X130175896Y-108066691D01*
X130120050Y-108024706D01*
X130095767Y-107959191D01*
X130110759Y-107890949D01*
X130160265Y-107841645D01*
X130165610Y-107838907D01*
X130333973Y-107757829D01*
X130516078Y-107625522D01*
X130671632Y-107462825D01*
X130795635Y-107274968D01*
X130884103Y-107067988D01*
X130934191Y-106848537D01*
X130944290Y-106623670D01*
X130914075Y-106400613D01*
X130844517Y-106186536D01*
X130737852Y-105988319D01*
X130665167Y-105897175D01*
X130597510Y-105812336D01*
X130597508Y-105812334D01*
X130427996Y-105664235D01*
X130234767Y-105548787D01*
X130234768Y-105548787D01*
X130234766Y-105548786D01*
X130234764Y-105548785D01*
X130175896Y-105526691D01*
X130120050Y-105484706D01*
X130095767Y-105419191D01*
X130110759Y-105350949D01*
X130160265Y-105301645D01*
X130165610Y-105298907D01*
X130333973Y-105217829D01*
X130516078Y-105085522D01*
X130671632Y-104922825D01*
X130795635Y-104734968D01*
X130863983Y-104575062D01*
X130884100Y-104527995D01*
X130884099Y-104527995D01*
X130884103Y-104527988D01*
X130934191Y-104308537D01*
X130944290Y-104083670D01*
X130914075Y-103860613D01*
X130844517Y-103646536D01*
X130737852Y-103448319D01*
X130665167Y-103357175D01*
X130597510Y-103272336D01*
X130597508Y-103272334D01*
X130427996Y-103124235D01*
X130234767Y-103008787D01*
X130234768Y-103008787D01*
X130234766Y-103008786D01*
X130234764Y-103008785D01*
X130175896Y-102986691D01*
X130120050Y-102944706D01*
X130095767Y-102879191D01*
X130110759Y-102810949D01*
X130160265Y-102761645D01*
X130165610Y-102758907D01*
X130333973Y-102677829D01*
X130516078Y-102545522D01*
X130671632Y-102382825D01*
X130795635Y-102194968D01*
X130884103Y-101987988D01*
X130934191Y-101768537D01*
X130944290Y-101543670D01*
X130914075Y-101320613D01*
X130844517Y-101106536D01*
X130737852Y-100908319D01*
X130665167Y-100817175D01*
X130597510Y-100732336D01*
X130597508Y-100732334D01*
X130427996Y-100584235D01*
X130234764Y-100468785D01*
X130116775Y-100424503D01*
X130024023Y-100389692D01*
X129802550Y-100349500D01*
X129802547Y-100349500D01*
X129333845Y-100349500D01*
X129295399Y-100352960D01*
X129165813Y-100364622D01*
X129165807Y-100364623D01*
X128948839Y-100424503D01*
X128948826Y-100424508D01*
X128746033Y-100522167D01*
X128746025Y-100522171D01*
X128563927Y-100654473D01*
X128563925Y-100654474D01*
X128408367Y-100817175D01*
X128374134Y-100869036D01*
X128320774Y-100914140D01*
X128251498Y-100923235D01*
X128188303Y-100893434D01*
X128173701Y-100878035D01*
X128057512Y-100732338D01*
X128057509Y-100732335D01*
X128057508Y-100732334D01*
X127887996Y-100584235D01*
X127694767Y-100468787D01*
X127694768Y-100468787D01*
X127694766Y-100468786D01*
X127694764Y-100468785D01*
X127635896Y-100446691D01*
X127580050Y-100404706D01*
X127555767Y-100339191D01*
X127570759Y-100270949D01*
X127620265Y-100221645D01*
X127625610Y-100218907D01*
X127793973Y-100137829D01*
X127976078Y-100005522D01*
X128131632Y-99842825D01*
X128255635Y-99654968D01*
X128344103Y-99447988D01*
X128394191Y-99228537D01*
X128404290Y-99003670D01*
X128374075Y-98780613D01*
X128304517Y-98566536D01*
X128197852Y-98368319D01*
X128125167Y-98277175D01*
X128057510Y-98192336D01*
X128057508Y-98192334D01*
X127887996Y-98044235D01*
X127694767Y-97928787D01*
X127694768Y-97928787D01*
X127694766Y-97928786D01*
X127694764Y-97928785D01*
X127635896Y-97906691D01*
X127580050Y-97864706D01*
X127555767Y-97799191D01*
X127570759Y-97730949D01*
X127620265Y-97681645D01*
X127625610Y-97678907D01*
X127793973Y-97597829D01*
X127976078Y-97465522D01*
X128131632Y-97302825D01*
X128165864Y-97250964D01*
X128219221Y-97205861D01*
X128288496Y-97196763D01*
X128351692Y-97226562D01*
X128366297Y-97241963D01*
X128482489Y-97387663D01*
X128482491Y-97387664D01*
X128482492Y-97387666D01*
X128652004Y-97535765D01*
X128845236Y-97651215D01*
X129015969Y-97715292D01*
X129055976Y-97730307D01*
X129277450Y-97770500D01*
X129277453Y-97770500D01*
X129746148Y-97770500D01*
X129746155Y-97770500D01*
X129914188Y-97755377D01*
X130002700Y-97730949D01*
X130131160Y-97695496D01*
X130131162Y-97695495D01*
X130131170Y-97695493D01*
X130333973Y-97597829D01*
X130516078Y-97465522D01*
X130671632Y-97302825D01*
X130795635Y-97114968D01*
X130884103Y-96907988D01*
X130934191Y-96688537D01*
X130944290Y-96463670D01*
X130914075Y-96240613D01*
X130844517Y-96026536D01*
X130737852Y-95828319D01*
X130665167Y-95737175D01*
X130597510Y-95652336D01*
X130593297Y-95648655D01*
X130427996Y-95504235D01*
X130234767Y-95388787D01*
X130234768Y-95388787D01*
X130234766Y-95388786D01*
X130234764Y-95388785D01*
X130175896Y-95366691D01*
X130120050Y-95324706D01*
X130095767Y-95259191D01*
X130110759Y-95190949D01*
X130160265Y-95141645D01*
X130165610Y-95138907D01*
X130333973Y-95057829D01*
X130516078Y-94925522D01*
X130671632Y-94762825D01*
X130795635Y-94574968D01*
X130884103Y-94367988D01*
X130934191Y-94148537D01*
X130944290Y-93923670D01*
X130914075Y-93700613D01*
X130844517Y-93486536D01*
X130737852Y-93288319D01*
X130665167Y-93197175D01*
X130597510Y-93112336D01*
X130597508Y-93112334D01*
X130427996Y-92964235D01*
X130234767Y-92848787D01*
X130234768Y-92848787D01*
X130234766Y-92848786D01*
X130234764Y-92848785D01*
X130175896Y-92826691D01*
X130120050Y-92784706D01*
X130095767Y-92719191D01*
X130110759Y-92650949D01*
X130160265Y-92601645D01*
X130165610Y-92598907D01*
X130333973Y-92517829D01*
X130516078Y-92385522D01*
X130671632Y-92222825D01*
X130795635Y-92034968D01*
X130884103Y-91827988D01*
X130934191Y-91608537D01*
X130944290Y-91383670D01*
X130914075Y-91160613D01*
X130844517Y-90946536D01*
X130841502Y-90940934D01*
X130737853Y-90748321D01*
X130737851Y-90748318D01*
X130725981Y-90733434D01*
X130665167Y-90657175D01*
X130597510Y-90572336D01*
X130597508Y-90572334D01*
X130427996Y-90424235D01*
X130234767Y-90308787D01*
X130234768Y-90308787D01*
X130234766Y-90308786D01*
X130234764Y-90308785D01*
X130175896Y-90286691D01*
X130120050Y-90244706D01*
X130095767Y-90179191D01*
X130110759Y-90110949D01*
X130160265Y-90061645D01*
X130165610Y-90058907D01*
X130333973Y-89977829D01*
X130516078Y-89845522D01*
X130671632Y-89682825D01*
X130795635Y-89494968D01*
X130884103Y-89287988D01*
X130934191Y-89068537D01*
X130944290Y-88843670D01*
X130914075Y-88620613D01*
X130844517Y-88406536D01*
X130737852Y-88208319D01*
X130665167Y-88117175D01*
X130597510Y-88032336D01*
X130597508Y-88032334D01*
X130427996Y-87884235D01*
X130234767Y-87768787D01*
X130234768Y-87768787D01*
X130234766Y-87768786D01*
X130234764Y-87768785D01*
X130175896Y-87746691D01*
X130120050Y-87704706D01*
X130095767Y-87639191D01*
X130110759Y-87570949D01*
X130160265Y-87521645D01*
X130165610Y-87518907D01*
X130333973Y-87437829D01*
X130516078Y-87305522D01*
X130671632Y-87142825D01*
X130795635Y-86954968D01*
X130884103Y-86747988D01*
X130934191Y-86528537D01*
X130944290Y-86303670D01*
X130914075Y-86080613D01*
X130844517Y-85866536D01*
X130737852Y-85668319D01*
X130691070Y-85609657D01*
X130597510Y-85492336D01*
X130559187Y-85458854D01*
X130427996Y-85344235D01*
X130234764Y-85228785D01*
X130116775Y-85184503D01*
X130024023Y-85149692D01*
X129802550Y-85109500D01*
X129802547Y-85109500D01*
X129333845Y-85109500D01*
X129295399Y-85112960D01*
X129165813Y-85124622D01*
X129165807Y-85124623D01*
X128948839Y-85184503D01*
X128948826Y-85184508D01*
X128746033Y-85282167D01*
X128746025Y-85282171D01*
X128563927Y-85414473D01*
X128563917Y-85414481D01*
X128554814Y-85424003D01*
X128494257Y-85458854D01*
X128424471Y-85455433D01*
X128367613Y-85414825D01*
X128349008Y-85381642D01*
X128343797Y-85367671D01*
X128343793Y-85367664D01*
X128257547Y-85252455D01*
X128257544Y-85252452D01*
X128142335Y-85166206D01*
X128142328Y-85166202D01*
X128007482Y-85115908D01*
X128007483Y-85115908D01*
X127947883Y-85109501D01*
X127947881Y-85109500D01*
X127947873Y-85109500D01*
X127947864Y-85109500D01*
X126052129Y-85109500D01*
X126052123Y-85109501D01*
X125992516Y-85115908D01*
X125857671Y-85166202D01*
X125857664Y-85166206D01*
X125742455Y-85252452D01*
X125742452Y-85252455D01*
X125656206Y-85367664D01*
X125656202Y-85367671D01*
X125605908Y-85502517D01*
X125599501Y-85562116D01*
X125599500Y-85562135D01*
X125599500Y-87157870D01*
X125599501Y-87157876D01*
X125605908Y-87217483D01*
X125656202Y-87352328D01*
X125656206Y-87352335D01*
X125742452Y-87467544D01*
X125742455Y-87467547D01*
X125857664Y-87553793D01*
X125857671Y-87553797D01*
X125992517Y-87604091D01*
X125992516Y-87604091D01*
X125999444Y-87604835D01*
X126052127Y-87610500D01*
X126115735Y-87610499D01*
X126182772Y-87630183D01*
X126228528Y-87682986D01*
X126238472Y-87752144D01*
X126209448Y-87815700D01*
X126188620Y-87834817D01*
X126023924Y-87954476D01*
X125868366Y-88117176D01*
X125744363Y-88305033D01*
X125655899Y-88512004D01*
X125655895Y-88512017D01*
X125605810Y-88731457D01*
X125605808Y-88731468D01*
X125600769Y-88843674D01*
X125595710Y-88956330D01*
X125625925Y-89179387D01*
X125625926Y-89179390D01*
X125695483Y-89393465D01*
X125802146Y-89591678D01*
X125802148Y-89591681D01*
X125942489Y-89767663D01*
X125942491Y-89767664D01*
X125942492Y-89767666D01*
X126112004Y-89915765D01*
X126305236Y-90031215D01*
X126364102Y-90053307D01*
X126419949Y-90095292D01*
X126444232Y-90160806D01*
X126429241Y-90229049D01*
X126379735Y-90278353D01*
X126374331Y-90281120D01*
X126206033Y-90362167D01*
X126206025Y-90362171D01*
X126023927Y-90494473D01*
X126023925Y-90494474D01*
X125868366Y-90657176D01*
X125744363Y-90845033D01*
X125655899Y-91052004D01*
X125655895Y-91052017D01*
X125605810Y-91271457D01*
X125605808Y-91271468D01*
X125600769Y-91383674D01*
X125595710Y-91496330D01*
X125625925Y-91719387D01*
X125625926Y-91719390D01*
X125695483Y-91933465D01*
X125802146Y-92131678D01*
X125802148Y-92131681D01*
X125942489Y-92307663D01*
X125942491Y-92307664D01*
X125942492Y-92307666D01*
X126112004Y-92455765D01*
X126305236Y-92571215D01*
X126364102Y-92593307D01*
X126419949Y-92635292D01*
X126444232Y-92700806D01*
X126429241Y-92769049D01*
X126379735Y-92818353D01*
X126374331Y-92821120D01*
X126206033Y-92902167D01*
X126206025Y-92902171D01*
X126023927Y-93034473D01*
X126023925Y-93034474D01*
X125868366Y-93197176D01*
X125744363Y-93385033D01*
X125655899Y-93592004D01*
X125655895Y-93592017D01*
X125605810Y-93811457D01*
X125605808Y-93811468D01*
X125600769Y-93923674D01*
X125595710Y-94036330D01*
X125625925Y-94259387D01*
X125625926Y-94259390D01*
X125695483Y-94473465D01*
X125802146Y-94671678D01*
X125802148Y-94671681D01*
X125942489Y-94847663D01*
X125942491Y-94847664D01*
X125942492Y-94847666D01*
X126112004Y-94995765D01*
X126305236Y-95111215D01*
X126364102Y-95133307D01*
X126419949Y-95175292D01*
X126444232Y-95240806D01*
X126429241Y-95309049D01*
X126379735Y-95358353D01*
X126374331Y-95361120D01*
X126206033Y-95442167D01*
X126206025Y-95442171D01*
X126023927Y-95574473D01*
X126023925Y-95574474D01*
X125868366Y-95737176D01*
X125744363Y-95925033D01*
X125655899Y-96132004D01*
X125655895Y-96132017D01*
X125605810Y-96351457D01*
X125605808Y-96351468D01*
X125597312Y-96540659D01*
X125595710Y-96576330D01*
X125625925Y-96799387D01*
X125625926Y-96799390D01*
X125695483Y-97013465D01*
X125802146Y-97211678D01*
X125802148Y-97211681D01*
X125942489Y-97387663D01*
X125942491Y-97387664D01*
X125942492Y-97387666D01*
X126112004Y-97535765D01*
X126305236Y-97651215D01*
X126364102Y-97673307D01*
X126419949Y-97715292D01*
X126444232Y-97780806D01*
X126429241Y-97849049D01*
X126379735Y-97898353D01*
X126374331Y-97901120D01*
X126206033Y-97982167D01*
X126206025Y-97982171D01*
X126023927Y-98114473D01*
X126023925Y-98114474D01*
X125868366Y-98277176D01*
X125744363Y-98465033D01*
X125655899Y-98672004D01*
X125655895Y-98672017D01*
X125605810Y-98891457D01*
X125605808Y-98891468D01*
X125600769Y-99003674D01*
X125595710Y-99116330D01*
X125625925Y-99339387D01*
X125625926Y-99339390D01*
X125695483Y-99553465D01*
X125802146Y-99751678D01*
X125802148Y-99751681D01*
X125942489Y-99927663D01*
X125942491Y-99927664D01*
X125942492Y-99927666D01*
X126112004Y-100075765D01*
X126305236Y-100191215D01*
X126364102Y-100213307D01*
X126419949Y-100255292D01*
X126444232Y-100320806D01*
X126429241Y-100389049D01*
X126379735Y-100438353D01*
X126374331Y-100441120D01*
X126206033Y-100522167D01*
X126206025Y-100522171D01*
X126023927Y-100654473D01*
X126023925Y-100654474D01*
X125868366Y-100817176D01*
X125744363Y-101005033D01*
X125655899Y-101212004D01*
X125655895Y-101212017D01*
X125605810Y-101431457D01*
X125605808Y-101431468D01*
X125595761Y-101655185D01*
X125595710Y-101656330D01*
X125625925Y-101879387D01*
X125625926Y-101879390D01*
X125695483Y-102093465D01*
X125802146Y-102291678D01*
X125802148Y-102291681D01*
X125942489Y-102467663D01*
X125942491Y-102467664D01*
X125942492Y-102467666D01*
X126112004Y-102615765D01*
X126305236Y-102731215D01*
X126364102Y-102753307D01*
X126419949Y-102795292D01*
X126444232Y-102860806D01*
X126429241Y-102929049D01*
X126379735Y-102978353D01*
X126374331Y-102981120D01*
X126206033Y-103062167D01*
X126206025Y-103062171D01*
X126023927Y-103194473D01*
X126023925Y-103194474D01*
X125868366Y-103357176D01*
X125744363Y-103545033D01*
X125655899Y-103752004D01*
X125655895Y-103752017D01*
X125605810Y-103971457D01*
X125605808Y-103971468D01*
X125597371Y-104159336D01*
X125595710Y-104196330D01*
X125625925Y-104419387D01*
X125625926Y-104419390D01*
X125695483Y-104633465D01*
X125802146Y-104831678D01*
X125802148Y-104831681D01*
X125942489Y-105007663D01*
X125942491Y-105007664D01*
X125942492Y-105007666D01*
X126112004Y-105155765D01*
X126305236Y-105271215D01*
X126364102Y-105293307D01*
X126419949Y-105335292D01*
X126444232Y-105400806D01*
X126429241Y-105469049D01*
X126379735Y-105518353D01*
X126374331Y-105521120D01*
X126206033Y-105602167D01*
X126206025Y-105602171D01*
X126023927Y-105734473D01*
X126023925Y-105734474D01*
X125868366Y-105897176D01*
X125744363Y-106085033D01*
X125655899Y-106292004D01*
X125655895Y-106292017D01*
X125605810Y-106511457D01*
X125605808Y-106511468D01*
X125596885Y-106710163D01*
X125595710Y-106736330D01*
X125625925Y-106959387D01*
X125625926Y-106959390D01*
X125695483Y-107173465D01*
X125802146Y-107371678D01*
X125802148Y-107371681D01*
X125942489Y-107547663D01*
X125942491Y-107547664D01*
X125942492Y-107547666D01*
X126112004Y-107695765D01*
X126305236Y-107811215D01*
X126364102Y-107833307D01*
X126419949Y-107875292D01*
X126444232Y-107940806D01*
X126429241Y-108009049D01*
X126379735Y-108058353D01*
X126374331Y-108061120D01*
X126206033Y-108142167D01*
X126206025Y-108142171D01*
X126023927Y-108274473D01*
X126023925Y-108274474D01*
X125868366Y-108437176D01*
X125744363Y-108625033D01*
X125655899Y-108832004D01*
X125655895Y-108832017D01*
X125605810Y-109051457D01*
X125605808Y-109051468D01*
X125600769Y-109163674D01*
X125595710Y-109276330D01*
X125625925Y-109499387D01*
X125625926Y-109499390D01*
X125695483Y-109713465D01*
X125802146Y-109911678D01*
X125802148Y-109911681D01*
X125942489Y-110087663D01*
X125942491Y-110087664D01*
X125942492Y-110087666D01*
X126112004Y-110235765D01*
X126305236Y-110351215D01*
X126364102Y-110373307D01*
X126419949Y-110415292D01*
X126444232Y-110480806D01*
X126429241Y-110549049D01*
X126379735Y-110598353D01*
X126374331Y-110601120D01*
X126206033Y-110682167D01*
X126206025Y-110682171D01*
X126023927Y-110814473D01*
X126023925Y-110814474D01*
X125868366Y-110977176D01*
X125744363Y-111165033D01*
X125655899Y-111372004D01*
X125655895Y-111372017D01*
X125605810Y-111591457D01*
X125605808Y-111591468D01*
X125595710Y-111816325D01*
X125595710Y-111816330D01*
X125625925Y-112039387D01*
X125625926Y-112039390D01*
X125695483Y-112253465D01*
X125802146Y-112451678D01*
X125802148Y-112451681D01*
X125942489Y-112627663D01*
X125942491Y-112627664D01*
X125942492Y-112627666D01*
X126112004Y-112775765D01*
X126305236Y-112891215D01*
X126475969Y-112955292D01*
X126515976Y-112970307D01*
X126737450Y-113010500D01*
X126737453Y-113010500D01*
X127206148Y-113010500D01*
X127206155Y-113010500D01*
X127374188Y-112995377D01*
X127374192Y-112995376D01*
X127591160Y-112935496D01*
X127591162Y-112935495D01*
X127591170Y-112935493D01*
X127793973Y-112837829D01*
X127976078Y-112705522D01*
X128131632Y-112542825D01*
X128165864Y-112490964D01*
X128219221Y-112445861D01*
X128288496Y-112436763D01*
X128351692Y-112466562D01*
X128366297Y-112481963D01*
X128482489Y-112627663D01*
X128482491Y-112627664D01*
X128482492Y-112627666D01*
X128652004Y-112775765D01*
X128845236Y-112891215D01*
X128904102Y-112913307D01*
X128959949Y-112955292D01*
X128984232Y-113020806D01*
X128969241Y-113089049D01*
X128919735Y-113138353D01*
X128914331Y-113141120D01*
X128746033Y-113222167D01*
X128746025Y-113222171D01*
X128563927Y-113354473D01*
X128563925Y-113354474D01*
X128408366Y-113517176D01*
X128284363Y-113705033D01*
X128195899Y-113912004D01*
X128195895Y-113912017D01*
X128145810Y-114131457D01*
X128145808Y-114131468D01*
X128140769Y-114243674D01*
X128135710Y-114356330D01*
X128165925Y-114579387D01*
X128165926Y-114579390D01*
X128235483Y-114793465D01*
X128342146Y-114991678D01*
X128342148Y-114991681D01*
X128482489Y-115167663D01*
X128482491Y-115167664D01*
X128482492Y-115167666D01*
X128652004Y-115315765D01*
X128845236Y-115431215D01*
X128904102Y-115453307D01*
X128959949Y-115495292D01*
X128984232Y-115560806D01*
X128969241Y-115629049D01*
X128919735Y-115678353D01*
X128914331Y-115681120D01*
X128746033Y-115762167D01*
X128746025Y-115762171D01*
X128563927Y-115894473D01*
X128563925Y-115894474D01*
X128408367Y-116057175D01*
X128374134Y-116109036D01*
X128320774Y-116154140D01*
X128251498Y-116163235D01*
X128188303Y-116133434D01*
X128173701Y-116118035D01*
X128057512Y-115972338D01*
X128057509Y-115972335D01*
X128057508Y-115972334D01*
X127887996Y-115824235D01*
X127694764Y-115708785D01*
X127576775Y-115664503D01*
X127484023Y-115629692D01*
X127262550Y-115589500D01*
X127262547Y-115589500D01*
X126793845Y-115589500D01*
X126755399Y-115592960D01*
X126625813Y-115604622D01*
X126625807Y-115604623D01*
X126408839Y-115664503D01*
X126408826Y-115664508D01*
X126206033Y-115762167D01*
X126206025Y-115762171D01*
X126023927Y-115894473D01*
X126023925Y-115894474D01*
X125868366Y-116057176D01*
X125744363Y-116245033D01*
X125655899Y-116452004D01*
X125655895Y-116452017D01*
X125605810Y-116671457D01*
X125605808Y-116671468D01*
X125600769Y-116783674D01*
X125595710Y-116896330D01*
X125625925Y-117119387D01*
X125625926Y-117119390D01*
X125695483Y-117333465D01*
X125802146Y-117531678D01*
X125802148Y-117531681D01*
X125942489Y-117707663D01*
X125942491Y-117707664D01*
X125942492Y-117707666D01*
X126112004Y-117855765D01*
X126305236Y-117971215D01*
X126364102Y-117993307D01*
X126419949Y-118035292D01*
X126444232Y-118100806D01*
X126429241Y-118169049D01*
X126379735Y-118218353D01*
X126374331Y-118221120D01*
X126206033Y-118302167D01*
X126206025Y-118302171D01*
X126023927Y-118434473D01*
X126023925Y-118434474D01*
X125868366Y-118597176D01*
X125744363Y-118785033D01*
X125655899Y-118992004D01*
X125655895Y-118992017D01*
X125605810Y-119211457D01*
X125605808Y-119211468D01*
X125600769Y-119323674D01*
X125595710Y-119436330D01*
X125625925Y-119659387D01*
X125625926Y-119659390D01*
X125695483Y-119873465D01*
X125802146Y-120071678D01*
X125802148Y-120071681D01*
X125942489Y-120247663D01*
X125942491Y-120247664D01*
X125942492Y-120247666D01*
X126112004Y-120395765D01*
X126305236Y-120511215D01*
X126364102Y-120533307D01*
X126419949Y-120575292D01*
X126444232Y-120640806D01*
X126429241Y-120709049D01*
X126379735Y-120758353D01*
X126374331Y-120761120D01*
X126206033Y-120842167D01*
X126206025Y-120842171D01*
X126023927Y-120974473D01*
X126023925Y-120974474D01*
X125868366Y-121137176D01*
X125744363Y-121325033D01*
X125655899Y-121532004D01*
X125655895Y-121532017D01*
X125605810Y-121751457D01*
X125605808Y-121751468D01*
X125600769Y-121863674D01*
X125595710Y-121976330D01*
X125625925Y-122199387D01*
X125625926Y-122199390D01*
X125695483Y-122413465D01*
X125802146Y-122611678D01*
X125802148Y-122611681D01*
X125942489Y-122787663D01*
X125942491Y-122787664D01*
X125942492Y-122787666D01*
X126112004Y-122935765D01*
X126305236Y-123051215D01*
X126515976Y-123130307D01*
X126566879Y-123139544D01*
X126586811Y-123144910D01*
X127739707Y-123560932D01*
X127785299Y-123589889D01*
X127935729Y-123740319D01*
X127969214Y-123801642D01*
X127964230Y-123871334D01*
X127922358Y-123927267D01*
X127856894Y-123951684D01*
X127848048Y-123952000D01*
X125092000Y-123952000D01*
X125024961Y-123932315D01*
X124979206Y-123879511D01*
X124968000Y-123828000D01*
X124968000Y-74422765D01*
X124987685Y-74355726D01*
X125040489Y-74309971D01*
X125109647Y-74300027D01*
X125173203Y-74329052D01*
X125198732Y-74359643D01*
X125203918Y-74368414D01*
X125206580Y-74372914D01*
X125215138Y-74390383D01*
X125222514Y-74409012D01*
X125248181Y-74444340D01*
X125254593Y-74454101D01*
X125276828Y-74491697D01*
X125276833Y-74491704D01*
X125290990Y-74505860D01*
X125303628Y-74520656D01*
X125315405Y-74536866D01*
X125315406Y-74536867D01*
X125349057Y-74564705D01*
X125357698Y-74572568D01*
X126278914Y-75493784D01*
X126288739Y-75506048D01*
X126288960Y-75505866D01*
X126293930Y-75511874D01*
X126342959Y-75557915D01*
X126345756Y-75560626D01*
X126365250Y-75580120D01*
X126368415Y-75582575D01*
X126377291Y-75590156D01*
X126409138Y-75620062D01*
X126425107Y-75628841D01*
X126426693Y-75629713D01*
X126442951Y-75640392D01*
X126458784Y-75652674D01*
X126494130Y-75667968D01*
X126498875Y-75670022D01*
X126509355Y-75675155D01*
X126547628Y-75696197D01*
X126567032Y-75701179D01*
X126585430Y-75707478D01*
X126603825Y-75715438D01*
X126646974Y-75722271D01*
X126658400Y-75724638D01*
X126700701Y-75735500D01*
X126720736Y-75735500D01*
X126740133Y-75737026D01*
X126759916Y-75740160D01*
X126803395Y-75736050D01*
X126815064Y-75735500D01*
X127269828Y-75735500D01*
X127336867Y-75755185D01*
X127357509Y-75771819D01*
X127563181Y-75977491D01*
X127596666Y-76038814D01*
X127599500Y-76065172D01*
X127599500Y-79602578D01*
X127579815Y-79669617D01*
X127527011Y-79715372D01*
X127517589Y-79719216D01*
X126587790Y-80054733D01*
X126578691Y-80057626D01*
X126408837Y-80104504D01*
X126408826Y-80104508D01*
X126206033Y-80202167D01*
X126206025Y-80202171D01*
X126023927Y-80334473D01*
X126023925Y-80334474D01*
X125868366Y-80497176D01*
X125744363Y-80685033D01*
X125655899Y-80892004D01*
X125655895Y-80892017D01*
X125605810Y-81111457D01*
X125605808Y-81111468D01*
X125600769Y-81223674D01*
X125595710Y-81336330D01*
X125625925Y-81559387D01*
X125625926Y-81559390D01*
X125695483Y-81773465D01*
X125802146Y-81971678D01*
X125802148Y-81971681D01*
X125942489Y-82147663D01*
X125942491Y-82147664D01*
X125942492Y-82147666D01*
X126112004Y-82295765D01*
X126305236Y-82411215D01*
X126475969Y-82475292D01*
X126515976Y-82490307D01*
X126737450Y-82530500D01*
X126737453Y-82530500D01*
X127206148Y-82530500D01*
X127206155Y-82530500D01*
X127374188Y-82515377D01*
X127462700Y-82490949D01*
X127591160Y-82455496D01*
X127591162Y-82455495D01*
X127591170Y-82455493D01*
X127793973Y-82357829D01*
X127976078Y-82225522D01*
X128131632Y-82062825D01*
X128165864Y-82010964D01*
X128219221Y-81965861D01*
X128288496Y-81956763D01*
X128351692Y-81986562D01*
X128366297Y-82001963D01*
X128482489Y-82147663D01*
X128482491Y-82147664D01*
X128482492Y-82147666D01*
X128652004Y-82295765D01*
X128845236Y-82411215D01*
X129015969Y-82475292D01*
X129055976Y-82490307D01*
X129277450Y-82530500D01*
X129277453Y-82530500D01*
X129746148Y-82530500D01*
X129746155Y-82530500D01*
X129914188Y-82515377D01*
X130131170Y-82455493D01*
X130167703Y-82437898D01*
X130185445Y-82430978D01*
X130200694Y-82426344D01*
X131288168Y-81917198D01*
X131340746Y-81905500D01*
X131464748Y-81905500D01*
X131531787Y-81925185D01*
X131552429Y-81941819D01*
X132637381Y-83026771D01*
X132670866Y-83088094D01*
X132673700Y-83114452D01*
X132673700Y-83286855D01*
X132661722Y-83340024D01*
X132108689Y-84505205D01*
X132103055Y-84517496D01*
X132102821Y-84518025D01*
X132102819Y-84518029D01*
X132088168Y-84557965D01*
X132084141Y-84567653D01*
X132072460Y-84592704D01*
X132013566Y-84812502D01*
X132013564Y-84812513D01*
X131993732Y-85039198D01*
X131993732Y-85039201D01*
X132013564Y-85265886D01*
X132013566Y-85265897D01*
X132072458Y-85485688D01*
X132072461Y-85485697D01*
X132168631Y-85691932D01*
X132168632Y-85691934D01*
X132299154Y-85878341D01*
X132460058Y-86039245D01*
X132460061Y-86039247D01*
X132646466Y-86169768D01*
X132852704Y-86265939D01*
X132852709Y-86265940D01*
X132852711Y-86265941D01*
X132871021Y-86270847D01*
X133072508Y-86324835D01*
X133234430Y-86339001D01*
X133299198Y-86344668D01*
X133299200Y-86344668D01*
X133299202Y-86344668D01*
X133355873Y-86339709D01*
X133525892Y-86324835D01*
X133745696Y-86265939D01*
X133951934Y-86169768D01*
X134138339Y-86039247D01*
X134299247Y-85878339D01*
X134429768Y-85691934D01*
X134525939Y-85485696D01*
X134584835Y-85265892D01*
X134604668Y-85039200D01*
X134584835Y-84812508D01*
X134525939Y-84592704D01*
X134502312Y-84542038D01*
X134496249Y-84526327D01*
X134489705Y-84505197D01*
X134217276Y-83931218D01*
X134206314Y-83862216D01*
X134234399Y-83798239D01*
X134292613Y-83759602D01*
X134362475Y-83758572D01*
X134416980Y-83790370D01*
X135165252Y-84538642D01*
X135193900Y-84583388D01*
X135575053Y-85616087D01*
X135577989Y-85625084D01*
X135578571Y-85627128D01*
X135580147Y-85630295D01*
X135581548Y-85633205D01*
X135597886Y-85668321D01*
X135608045Y-85690155D01*
X135608047Y-85690158D01*
X135611318Y-85695634D01*
X135611270Y-85695662D01*
X135618749Y-85707815D01*
X135677742Y-85826289D01*
X135811820Y-86003838D01*
X135976237Y-86153723D01*
X135976239Y-86153725D01*
X136165395Y-86270845D01*
X136165396Y-86270845D01*
X136165399Y-86270847D01*
X136232286Y-86296759D01*
X136246537Y-86303347D01*
X136271290Y-86316753D01*
X136271294Y-86316754D01*
X136271295Y-86316755D01*
X136271296Y-86316756D01*
X137311010Y-86700498D01*
X137355756Y-86729146D01*
X142480381Y-91853771D01*
X142513866Y-91915094D01*
X142516700Y-91941452D01*
X142516700Y-101888559D01*
X142497015Y-101955598D01*
X142444211Y-102001353D01*
X142375053Y-102011297D01*
X142321579Y-101990136D01*
X142310847Y-101982621D01*
X142310842Y-101982619D01*
X142111908Y-101889855D01*
X142111906Y-101889854D01*
X142111903Y-101889853D01*
X141961085Y-101849440D01*
X141899875Y-101833039D01*
X141899868Y-101833038D01*
X141681202Y-101813908D01*
X141681198Y-101813908D01*
X141462531Y-101833038D01*
X141462524Y-101833039D01*
X141340102Y-101865842D01*
X141250497Y-101889853D01*
X141250495Y-101889853D01*
X141250491Y-101889855D01*
X141051557Y-101982619D01*
X141051549Y-101982623D01*
X140871747Y-102108522D01*
X140871741Y-102108527D01*
X140716527Y-102263741D01*
X140716522Y-102263747D01*
X140590623Y-102443549D01*
X140590619Y-102443557D01*
X140523582Y-102587320D01*
X140477410Y-102639760D01*
X140410217Y-102658912D01*
X140343335Y-102638696D01*
X140298818Y-102587320D01*
X140271232Y-102528163D01*
X140231779Y-102443554D01*
X140231777Y-102443551D01*
X140231776Y-102443549D01*
X140105877Y-102263747D01*
X140105872Y-102263741D01*
X139950658Y-102108527D01*
X139950652Y-102108522D01*
X139770850Y-101982623D01*
X139770842Y-101982619D01*
X139571908Y-101889855D01*
X139571906Y-101889854D01*
X139571903Y-101889853D01*
X139421085Y-101849440D01*
X139359875Y-101833039D01*
X139359868Y-101833038D01*
X139141202Y-101813908D01*
X139141198Y-101813908D01*
X138922531Y-101833038D01*
X138922524Y-101833039D01*
X138800102Y-101865842D01*
X138710497Y-101889853D01*
X138710495Y-101889853D01*
X138710491Y-101889855D01*
X138511557Y-101982619D01*
X138511549Y-101982623D01*
X138331747Y-102108522D01*
X138331741Y-102108527D01*
X138176527Y-102263741D01*
X138176522Y-102263747D01*
X138050623Y-102443549D01*
X138050619Y-102443557D01*
X137983582Y-102587320D01*
X137937410Y-102639760D01*
X137870217Y-102658912D01*
X137803335Y-102638696D01*
X137758818Y-102587320D01*
X137731232Y-102528163D01*
X137691779Y-102443554D01*
X137691777Y-102443551D01*
X137691776Y-102443549D01*
X137565877Y-102263747D01*
X137565872Y-102263741D01*
X137410658Y-102108527D01*
X137410652Y-102108522D01*
X137230850Y-101982623D01*
X137230842Y-101982619D01*
X137031908Y-101889855D01*
X137031906Y-101889854D01*
X137031903Y-101889853D01*
X136881085Y-101849440D01*
X136819875Y-101833039D01*
X136819868Y-101833038D01*
X136601202Y-101813908D01*
X136601198Y-101813908D01*
X136382531Y-101833038D01*
X136382524Y-101833039D01*
X136260102Y-101865842D01*
X136170497Y-101889853D01*
X136170495Y-101889853D01*
X136170491Y-101889855D01*
X135971557Y-101982619D01*
X135971549Y-101982623D01*
X135791747Y-102108522D01*
X135791741Y-102108527D01*
X135636527Y-102263741D01*
X135636522Y-102263747D01*
X135510623Y-102443549D01*
X135510619Y-102443557D01*
X135443582Y-102587320D01*
X135397410Y-102639760D01*
X135330217Y-102658912D01*
X135263335Y-102638696D01*
X135218818Y-102587320D01*
X135191232Y-102528163D01*
X135151779Y-102443554D01*
X135151777Y-102443551D01*
X135151776Y-102443549D01*
X135025877Y-102263747D01*
X135025872Y-102263741D01*
X134870658Y-102108527D01*
X134870652Y-102108522D01*
X134690850Y-101982623D01*
X134690842Y-101982619D01*
X134491908Y-101889855D01*
X134491906Y-101889854D01*
X134491903Y-101889853D01*
X134341085Y-101849440D01*
X134279875Y-101833039D01*
X134279868Y-101833038D01*
X134061202Y-101813908D01*
X134061198Y-101813908D01*
X133842531Y-101833038D01*
X133842524Y-101833039D01*
X133720102Y-101865842D01*
X133630497Y-101889853D01*
X133630495Y-101889853D01*
X133630491Y-101889855D01*
X133431557Y-101982619D01*
X133431549Y-101982623D01*
X133251747Y-102108522D01*
X133251741Y-102108527D01*
X133096527Y-102263741D01*
X133096522Y-102263747D01*
X132970623Y-102443549D01*
X132970619Y-102443557D01*
X132877855Y-102642491D01*
X132821039Y-102854524D01*
X132821038Y-102854531D01*
X132801908Y-103073197D01*
X132801908Y-103073202D01*
X132819329Y-103272338D01*
X132821039Y-103291874D01*
X132877853Y-103503903D01*
X132877854Y-103503906D01*
X132877855Y-103503908D01*
X132970619Y-103702842D01*
X132970623Y-103702850D01*
X133096522Y-103882652D01*
X133096527Y-103882658D01*
X133251741Y-104037872D01*
X133251747Y-104037877D01*
X133431549Y-104163776D01*
X133431551Y-104163777D01*
X133431554Y-104163779D01*
X133630497Y-104256547D01*
X133842526Y-104313361D01*
X133998721Y-104327026D01*
X134061198Y-104332492D01*
X134061200Y-104332492D01*
X134061202Y-104332492D01*
X134115997Y-104327698D01*
X134279874Y-104313361D01*
X134491903Y-104256547D01*
X134690846Y-104163779D01*
X134870657Y-104037874D01*
X135025874Y-103882657D01*
X135151779Y-103702846D01*
X135218818Y-103559078D01*
X135264990Y-103506639D01*
X135332183Y-103487487D01*
X135399064Y-103507702D01*
X135443582Y-103559079D01*
X135510619Y-103702842D01*
X135510623Y-103702850D01*
X135636522Y-103882652D01*
X135636527Y-103882658D01*
X135791741Y-104037872D01*
X135791747Y-104037877D01*
X135971549Y-104163776D01*
X135971551Y-104163777D01*
X135971554Y-104163779D01*
X136170497Y-104256547D01*
X136382526Y-104313361D01*
X136538721Y-104327026D01*
X136601198Y-104332492D01*
X136601200Y-104332492D01*
X136601202Y-104332492D01*
X136655997Y-104327698D01*
X136819874Y-104313361D01*
X137031903Y-104256547D01*
X137230846Y-104163779D01*
X137410657Y-104037874D01*
X137565874Y-103882657D01*
X137691779Y-103702846D01*
X137758818Y-103559078D01*
X137804990Y-103506639D01*
X137872183Y-103487487D01*
X137939064Y-103507702D01*
X137983582Y-103559079D01*
X138050619Y-103702842D01*
X138050623Y-103702850D01*
X138176522Y-103882652D01*
X138176527Y-103882658D01*
X138331741Y-104037872D01*
X138331747Y-104037877D01*
X138511549Y-104163776D01*
X138511551Y-104163777D01*
X138511554Y-104163779D01*
X138710497Y-104256547D01*
X138922526Y-104313361D01*
X139078721Y-104327026D01*
X139141198Y-104332492D01*
X139141200Y-104332492D01*
X139141202Y-104332492D01*
X139195997Y-104327698D01*
X139359874Y-104313361D01*
X139571903Y-104256547D01*
X139770846Y-104163779D01*
X139950657Y-104037874D01*
X140105874Y-103882657D01*
X140231779Y-103702846D01*
X140298818Y-103559078D01*
X140344990Y-103506639D01*
X140412183Y-103487487D01*
X140479064Y-103507702D01*
X140523582Y-103559079D01*
X140590619Y-103702842D01*
X140590623Y-103702850D01*
X140716522Y-103882652D01*
X140716527Y-103882658D01*
X140871741Y-104037872D01*
X140871747Y-104037877D01*
X141051549Y-104163776D01*
X141051551Y-104163777D01*
X141051554Y-104163779D01*
X141250497Y-104256547D01*
X141462526Y-104313361D01*
X141618721Y-104327026D01*
X141681198Y-104332492D01*
X141681200Y-104332492D01*
X141681202Y-104332492D01*
X141735997Y-104327698D01*
X141899874Y-104313361D01*
X142111903Y-104256547D01*
X142310846Y-104163779D01*
X142490657Y-104037874D01*
X142544922Y-103983608D01*
X142606244Y-103950123D01*
X142675936Y-103955107D01*
X142711643Y-103975745D01*
X142716257Y-103979562D01*
X142724898Y-103987425D01*
X145351260Y-106613788D01*
X145361085Y-106626051D01*
X145361306Y-106625869D01*
X145366274Y-106631874D01*
X145415285Y-106677899D01*
X145418084Y-106680612D01*
X145437585Y-106700114D01*
X145437589Y-106700117D01*
X145437592Y-106700120D01*
X145440765Y-106702581D01*
X145449637Y-106710159D01*
X145481481Y-106740062D01*
X145499039Y-106749714D01*
X145515296Y-106760393D01*
X145531127Y-106772673D01*
X145560866Y-106785542D01*
X145571215Y-106790021D01*
X145581704Y-106795160D01*
X145605520Y-106808252D01*
X145619971Y-106816197D01*
X145632586Y-106819435D01*
X145639368Y-106821177D01*
X145657782Y-106827481D01*
X145676167Y-106835438D01*
X145719324Y-106842273D01*
X145730719Y-106844632D01*
X145773044Y-106855500D01*
X145793079Y-106855500D01*
X145812476Y-106857026D01*
X145832259Y-106860160D01*
X145875738Y-106856050D01*
X145887407Y-106855500D01*
X160357257Y-106855500D01*
X160372877Y-106857224D01*
X160372904Y-106856939D01*
X160380660Y-106857671D01*
X160380667Y-106857673D01*
X160447873Y-106855561D01*
X160451768Y-106855500D01*
X160479346Y-106855500D01*
X160479350Y-106855500D01*
X160483324Y-106854997D01*
X160494963Y-106854080D01*
X160538627Y-106852709D01*
X160557869Y-106847117D01*
X160576912Y-106843174D01*
X160596792Y-106840664D01*
X160637401Y-106824585D01*
X160648444Y-106820803D01*
X160690390Y-106808618D01*
X160707629Y-106798422D01*
X160725103Y-106789862D01*
X160743727Y-106782488D01*
X160743727Y-106782487D01*
X160743732Y-106782486D01*
X160779083Y-106756800D01*
X160788814Y-106750408D01*
X160826420Y-106728170D01*
X160840589Y-106713999D01*
X160855379Y-106701368D01*
X160871587Y-106689594D01*
X160899438Y-106655926D01*
X160907279Y-106647309D01*
X163085722Y-104468866D01*
X163147043Y-104435383D01*
X163191081Y-104433816D01*
X163353737Y-104457247D01*
X163976145Y-104546907D01*
X163990543Y-104549862D01*
X164084592Y-104575063D01*
X164261034Y-104590500D01*
X164319999Y-104595659D01*
X164320000Y-104595659D01*
X164320001Y-104595659D01*
X164378966Y-104590500D01*
X164555408Y-104575063D01*
X164783663Y-104513903D01*
X164997829Y-104414035D01*
X165191401Y-104278495D01*
X165338602Y-104131293D01*
X165399924Y-104097810D01*
X165469615Y-104102794D01*
X165525549Y-104144665D01*
X165531821Y-104153879D01*
X165537928Y-104163780D01*
X165627288Y-104308656D01*
X165751344Y-104432712D01*
X165900666Y-104524814D01*
X166067203Y-104579999D01*
X166169991Y-104590500D01*
X167470008Y-104590499D01*
X167572797Y-104579999D01*
X167739334Y-104524814D01*
X167888656Y-104432712D01*
X168012712Y-104308656D01*
X168104814Y-104159334D01*
X168159999Y-103992797D01*
X168170500Y-103890009D01*
X168170499Y-102289992D01*
X168168592Y-102271328D01*
X168159999Y-102187203D01*
X168159998Y-102187200D01*
X168133928Y-102108526D01*
X168104814Y-102020666D01*
X168012712Y-101871344D01*
X167888656Y-101747288D01*
X167767092Y-101672307D01*
X167739336Y-101655187D01*
X167739331Y-101655185D01*
X167737862Y-101654698D01*
X167572797Y-101600001D01*
X167572795Y-101600000D01*
X167470010Y-101589500D01*
X166169998Y-101589500D01*
X166169981Y-101589501D01*
X166067203Y-101600000D01*
X166067200Y-101600001D01*
X165900668Y-101655185D01*
X165900663Y-101655187D01*
X165751342Y-101747289D01*
X165627289Y-101871342D01*
X165531821Y-102026121D01*
X165479873Y-102072845D01*
X165410910Y-102084068D01*
X165346828Y-102056224D01*
X165338601Y-102048705D01*
X165191402Y-101901506D01*
X165191395Y-101901501D01*
X165185075Y-101897076D01*
X165093622Y-101833039D01*
X164997834Y-101765967D01*
X164997830Y-101765965D01*
X164946435Y-101741999D01*
X164783663Y-101666097D01*
X164783659Y-101666096D01*
X164783655Y-101666094D01*
X164555413Y-101604938D01*
X164555403Y-101604936D01*
X164320001Y-101584341D01*
X164319999Y-101584341D01*
X164084596Y-101604936D01*
X164084586Y-101604938D01*
X163856344Y-101666094D01*
X163856335Y-101666098D01*
X163642171Y-101765964D01*
X163642169Y-101765965D01*
X163448597Y-101901505D01*
X163281505Y-102068597D01*
X163145963Y-102262172D01*
X163117548Y-102323109D01*
X163107471Y-102340773D01*
X162381114Y-103401306D01*
X162366490Y-103418918D01*
X160217228Y-105568181D01*
X160155905Y-105601666D01*
X160129547Y-105604500D01*
X146162515Y-105604500D01*
X146095476Y-105584815D01*
X146074834Y-105568181D01*
X144849227Y-104342573D01*
X144815742Y-104281250D01*
X144820726Y-104211558D01*
X144862598Y-104155625D01*
X144865718Y-104153365D01*
X145030657Y-104037874D01*
X145185874Y-103882657D01*
X145311779Y-103702846D01*
X145378818Y-103559078D01*
X145424990Y-103506639D01*
X145492183Y-103487487D01*
X145559064Y-103507702D01*
X145603582Y-103559079D01*
X145670619Y-103702842D01*
X145670623Y-103702850D01*
X145796522Y-103882652D01*
X145796527Y-103882658D01*
X145951741Y-104037872D01*
X145951747Y-104037877D01*
X146131549Y-104163776D01*
X146131551Y-104163777D01*
X146131554Y-104163779D01*
X146330497Y-104256547D01*
X146542526Y-104313361D01*
X146698721Y-104327026D01*
X146761198Y-104332492D01*
X146761200Y-104332492D01*
X146761202Y-104332492D01*
X146815997Y-104327698D01*
X146979874Y-104313361D01*
X147191903Y-104256547D01*
X147390846Y-104163779D01*
X147570657Y-104037874D01*
X147725874Y-103882657D01*
X147851779Y-103702846D01*
X147917613Y-103561661D01*
X147963782Y-103509227D01*
X148030976Y-103490074D01*
X148097857Y-103510289D01*
X148142473Y-103561875D01*
X148156649Y-103592425D01*
X148159938Y-103597938D01*
X148159793Y-103598023D01*
X148168649Y-103612837D01*
X148210623Y-103702850D01*
X148336522Y-103882652D01*
X148336527Y-103882658D01*
X148491741Y-104037872D01*
X148491747Y-104037877D01*
X148671549Y-104163776D01*
X148671551Y-104163777D01*
X148671554Y-104163779D01*
X148870497Y-104256547D01*
X149082526Y-104313361D01*
X149238721Y-104327026D01*
X149301198Y-104332492D01*
X149301200Y-104332492D01*
X149301202Y-104332492D01*
X149355997Y-104327698D01*
X149519874Y-104313361D01*
X149731903Y-104256547D01*
X149930846Y-104163779D01*
X150110657Y-104037874D01*
X150265874Y-103882657D01*
X150271186Y-103875070D01*
X153126700Y-103875070D01*
X153126701Y-103875076D01*
X153133108Y-103934683D01*
X153183402Y-104069528D01*
X153183406Y-104069535D01*
X153269652Y-104184744D01*
X153269655Y-104184747D01*
X153384864Y-104270993D01*
X153384871Y-104270997D01*
X153519717Y-104321291D01*
X153519716Y-104321291D01*
X153526644Y-104322035D01*
X153579327Y-104327700D01*
X155183072Y-104327699D01*
X155242683Y-104321291D01*
X155377531Y-104270996D01*
X155492746Y-104184746D01*
X155578996Y-104069531D01*
X155629291Y-103934683D01*
X155635700Y-103875073D01*
X155635699Y-102271328D01*
X155629291Y-102211717D01*
X155623043Y-102194966D01*
X155578997Y-102076871D01*
X155578993Y-102076864D01*
X155492747Y-101961655D01*
X155492744Y-101961652D01*
X155377535Y-101875406D01*
X155377528Y-101875402D01*
X155242682Y-101825108D01*
X155242683Y-101825108D01*
X155183083Y-101818701D01*
X155183081Y-101818700D01*
X155183073Y-101818700D01*
X155183064Y-101818700D01*
X153579329Y-101818700D01*
X153579323Y-101818701D01*
X153519716Y-101825108D01*
X153384871Y-101875402D01*
X153384864Y-101875406D01*
X153269655Y-101961652D01*
X153269652Y-101961655D01*
X153183406Y-102076864D01*
X153183402Y-102076871D01*
X153133108Y-102211717D01*
X153127515Y-102263743D01*
X153126701Y-102271323D01*
X153126700Y-102271335D01*
X153126700Y-103875070D01*
X150271186Y-103875070D01*
X150391779Y-103702846D01*
X150484547Y-103503903D01*
X150541361Y-103291874D01*
X150560492Y-103073200D01*
X150541361Y-102854526D01*
X150484547Y-102642497D01*
X150391779Y-102443554D01*
X150391777Y-102443551D01*
X150391776Y-102443549D01*
X150265877Y-102263747D01*
X150265872Y-102263741D01*
X150110658Y-102108527D01*
X150110652Y-102108522D01*
X149930850Y-101982623D01*
X149930846Y-101982621D01*
X149772666Y-101908860D01*
X149766733Y-101905898D01*
X149750187Y-101897076D01*
X149750181Y-101897073D01*
X149744949Y-101895180D01*
X149742918Y-101894446D01*
X149732718Y-101890233D01*
X149731904Y-101889853D01*
X149731301Y-101889691D01*
X149730509Y-101889479D01*
X149720429Y-101886312D01*
X148615990Y-101486821D01*
X148570487Y-101457896D01*
X146331569Y-99218978D01*
X146298084Y-99157655D01*
X146295250Y-99131297D01*
X146295250Y-95243967D01*
X160569500Y-95243967D01*
X160584936Y-95420403D01*
X160584938Y-95420413D01*
X160646094Y-95648655D01*
X160646096Y-95648659D01*
X160646097Y-95648663D01*
X160647809Y-95652334D01*
X160745964Y-95862828D01*
X160745965Y-95862830D01*
X160881505Y-96056402D01*
X161048597Y-96223493D01*
X161048599Y-96223495D01*
X161091675Y-96253657D01*
X161242165Y-96359032D01*
X161242167Y-96359033D01*
X161242170Y-96359035D01*
X161456337Y-96458903D01*
X161684592Y-96520063D01*
X161861034Y-96535500D01*
X161919999Y-96540659D01*
X161920000Y-96540659D01*
X161920001Y-96540659D01*
X161978966Y-96535500D01*
X162155408Y-96520063D01*
X162383663Y-96458903D01*
X162597829Y-96359035D01*
X162791401Y-96223495D01*
X162958495Y-96056401D01*
X163094035Y-95862829D01*
X163107012Y-95835001D01*
X165569500Y-95835001D01*
X165569501Y-95835018D01*
X165580000Y-95937796D01*
X165580001Y-95937799D01*
X165619303Y-96056402D01*
X165635186Y-96104334D01*
X165727288Y-96253656D01*
X165851344Y-96377712D01*
X166000666Y-96469814D01*
X166167203Y-96524999D01*
X166269991Y-96535500D01*
X167570008Y-96535499D01*
X167672797Y-96524999D01*
X167839334Y-96469814D01*
X167988656Y-96377712D01*
X168112712Y-96253656D01*
X168204814Y-96104334D01*
X168259999Y-95937797D01*
X168270500Y-95835009D01*
X168270499Y-94284992D01*
X168267883Y-94259387D01*
X168259999Y-94182203D01*
X168259998Y-94182200D01*
X168220697Y-94063599D01*
X168204814Y-94015666D01*
X168112712Y-93866344D01*
X167988656Y-93742288D01*
X167895888Y-93685069D01*
X167839336Y-93650187D01*
X167839331Y-93650185D01*
X167837862Y-93649698D01*
X167672797Y-93595001D01*
X167672795Y-93595000D01*
X167570010Y-93584500D01*
X166269998Y-93584500D01*
X166269981Y-93584501D01*
X166167203Y-93595000D01*
X166167200Y-93595001D01*
X166000668Y-93650185D01*
X166000663Y-93650187D01*
X165851342Y-93742289D01*
X165727289Y-93866342D01*
X165635187Y-94015663D01*
X165635185Y-94015668D01*
X165607349Y-94099670D01*
X165580001Y-94182203D01*
X165580001Y-94182204D01*
X165580000Y-94182204D01*
X165569500Y-94284983D01*
X165569500Y-95835001D01*
X163107012Y-95835001D01*
X163193903Y-95648663D01*
X163255063Y-95420408D01*
X163270500Y-95243966D01*
X163270500Y-94876034D01*
X163255063Y-94699592D01*
X163193903Y-94471337D01*
X163094035Y-94257171D01*
X163017973Y-94148542D01*
X162958494Y-94063597D01*
X162791402Y-93896506D01*
X162791395Y-93896501D01*
X162597834Y-93760967D01*
X162597830Y-93760965D01*
X162557777Y-93742288D01*
X162383663Y-93661097D01*
X162383659Y-93661096D01*
X162383655Y-93661094D01*
X162155413Y-93599938D01*
X162155403Y-93599936D01*
X161920001Y-93579341D01*
X161919999Y-93579341D01*
X161684596Y-93599936D01*
X161684586Y-93599938D01*
X161456344Y-93661094D01*
X161456335Y-93661098D01*
X161242171Y-93760964D01*
X161242169Y-93760965D01*
X161048597Y-93896505D01*
X160881505Y-94063597D01*
X160745965Y-94257169D01*
X160745964Y-94257171D01*
X160646098Y-94471335D01*
X160646094Y-94471344D01*
X160584938Y-94699586D01*
X160584936Y-94699596D01*
X160569500Y-94876032D01*
X160569500Y-95243967D01*
X146295250Y-95243967D01*
X146295250Y-91362737D01*
X146296974Y-91347123D01*
X146296688Y-91347096D01*
X146297422Y-91339333D01*
X146295311Y-91272143D01*
X146295250Y-91268249D01*
X146295250Y-91240651D01*
X146295250Y-91240650D01*
X146294747Y-91236670D01*
X146293830Y-91225021D01*
X146292459Y-91181374D01*
X146292459Y-91181372D01*
X146286870Y-91162137D01*
X146282924Y-91143084D01*
X146282571Y-91140290D01*
X146280414Y-91123208D01*
X146264328Y-91082581D01*
X146260553Y-91071554D01*
X146248367Y-91029610D01*
X146238171Y-91012369D01*
X146229610Y-90994893D01*
X146222236Y-90976269D01*
X146222235Y-90976267D01*
X146196559Y-90940926D01*
X146190162Y-90931190D01*
X146167920Y-90893579D01*
X146167917Y-90893576D01*
X146167915Y-90893573D01*
X146153755Y-90879413D01*
X146141120Y-90864620D01*
X146129343Y-90848412D01*
X146095695Y-90820576D01*
X146087054Y-90812713D01*
X132940108Y-77665767D01*
X132906623Y-77604444D01*
X132911607Y-77534752D01*
X132953479Y-77478819D01*
X133018943Y-77454402D01*
X133069863Y-77461442D01*
X133586606Y-77647839D01*
X133632211Y-77676801D01*
X138649197Y-82693788D01*
X138659022Y-82706051D01*
X138659243Y-82705869D01*
X138664211Y-82711874D01*
X138664213Y-82711876D01*
X138664214Y-82711877D01*
X138709940Y-82754817D01*
X138713222Y-82757899D01*
X138716021Y-82760612D01*
X138735522Y-82780114D01*
X138735526Y-82780117D01*
X138735529Y-82780120D01*
X138738702Y-82782581D01*
X138747574Y-82790159D01*
X138779418Y-82820062D01*
X138796976Y-82829714D01*
X138813233Y-82840393D01*
X138829064Y-82852673D01*
X138858803Y-82865542D01*
X138869152Y-82870021D01*
X138879641Y-82875160D01*
X138903457Y-82888252D01*
X138917908Y-82896197D01*
X138930523Y-82899435D01*
X138937305Y-82901177D01*
X138955719Y-82907481D01*
X138974104Y-82915438D01*
X139017261Y-82922273D01*
X139028656Y-82924632D01*
X139070981Y-82935500D01*
X139091016Y-82935500D01*
X139110413Y-82937026D01*
X139130196Y-82940160D01*
X139173675Y-82936050D01*
X139185344Y-82935500D01*
X147491766Y-82935500D01*
X147535610Y-82943510D01*
X147944382Y-83098035D01*
X148077607Y-83148397D01*
X148114958Y-83160621D01*
X148126828Y-83165192D01*
X148140192Y-83171142D01*
X148140197Y-83171144D01*
X148325354Y-83210500D01*
X148325355Y-83210500D01*
X148514644Y-83210500D01*
X148514646Y-83210500D01*
X148699803Y-83171144D01*
X148872730Y-83094151D01*
X149025871Y-82982888D01*
X149152533Y-82842216D01*
X149247179Y-82678284D01*
X149305674Y-82498256D01*
X149325460Y-82310000D01*
X149305674Y-82121744D01*
X149251112Y-81953823D01*
X149247181Y-81941722D01*
X149247180Y-81941721D01*
X149247179Y-81941716D01*
X149152533Y-81777784D01*
X149025871Y-81637112D01*
X149025870Y-81637111D01*
X148872734Y-81525851D01*
X148872729Y-81525848D01*
X148699807Y-81448857D01*
X148699802Y-81448855D01*
X148554001Y-81417865D01*
X148514646Y-81409500D01*
X148325354Y-81409500D01*
X148285999Y-81417865D01*
X148140198Y-81448855D01*
X148140193Y-81448857D01*
X148111938Y-81461437D01*
X148088400Y-81469205D01*
X148077607Y-81471602D01*
X148077593Y-81471607D01*
X147535609Y-81676489D01*
X147491763Y-81684500D01*
X139460452Y-81684500D01*
X139393413Y-81664815D01*
X139372771Y-81648181D01*
X134516801Y-76792210D01*
X134487839Y-76746604D01*
X134084640Y-75628830D01*
X134081511Y-75618856D01*
X134080894Y-75616550D01*
X134080247Y-75615164D01*
X134075984Y-75604831D01*
X134073660Y-75598387D01*
X134069636Y-75587616D01*
X134069445Y-75587122D01*
X134041912Y-75527682D01*
X134041910Y-75527679D01*
X134041908Y-75527675D01*
X134038611Y-75522143D01*
X134038763Y-75522051D01*
X134029974Y-75507352D01*
X134021872Y-75489978D01*
X133987534Y-75416339D01*
X133885745Y-75270968D01*
X133860827Y-75235381D01*
X133785026Y-75159580D01*
X133704620Y-75079174D01*
X133704616Y-75079171D01*
X133704615Y-75079170D01*
X133523666Y-74952468D01*
X133523662Y-74952466D01*
X133517301Y-74949500D01*
X133323450Y-74859106D01*
X133323447Y-74859105D01*
X133323445Y-74859104D01*
X133110070Y-74801930D01*
X133110062Y-74801929D01*
X132890002Y-74782677D01*
X132889998Y-74782677D01*
X132669937Y-74801929D01*
X132669929Y-74801930D01*
X132456554Y-74859104D01*
X132456548Y-74859107D01*
X132256340Y-74952465D01*
X132256338Y-74952466D01*
X132075380Y-75079173D01*
X132074543Y-75079876D01*
X132074099Y-75080069D01*
X132070945Y-75082279D01*
X132070501Y-75081644D01*
X132010534Y-75107889D01*
X131941542Y-75096848D01*
X131907157Y-75072567D01*
X131259390Y-74424800D01*
X131229038Y-74375121D01*
X130921228Y-73419024D01*
X130916385Y-73397670D01*
X130914074Y-73380609D01*
X130881949Y-73281740D01*
X130844517Y-73166536D01*
X130837675Y-73153821D01*
X130834252Y-73147459D01*
X130819818Y-73079096D01*
X130844636Y-73013783D01*
X130900825Y-72972255D01*
X130943446Y-72964700D01*
X139871347Y-72964700D01*
X139938386Y-72984385D01*
X139984141Y-73037189D01*
X139994085Y-73106347D01*
X139965060Y-73169903D01*
X139959028Y-73176381D01*
X138712212Y-74423196D01*
X138666606Y-74452158D01*
X137548823Y-74855359D01*
X137538853Y-74858488D01*
X137536553Y-74859104D01*
X137536546Y-74859106D01*
X137535163Y-74859752D01*
X137524850Y-74864007D01*
X137518326Y-74866360D01*
X137506602Y-74870754D01*
X137506168Y-74870923D01*
X137506145Y-74870933D01*
X137447679Y-74898087D01*
X137442180Y-74901370D01*
X137442087Y-74901215D01*
X137427355Y-74910022D01*
X137336344Y-74952462D01*
X137336337Y-74952466D01*
X137155377Y-75079175D01*
X136999175Y-75235377D01*
X136872466Y-75416338D01*
X136872465Y-75416340D01*
X136779107Y-75616548D01*
X136779104Y-75616554D01*
X136721930Y-75829929D01*
X136721929Y-75829937D01*
X136702677Y-76049997D01*
X136702677Y-76050002D01*
X136721929Y-76270062D01*
X136721930Y-76270070D01*
X136779104Y-76483445D01*
X136779105Y-76483447D01*
X136779106Y-76483450D01*
X136800813Y-76530000D01*
X136872466Y-76683662D01*
X136872468Y-76683666D01*
X136999170Y-76864615D01*
X136999175Y-76864621D01*
X137155378Y-77020824D01*
X137155384Y-77020829D01*
X137336333Y-77147531D01*
X137336335Y-77147532D01*
X137336338Y-77147534D01*
X137536550Y-77240894D01*
X137749932Y-77298070D01*
X137907123Y-77311822D01*
X137969998Y-77317323D01*
X137970000Y-77317323D01*
X137970002Y-77317323D01*
X138025017Y-77312509D01*
X138190068Y-77298070D01*
X138403450Y-77240894D01*
X138603662Y-77147534D01*
X138784620Y-77020826D01*
X138940826Y-76864620D01*
X139067534Y-76683662D01*
X139127618Y-76554808D01*
X139173788Y-76502372D01*
X139240982Y-76483219D01*
X139307863Y-76503434D01*
X139352381Y-76554810D01*
X139412466Y-76683662D01*
X139412468Y-76683666D01*
X139539170Y-76864615D01*
X139539175Y-76864621D01*
X139695378Y-77020824D01*
X139695384Y-77020829D01*
X139876333Y-77147531D01*
X139876335Y-77147532D01*
X139876338Y-77147534D01*
X140076550Y-77240894D01*
X140289932Y-77298070D01*
X140447123Y-77311822D01*
X140509998Y-77317323D01*
X140510000Y-77317323D01*
X140510002Y-77317323D01*
X140565017Y-77312509D01*
X140730068Y-77298070D01*
X140943450Y-77240894D01*
X140990714Y-77218853D01*
X141006889Y-77212647D01*
X141027635Y-77206312D01*
X141967410Y-76764793D01*
X142132420Y-76687269D01*
X142185148Y-76675500D01*
X156461696Y-76675500D01*
X156528735Y-76695185D01*
X156574490Y-76747989D01*
X156574524Y-76748063D01*
X156635812Y-76882501D01*
X156636520Y-76883887D01*
X156640054Y-76892405D01*
X156640178Y-76892350D01*
X156642817Y-76898278D01*
X156650380Y-76911376D01*
X156653417Y-76916962D01*
X156656284Y-76922575D01*
X156659401Y-76927480D01*
X156659247Y-76927577D01*
X156662704Y-76932722D01*
X156737467Y-77062216D01*
X156814287Y-77147533D01*
X156864129Y-77202888D01*
X157017265Y-77314148D01*
X157017270Y-77314151D01*
X157190192Y-77391142D01*
X157190197Y-77391144D01*
X157375354Y-77430500D01*
X157375355Y-77430500D01*
X157564644Y-77430500D01*
X157564646Y-77430500D01*
X157749803Y-77391144D01*
X157922730Y-77314151D01*
X158075871Y-77202888D01*
X158202533Y-77062216D01*
X158297179Y-76898284D01*
X158355674Y-76718256D01*
X158375460Y-76530000D01*
X158355674Y-76341744D01*
X158315737Y-76218830D01*
X165988685Y-76218830D01*
X166019128Y-76495501D01*
X166019130Y-76495512D01*
X166089529Y-76764793D01*
X166089531Y-76764799D01*
X166144807Y-76894875D01*
X166162542Y-76936609D01*
X166198393Y-77020972D01*
X166223563Y-77062214D01*
X166343390Y-77258560D01*
X166343397Y-77258569D01*
X166521440Y-77472510D01*
X166521446Y-77472516D01*
X166668178Y-77603988D01*
X166728745Y-77658256D01*
X166960883Y-77811837D01*
X167212909Y-77929982D01*
X167212916Y-77929984D01*
X167212918Y-77929985D01*
X167479439Y-78010170D01*
X167479446Y-78010171D01*
X167479451Y-78010173D01*
X167754828Y-78050700D01*
X167754833Y-78050700D01*
X167963487Y-78050700D01*
X167963489Y-78050700D01*
X167963494Y-78050699D01*
X167963506Y-78050699D01*
X168002086Y-78047875D01*
X168171601Y-78035468D01*
X168285155Y-78010173D01*
X168443279Y-77974950D01*
X168443281Y-77974949D01*
X168443286Y-77974948D01*
X168703263Y-77875515D01*
X168945993Y-77739289D01*
X169166301Y-77569172D01*
X169359492Y-77368792D01*
X169521449Y-77142418D01*
X169583888Y-77020972D01*
X169648712Y-76894890D01*
X169648714Y-76894883D01*
X169648719Y-76894875D01*
X169716844Y-76695185D01*
X169738587Y-76631452D01*
X169738587Y-76631448D01*
X169738591Y-76631439D01*
X169789148Y-76357726D01*
X169799314Y-76079568D01*
X169768871Y-75802894D01*
X169698469Y-75533601D01*
X169589607Y-75277428D01*
X169444607Y-75039836D01*
X169382014Y-74964623D01*
X169266559Y-74825889D01*
X169266553Y-74825883D01*
X169059255Y-74640144D01*
X168827119Y-74486564D01*
X168757869Y-74454101D01*
X168575091Y-74368418D01*
X168575086Y-74368416D01*
X168575081Y-74368414D01*
X168308560Y-74288229D01*
X168308546Y-74288226D01*
X168189723Y-74270739D01*
X168033172Y-74247700D01*
X167824511Y-74247700D01*
X167824493Y-74247700D01*
X167616399Y-74262932D01*
X167616385Y-74262934D01*
X167344720Y-74323449D01*
X167344713Y-74323452D01*
X167084734Y-74422886D01*
X166842010Y-74559109D01*
X166621694Y-74729231D01*
X166428511Y-74929604D01*
X166428509Y-74929606D01*
X166266552Y-75155980D01*
X166266549Y-75155984D01*
X166139287Y-75403509D01*
X166139278Y-75403531D01*
X166049412Y-75666947D01*
X166049408Y-75666965D01*
X165998852Y-75940674D01*
X165998851Y-75940681D01*
X165988685Y-76218830D01*
X158315737Y-76218830D01*
X158297179Y-76161716D01*
X158202533Y-75997784D01*
X158075871Y-75857112D01*
X158049077Y-75837645D01*
X157922734Y-75745851D01*
X157922729Y-75745848D01*
X157749805Y-75668856D01*
X157749800Y-75668855D01*
X157739432Y-75666651D01*
X157728273Y-75663730D01*
X157577125Y-75616548D01*
X157401784Y-75561813D01*
X157365848Y-75543764D01*
X157360578Y-75539935D01*
X157343029Y-75530288D01*
X157326763Y-75519604D01*
X157325877Y-75518917D01*
X157310936Y-75507327D01*
X157310935Y-75507326D01*
X157310932Y-75507324D01*
X157270849Y-75489978D01*
X157260363Y-75484841D01*
X157222094Y-75463803D01*
X157222092Y-75463802D01*
X157202693Y-75458822D01*
X157184281Y-75452518D01*
X157165898Y-75444562D01*
X157165892Y-75444560D01*
X157122760Y-75437729D01*
X157111322Y-75435361D01*
X157069020Y-75424500D01*
X157069019Y-75424500D01*
X157048984Y-75424500D01*
X157029586Y-75422973D01*
X157022162Y-75421797D01*
X157009805Y-75419840D01*
X157009804Y-75419840D01*
X156966325Y-75423950D01*
X156954656Y-75424500D01*
X142185150Y-75424500D01*
X142132422Y-75412731D01*
X141027608Y-74893674D01*
X141021102Y-74890715D01*
X141016217Y-74888494D01*
X141015751Y-74888289D01*
X141015752Y-74888289D01*
X141015749Y-74888288D01*
X141015740Y-74888285D01*
X140975681Y-74873633D01*
X140965877Y-74869563D01*
X140953960Y-74864007D01*
X140943450Y-74859106D01*
X140889097Y-74844542D01*
X140730070Y-74801930D01*
X140730062Y-74801929D01*
X140510002Y-74782677D01*
X140509997Y-74782677D01*
X140424093Y-74790192D01*
X140355594Y-74776425D01*
X140305411Y-74727809D01*
X140289478Y-74659781D01*
X140312854Y-74593937D01*
X140325597Y-74578992D01*
X140772772Y-74131819D01*
X140834095Y-74098334D01*
X140860453Y-74095500D01*
X148421766Y-74095500D01*
X148465610Y-74103510D01*
X148953695Y-74288017D01*
X149007607Y-74308397D01*
X149044958Y-74320621D01*
X149056828Y-74325192D01*
X149070192Y-74331142D01*
X149070197Y-74331144D01*
X149255354Y-74370500D01*
X149255355Y-74370500D01*
X149444644Y-74370500D01*
X149444646Y-74370500D01*
X149629803Y-74331144D01*
X149802730Y-74254151D01*
X149955871Y-74142888D01*
X150082533Y-74002216D01*
X150177179Y-73838284D01*
X150235674Y-73658256D01*
X150255460Y-73470000D01*
X150235674Y-73281744D01*
X150185399Y-73127017D01*
X150183405Y-73057177D01*
X150219485Y-72997344D01*
X150282186Y-72966516D01*
X150303331Y-72964700D01*
X167488852Y-72964700D01*
X167541580Y-72976469D01*
X167576541Y-72992894D01*
X168646364Y-73495512D01*
X168656898Y-73500315D01*
X168657382Y-73500529D01*
X168698220Y-73515508D01*
X168707891Y-73519527D01*
X168730550Y-73530094D01*
X168943932Y-73587270D01*
X169101123Y-73601022D01*
X169163998Y-73606523D01*
X169164000Y-73606523D01*
X169164002Y-73606523D01*
X169219017Y-73601709D01*
X169384068Y-73587270D01*
X169597450Y-73530094D01*
X169797662Y-73436734D01*
X169978620Y-73310026D01*
X170134826Y-73153820D01*
X170261534Y-72972862D01*
X170354894Y-72772650D01*
X170412070Y-72559268D01*
X170431323Y-72339200D01*
X170428290Y-72304537D01*
X170412070Y-72119137D01*
X170412070Y-72119132D01*
X170354894Y-71905750D01*
X170261534Y-71705539D01*
X170168067Y-71572053D01*
X170134827Y-71524581D01*
X170060386Y-71450140D01*
X169978620Y-71368374D01*
X169978616Y-71368371D01*
X169978615Y-71368370D01*
X169797666Y-71241668D01*
X169797662Y-71241666D01*
X169597450Y-71148306D01*
X169597447Y-71148305D01*
X169597445Y-71148304D01*
X169384070Y-71091130D01*
X169384062Y-71091129D01*
X169164002Y-71071877D01*
X169163998Y-71071877D01*
X168943937Y-71091129D01*
X168943929Y-71091130D01*
X168730552Y-71148305D01*
X168730549Y-71148306D01*
X168683294Y-71170340D01*
X168667118Y-71176547D01*
X168646366Y-71182885D01*
X167541577Y-71701931D01*
X167488849Y-71713700D01*
X130984029Y-71713700D01*
X130916990Y-71694015D01*
X130871235Y-71641211D01*
X130861291Y-71572053D01*
X130870006Y-71540967D01*
X130884103Y-71507988D01*
X130934191Y-71288537D01*
X130944290Y-71063670D01*
X130914075Y-70840613D01*
X130911542Y-70832820D01*
X130909546Y-70762981D01*
X130945624Y-70703147D01*
X131008324Y-70672317D01*
X131029473Y-70670500D01*
X136642257Y-70670500D01*
X136657877Y-70672224D01*
X136657904Y-70671939D01*
X136665660Y-70672671D01*
X136665667Y-70672673D01*
X136732873Y-70670561D01*
X136736768Y-70670500D01*
X136764346Y-70670500D01*
X136764350Y-70670500D01*
X136768324Y-70669997D01*
X136779963Y-70669080D01*
X136823627Y-70667709D01*
X136842869Y-70662117D01*
X136861912Y-70658174D01*
X136881792Y-70655664D01*
X136922401Y-70639585D01*
X136933444Y-70635803D01*
X136975390Y-70623618D01*
X136992629Y-70613422D01*
X137010103Y-70604862D01*
X137028727Y-70597488D01*
X137028727Y-70597487D01*
X137028732Y-70597486D01*
X137064083Y-70571800D01*
X137073814Y-70565408D01*
X137111420Y-70543170D01*
X137125589Y-70528999D01*
X137140379Y-70516368D01*
X137156587Y-70504594D01*
X137184438Y-70470926D01*
X137192279Y-70462309D01*
X143240210Y-64414379D01*
X143286820Y-64385061D01*
X144591378Y-63927193D01*
X144604524Y-63922373D01*
X144605115Y-63922147D01*
X144627472Y-63911839D01*
X144639105Y-63907175D01*
X144654712Y-63901818D01*
X144851679Y-63795225D01*
X145028415Y-63657665D01*
X145147499Y-63528306D01*
X145180093Y-63492900D01*
X145180094Y-63492898D01*
X145180100Y-63492892D01*
X145302595Y-63305400D01*
X145358758Y-63177356D01*
X145362336Y-63169888D01*
X145377193Y-63141378D01*
X145386255Y-63115556D01*
X145389703Y-63106811D01*
X145392555Y-63100309D01*
X145392558Y-63100303D01*
X145393648Y-63095996D01*
X145396851Y-63085363D01*
X145546142Y-62660005D01*
X147833968Y-62660005D01*
X147852461Y-62883187D01*
X147852463Y-62883199D01*
X147907441Y-63100301D01*
X147997405Y-63305401D01*
X148119898Y-63492889D01*
X148119906Y-63492900D01*
X148271581Y-63657661D01*
X148271591Y-63657670D01*
X148415000Y-63769290D01*
X148448321Y-63795225D01*
X148448323Y-63795226D01*
X148448326Y-63795228D01*
X148562831Y-63857194D01*
X148645288Y-63901818D01*
X148857114Y-63974538D01*
X149078020Y-64011400D01*
X149301980Y-64011400D01*
X149522886Y-63974538D01*
X149734712Y-63901818D01*
X149931679Y-63795225D01*
X150108415Y-63657665D01*
X150227499Y-63528306D01*
X150260093Y-63492900D01*
X150260094Y-63492898D01*
X150260100Y-63492892D01*
X150382595Y-63305400D01*
X150472558Y-63100303D01*
X150527537Y-62883196D01*
X150533365Y-62812862D01*
X150546032Y-62660005D01*
X150546032Y-62659994D01*
X150527538Y-62436812D01*
X150527536Y-62436800D01*
X150516306Y-62392454D01*
X150479935Y-62248830D01*
X152018685Y-62248830D01*
X152049128Y-62525501D01*
X152049130Y-62525512D01*
X152110126Y-62758825D01*
X152119531Y-62794799D01*
X152174807Y-62924875D01*
X152209509Y-63006536D01*
X152228393Y-63050972D01*
X152289740Y-63151493D01*
X152373390Y-63288560D01*
X152373397Y-63288569D01*
X152551440Y-63502510D01*
X152551446Y-63502516D01*
X152634788Y-63577190D01*
X152758745Y-63688256D01*
X152990883Y-63841837D01*
X153242909Y-63959982D01*
X153242916Y-63959984D01*
X153242918Y-63959985D01*
X153509439Y-64040170D01*
X153509446Y-64040171D01*
X153509451Y-64040173D01*
X153784828Y-64080700D01*
X153784833Y-64080700D01*
X153993487Y-64080700D01*
X153993489Y-64080700D01*
X153993494Y-64080699D01*
X153993506Y-64080699D01*
X154032086Y-64077875D01*
X154201601Y-64065468D01*
X154315155Y-64040173D01*
X154473279Y-64004950D01*
X154473281Y-64004949D01*
X154473286Y-64004948D01*
X154733263Y-63905515D01*
X154975993Y-63769289D01*
X155196301Y-63599172D01*
X155389492Y-63398792D01*
X155551449Y-63172418D01*
X155613888Y-63050972D01*
X155678712Y-62924890D01*
X155678714Y-62924883D01*
X155678719Y-62924875D01*
X155723097Y-62794793D01*
X155768587Y-62661452D01*
X155768587Y-62661448D01*
X155768591Y-62661439D01*
X155819148Y-62387726D01*
X155829314Y-62109568D01*
X155798871Y-61832894D01*
X155728469Y-61563601D01*
X155619607Y-61307428D01*
X155474607Y-61069836D01*
X155383396Y-60960235D01*
X155296559Y-60855889D01*
X155296553Y-60855883D01*
X155089255Y-60670144D01*
X154857119Y-60516564D01*
X154851283Y-60513828D01*
X154605091Y-60398418D01*
X154605086Y-60398416D01*
X154605081Y-60398414D01*
X154338560Y-60318229D01*
X154338546Y-60318226D01*
X154219723Y-60300739D01*
X154063172Y-60277700D01*
X153854511Y-60277700D01*
X153854493Y-60277700D01*
X153646399Y-60292932D01*
X153646385Y-60292934D01*
X153374720Y-60353449D01*
X153374713Y-60353452D01*
X153114734Y-60452886D01*
X152872010Y-60589109D01*
X152872008Y-60589110D01*
X152872007Y-60589111D01*
X152817877Y-60630909D01*
X152651694Y-60759231D01*
X152458511Y-60959604D01*
X152458509Y-60959606D01*
X152296552Y-61185980D01*
X152296549Y-61185984D01*
X152169287Y-61433509D01*
X152169278Y-61433531D01*
X152079412Y-61696947D01*
X152079408Y-61696965D01*
X152028852Y-61970674D01*
X152028851Y-61970681D01*
X152018685Y-62248830D01*
X150479935Y-62248830D01*
X150472558Y-62219697D01*
X150382595Y-62014600D01*
X150382592Y-62014596D01*
X150263880Y-61832894D01*
X150260100Y-61827108D01*
X150260097Y-61827105D01*
X150260093Y-61827099D01*
X150108418Y-61662338D01*
X150108408Y-61662329D01*
X149931682Y-61524777D01*
X149931673Y-61524771D01*
X149734718Y-61418185D01*
X149734715Y-61418184D01*
X149734712Y-61418182D01*
X149734706Y-61418180D01*
X149734704Y-61418179D01*
X149522888Y-61345462D01*
X149301980Y-61308600D01*
X149078020Y-61308600D01*
X148857111Y-61345462D01*
X148645295Y-61418179D01*
X148645281Y-61418185D01*
X148448326Y-61524771D01*
X148448317Y-61524777D01*
X148271591Y-61662329D01*
X148271581Y-61662338D01*
X148119906Y-61827099D01*
X148119898Y-61827110D01*
X147997405Y-62014598D01*
X147907441Y-62219698D01*
X147852463Y-62436800D01*
X147852461Y-62436812D01*
X147833968Y-62659994D01*
X147833968Y-62660005D01*
X145546142Y-62660005D01*
X145835061Y-61836819D01*
X145864379Y-61790209D01*
X146263787Y-61390802D01*
X146276042Y-61380986D01*
X146275859Y-61380764D01*
X146281868Y-61375791D01*
X146281877Y-61375786D01*
X146327949Y-61326722D01*
X146330566Y-61324023D01*
X146350120Y-61304471D01*
X146352576Y-61301303D01*
X146360156Y-61292427D01*
X146390062Y-61260582D01*
X146399715Y-61243020D01*
X146410389Y-61226770D01*
X146422673Y-61210936D01*
X146440019Y-61170850D01*
X146445157Y-61160362D01*
X146466196Y-61122093D01*
X146466197Y-61122092D01*
X146471177Y-61102691D01*
X146477478Y-61084288D01*
X146485438Y-61065896D01*
X146492272Y-61022741D01*
X146494635Y-61011331D01*
X146505500Y-60969019D01*
X146505500Y-60948983D01*
X146507027Y-60929582D01*
X146510160Y-60909804D01*
X146506050Y-60866324D01*
X146505500Y-60854655D01*
X146505500Y-60008916D01*
X146516882Y-59957021D01*
X146980727Y-58950479D01*
X146980729Y-58950474D01*
X146980747Y-58950436D01*
X146984293Y-58942534D01*
X146984826Y-58941347D01*
X146985003Y-58940942D01*
X146991858Y-58922129D01*
X146997357Y-58909326D01*
X147004229Y-58895528D01*
X147065115Y-58681536D01*
X147085643Y-58460000D01*
X147065115Y-58238464D01*
X147004229Y-58024472D01*
X147004224Y-58024461D01*
X146905061Y-57825316D01*
X146905056Y-57825308D01*
X146770979Y-57647761D01*
X146630831Y-57520000D01*
X149014357Y-57520000D01*
X149034884Y-57741535D01*
X149034885Y-57741537D01*
X149095769Y-57955523D01*
X149095775Y-57955538D01*
X149194938Y-58154683D01*
X149194943Y-58154691D01*
X149329020Y-58332238D01*
X149493437Y-58482123D01*
X149493439Y-58482125D01*
X149682595Y-58599245D01*
X149682596Y-58599245D01*
X149682599Y-58599247D01*
X149890060Y-58679618D01*
X150108757Y-58720500D01*
X150108759Y-58720500D01*
X150331241Y-58720500D01*
X150331243Y-58720500D01*
X150549940Y-58679618D01*
X150757401Y-58599247D01*
X150946562Y-58482124D01*
X151110981Y-58332236D01*
X151245058Y-58154689D01*
X151344229Y-57955528D01*
X151405115Y-57741536D01*
X151425643Y-57520000D01*
X151405115Y-57298464D01*
X151344229Y-57084472D01*
X151334305Y-57064542D01*
X151245061Y-56885316D01*
X151245056Y-56885308D01*
X151110979Y-56707761D01*
X150946562Y-56557876D01*
X150946560Y-56557874D01*
X150757404Y-56440754D01*
X150757398Y-56440752D01*
X150749546Y-56437710D01*
X150549940Y-56360382D01*
X150331243Y-56319500D01*
X150108757Y-56319500D01*
X149890060Y-56360382D01*
X149781248Y-56402536D01*
X149682601Y-56440752D01*
X149682595Y-56440754D01*
X149493439Y-56557874D01*
X149493437Y-56557876D01*
X149329020Y-56707761D01*
X149194943Y-56885308D01*
X149194938Y-56885316D01*
X149095775Y-57084461D01*
X149095769Y-57084476D01*
X149034885Y-57298462D01*
X149034884Y-57298464D01*
X149014357Y-57519999D01*
X149014357Y-57520000D01*
X146630831Y-57520000D01*
X146606562Y-57497876D01*
X146606560Y-57497874D01*
X146417404Y-57380754D01*
X146417398Y-57380752D01*
X146209940Y-57300382D01*
X145991243Y-57259500D01*
X145768757Y-57259500D01*
X145550060Y-57300382D01*
X145464245Y-57333627D01*
X145342601Y-57380752D01*
X145342595Y-57380754D01*
X145153439Y-57497874D01*
X145153437Y-57497876D01*
X144989020Y-57647761D01*
X144854943Y-57825308D01*
X144854938Y-57825316D01*
X144755775Y-58024461D01*
X144755769Y-58024476D01*
X144694885Y-58238462D01*
X144694884Y-58238464D01*
X144674357Y-58459999D01*
X144674357Y-58460000D01*
X144694884Y-58681535D01*
X144694885Y-58681537D01*
X144755769Y-58895524D01*
X144755770Y-58895526D01*
X144768757Y-58921607D01*
X144776613Y-58941537D01*
X144779270Y-58950474D01*
X144779272Y-58950479D01*
X145243117Y-59957021D01*
X145254500Y-60008916D01*
X145254500Y-60579546D01*
X145234815Y-60646585D01*
X145218181Y-60667227D01*
X144979793Y-60905614D01*
X144933177Y-60934936D01*
X143628634Y-61392800D01*
X143615429Y-61397643D01*
X143614887Y-61397850D01*
X143592516Y-61408163D01*
X143580878Y-61412829D01*
X143574473Y-61415028D01*
X143565287Y-61418182D01*
X143565285Y-61418183D01*
X143368326Y-61524771D01*
X143368317Y-61524777D01*
X143191591Y-61662329D01*
X143191581Y-61662338D01*
X143039906Y-61827099D01*
X143039898Y-61827110D01*
X142917406Y-62014596D01*
X142861252Y-62142614D01*
X142857666Y-62150098D01*
X142842804Y-62178622D01*
X142833736Y-62204460D01*
X142830293Y-62213197D01*
X142827441Y-62219698D01*
X142826349Y-62224011D01*
X142823150Y-62234621D01*
X142384937Y-63483176D01*
X142355615Y-63529792D01*
X136502228Y-69383181D01*
X136440905Y-69416666D01*
X136414547Y-69419500D01*
X130864652Y-69419500D01*
X130797613Y-69399815D01*
X130751858Y-69347011D01*
X130741914Y-69277853D01*
X130761165Y-69227189D01*
X130795636Y-69174966D01*
X130884100Y-68967995D01*
X130884099Y-68967995D01*
X130884103Y-68967988D01*
X130934191Y-68748537D01*
X130944290Y-68523670D01*
X130914075Y-68300613D01*
X130844517Y-68086536D01*
X130737852Y-67888319D01*
X130637564Y-67762562D01*
X130597510Y-67712336D01*
X130527269Y-67650968D01*
X130427996Y-67564235D01*
X130234767Y-67448787D01*
X130234768Y-67448787D01*
X130234766Y-67448786D01*
X130234764Y-67448785D01*
X130175896Y-67426691D01*
X130120050Y-67384706D01*
X130095767Y-67319191D01*
X130110759Y-67250949D01*
X130160265Y-67201645D01*
X130165610Y-67198907D01*
X130333973Y-67117829D01*
X130516078Y-66985522D01*
X130671632Y-66822825D01*
X130795635Y-66634968D01*
X130884103Y-66427988D01*
X130934191Y-66208537D01*
X130944290Y-65983670D01*
X130914075Y-65760613D01*
X130844517Y-65546536D01*
X130737852Y-65348319D01*
X130637564Y-65222562D01*
X130597510Y-65172336D01*
X130588374Y-65164354D01*
X130427996Y-65024235D01*
X130234767Y-64908787D01*
X130234768Y-64908787D01*
X130234766Y-64908786D01*
X130234764Y-64908785D01*
X130175896Y-64886691D01*
X130120050Y-64844706D01*
X130095767Y-64779191D01*
X130110759Y-64710949D01*
X130160265Y-64661645D01*
X130165610Y-64658907D01*
X130333973Y-64577829D01*
X130516078Y-64445522D01*
X130671632Y-64282825D01*
X130795635Y-64094968D01*
X130801734Y-64080700D01*
X130884100Y-63887995D01*
X130884099Y-63887995D01*
X130884103Y-63887988D01*
X130934191Y-63668537D01*
X130944290Y-63443670D01*
X130914075Y-63220613D01*
X130844517Y-63006536D01*
X130737852Y-62808319D01*
X130691070Y-62749657D01*
X130597510Y-62632336D01*
X130559187Y-62598854D01*
X130427996Y-62484235D01*
X130234764Y-62368785D01*
X130116775Y-62324503D01*
X130024023Y-62289692D01*
X129802550Y-62249500D01*
X129802547Y-62249500D01*
X129333845Y-62249500D01*
X129295399Y-62252960D01*
X129165813Y-62264622D01*
X129165807Y-62264623D01*
X128948839Y-62324503D01*
X128948826Y-62324508D01*
X128746033Y-62422167D01*
X128746025Y-62422171D01*
X128563927Y-62554473D01*
X128563917Y-62554481D01*
X128554814Y-62564003D01*
X128494257Y-62598854D01*
X128424471Y-62595433D01*
X128367613Y-62554825D01*
X128349008Y-62521642D01*
X128343797Y-62507671D01*
X128343793Y-62507664D01*
X128257547Y-62392455D01*
X128257544Y-62392452D01*
X128142335Y-62306206D01*
X128142328Y-62306202D01*
X128007482Y-62255908D01*
X128007483Y-62255908D01*
X127947883Y-62249501D01*
X127947881Y-62249500D01*
X127947873Y-62249500D01*
X127947864Y-62249500D01*
X126052129Y-62249500D01*
X126052123Y-62249501D01*
X125992516Y-62255908D01*
X125857671Y-62306202D01*
X125857664Y-62306206D01*
X125742455Y-62392452D01*
X125742452Y-62392455D01*
X125656206Y-62507664D01*
X125656202Y-62507671D01*
X125605908Y-62642517D01*
X125599501Y-62702116D01*
X125599500Y-62702135D01*
X125599500Y-64297870D01*
X125599501Y-64297876D01*
X125605908Y-64357483D01*
X125656202Y-64492328D01*
X125656206Y-64492335D01*
X125742452Y-64607544D01*
X125742455Y-64607547D01*
X125857664Y-64693793D01*
X125857671Y-64693797D01*
X125992517Y-64744091D01*
X125992516Y-64744091D01*
X125999444Y-64744835D01*
X126052127Y-64750500D01*
X126115735Y-64750499D01*
X126182772Y-64770183D01*
X126228528Y-64822986D01*
X126238472Y-64892144D01*
X126209448Y-64955700D01*
X126188620Y-64974817D01*
X126023924Y-65094476D01*
X125868366Y-65257176D01*
X125744363Y-65445033D01*
X125655899Y-65652004D01*
X125655895Y-65652017D01*
X125605810Y-65871457D01*
X125605808Y-65871468D01*
X125595710Y-66096325D01*
X125595710Y-66096330D01*
X125625925Y-66319387D01*
X125625926Y-66319390D01*
X125695483Y-66533465D01*
X125802146Y-66731678D01*
X125802148Y-66731681D01*
X125942489Y-66907663D01*
X125942491Y-66907664D01*
X125942492Y-66907666D01*
X126112004Y-67055765D01*
X126305236Y-67171215D01*
X126364102Y-67193307D01*
X126419949Y-67235292D01*
X126444232Y-67300806D01*
X126429241Y-67369049D01*
X126379735Y-67418353D01*
X126374331Y-67421120D01*
X126206033Y-67502167D01*
X126206025Y-67502171D01*
X126023927Y-67634473D01*
X126023925Y-67634474D01*
X125868366Y-67797176D01*
X125744363Y-67985033D01*
X125655899Y-68192004D01*
X125655895Y-68192017D01*
X125605810Y-68411457D01*
X125605808Y-68411468D01*
X125598229Y-68580235D01*
X125595710Y-68636330D01*
X125625925Y-68859387D01*
X125625926Y-68859390D01*
X125695483Y-69073465D01*
X125802146Y-69271678D01*
X125802148Y-69271681D01*
X125942492Y-69447666D01*
X125942496Y-69447670D01*
X125943770Y-69449002D01*
X125944162Y-69449761D01*
X125945964Y-69452020D01*
X125945516Y-69452377D01*
X125975874Y-69511059D01*
X125969331Y-69580622D01*
X125949697Y-69613733D01*
X125945299Y-69619050D01*
X125937431Y-69627697D01*
X125391208Y-70173919D01*
X125378951Y-70183740D01*
X125379134Y-70183961D01*
X125373122Y-70188934D01*
X125327098Y-70237943D01*
X125324391Y-70240736D01*
X125304889Y-70260237D01*
X125304875Y-70260254D01*
X125302407Y-70263435D01*
X125294843Y-70272290D01*
X125264937Y-70304138D01*
X125264936Y-70304140D01*
X125255284Y-70321696D01*
X125244610Y-70337946D01*
X125232329Y-70353781D01*
X125232324Y-70353788D01*
X125214975Y-70393878D01*
X125209838Y-70404363D01*
X125200663Y-70421053D01*
X125151118Y-70470318D01*
X125082803Y-70484976D01*
X125017408Y-70460374D01*
X124975696Y-70404322D01*
X124968000Y-70361318D01*
X124968000Y-60230000D01*
X125884357Y-60230000D01*
X125904884Y-60451535D01*
X125904885Y-60451537D01*
X125965769Y-60665523D01*
X125965775Y-60665538D01*
X126064938Y-60864683D01*
X126064943Y-60864691D01*
X126199020Y-61042238D01*
X126363437Y-61192123D01*
X126363439Y-61192125D01*
X126552595Y-61309245D01*
X126552596Y-61309245D01*
X126552599Y-61309247D01*
X126760060Y-61389618D01*
X126978757Y-61430500D01*
X126978759Y-61430500D01*
X127201241Y-61430500D01*
X127201243Y-61430500D01*
X127419940Y-61389618D01*
X127627401Y-61309247D01*
X127816562Y-61192124D01*
X127980981Y-61042236D01*
X128115058Y-60864689D01*
X128214229Y-60665528D01*
X128275115Y-60451536D01*
X128295643Y-60230000D01*
X128275115Y-60008464D01*
X128214229Y-59794472D01*
X128190164Y-59746143D01*
X128115061Y-59595316D01*
X128115056Y-59595308D01*
X127980979Y-59417761D01*
X127816562Y-59267876D01*
X127816560Y-59267874D01*
X127627404Y-59150754D01*
X127627398Y-59150752D01*
X127419940Y-59070382D01*
X127201243Y-59029500D01*
X126978757Y-59029500D01*
X126760060Y-59070382D01*
X126628864Y-59121207D01*
X126552601Y-59150752D01*
X126552595Y-59150754D01*
X126363439Y-59267874D01*
X126363437Y-59267876D01*
X126199020Y-59417761D01*
X126064943Y-59595308D01*
X126064938Y-59595316D01*
X125965775Y-59794461D01*
X125965769Y-59794476D01*
X125904885Y-60008462D01*
X125904884Y-60008464D01*
X125884357Y-60229999D01*
X125884357Y-60230000D01*
X124968000Y-60230000D01*
X124968000Y-55895001D01*
X156369500Y-55895001D01*
X156369501Y-55895018D01*
X156380000Y-55997796D01*
X156380001Y-55997799D01*
X156435185Y-56164331D01*
X156435187Y-56164336D01*
X156450668Y-56189434D01*
X156527288Y-56313656D01*
X156651344Y-56437712D01*
X156800666Y-56529814D01*
X156967203Y-56584999D01*
X157069991Y-56595500D01*
X158370008Y-56595499D01*
X158472797Y-56584999D01*
X158639334Y-56529814D01*
X158788656Y-56437712D01*
X158912712Y-56313656D01*
X159004814Y-56164334D01*
X159059999Y-55997797D01*
X159070500Y-55895009D01*
X159070500Y-55303967D01*
X161369500Y-55303967D01*
X161384936Y-55480403D01*
X161384938Y-55480413D01*
X161446094Y-55708655D01*
X161446096Y-55708659D01*
X161446097Y-55708663D01*
X161494144Y-55811700D01*
X161545964Y-55922828D01*
X161545965Y-55922830D01*
X161681505Y-56116402D01*
X161769422Y-56204318D01*
X161848599Y-56283495D01*
X161924628Y-56336731D01*
X162042165Y-56419032D01*
X162042167Y-56419033D01*
X162042170Y-56419035D01*
X162256337Y-56518903D01*
X162484592Y-56580063D01*
X162661034Y-56595500D01*
X162719999Y-56600659D01*
X162720000Y-56600659D01*
X162720001Y-56600659D01*
X162778966Y-56595500D01*
X162955408Y-56580063D01*
X163183663Y-56518903D01*
X163397829Y-56419035D01*
X163591401Y-56283495D01*
X163758495Y-56116401D01*
X163868426Y-55959401D01*
X163923001Y-55915778D01*
X163992500Y-55908584D01*
X164054855Y-55940106D01*
X164071571Y-55959398D01*
X164119843Y-56028338D01*
X164181506Y-56116403D01*
X164269422Y-56204318D01*
X164348599Y-56283495D01*
X164424628Y-56336731D01*
X164542165Y-56419032D01*
X164542167Y-56419033D01*
X164542170Y-56419035D01*
X164756337Y-56518903D01*
X164984592Y-56580063D01*
X165161034Y-56595500D01*
X165219999Y-56600659D01*
X165220000Y-56600659D01*
X165220001Y-56600659D01*
X165278966Y-56595500D01*
X165455408Y-56580063D01*
X165683663Y-56518903D01*
X165897829Y-56419035D01*
X166091401Y-56283495D01*
X166258495Y-56116401D01*
X166368426Y-55959401D01*
X166423001Y-55915778D01*
X166492500Y-55908584D01*
X166554855Y-55940106D01*
X166571571Y-55959398D01*
X166619843Y-56028338D01*
X166681506Y-56116403D01*
X166769422Y-56204318D01*
X166848599Y-56283495D01*
X166924628Y-56336731D01*
X167042165Y-56419032D01*
X167042167Y-56419033D01*
X167042170Y-56419035D01*
X167256337Y-56518903D01*
X167484592Y-56580063D01*
X167661034Y-56595500D01*
X167719999Y-56600659D01*
X167720000Y-56600659D01*
X167720001Y-56600659D01*
X167778966Y-56595500D01*
X167955408Y-56580063D01*
X168183663Y-56518903D01*
X168397829Y-56419035D01*
X168591401Y-56283495D01*
X168758495Y-56116401D01*
X168894035Y-55922829D01*
X168993903Y-55708663D01*
X169055063Y-55480408D01*
X169055063Y-55480407D01*
X169056464Y-55475179D01*
X169058602Y-55475752D01*
X169085403Y-55421664D01*
X169145347Y-55385768D01*
X169215181Y-55387979D01*
X169272735Y-55427594D01*
X169299735Y-55492036D01*
X169300500Y-55505791D01*
X169300500Y-57245946D01*
X169280815Y-57312985D01*
X169264181Y-57333627D01*
X167387808Y-59209999D01*
X167375551Y-59219820D01*
X167375734Y-59220041D01*
X167369722Y-59225014D01*
X167323698Y-59274023D01*
X167320991Y-59276816D01*
X167301489Y-59296317D01*
X167301475Y-59296334D01*
X167299007Y-59299515D01*
X167291443Y-59308370D01*
X167261537Y-59340218D01*
X167261536Y-59340220D01*
X167251884Y-59357776D01*
X167241210Y-59374026D01*
X167228929Y-59389861D01*
X167228924Y-59389868D01*
X167211575Y-59429958D01*
X167206438Y-59440444D01*
X167185403Y-59478706D01*
X167180422Y-59498107D01*
X167174121Y-59516510D01*
X167166162Y-59534902D01*
X167166161Y-59534905D01*
X167159328Y-59578043D01*
X167156960Y-59589474D01*
X167146101Y-59631771D01*
X167146100Y-59631782D01*
X167146100Y-59651816D01*
X167144573Y-59671215D01*
X167141440Y-59690994D01*
X167141440Y-59690995D01*
X167145550Y-59734474D01*
X167146100Y-59746143D01*
X167146100Y-63244055D01*
X167144375Y-63259672D01*
X167144661Y-63259699D01*
X167143926Y-63267465D01*
X167146039Y-63334672D01*
X167146100Y-63338567D01*
X167146100Y-63366157D01*
X167146603Y-63370135D01*
X167147518Y-63381767D01*
X167148890Y-63425424D01*
X167148891Y-63425427D01*
X167154480Y-63444667D01*
X167158424Y-63463711D01*
X167160883Y-63483176D01*
X167160936Y-63483592D01*
X167177014Y-63524203D01*
X167180797Y-63535252D01*
X167192981Y-63577188D01*
X167203180Y-63594434D01*
X167211736Y-63611900D01*
X167219114Y-63630532D01*
X167244781Y-63665860D01*
X167251193Y-63675621D01*
X167273428Y-63713217D01*
X167273433Y-63713224D01*
X167287590Y-63727380D01*
X167300227Y-63742175D01*
X167312006Y-63758387D01*
X167325184Y-63769289D01*
X167345657Y-63786225D01*
X167354298Y-63794088D01*
X167537196Y-63976986D01*
X167566158Y-64022592D01*
X167969357Y-65140370D01*
X167972483Y-65150329D01*
X167973104Y-65152645D01*
X167973105Y-65152648D01*
X167973106Y-65152650D01*
X167973757Y-65154046D01*
X167978009Y-65164354D01*
X167980358Y-65170864D01*
X167984441Y-65181783D01*
X167984651Y-65182325D01*
X168012086Y-65241516D01*
X168015381Y-65247041D01*
X168015226Y-65247132D01*
X168024024Y-65261845D01*
X168066466Y-65352862D01*
X168066468Y-65352866D01*
X168193170Y-65533815D01*
X168193175Y-65533821D01*
X168349378Y-65690024D01*
X168349384Y-65690029D01*
X168530333Y-65816731D01*
X168530335Y-65816732D01*
X168530338Y-65816734D01*
X168624637Y-65860706D01*
X168659189Y-65876818D01*
X168711628Y-65922990D01*
X168730780Y-65990184D01*
X168710564Y-66057065D01*
X168659189Y-66101582D01*
X168530340Y-66161665D01*
X168530338Y-66161666D01*
X168349377Y-66288375D01*
X168193175Y-66444577D01*
X168066466Y-66625538D01*
X168066465Y-66625540D01*
X167973107Y-66825748D01*
X167973104Y-66825754D01*
X167915930Y-67039129D01*
X167915929Y-67039137D01*
X167896677Y-67259197D01*
X167896677Y-67259202D01*
X167915929Y-67479262D01*
X167915930Y-67479270D01*
X167973104Y-67692645D01*
X167973105Y-67692647D01*
X167973106Y-67692650D01*
X168012888Y-67777963D01*
X168066466Y-67892862D01*
X168066468Y-67892866D01*
X168193170Y-68073815D01*
X168193175Y-68073821D01*
X168349378Y-68230024D01*
X168349384Y-68230029D01*
X168530333Y-68356731D01*
X168530335Y-68356732D01*
X168530338Y-68356734D01*
X168730550Y-68450094D01*
X168943932Y-68507270D01*
X169101123Y-68521022D01*
X169163998Y-68526523D01*
X169164000Y-68526523D01*
X169164002Y-68526523D01*
X169219017Y-68521709D01*
X169384068Y-68507270D01*
X169597450Y-68450094D01*
X169797662Y-68356734D01*
X169978620Y-68230026D01*
X170134826Y-68073820D01*
X170261534Y-67892862D01*
X170354894Y-67692650D01*
X170412070Y-67479268D01*
X170431323Y-67259200D01*
X170429231Y-67235292D01*
X170412070Y-67039137D01*
X170412070Y-67039132D01*
X170354894Y-66825750D01*
X170261534Y-66625539D01*
X170171342Y-66496731D01*
X170134827Y-66444581D01*
X170060386Y-66370140D01*
X169978620Y-66288374D01*
X169978616Y-66288371D01*
X169978615Y-66288370D01*
X169797666Y-66161668D01*
X169797658Y-66161664D01*
X169668811Y-66101582D01*
X169616371Y-66055410D01*
X169597219Y-65988217D01*
X169617435Y-65921335D01*
X169668811Y-65876818D01*
X169703363Y-65860706D01*
X169797662Y-65816734D01*
X169978620Y-65690026D01*
X170134826Y-65533820D01*
X170261534Y-65352862D01*
X170354894Y-65152650D01*
X170412070Y-64939268D01*
X170431323Y-64719200D01*
X170429231Y-64695292D01*
X170412070Y-64499137D01*
X170412070Y-64499132D01*
X170354894Y-64285750D01*
X170261534Y-64085539D01*
X170147284Y-63922372D01*
X170134827Y-63904581D01*
X170060386Y-63830140D01*
X169978620Y-63748374D01*
X169978616Y-63748371D01*
X169978615Y-63748370D01*
X169797663Y-63621666D01*
X169797661Y-63621665D01*
X169668811Y-63561581D01*
X169616372Y-63515408D01*
X169597220Y-63448215D01*
X169617436Y-63381334D01*
X169668810Y-63336818D01*
X169797662Y-63276734D01*
X169978620Y-63150026D01*
X170134826Y-62993820D01*
X170261534Y-62812862D01*
X170354894Y-62612650D01*
X170412070Y-62399268D01*
X170426509Y-62234217D01*
X170431323Y-62179202D01*
X170431323Y-62179197D01*
X170418473Y-62032325D01*
X170412070Y-61959132D01*
X170354894Y-61745750D01*
X170354127Y-61744105D01*
X170347609Y-61726898D01*
X170157403Y-61084418D01*
X170157247Y-61014548D01*
X170188619Y-60961539D01*
X171229457Y-59920701D01*
X171290779Y-59887218D01*
X171360471Y-59892202D01*
X171416404Y-59934074D01*
X171426331Y-59949624D01*
X171522146Y-60127678D01*
X171522148Y-60127681D01*
X171662489Y-60303663D01*
X171662491Y-60303664D01*
X171662492Y-60303666D01*
X171832004Y-60451765D01*
X172025236Y-60567215D01*
X172084102Y-60589307D01*
X172139949Y-60631292D01*
X172164232Y-60696806D01*
X172149241Y-60765049D01*
X172099735Y-60814353D01*
X172094331Y-60817120D01*
X171926033Y-60898167D01*
X171926025Y-60898171D01*
X171743927Y-61030473D01*
X171743925Y-61030474D01*
X171588366Y-61193176D01*
X171464363Y-61381033D01*
X171375899Y-61588004D01*
X171375895Y-61588017D01*
X171325810Y-61807457D01*
X171325808Y-61807468D01*
X171316506Y-62014596D01*
X171315710Y-62032330D01*
X171345925Y-62255387D01*
X171345926Y-62255390D01*
X171415483Y-62469465D01*
X171522146Y-62667678D01*
X171522148Y-62667681D01*
X171662489Y-62843663D01*
X171662491Y-62843664D01*
X171662492Y-62843666D01*
X171832004Y-62991765D01*
X172025236Y-63107215D01*
X172084102Y-63129307D01*
X172139949Y-63171292D01*
X172164232Y-63236806D01*
X172149241Y-63305049D01*
X172099735Y-63354353D01*
X172094331Y-63357120D01*
X171926033Y-63438167D01*
X171926025Y-63438171D01*
X171743927Y-63570473D01*
X171743925Y-63570474D01*
X171588366Y-63733176D01*
X171464363Y-63921033D01*
X171375899Y-64128004D01*
X171375895Y-64128017D01*
X171325810Y-64347457D01*
X171325808Y-64347468D01*
X171318997Y-64499132D01*
X171315710Y-64572330D01*
X171345925Y-64795387D01*
X171348926Y-64804623D01*
X171415483Y-65009465D01*
X171522146Y-65207678D01*
X171522148Y-65207681D01*
X171662489Y-65383663D01*
X171662491Y-65383664D01*
X171662492Y-65383666D01*
X171832004Y-65531765D01*
X172025236Y-65647215D01*
X172084102Y-65669307D01*
X172139949Y-65711292D01*
X172164232Y-65776806D01*
X172149241Y-65845049D01*
X172099735Y-65894353D01*
X172094331Y-65897120D01*
X171926033Y-65978167D01*
X171926025Y-65978171D01*
X171743927Y-66110473D01*
X171743925Y-66110474D01*
X171588366Y-66273176D01*
X171464363Y-66461033D01*
X171375899Y-66668004D01*
X171375895Y-66668017D01*
X171325810Y-66887457D01*
X171325808Y-66887468D01*
X171318997Y-67039132D01*
X171315710Y-67112330D01*
X171345925Y-67335387D01*
X171345926Y-67335390D01*
X171415483Y-67549465D01*
X171522146Y-67747678D01*
X171522148Y-67747681D01*
X171662489Y-67923663D01*
X171662491Y-67923664D01*
X171662492Y-67923666D01*
X171832004Y-68071765D01*
X172025236Y-68187215D01*
X172084102Y-68209307D01*
X172139949Y-68251292D01*
X172164232Y-68316806D01*
X172149241Y-68385049D01*
X172099735Y-68434353D01*
X172094331Y-68437120D01*
X171926033Y-68518167D01*
X171926025Y-68518171D01*
X171743927Y-68650473D01*
X171743925Y-68650474D01*
X171588366Y-68813176D01*
X171464363Y-69001033D01*
X171375899Y-69208004D01*
X171375895Y-69208017D01*
X171325810Y-69427457D01*
X171325808Y-69427468D01*
X171317002Y-69623562D01*
X171315710Y-69652330D01*
X171345925Y-69875387D01*
X171345926Y-69875390D01*
X171415483Y-70089465D01*
X171522146Y-70287678D01*
X171522148Y-70287681D01*
X171662489Y-70463663D01*
X171662491Y-70463664D01*
X171662492Y-70463666D01*
X171832004Y-70611765D01*
X172025236Y-70727215D01*
X172084102Y-70749307D01*
X172139949Y-70791292D01*
X172164232Y-70856806D01*
X172149241Y-70925049D01*
X172099735Y-70974353D01*
X172094331Y-70977120D01*
X171926033Y-71058167D01*
X171926025Y-71058171D01*
X171743927Y-71190473D01*
X171743925Y-71190474D01*
X171588366Y-71353176D01*
X171464363Y-71541033D01*
X171375899Y-71748004D01*
X171375895Y-71748017D01*
X171325810Y-71967457D01*
X171325808Y-71967468D01*
X171318997Y-72119132D01*
X171315710Y-72192330D01*
X171345925Y-72415387D01*
X171345926Y-72415390D01*
X171415483Y-72629465D01*
X171522146Y-72827678D01*
X171522148Y-72827681D01*
X171662489Y-73003663D01*
X171662491Y-73003664D01*
X171662492Y-73003666D01*
X171832004Y-73151765D01*
X172025236Y-73267215D01*
X172084102Y-73289307D01*
X172139949Y-73331292D01*
X172164232Y-73396806D01*
X172149241Y-73465049D01*
X172099735Y-73514353D01*
X172094331Y-73517120D01*
X171926033Y-73598167D01*
X171926025Y-73598171D01*
X171743927Y-73730473D01*
X171743925Y-73730474D01*
X171588366Y-73893176D01*
X171464363Y-74081033D01*
X171375899Y-74288004D01*
X171375895Y-74288017D01*
X171325810Y-74507457D01*
X171325808Y-74507468D01*
X171315985Y-74726212D01*
X171315710Y-74732330D01*
X171345925Y-74955387D01*
X171345926Y-74955390D01*
X171415483Y-75169465D01*
X171522146Y-75367678D01*
X171522148Y-75367681D01*
X171662489Y-75543663D01*
X171662491Y-75543664D01*
X171662492Y-75543666D01*
X171832004Y-75691765D01*
X172025236Y-75807215D01*
X172084102Y-75829307D01*
X172139949Y-75871292D01*
X172164232Y-75936806D01*
X172149241Y-76005049D01*
X172099735Y-76054353D01*
X172094331Y-76057120D01*
X171926033Y-76138167D01*
X171926025Y-76138171D01*
X171743927Y-76270473D01*
X171743925Y-76270474D01*
X171588366Y-76433176D01*
X171464363Y-76621033D01*
X171375899Y-76828004D01*
X171375895Y-76828017D01*
X171325810Y-77047457D01*
X171325808Y-77047468D01*
X171316328Y-77258560D01*
X171315710Y-77272330D01*
X171345925Y-77495387D01*
X171345926Y-77495390D01*
X171415483Y-77709465D01*
X171522146Y-77907678D01*
X171522148Y-77907681D01*
X171662489Y-78083663D01*
X171662491Y-78083664D01*
X171662492Y-78083666D01*
X171832004Y-78231765D01*
X172025236Y-78347215D01*
X172235976Y-78426307D01*
X172457450Y-78466500D01*
X172457453Y-78466500D01*
X172926148Y-78466500D01*
X172926155Y-78466500D01*
X173094188Y-78451377D01*
X173094192Y-78451376D01*
X173311160Y-78391496D01*
X173311162Y-78391495D01*
X173311170Y-78391493D01*
X173513973Y-78293829D01*
X173696078Y-78161522D01*
X173851632Y-77998825D01*
X173885864Y-77946964D01*
X173939221Y-77901861D01*
X174008496Y-77892763D01*
X174071692Y-77922562D01*
X174086297Y-77937963D01*
X174202489Y-78083663D01*
X174202491Y-78083664D01*
X174202492Y-78083666D01*
X174372004Y-78231765D01*
X174565236Y-78347215D01*
X174775976Y-78426307D01*
X174997450Y-78466500D01*
X174997453Y-78466500D01*
X175466148Y-78466500D01*
X175466155Y-78466500D01*
X175634188Y-78451377D01*
X175634192Y-78451376D01*
X175851160Y-78391496D01*
X175851162Y-78391495D01*
X175851170Y-78391493D01*
X176053973Y-78293829D01*
X176236078Y-78161522D01*
X176391632Y-77998825D01*
X176515635Y-77810968D01*
X176604103Y-77603988D01*
X176654191Y-77384537D01*
X176664290Y-77159670D01*
X176634075Y-76936613D01*
X176564517Y-76722536D01*
X176562215Y-76718259D01*
X176457853Y-76524321D01*
X176457851Y-76524318D01*
X176445981Y-76509434D01*
X176324992Y-76357718D01*
X176317510Y-76348336D01*
X176309965Y-76341744D01*
X176147996Y-76200235D01*
X175954767Y-76084787D01*
X175954768Y-76084787D01*
X175954766Y-76084786D01*
X175954764Y-76084785D01*
X175895896Y-76062691D01*
X175840050Y-76020706D01*
X175815767Y-75955191D01*
X175830759Y-75886949D01*
X175880265Y-75837645D01*
X175885610Y-75834907D01*
X176053973Y-75753829D01*
X176236078Y-75621522D01*
X176391632Y-75458825D01*
X176515635Y-75270968D01*
X176530848Y-75235377D01*
X176604100Y-75063995D01*
X176604099Y-75063995D01*
X176604103Y-75063988D01*
X176654191Y-74844537D01*
X176664290Y-74619670D01*
X176634075Y-74396613D01*
X176564517Y-74182536D01*
X176457852Y-73984319D01*
X176385167Y-73893175D01*
X176317510Y-73808336D01*
X176317508Y-73808334D01*
X176147996Y-73660235D01*
X175954767Y-73544787D01*
X175954768Y-73544787D01*
X175954766Y-73544786D01*
X175954764Y-73544785D01*
X175895896Y-73522691D01*
X175840050Y-73480706D01*
X175815767Y-73415191D01*
X175830759Y-73346949D01*
X175880265Y-73297645D01*
X175885610Y-73294907D01*
X176053973Y-73213829D01*
X176236078Y-73081522D01*
X176391632Y-72918825D01*
X176515635Y-72730968D01*
X176604103Y-72523988D01*
X176654191Y-72304537D01*
X176664290Y-72079670D01*
X176634075Y-71856613D01*
X176564517Y-71642536D01*
X176457852Y-71444319D01*
X176385167Y-71353175D01*
X176317510Y-71268336D01*
X176286984Y-71241666D01*
X176147996Y-71120235D01*
X175954767Y-71004787D01*
X175954768Y-71004787D01*
X175954766Y-71004786D01*
X175954764Y-71004785D01*
X175895896Y-70982691D01*
X175840050Y-70940706D01*
X175815767Y-70875191D01*
X175830759Y-70806949D01*
X175880265Y-70757645D01*
X175885610Y-70754907D01*
X176053973Y-70673829D01*
X176236078Y-70541522D01*
X176391632Y-70378825D01*
X176515635Y-70190968D01*
X176516505Y-70188934D01*
X176604100Y-69983995D01*
X176604099Y-69983995D01*
X176604103Y-69983988D01*
X176654191Y-69764537D01*
X176664290Y-69539670D01*
X176634075Y-69316613D01*
X176564517Y-69102536D01*
X176457852Y-68904319D01*
X176385167Y-68813175D01*
X176317510Y-68728336D01*
X176317508Y-68728334D01*
X176147996Y-68580235D01*
X175954767Y-68464787D01*
X175954768Y-68464787D01*
X175954766Y-68464786D01*
X175954764Y-68464785D01*
X175895896Y-68442691D01*
X175840050Y-68400706D01*
X175815767Y-68335191D01*
X175830759Y-68266949D01*
X175880265Y-68217645D01*
X175885610Y-68214907D01*
X176053973Y-68133829D01*
X176236078Y-68001522D01*
X176391632Y-67838825D01*
X176515635Y-67650968D01*
X176604103Y-67443988D01*
X176654191Y-67224537D01*
X176664290Y-66999670D01*
X176634075Y-66776613D01*
X176564517Y-66562536D01*
X176457852Y-66364319D01*
X176385167Y-66273175D01*
X176317510Y-66188336D01*
X176286983Y-66161665D01*
X176147996Y-66040235D01*
X175954767Y-65924787D01*
X175954768Y-65924787D01*
X175954766Y-65924786D01*
X175954764Y-65924785D01*
X175895896Y-65902691D01*
X175840050Y-65860706D01*
X175815767Y-65795191D01*
X175830759Y-65726949D01*
X175880265Y-65677645D01*
X175885610Y-65674907D01*
X176053973Y-65593829D01*
X176236078Y-65461522D01*
X176391632Y-65298825D01*
X176515635Y-65110968D01*
X176604103Y-64903988D01*
X176654191Y-64684537D01*
X176664290Y-64459670D01*
X176634075Y-64236613D01*
X176564517Y-64022536D01*
X176558524Y-64011400D01*
X176457853Y-63824321D01*
X176457851Y-63824318D01*
X176445981Y-63809434D01*
X176385167Y-63733175D01*
X176317510Y-63648336D01*
X176286983Y-63621665D01*
X176147996Y-63500235D01*
X175954764Y-63384785D01*
X175826413Y-63336614D01*
X175744023Y-63305692D01*
X175522550Y-63265500D01*
X175522547Y-63265500D01*
X175053845Y-63265500D01*
X175015399Y-63268960D01*
X174885813Y-63280622D01*
X174885807Y-63280623D01*
X174668839Y-63340503D01*
X174668826Y-63340508D01*
X174466033Y-63438167D01*
X174466025Y-63438171D01*
X174283927Y-63570473D01*
X174283925Y-63570474D01*
X174128367Y-63733175D01*
X174094134Y-63785036D01*
X174040774Y-63830140D01*
X173971498Y-63839235D01*
X173908303Y-63809434D01*
X173893701Y-63794035D01*
X173777512Y-63648338D01*
X173777509Y-63648335D01*
X173777508Y-63648334D01*
X173607996Y-63500235D01*
X173414767Y-63384787D01*
X173414768Y-63384787D01*
X173414766Y-63384786D01*
X173414764Y-63384785D01*
X173355896Y-63362691D01*
X173300050Y-63320706D01*
X173275767Y-63255191D01*
X173290759Y-63186949D01*
X173340265Y-63137645D01*
X173345610Y-63134907D01*
X173513973Y-63053829D01*
X173696078Y-62921522D01*
X173851632Y-62758825D01*
X173975635Y-62570968D01*
X174002691Y-62507669D01*
X174064100Y-62363995D01*
X174064099Y-62363995D01*
X174064103Y-62363988D01*
X174114191Y-62144537D01*
X174124290Y-61919670D01*
X174094075Y-61696613D01*
X174024517Y-61482536D01*
X173998134Y-61433509D01*
X173917853Y-61284321D01*
X173917851Y-61284318D01*
X173777510Y-61108336D01*
X173777508Y-61108334D01*
X173607996Y-60960235D01*
X173414767Y-60844787D01*
X173414768Y-60844787D01*
X173414766Y-60844786D01*
X173414764Y-60844785D01*
X173355896Y-60822691D01*
X173300050Y-60780706D01*
X173275767Y-60715191D01*
X173290759Y-60646949D01*
X173340265Y-60597645D01*
X173345610Y-60594907D01*
X173513973Y-60513829D01*
X173696078Y-60381522D01*
X173851632Y-60218825D01*
X173885864Y-60166964D01*
X173939221Y-60121861D01*
X174008496Y-60112763D01*
X174071692Y-60142562D01*
X174086297Y-60157963D01*
X174202489Y-60303663D01*
X174202491Y-60303664D01*
X174202492Y-60303666D01*
X174372004Y-60451765D01*
X174565236Y-60567215D01*
X174735969Y-60631292D01*
X174775976Y-60646307D01*
X174997450Y-60686500D01*
X174997453Y-60686500D01*
X175466148Y-60686500D01*
X175466155Y-60686500D01*
X175634188Y-60671377D01*
X175638656Y-60670144D01*
X175851160Y-60611496D01*
X175851162Y-60611495D01*
X175851170Y-60611493D01*
X176053973Y-60513829D01*
X176236078Y-60381522D01*
X176391632Y-60218825D01*
X176515635Y-60030968D01*
X176604103Y-59823988D01*
X176654191Y-59604537D01*
X176664290Y-59379670D01*
X176634075Y-59156613D01*
X176564517Y-58942536D01*
X176553541Y-58922140D01*
X176457853Y-58744321D01*
X176457851Y-58744318D01*
X176317510Y-58568336D01*
X176218834Y-58482125D01*
X176147996Y-58420235D01*
X175954767Y-58304787D01*
X175954768Y-58304787D01*
X175954766Y-58304786D01*
X175954764Y-58304785D01*
X175895896Y-58282691D01*
X175840050Y-58240706D01*
X175815767Y-58175191D01*
X175830759Y-58106949D01*
X175880265Y-58057645D01*
X175885610Y-58054907D01*
X176053973Y-57973829D01*
X176236078Y-57841522D01*
X176391632Y-57678825D01*
X176515635Y-57490968D01*
X176604103Y-57283988D01*
X176654191Y-57064537D01*
X176664290Y-56839670D01*
X176634075Y-56616613D01*
X176564517Y-56402536D01*
X176457852Y-56204319D01*
X176387740Y-56116402D01*
X176317510Y-56028336D01*
X176282558Y-55997799D01*
X176147996Y-55880235D01*
X175954767Y-55764787D01*
X175954768Y-55764787D01*
X175954766Y-55764786D01*
X175954764Y-55764785D01*
X175895896Y-55742691D01*
X175840050Y-55700706D01*
X175815767Y-55635191D01*
X175830759Y-55566949D01*
X175880265Y-55517645D01*
X175885610Y-55514907D01*
X176053973Y-55433829D01*
X176236078Y-55301522D01*
X176391632Y-55138825D01*
X176515635Y-54950968D01*
X176560073Y-54847002D01*
X176604100Y-54743995D01*
X176604099Y-54743995D01*
X176604103Y-54743988D01*
X176654191Y-54524537D01*
X176664290Y-54299670D01*
X176634075Y-54076613D01*
X176564517Y-53862536D01*
X176457852Y-53664319D01*
X176367300Y-53550771D01*
X176317510Y-53488336D01*
X176305016Y-53477420D01*
X176147996Y-53340235D01*
X175954764Y-53224785D01*
X175849394Y-53185239D01*
X175744023Y-53145692D01*
X175693134Y-53136457D01*
X175673188Y-53131088D01*
X174520291Y-52715065D01*
X174474699Y-52686108D01*
X173982803Y-52194212D01*
X173972980Y-52181950D01*
X173972759Y-52182134D01*
X173967786Y-52176122D01*
X173918776Y-52130099D01*
X173915977Y-52127386D01*
X173896477Y-52107885D01*
X173896471Y-52107880D01*
X173893286Y-52105409D01*
X173884434Y-52097848D01*
X173852582Y-52067938D01*
X173852580Y-52067936D01*
X173852577Y-52067935D01*
X173835029Y-52058288D01*
X173818763Y-52047604D01*
X173802932Y-52035324D01*
X173762849Y-52017978D01*
X173752363Y-52012841D01*
X173714094Y-51991803D01*
X173714092Y-51991802D01*
X173694693Y-51986822D01*
X173676281Y-51980518D01*
X173657898Y-51972562D01*
X173657892Y-51972560D01*
X173614760Y-51965729D01*
X173603322Y-51963361D01*
X173561020Y-51952500D01*
X173561019Y-51952500D01*
X173540984Y-51952500D01*
X173521586Y-51950973D01*
X173514162Y-51949797D01*
X173501805Y-51947840D01*
X173501804Y-51947840D01*
X173458325Y-51951950D01*
X173446656Y-51952500D01*
X171278737Y-51952500D01*
X171263120Y-51950776D01*
X171263093Y-51951062D01*
X171255331Y-51950327D01*
X171188144Y-51952439D01*
X171184250Y-51952500D01*
X171156650Y-51952500D01*
X171152962Y-51952965D01*
X171152649Y-51953005D01*
X171141031Y-51953918D01*
X171097373Y-51955290D01*
X171097372Y-51955290D01*
X171078129Y-51960881D01*
X171059079Y-51964825D01*
X171039211Y-51967334D01*
X171039210Y-51967335D01*
X170998600Y-51983413D01*
X170987553Y-51987195D01*
X170945610Y-51999381D01*
X170945609Y-51999382D01*
X170928367Y-52009579D01*
X170910899Y-52018137D01*
X170892269Y-52025513D01*
X170892266Y-52025515D01*
X170856939Y-52051181D01*
X170847180Y-52057592D01*
X170809579Y-52079830D01*
X170795408Y-52094000D01*
X170780623Y-52106628D01*
X170764412Y-52118407D01*
X170736571Y-52152059D01*
X170728711Y-52160696D01*
X169542208Y-53347199D01*
X169529951Y-53357020D01*
X169530134Y-53357241D01*
X169524122Y-53362214D01*
X169478098Y-53411223D01*
X169475391Y-53414016D01*
X169455889Y-53433517D01*
X169455875Y-53433534D01*
X169453407Y-53436715D01*
X169445843Y-53445570D01*
X169415937Y-53477418D01*
X169415936Y-53477420D01*
X169406284Y-53494976D01*
X169395610Y-53511226D01*
X169383329Y-53527061D01*
X169383324Y-53527068D01*
X169365975Y-53567158D01*
X169360838Y-53577644D01*
X169339803Y-53615906D01*
X169334822Y-53635307D01*
X169328521Y-53653710D01*
X169320562Y-53672102D01*
X169320561Y-53672105D01*
X169313728Y-53715243D01*
X169311360Y-53726674D01*
X169300501Y-53768971D01*
X169300500Y-53768982D01*
X169300500Y-53789016D01*
X169298973Y-53808415D01*
X169295840Y-53828194D01*
X169295840Y-53828195D01*
X169299950Y-53871674D01*
X169300500Y-53883343D01*
X169300500Y-54734208D01*
X169280815Y-54801247D01*
X169228011Y-54847002D01*
X169158853Y-54856946D01*
X169095297Y-54827921D01*
X169057523Y-54769143D01*
X169056507Y-54764809D01*
X169056464Y-54764821D01*
X168993905Y-54531344D01*
X168993904Y-54531343D01*
X168993903Y-54531337D01*
X168894035Y-54317171D01*
X168881936Y-54299891D01*
X168758494Y-54123597D01*
X168591402Y-53956506D01*
X168591395Y-53956501D01*
X168397834Y-53820967D01*
X168397830Y-53820965D01*
X168397828Y-53820964D01*
X168183663Y-53721097D01*
X168183659Y-53721096D01*
X168183655Y-53721094D01*
X167955413Y-53659938D01*
X167955403Y-53659936D01*
X167720001Y-53639341D01*
X167719999Y-53639341D01*
X167484596Y-53659936D01*
X167484586Y-53659938D01*
X167256344Y-53721094D01*
X167256335Y-53721098D01*
X167042171Y-53820964D01*
X167042169Y-53820965D01*
X166848597Y-53956505D01*
X166681505Y-54123597D01*
X166571575Y-54280595D01*
X166516998Y-54324220D01*
X166447500Y-54331414D01*
X166385145Y-54299891D01*
X166368425Y-54280595D01*
X166258494Y-54123597D01*
X166091402Y-53956506D01*
X166091395Y-53956501D01*
X165897834Y-53820967D01*
X165897830Y-53820965D01*
X165897828Y-53820964D01*
X165683663Y-53721097D01*
X165683659Y-53721096D01*
X165683655Y-53721094D01*
X165455413Y-53659938D01*
X165455403Y-53659936D01*
X165220001Y-53639341D01*
X165219999Y-53639341D01*
X164984596Y-53659936D01*
X164984586Y-53659938D01*
X164756344Y-53721094D01*
X164756335Y-53721098D01*
X164542171Y-53820964D01*
X164542169Y-53820965D01*
X164348597Y-53956505D01*
X164181505Y-54123597D01*
X164071575Y-54280595D01*
X164016998Y-54324220D01*
X163947500Y-54331414D01*
X163885145Y-54299891D01*
X163868425Y-54280595D01*
X163758494Y-54123597D01*
X163591402Y-53956506D01*
X163591395Y-53956501D01*
X163397834Y-53820967D01*
X163397830Y-53820965D01*
X163397828Y-53820964D01*
X163183663Y-53721097D01*
X163183659Y-53721096D01*
X163183655Y-53721094D01*
X162955413Y-53659938D01*
X162955403Y-53659936D01*
X162720001Y-53639341D01*
X162719999Y-53639341D01*
X162484596Y-53659936D01*
X162484586Y-53659938D01*
X162256344Y-53721094D01*
X162256335Y-53721098D01*
X162042171Y-53820964D01*
X162042169Y-53820965D01*
X161848597Y-53956505D01*
X161681505Y-54123597D01*
X161545965Y-54317169D01*
X161545964Y-54317171D01*
X161446098Y-54531335D01*
X161446094Y-54531344D01*
X161384938Y-54759586D01*
X161384936Y-54759596D01*
X161369500Y-54936032D01*
X161369500Y-55303967D01*
X159070500Y-55303967D01*
X159070499Y-54344992D01*
X159059999Y-54242203D01*
X159004814Y-54075666D01*
X158912712Y-53926344D01*
X158788656Y-53802288D01*
X158695888Y-53745069D01*
X158639336Y-53710187D01*
X158639331Y-53710185D01*
X158637862Y-53709698D01*
X158472797Y-53655001D01*
X158472795Y-53655000D01*
X158370010Y-53644500D01*
X157069998Y-53644500D01*
X157069981Y-53644501D01*
X156967203Y-53655000D01*
X156967200Y-53655001D01*
X156800668Y-53710185D01*
X156800663Y-53710187D01*
X156651342Y-53802289D01*
X156527289Y-53926342D01*
X156435187Y-54075663D01*
X156435185Y-54075668D01*
X156407753Y-54158452D01*
X156380001Y-54242203D01*
X156380001Y-54242204D01*
X156380000Y-54242204D01*
X156369500Y-54344983D01*
X156369500Y-55895001D01*
X124968000Y-55895001D01*
X124968000Y-51432000D01*
X124987685Y-51364961D01*
X125040489Y-51319206D01*
X125092000Y-51308000D01*
X177168000Y-51308000D01*
X177235039Y-51327685D01*
G37*
%TD.AperFunction*%
%TD*%
%TA.AperFunction,Conductor*%
%TO.N,Net-(J2-Pin_2)*%
G36*
X165820815Y-118414484D02*
G01*
X167352324Y-118931704D01*
X167359065Y-118937598D01*
X167360050Y-118945097D01*
X167161939Y-119929584D01*
X167156947Y-119937019D01*
X167154936Y-119938090D01*
X166320971Y-120282550D01*
X166312016Y-120282541D01*
X166305690Y-120276203D01*
X166305627Y-120276046D01*
X166168352Y-119929584D01*
X165639993Y-118596084D01*
X165640131Y-118587132D01*
X165642594Y-118583506D01*
X165808804Y-118417296D01*
X165817076Y-118413870D01*
X165820815Y-118414484D01*
G37*
%TD.AperFunction*%
%TD*%
%TA.AperFunction,Conductor*%
%TO.N,Net-(J2-Pin_2)*%
G36*
X159896309Y-113046929D02*
G01*
X159897703Y-113047620D01*
X161203998Y-113807713D01*
X161209426Y-113814836D01*
X161208227Y-113823710D01*
X161206387Y-113826099D01*
X161041847Y-113990639D01*
X161038433Y-113993009D01*
X159897170Y-114514071D01*
X159888221Y-114514390D01*
X159881668Y-114508287D01*
X159881504Y-114507911D01*
X159594250Y-113815355D01*
X159581153Y-113783779D01*
X159581149Y-113774826D01*
X159881016Y-113053241D01*
X159887354Y-113046918D01*
X159896309Y-113046929D01*
G37*
%TD.AperFunction*%
%TD*%
%TA.AperFunction,Conductor*%
%TO.N,Net-(J2-Pin_2)*%
G36*
X163972570Y-110310331D02*
G01*
X163972775Y-110310699D01*
X164418056Y-111144488D01*
X164418931Y-111153400D01*
X164418056Y-111155512D01*
X163972775Y-111989300D01*
X163965855Y-111994983D01*
X163956943Y-111994108D01*
X163956575Y-111993903D01*
X162725820Y-111278383D01*
X162720390Y-111271262D01*
X162720000Y-111268268D01*
X162720000Y-111031731D01*
X162723427Y-111023458D01*
X162725817Y-111021617D01*
X163956576Y-110306095D01*
X163965449Y-110304901D01*
X163972570Y-110310331D01*
G37*
%TD.AperFunction*%
%TD*%
%TA.AperFunction,Conductor*%
%TO.N,Net-(J2-Pin_2)*%
G36*
X160624956Y-112563175D02*
G01*
X160628212Y-112565472D01*
X160794527Y-112731787D01*
X160797954Y-112740060D01*
X160797275Y-112743987D01*
X160323229Y-114074568D01*
X160317225Y-114081211D01*
X160308281Y-114081662D01*
X160307743Y-114081456D01*
X159583787Y-113782562D01*
X159577448Y-113776237D01*
X159577437Y-113776212D01*
X159278543Y-113052256D01*
X159278554Y-113043301D01*
X159284893Y-113036976D01*
X159285389Y-113036785D01*
X160616014Y-112562724D01*
X160624956Y-112563175D01*
G37*
%TD.AperFunction*%
%TD*%
%TA.AperFunction,Conductor*%
%TO.N,/PG3*%
G36*
X137347239Y-84928369D02*
G01*
X137353562Y-84934709D01*
X137353723Y-84935121D01*
X137778544Y-86086133D01*
X137778194Y-86095081D01*
X137775841Y-86098457D01*
X137609657Y-86264641D01*
X137601384Y-86268068D01*
X137597333Y-86267344D01*
X136446321Y-85842523D01*
X136439746Y-85836444D01*
X136439396Y-85827496D01*
X136439557Y-85827084D01*
X136700238Y-85195387D01*
X136706558Y-85189050D01*
X137338284Y-84928357D01*
X137347239Y-84928369D01*
G37*
%TD.AperFunction*%
%TD*%
%TA.AperFunction,Conductor*%
%TO.N,/PG3*%
G36*
X163629759Y-102493482D02*
G01*
X163630789Y-102494275D01*
X164316212Y-103085417D01*
X164320239Y-103093415D01*
X164320234Y-103095208D01*
X164243070Y-104062073D01*
X164238996Y-104070047D01*
X164230476Y-104072805D01*
X164229739Y-104072722D01*
X162961201Y-103889984D01*
X162954596Y-103886677D01*
X162787440Y-103719521D01*
X162784013Y-103711248D01*
X162786060Y-103704637D01*
X163613496Y-102496522D01*
X163620997Y-102491634D01*
X163629759Y-102493482D01*
G37*
%TD.AperFunction*%
%TD*%
%TA.AperFunction,Conductor*%
%TO.N,/PG0*%
G36*
X127858076Y-121723437D02*
G01*
X127863146Y-121730180D01*
X128207260Y-122945747D01*
X128206216Y-122954641D01*
X128204275Y-122957207D01*
X128037607Y-123123875D01*
X128029334Y-123127302D01*
X128025363Y-123126607D01*
X126661748Y-122634546D01*
X126655129Y-122628515D01*
X126654714Y-122619570D01*
X126655214Y-122618391D01*
X126996845Y-121924265D01*
X127003570Y-121918359D01*
X127004673Y-121918043D01*
X127849243Y-121721970D01*
X127858076Y-121723437D01*
G37*
%TD.AperFunction*%
%TD*%
%TA.AperFunction,Conductor*%
%TO.N,/PG0*%
G36*
X158852252Y-121098541D02*
G01*
X158868939Y-121105431D01*
X159576212Y-121397437D01*
X159582551Y-121403762D01*
X159582562Y-121403787D01*
X159881456Y-122127743D01*
X159881445Y-122136698D01*
X159875106Y-122143023D01*
X159874568Y-122143229D01*
X158543987Y-122617275D01*
X158535043Y-122616824D01*
X158531787Y-122614527D01*
X158365472Y-122448212D01*
X158362045Y-122439939D01*
X158362722Y-122436018D01*
X158836771Y-121105428D01*
X158842774Y-121098788D01*
X158851718Y-121098337D01*
X158852252Y-121098541D01*
G37*
%TD.AperFunction*%
%TD*%
%TA.AperFunction,Conductor*%
%TO.N,+12V*%
G36*
X143335282Y-62339087D02*
G01*
X144106215Y-62657438D01*
X144112552Y-62663761D01*
X144112562Y-62663785D01*
X144430910Y-63434712D01*
X144430901Y-63443667D01*
X144424562Y-63449992D01*
X144423971Y-63450218D01*
X143001978Y-63949304D01*
X142993037Y-63948810D01*
X142989830Y-63946537D01*
X142823462Y-63780169D01*
X142820035Y-63771896D01*
X142820695Y-63768021D01*
X142932237Y-63450218D01*
X143319781Y-62346027D01*
X143325755Y-62339357D01*
X143334696Y-62338863D01*
X143335282Y-62339087D01*
G37*
%TD.AperFunction*%
%TD*%
%TA.AperFunction,Conductor*%
%TO.N,+12V*%
G36*
X146515496Y-58723213D02*
G01*
X146521819Y-58729553D01*
X146521807Y-58738508D01*
X146521630Y-58738913D01*
X146008135Y-59853197D01*
X146001560Y-59859276D01*
X145997509Y-59860000D01*
X145762491Y-59860000D01*
X145754218Y-59856573D01*
X145751865Y-59853197D01*
X145238369Y-58738913D01*
X145238019Y-58729965D01*
X145244098Y-58723390D01*
X145244474Y-58723225D01*
X145875509Y-58460866D01*
X145884461Y-58460855D01*
X146515496Y-58723213D01*
G37*
%TD.AperFunction*%
%TD*%
%TA.AperFunction,Conductor*%
%TO.N,+12V*%
G36*
X145226962Y-61371189D02*
G01*
X145230169Y-61373462D01*
X145396537Y-61539830D01*
X145399964Y-61548103D01*
X145399304Y-61551978D01*
X144900218Y-62973971D01*
X144894244Y-62980642D01*
X144885303Y-62981136D01*
X144884712Y-62980910D01*
X144113785Y-62662562D01*
X144107447Y-62656238D01*
X143789089Y-61885286D01*
X143789098Y-61876332D01*
X143795437Y-61870007D01*
X143796028Y-61869781D01*
X144701511Y-61551978D01*
X145218021Y-61370695D01*
X145226962Y-61371189D01*
G37*
%TD.AperFunction*%
%TD*%
%TA.AperFunction,Conductor*%
%TO.N,+3.3V*%
G36*
X133591634Y-75763077D02*
G01*
X133597959Y-75769417D01*
X133598150Y-75769911D01*
X134053496Y-77032253D01*
X134053080Y-77041198D01*
X134050763Y-77044496D01*
X133884496Y-77210763D01*
X133876223Y-77214190D01*
X133872253Y-77213496D01*
X132609911Y-76758150D01*
X132603291Y-76752119D01*
X132602875Y-76743174D01*
X132603066Y-76742680D01*
X132887437Y-76053788D01*
X132893761Y-76047448D01*
X133582680Y-75763066D01*
X133591634Y-75763077D01*
G37*
%TD.AperFunction*%
%TD*%
%TA.AperFunction,Conductor*%
%TO.N,+3.3V*%
G36*
X148265294Y-81944728D02*
G01*
X148271280Y-81950890D01*
X148419123Y-82305498D01*
X148419144Y-82314452D01*
X148419123Y-82314502D01*
X148271280Y-82669109D01*
X148264933Y-82675427D01*
X148256344Y-82675551D01*
X147627563Y-82437858D01*
X147621036Y-82431727D01*
X147620000Y-82426914D01*
X147620000Y-82193085D01*
X147623427Y-82184812D01*
X147627563Y-82182141D01*
X148256345Y-81944448D01*
X148265294Y-81944728D01*
G37*
%TD.AperFunction*%
%TD*%
%TA.AperFunction,Conductor*%
%TO.N,+12V*%
G36*
X128034308Y-80073807D02*
G01*
X128037607Y-80076124D01*
X128204275Y-80242792D01*
X128207702Y-80251065D01*
X128207260Y-80254252D01*
X127863145Y-81469819D01*
X127857594Y-81476846D01*
X127849241Y-81478029D01*
X127004695Y-81281961D01*
X126997411Y-81276752D01*
X126996844Y-81275731D01*
X126970351Y-81221903D01*
X126655221Y-80581622D01*
X126654643Y-80572688D01*
X126660552Y-80565960D01*
X126661739Y-80565455D01*
X128025363Y-80073392D01*
X128034308Y-80073807D01*
G37*
%TD.AperFunction*%
%TD*%
%TA.AperFunction,Conductor*%
%TO.N,/PG3*%
G36*
X135808263Y-84115854D02*
G01*
X136959278Y-84540676D01*
X136965853Y-84546755D01*
X136966203Y-84555703D01*
X136966042Y-84556115D01*
X136705362Y-85187810D01*
X136699039Y-85194150D01*
X136699010Y-85194162D01*
X136067315Y-85454842D01*
X136058360Y-85454830D01*
X136052037Y-85448490D01*
X136051876Y-85448078D01*
X135627055Y-84297064D01*
X135627405Y-84288118D01*
X135629755Y-84284745D01*
X135795943Y-84118557D01*
X135804215Y-84115131D01*
X135808263Y-84115854D01*
G37*
%TD.AperFunction*%
%TD*%
%TA.AperFunction,Conductor*%
%TO.N,/PG3*%
G36*
X133425075Y-83442627D02*
G01*
X133427372Y-83445883D01*
X134033033Y-84721948D01*
X134033484Y-84730892D01*
X134027480Y-84737535D01*
X134026953Y-84737769D01*
X133303690Y-85038334D01*
X133294736Y-85038344D01*
X133294710Y-85038334D01*
X132571446Y-84737769D01*
X132565121Y-84731430D01*
X132565132Y-84722475D01*
X132565354Y-84721973D01*
X133171028Y-83445882D01*
X133177671Y-83439879D01*
X133181598Y-83439200D01*
X133416802Y-83439200D01*
X133425075Y-83442627D01*
G37*
%TD.AperFunction*%
%TD*%
%TA.AperFunction,Conductor*%
%TO.N,/PG3*%
G36*
X129986353Y-80591463D02*
G01*
X131183262Y-81151845D01*
X131189301Y-81158455D01*
X131190000Y-81162440D01*
X131190000Y-81397559D01*
X131186573Y-81405832D01*
X131183261Y-81408155D01*
X129986353Y-81968536D01*
X129977407Y-81968941D01*
X129971502Y-81964192D01*
X129542952Y-81286252D01*
X129541428Y-81277427D01*
X129542952Y-81273748D01*
X129620012Y-81151844D01*
X129971503Y-80595806D01*
X129978819Y-80590645D01*
X129986353Y-80591463D01*
G37*
%TD.AperFunction*%
%TD*%
%TA.AperFunction,Conductor*%
%TO.N,+5VD*%
G36*
X128034308Y-72453807D02*
G01*
X128037607Y-72456124D01*
X128204275Y-72622792D01*
X128207702Y-72631065D01*
X128207260Y-72634252D01*
X127863145Y-73849819D01*
X127857594Y-73856846D01*
X127849241Y-73858029D01*
X127004695Y-73661961D01*
X126997411Y-73656752D01*
X126996844Y-73655731D01*
X126970351Y-73601903D01*
X126655221Y-72961622D01*
X126654643Y-72952688D01*
X126660552Y-72945960D01*
X126661739Y-72945455D01*
X128025363Y-72453392D01*
X128034308Y-72453807D01*
G37*
%TD.AperFunction*%
%TD*%
%TA.AperFunction,Conductor*%
%TO.N,+5VD*%
G36*
X168876879Y-71646024D02*
G01*
X168877093Y-71646509D01*
X169163133Y-72334710D01*
X169163144Y-72343664D01*
X169163133Y-72343691D01*
X168877093Y-73031891D01*
X168870753Y-73038215D01*
X168861798Y-73038204D01*
X168861314Y-73037990D01*
X167646725Y-72467359D01*
X167640694Y-72460739D01*
X167640000Y-72456769D01*
X167640000Y-72221630D01*
X167643427Y-72213357D01*
X167646722Y-72211041D01*
X168861316Y-71640408D01*
X168870259Y-71639993D01*
X168876879Y-71646024D01*
G37*
%TD.AperFunction*%
%TD*%
%TA.AperFunction,Conductor*%
%TO.N,/PC12*%
G36*
X148330260Y-101921023D02*
G01*
X149578242Y-102372434D01*
X149584855Y-102378470D01*
X149585263Y-102387416D01*
X149585076Y-102387900D01*
X149303762Y-103069411D01*
X149297438Y-103075751D01*
X149297411Y-103075762D01*
X148615900Y-103357076D01*
X148606945Y-103357065D01*
X148600621Y-103350725D01*
X148600442Y-103350264D01*
X148149024Y-102102262D01*
X148149432Y-102093319D01*
X148151750Y-102090015D01*
X148318013Y-101923752D01*
X148326285Y-101920326D01*
X148330260Y-101921023D01*
G37*
%TD.AperFunction*%
%TD*%
%TA.AperFunction,Conductor*%
%TO.N,/PC12*%
G36*
X130393279Y-73438410D02*
G01*
X130398517Y-73444928D01*
X130788901Y-74657510D01*
X130788174Y-74666436D01*
X130786037Y-74669369D01*
X130619420Y-74835986D01*
X130611147Y-74839413D01*
X130607463Y-74838818D01*
X130350979Y-74753703D01*
X129215953Y-74377043D01*
X129209180Y-74371184D01*
X129208533Y-74362253D01*
X129209047Y-74360967D01*
X129536966Y-73664237D01*
X129543589Y-73658211D01*
X129544569Y-73657906D01*
X130384406Y-73437198D01*
X130393279Y-73438410D01*
G37*
%TD.AperFunction*%
%TD*%
%TA.AperFunction,Conductor*%
%TO.N,/PD2*%
G36*
X130398076Y-76003437D02*
G01*
X130403146Y-76010180D01*
X130747260Y-77225747D01*
X130746216Y-77234641D01*
X130744275Y-77237207D01*
X130577607Y-77403875D01*
X130569334Y-77407302D01*
X130565363Y-77406607D01*
X129201748Y-76914546D01*
X129195129Y-76908515D01*
X129194714Y-76899570D01*
X129195214Y-76898391D01*
X129536845Y-76204265D01*
X129543570Y-76198359D01*
X129544673Y-76198043D01*
X130389243Y-76001970D01*
X130398076Y-76003437D01*
G37*
%TD.AperFunction*%
%TD*%
%TA.AperFunction,Conductor*%
%TO.N,/PD2*%
G36*
X144347035Y-101568627D02*
G01*
X144349356Y-101571934D01*
X144912613Y-102773581D01*
X144913021Y-102782527D01*
X144906985Y-102789141D01*
X144906510Y-102789351D01*
X144225691Y-103072333D01*
X144216736Y-103072344D01*
X144216709Y-103072333D01*
X143535889Y-102789351D01*
X143529565Y-102783011D01*
X143529576Y-102774056D01*
X143529773Y-102773608D01*
X144093044Y-101571934D01*
X144099658Y-101565898D01*
X144103638Y-101565200D01*
X144338762Y-101565200D01*
X144347035Y-101568627D01*
G37*
%TD.AperFunction*%
%TD*%
%TA.AperFunction,Conductor*%
%TO.N,/PB8*%
G36*
X174234636Y-53149392D02*
G01*
X175598250Y-53641452D01*
X175604869Y-53647483D01*
X175605284Y-53656428D01*
X175604776Y-53657624D01*
X175263155Y-54351731D01*
X175256428Y-54357640D01*
X175255304Y-54357961D01*
X174410756Y-54554028D01*
X174401922Y-54552561D01*
X174396852Y-54545819D01*
X174052739Y-53330250D01*
X174053783Y-53321358D01*
X174055720Y-53318796D01*
X174222393Y-53152123D01*
X174230665Y-53148697D01*
X174234636Y-53149392D01*
G37*
%TD.AperFunction*%
%TD*%
%TA.AperFunction,Conductor*%
%TO.N,/PB8*%
G36*
X168181746Y-63555703D02*
G01*
X168189323Y-63558436D01*
X169444089Y-64011050D01*
X169450708Y-64017080D01*
X169451124Y-64026025D01*
X169450933Y-64026519D01*
X169166562Y-64715411D01*
X169160237Y-64721751D01*
X169160211Y-64721762D01*
X168471319Y-65006133D01*
X168462365Y-65006122D01*
X168456040Y-64999782D01*
X168455858Y-64999312D01*
X168104778Y-64026025D01*
X168000503Y-63736946D01*
X168000919Y-63728001D01*
X168003233Y-63724706D01*
X168169504Y-63558435D01*
X168177776Y-63555009D01*
X168181746Y-63555703D01*
G37*
%TD.AperFunction*%
%TD*%
%TA.AperFunction,Conductor*%
%TO.N,/PB9*%
G36*
X174411543Y-56697380D02*
G01*
X175255612Y-56894740D01*
X175262887Y-56899961D01*
X175263444Y-56900964D01*
X175604935Y-57594349D01*
X175605516Y-57603285D01*
X175599608Y-57610014D01*
X175598417Y-57610521D01*
X174153634Y-58132931D01*
X174144689Y-58132521D01*
X174138653Y-58125906D01*
X174137956Y-58121928D01*
X174137956Y-57889869D01*
X174138228Y-57887360D01*
X174397499Y-56706275D01*
X174402620Y-56698929D01*
X174411436Y-56697356D01*
X174411543Y-56697380D01*
G37*
%TD.AperFunction*%
%TD*%
%TA.AperFunction,Conductor*%
%TO.N,/PB9*%
G36*
X169399520Y-60705916D02*
G01*
X169400415Y-60706724D01*
X169565916Y-60872225D01*
X169568862Y-60877177D01*
X169865007Y-61877500D01*
X169864069Y-61886405D01*
X169858271Y-61891628D01*
X169170528Y-62176905D01*
X169161573Y-62176910D01*
X169157761Y-62174360D01*
X168632627Y-61647846D01*
X168629211Y-61639569D01*
X168631830Y-61632206D01*
X169383062Y-60707618D01*
X169390938Y-60703359D01*
X169399520Y-60705916D01*
G37*
%TD.AperFunction*%
%TD*%
%TA.AperFunction,Conductor*%
%TO.N,/PD0*%
G36*
X138961198Y-74886919D02*
G01*
X138964496Y-74889236D01*
X139130763Y-75055503D01*
X139134190Y-75063776D01*
X139133496Y-75067746D01*
X138678150Y-76330088D01*
X138672119Y-76336708D01*
X138663174Y-76337124D01*
X138662680Y-76336933D01*
X137973788Y-76052562D01*
X137967448Y-76046237D01*
X137967437Y-76046211D01*
X137683066Y-75357319D01*
X137683077Y-75348365D01*
X137689417Y-75342040D01*
X137689872Y-75341863D01*
X138952253Y-74886503D01*
X138961198Y-74886919D01*
G37*
%TD.AperFunction*%
%TD*%
%TA.AperFunction,Conductor*%
%TO.N,/PD0*%
G36*
X149195294Y-73104728D02*
G01*
X149201280Y-73110890D01*
X149349123Y-73465498D01*
X149349144Y-73474452D01*
X149349123Y-73474502D01*
X149201280Y-73829109D01*
X149194933Y-73835427D01*
X149186344Y-73835551D01*
X148557563Y-73597858D01*
X148551036Y-73591727D01*
X148550000Y-73586914D01*
X148550000Y-73353085D01*
X148553427Y-73344812D01*
X148557563Y-73342141D01*
X149186345Y-73104448D01*
X149195294Y-73104728D01*
G37*
%TD.AperFunction*%
%TD*%
%TA.AperFunction,Conductor*%
%TO.N,/PD1*%
G36*
X140812200Y-75350995D02*
G01*
X140812666Y-75351200D01*
X142027275Y-75921840D01*
X142033306Y-75928460D01*
X142034000Y-75932430D01*
X142034000Y-76167569D01*
X142030573Y-76175842D01*
X142027275Y-76178159D01*
X140812685Y-76748790D01*
X140803740Y-76749206D01*
X140797120Y-76743175D01*
X140796906Y-76742691D01*
X140560954Y-76175000D01*
X140510865Y-76054489D01*
X140510855Y-76045536D01*
X140510866Y-76045510D01*
X140796906Y-75357309D01*
X140803246Y-75350984D01*
X140812200Y-75350995D01*
G37*
%TD.AperFunction*%
%TD*%
%TA.AperFunction,Conductor*%
%TO.N,/PD1*%
G36*
X156884004Y-75929739D02*
G01*
X157466330Y-76111519D01*
X157610877Y-76156641D01*
X157617754Y-76162377D01*
X157618559Y-76171295D01*
X157618211Y-76172261D01*
X157472853Y-76525496D01*
X157466535Y-76531843D01*
X157466500Y-76531858D01*
X157110879Y-76678764D01*
X157101924Y-76678755D01*
X157095766Y-76672803D01*
X156869876Y-76177311D01*
X156868822Y-76172458D01*
X156868822Y-75940908D01*
X156872249Y-75932635D01*
X156880522Y-75929208D01*
X156884004Y-75929739D01*
G37*
%TD.AperFunction*%
%TD*%
M02*
