%TF.GenerationSoftware,KiCad,Pcbnew,7.0.10*%
%TF.CreationDate,2024-02-15T22:38:06-05:00*%
%TF.ProjectId,CANRxPCB,43414e52-7850-4434-922e-6b696361645f,rev?*%
%TF.SameCoordinates,Original*%
%TF.FileFunction,Copper,L1,Top*%
%TF.FilePolarity,Positive*%
%FSLAX46Y46*%
G04 Gerber Fmt 4.6, Leading zero omitted, Abs format (unit mm)*
G04 Created by KiCad (PCBNEW 7.0.10) date 2024-02-15 22:38:06*
%MOMM*%
%LPD*%
G01*
G04 APERTURE LIST*
G04 Aperture macros list*
%AMRoundRect*
0 Rectangle with rounded corners*
0 $1 Rounding radius*
0 $2 $3 $4 $5 $6 $7 $8 $9 X,Y pos of 4 corners*
0 Add a 4 corners polygon primitive as box body*
4,1,4,$2,$3,$4,$5,$6,$7,$8,$9,$2,$3,0*
0 Add four circle primitives for the rounded corners*
1,1,$1+$1,$2,$3*
1,1,$1+$1,$4,$5*
1,1,$1+$1,$6,$7*
1,1,$1+$1,$8,$9*
0 Add four rect primitives between the rounded corners*
20,1,$1+$1,$2,$3,$4,$5,0*
20,1,$1+$1,$4,$5,$6,$7,0*
20,1,$1+$1,$6,$7,$8,$9,0*
20,1,$1+$1,$8,$9,$2,$3,0*%
G04 Aperture macros list end*
%TA.AperFunction,ComponentPad*%
%ADD10C,1.400000*%
%TD*%
%TA.AperFunction,ComponentPad*%
%ADD11O,1.600000X1.600000*%
%TD*%
%TA.AperFunction,ComponentPad*%
%ADD12C,1.600000*%
%TD*%
%TA.AperFunction,ComponentPad*%
%ADD13C,1.524000*%
%TD*%
%TA.AperFunction,ComponentPad*%
%ADD14RoundRect,0.250000X0.600000X0.750000X-0.600000X0.750000X-0.600000X-0.750000X0.600000X-0.750000X0*%
%TD*%
%TA.AperFunction,ComponentPad*%
%ADD15O,1.700000X2.000000*%
%TD*%
%TA.AperFunction,ComponentPad*%
%ADD16R,1.800000X1.500000*%
%TD*%
%TA.AperFunction,ComponentPad*%
%ADD17O,1.800000X1.500000*%
%TD*%
%TA.AperFunction,ComponentPad*%
%ADD18RoundRect,0.250000X0.600000X0.725000X-0.600000X0.725000X-0.600000X-0.725000X0.600000X-0.725000X0*%
%TD*%
%TA.AperFunction,ComponentPad*%
%ADD19O,1.700000X1.950000*%
%TD*%
%TA.AperFunction,ComponentPad*%
%ADD20C,1.701800*%
%TD*%
%TA.AperFunction,ComponentPad*%
%ADD21RoundRect,0.250000X-0.600000X-0.725000X0.600000X-0.725000X0.600000X0.725000X-0.600000X0.725000X0*%
%TD*%
%TA.AperFunction,SMDPad,CuDef*%
%ADD22R,0.977900X0.508000*%
%TD*%
%TA.AperFunction,ComponentPad*%
%ADD23R,1.508000X1.508000*%
%TD*%
%TA.AperFunction,ComponentPad*%
%ADD24C,1.508000*%
%TD*%
%TA.AperFunction,SMDPad,CuDef*%
%ADD25O,1.450000X0.599999*%
%TD*%
%TA.AperFunction,ViaPad*%
%ADD26C,0.800000*%
%TD*%
%TA.AperFunction,Conductor*%
%ADD27C,0.250000*%
%TD*%
G04 APERTURE END LIST*
D10*
%TO.P,C3,1*%
%TO.N,+12VA*%
X150220000Y-57520000D03*
%TO.P,C3,2*%
%TO.N,GND*%
X152720000Y-57520000D03*
%TD*%
D11*
%TO.P,R1,2*%
%TO.N,Net-(J2-Pin_2)*%
X159580000Y-113780000D03*
D12*
%TO.P,R1,1*%
%TO.N,/PG0*%
X159580000Y-121400000D03*
%TD*%
D13*
%TO.P,U3,1,3V3*%
%TO.N,+3.3V*%
X132890000Y-76050000D03*
%TO.P,U3,2,GND*%
%TO.N,GND*%
X135430000Y-76050000D03*
%TO.P,U3,3,CANRx*%
%TO.N,/PD0*%
X137970000Y-76050000D03*
%TO.P,U3,4,CANTx*%
%TO.N,/PD1*%
X140510000Y-76050000D03*
%TD*%
D10*
%TO.P,C2,1*%
%TO.N,+3.3V*%
X127090000Y-60230000D03*
%TO.P,C2,2*%
%TO.N,GND*%
X129590000Y-60230000D03*
%TD*%
%TO.P,C4,1*%
%TO.N,+12V*%
X145880000Y-58460000D03*
%TO.P,C4,2*%
%TO.N,GND*%
X143380000Y-58460000D03*
%TD*%
D14*
%TO.P,J2,1,Pin_1*%
%TO.N,+3.3V*%
X166920000Y-111150000D03*
D15*
%TO.P,J2,2,Pin_2*%
%TO.N,Net-(J2-Pin_2)*%
X164420000Y-111150000D03*
%TD*%
D16*
%TO.P,CN3,1,1*%
%TO.N,/PC6*%
X172720000Y-54356000D03*
D17*
%TO.P,CN3,2,2*%
%TO.N,/PB8*%
X175260000Y-54356000D03*
%TO.P,CN3,3,3*%
%TO.N,/PB15*%
X172720000Y-56896000D03*
%TO.P,CN3,4,4*%
%TO.N,/PB9*%
X175260000Y-56896000D03*
%TO.P,CN3,5,5*%
%TO.N,/PB13*%
X172720000Y-59436000D03*
%TO.P,CN3,6,6*%
%TO.N,unconnected-(CN3-Pad6)*%
X175260000Y-59436000D03*
%TO.P,CN3,7,7*%
%TO.N,/PB12*%
X172720000Y-61976000D03*
%TO.P,CN3,8,8*%
%TO.N,GND*%
X175260000Y-61976000D03*
%TO.P,CN3,9,9*%
%TO.N,/PA15*%
X172720000Y-64516000D03*
%TO.P,CN3,10,10*%
%TO.N,/PA5*%
X175260000Y-64516000D03*
%TO.P,CN3,11,11*%
%TO.N,/PC7*%
X172720000Y-67056000D03*
%TO.P,CN3,12,12*%
%TO.N,/PA6*%
X175260000Y-67056000D03*
%TO.P,CN3,13,13*%
%TO.N,/PB5*%
X172720000Y-69596000D03*
%TO.P,CN3,14,14*%
%TO.N,unconnected-(CN3-Pad14)*%
X175260000Y-69596000D03*
%TO.P,CN3,15,15*%
%TO.N,/PB3*%
X172720000Y-72136000D03*
%TO.P,CN3,16,16*%
%TO.N,/PD14*%
X175260000Y-72136000D03*
%TO.P,CN3,17,17*%
%TO.N,/PA4*%
X172720000Y-74676000D03*
%TO.P,CN3,18,18*%
%TO.N,/PD15*%
X175260000Y-74676000D03*
%TO.P,CN3,19,19*%
%TO.N,/PB4*%
X172720000Y-77216000D03*
%TO.P,CN3,20,20*%
%TO.N,/PF12*%
X175260000Y-77216000D03*
%TD*%
D14*
%TO.P,J3,1,Pin_1*%
%TO.N,Net-(J2-Pin_2)*%
X167160000Y-119935000D03*
D15*
%TO.P,J3,2,Pin_2*%
%TO.N,GND*%
X164660000Y-119935000D03*
%TD*%
D10*
%TO.P,C1,1*%
%TO.N,/PG3*%
X136702800Y-85191600D03*
%TO.P,C1,2*%
%TO.N,GND*%
X136702800Y-87691600D03*
%TD*%
D16*
%TO.P,CN2,1,1*%
%TO.N,/PA3*%
X127000000Y-86360000D03*
D17*
%TO.P,CN2,2,2*%
%TO.N,/PD7*%
X129540000Y-86360000D03*
%TO.P,CN2,3,3*%
%TO.N,/PC0*%
X127000000Y-88900000D03*
%TO.P,CN2,4,4*%
%TO.N,/PD6*%
X129540000Y-88900000D03*
%TO.P,CN2,5,5*%
%TO.N,/PC3*%
X127000000Y-91440000D03*
%TO.P,CN2,6,6*%
%TO.N,/PD5*%
X129540000Y-91440000D03*
%TO.P,CN2,7,7*%
%TO.N,/PF3*%
X127000000Y-93980000D03*
%TO.P,CN2,8,8*%
%TO.N,/PD4*%
X129540000Y-93980000D03*
%TO.P,CN2,9,9*%
%TO.N,/PF5*%
X127000000Y-96520000D03*
%TO.P,CN2,10,10*%
%TO.N,/PD3*%
X129540000Y-96520000D03*
%TO.P,CN2,11,11*%
%TO.N,/PF10*%
X127000000Y-99060000D03*
%TO.P,CN2,12,12*%
%TO.N,GND*%
X129540000Y-99060000D03*
%TO.P,CN2,13,13*%
%TO.N,unconnected-(CN2-Pad13)*%
X127000000Y-101600000D03*
%TO.P,CN2,14,14*%
%TO.N,unconnected-(CN2-Pad14)*%
X129540000Y-101600000D03*
%TO.P,CN2,15,15*%
%TO.N,unconnected-(CN2-Pad15)*%
X127000000Y-104140000D03*
%TO.P,CN2,16,16*%
%TO.N,/PE4*%
X129540000Y-104140000D03*
%TO.P,CN2,17,17*%
%TO.N,/PF2*%
X127000000Y-106680000D03*
%TO.P,CN2,18,18*%
%TO.N,/PE5*%
X129540000Y-106680000D03*
%TO.P,CN2,19,19*%
%TO.N,/PF1*%
X127000000Y-109220000D03*
%TO.P,CN2,20,20*%
%TO.N,/PE6*%
X129540000Y-109220000D03*
%TO.P,CN2,21,21*%
%TO.N,/PF0*%
X127000000Y-111760000D03*
%TO.P,CN2,22,22*%
%TO.N,/PE3*%
X129540000Y-111760000D03*
%TO.P,CN2,23,23*%
%TO.N,GND*%
X127000000Y-114300000D03*
%TO.P,CN2,24,24*%
%TO.N,/PF8*%
X129540000Y-114300000D03*
%TO.P,CN2,25,25*%
%TO.N,/PD0*%
X127000000Y-116840000D03*
%TO.P,CN2,26,26*%
%TO.N,/PF7*%
X129540000Y-116840000D03*
%TO.P,CN2,27,27*%
%TO.N,/PD1*%
X127000000Y-119380000D03*
%TO.P,CN2,28,28*%
%TO.N,/PF9*%
X129540000Y-119380000D03*
%TO.P,CN2,29,29*%
%TO.N,/PG0*%
X127000000Y-121920000D03*
%TO.P,CN2,30,30*%
%TO.N,/PG1*%
X129540000Y-121920000D03*
%TD*%
D18*
%TO.P,J5,1,Pin_1*%
%TO.N,+3.3V*%
X166920000Y-95060000D03*
D19*
%TO.P,J5,2,Pin_2*%
%TO.N,GND*%
X164420000Y-95060000D03*
%TO.P,J5,3,Pin_3*%
%TO.N,/PG1*%
X161920000Y-95060000D03*
%TD*%
D13*
%TO.P,U6,1,5V*%
%TO.N,+5VD*%
X169164000Y-72339200D03*
%TO.P,U6,2,GND*%
%TO.N,GND*%
X169164000Y-69799200D03*
%TO.P,U6,3,SQW*%
%TO.N,unconnected-(U6-SQW-Pad3)*%
X169164000Y-67259200D03*
%TO.P,U6,4,SCL*%
%TO.N,/PB8*%
X169164000Y-64719200D03*
%TO.P,U6,5,SCA*%
%TO.N,/PB9*%
X169164000Y-62179200D03*
%TD*%
D20*
%TO.P,U1,1,OUTPUT*%
%TO.N,+12V*%
X144110000Y-62660000D03*
%TO.P,U1,2,GND*%
%TO.N,GND*%
X146650000Y-62660000D03*
%TO.P,U1,3,INPUT*%
%TO.N,+12VA*%
X149190000Y-62660000D03*
%TD*%
D21*
%TO.P,J1,1,Pin_1*%
%TO.N,+12VA*%
X157720000Y-55120000D03*
D19*
%TO.P,J1,2,Pin_2*%
%TO.N,GND*%
X160220000Y-55120000D03*
%TO.P,J1,3,Pin_3*%
%TO.N,/CANH*%
X162720000Y-55120000D03*
%TO.P,J1,4,Pin_4*%
%TO.N,/CANL*%
X165220000Y-55120000D03*
%TO.P,J1,5,Pin_5*%
%TO.N,/PG0*%
X167720000Y-55120000D03*
%TD*%
D12*
%TO.P,R2,1*%
%TO.N,/PG3*%
X133299200Y-85039200D03*
D11*
%TO.P,R2,2*%
%TO.N,GND*%
X133299200Y-92659200D03*
%TD*%
D22*
%TO.P,U4,1,\u002ARESET*%
%TO.N,/PF12*%
X146205250Y-55600001D03*
%TO.P,U4,2,GND*%
%TO.N,GND*%
X146205250Y-54650000D03*
%TO.P,U4,3,NC*%
%TO.N,unconnected-(U4-NC-Pad3)*%
X146205250Y-53699999D03*
%TO.P,U4,4,\u002AMR*%
%TO.N,/PF13*%
X143474750Y-53699999D03*
%TO.P,U4,5,VCC*%
%TO.N,+12VA*%
X143474750Y-55600001D03*
%TD*%
D14*
%TO.P,J4,1,Pin_1*%
%TO.N,+3.3V*%
X166820000Y-103090000D03*
D15*
%TO.P,J4,2,Pin_2*%
%TO.N,/PG3*%
X164320000Y-103090000D03*
%TD*%
D16*
%TO.P,CN1,1,1*%
%TO.N,unconnected-(CN1-Pad1)*%
X127000000Y-63500000D03*
D17*
%TO.P,CN1,2,2*%
%TO.N,/PC8*%
X129540000Y-63500000D03*
%TO.P,CN1,3,3*%
%TO.N,/IOREF*%
X127000000Y-66040000D03*
%TO.P,CN1,4,4*%
%TO.N,/PC9*%
X129540000Y-66040000D03*
%TO.P,CN1,5,5*%
%TO.N,/NRST*%
X127000000Y-68580000D03*
%TO.P,CN1,6,6*%
%TO.N,/PC10*%
X129540000Y-68580000D03*
%TO.P,CN1,7,7*%
%TO.N,+3.3V*%
X127000000Y-71120000D03*
%TO.P,CN1,8,8*%
%TO.N,/PC11*%
X129540000Y-71120000D03*
%TO.P,CN1,9,9*%
%TO.N,+5VD*%
X127000000Y-73660000D03*
%TO.P,CN1,10,10*%
%TO.N,/PC12*%
X129540000Y-73660000D03*
%TO.P,CN1,11,11*%
%TO.N,GND*%
X127000000Y-76200000D03*
%TO.P,CN1,12,12*%
%TO.N,/PD2*%
X129540000Y-76200000D03*
%TO.P,CN1,13,13*%
%TO.N,GND*%
X127000000Y-78740000D03*
%TO.P,CN1,14,14*%
%TO.N,/PG2*%
X129540000Y-78740000D03*
%TO.P,CN1,15,15*%
%TO.N,+12V*%
X127000000Y-81280000D03*
%TO.P,CN1,16,16*%
%TO.N,/PG3*%
X129540000Y-81280000D03*
%TD*%
D16*
%TO.P,CN4,1,1*%
%TO.N,unconnected-(CN4-Pad1)*%
X172720000Y-81280000D03*
D17*
%TO.P,CN4,2,2*%
%TO.N,/PF13*%
X175260000Y-81280000D03*
%TO.P,CN4,3,3*%
%TO.N,GNDA*%
X172720000Y-83820000D03*
%TO.P,CN4,4,4*%
%TO.N,/PE9*%
X175260000Y-83820000D03*
%TO.P,CN4,5,5*%
%TO.N,GND*%
X172720000Y-86360000D03*
%TO.P,CN4,6,6*%
%TO.N,/PE11*%
X175260000Y-86360000D03*
%TO.P,CN4,7,7*%
%TO.N,/PB1*%
X172720000Y-88900000D03*
%TO.P,CN4,8,8*%
%TO.N,/PF14*%
X175260000Y-88900000D03*
%TO.P,CN4,9,9*%
%TO.N,/PC2*%
X172720000Y-91440000D03*
%TO.P,CN4,10,10*%
%TO.N,/PE13*%
X175260000Y-91440000D03*
%TO.P,CN4,11,11*%
%TO.N,/PF4*%
X172720000Y-93980000D03*
%TO.P,CN4,12,12*%
%TO.N,/PF15*%
X175260000Y-93980000D03*
%TO.P,CN4,13,13*%
%TO.N,/PB6*%
X172720000Y-96520000D03*
%TO.P,CN4,14,14*%
%TO.N,/PG14*%
X175260000Y-96520000D03*
%TO.P,CN4,15,15*%
%TO.N,/PB2*%
X172720000Y-99060000D03*
%TO.P,CN4,16,16*%
%TO.N,/PG9*%
X175260000Y-99060000D03*
%TO.P,CN4,17,17*%
%TO.N,GND*%
X172720000Y-101600000D03*
%TO.P,CN4,18,18*%
%TO.N,/PE8*%
X175260000Y-101600000D03*
%TO.P,CN4,19,19*%
%TO.N,/PD13*%
X172720000Y-104140000D03*
%TO.P,CN4,20,20*%
%TO.N,/PE7*%
X175260000Y-104140000D03*
%TO.P,CN4,21,21*%
%TO.N,/PD12*%
X172720000Y-106680000D03*
%TO.P,CN4,22,22*%
%TO.N,GND*%
X175260000Y-106680000D03*
%TO.P,CN4,23,23*%
%TO.N,/PD11*%
X172720000Y-109220000D03*
%TO.P,CN4,24,24*%
%TO.N,/PE10*%
X175260000Y-109220000D03*
%TO.P,CN4,25,25*%
%TO.N,unconnected-(CN4-Pad25)*%
X172720000Y-111760000D03*
%TO.P,CN4,26,26*%
%TO.N,/PE12*%
X175260000Y-111760000D03*
%TO.P,CN4,27,27*%
%TO.N,GND*%
X172720000Y-114300000D03*
%TO.P,CN4,28,28*%
%TO.N,/PE14*%
X175260000Y-114300000D03*
%TO.P,CN4,29,29*%
%TO.N,/PA0*%
X172720000Y-116840000D03*
%TO.P,CN4,30,30*%
%TO.N,/PE15*%
X175260000Y-116840000D03*
%TO.P,CN4,31,31*%
%TO.N,/PB0*%
X172720000Y-119380000D03*
%TO.P,CN4,32,32*%
%TO.N,/PB10*%
X175260000Y-119380000D03*
%TO.P,CN4,33,33*%
%TO.N,/PE0*%
X172720000Y-121920000D03*
%TO.P,CN4,34,34*%
%TO.N,/PB11*%
X175260000Y-121920000D03*
%TD*%
D23*
%TO.P,U5,1,3V*%
%TO.N,+3.3V*%
X154381200Y-103073200D03*
D24*
%TO.P,U5,2,GND*%
%TO.N,GND*%
X151841200Y-103073200D03*
%TO.P,U5,3,CLK*%
%TO.N,/PC12*%
X149301200Y-103073200D03*
%TO.P,U5,4,D0/SO*%
%TO.N,/PC8*%
X146761200Y-103073200D03*
%TO.P,U5,5,CMD/SI*%
%TO.N,/PD2*%
X144221200Y-103073200D03*
%TO.P,U5,6,D3/CS*%
%TO.N,/PC11*%
X141681200Y-103073200D03*
%TO.P,U5,7,DAT1*%
%TO.N,/PC9*%
X139141200Y-103073200D03*
%TO.P,U5,8,DAT2*%
%TO.N,/PC10*%
X136601200Y-103073200D03*
%TO.P,U5,9,DET*%
%TO.N,/PG2*%
X134061200Y-103073200D03*
%TD*%
D25*
%TO.P,U2,1,TXD*%
%TO.N,/PD1*%
X143884999Y-66715000D03*
%TO.P,U2,2,GND*%
%TO.N,GND*%
X143884999Y-67985000D03*
%TO.P,U2,3,VCC*%
%TO.N,+3.3V*%
X143884999Y-69255000D03*
%TO.P,U2,4,RXD*%
%TO.N,/PD0*%
X143884999Y-70525000D03*
%TO.P,U2,5,NC*%
%TO.N,unconnected-(U2-NC-Pad5)*%
X149334998Y-70525000D03*
%TO.P,U2,6,CANL*%
%TO.N,/CANL*%
X149334998Y-69255000D03*
%TO.P,U2,7,CANH*%
%TO.N,/CANH*%
X149334998Y-67985000D03*
%TO.P,U2,8,NC*%
%TO.N,unconnected-(U2-NC-Pad8)*%
X149334998Y-66715000D03*
%TD*%
D26*
%TO.N,GND*%
X148380000Y-54240000D03*
X138440000Y-65430000D03*
%TO.N,+3.3V*%
X148420000Y-82310000D03*
%TO.N,/PD0*%
X149350000Y-73470000D03*
%TO.N,/PD1*%
X157470000Y-76530000D03*
%TD*%
D27*
%TO.N,+12VA*%
X147040000Y-56350000D02*
X149380000Y-56350000D01*
X144224749Y-56350000D02*
X147040000Y-56350000D01*
X147040000Y-56350000D02*
X149190000Y-58500000D01*
X149190000Y-58500000D02*
X149190000Y-62660000D01*
X150610000Y-55120000D02*
X152700000Y-55120000D01*
X152620000Y-55120000D02*
X152700000Y-55120000D01*
X152700000Y-55120000D02*
X157720000Y-55120000D01*
X150220000Y-57520000D02*
X152620000Y-55120000D01*
X149380000Y-56350000D02*
X150610000Y-55120000D01*
X143474750Y-55600001D02*
X144224749Y-56350000D01*
%TO.N,/PF12*%
X146205250Y-55600001D02*
X146215250Y-55590001D01*
X146215250Y-55590001D02*
X149109999Y-55590001D01*
X149109999Y-55590001D02*
X151860800Y-52839200D01*
X174035000Y-76143400D02*
X175209200Y-77317600D01*
X151860800Y-52839200D02*
X173503200Y-52839200D01*
X173503200Y-52839200D02*
X174035000Y-53371000D01*
X174035000Y-53371000D02*
X174035000Y-76143400D01*
X175209200Y-77317600D02*
X175260000Y-77266800D01*
X175260000Y-77266800D02*
X175260000Y-77216000D01*
%TO.N,/PF13*%
X143474750Y-53699999D02*
X144280001Y-53699999D01*
X144280001Y-53699999D02*
X145960800Y-52019200D01*
X145960800Y-52019200D02*
X174650400Y-52019200D01*
X174650400Y-52019200D02*
X176485000Y-53853800D01*
X176485000Y-53853800D02*
X176485000Y-80055000D01*
X176485000Y-80055000D02*
X175260000Y-81280000D01*
%TO.N,GND*%
X147970000Y-54650000D02*
X148380000Y-54240000D01*
X146205250Y-54650000D02*
X147970000Y-54650000D01*
%TO.N,/PG1*%
X161920000Y-95060000D02*
X161150000Y-95060000D01*
X144390800Y-118059200D02*
X132334000Y-118059200D01*
X132334000Y-118059200D02*
X130962400Y-119430800D01*
X161150000Y-95060000D02*
X158000000Y-98210000D01*
X130962400Y-119430800D02*
X130962400Y-120497600D01*
X158000000Y-98210000D02*
X158000000Y-104450000D01*
X158000000Y-104450000D02*
X144390800Y-118059200D01*
X130962400Y-120497600D02*
X129540000Y-121920000D01*
%TO.N,/CANL*%
X149334998Y-69255000D02*
X151085000Y-69255000D01*
X151085000Y-69255000D02*
X165220000Y-55120000D01*
%TO.N,/CANH*%
X149334998Y-67985000D02*
X150983397Y-67985000D01*
X162720000Y-56248397D02*
X162720000Y-55120000D01*
X150983397Y-67985000D02*
X162720000Y-56248397D01*
%TO.N,/PG0*%
X159580000Y-121400000D02*
X161380000Y-121400000D01*
X161380000Y-121400000D02*
X170880000Y-111900000D01*
%TO.N,/PD1*%
X157550000Y-80341118D02*
X157550000Y-76610000D01*
X157550000Y-76610000D02*
X157470000Y-76530000D01*
X143884999Y-66715000D02*
X143923882Y-66715000D01*
X143923882Y-66715000D02*
X157550000Y-80341118D01*
X157550000Y-80341118D02*
X157550000Y-80580000D01*
%TO.N,GND*%
X140995000Y-67985000D02*
X138440000Y-65430000D01*
X143884999Y-67985000D02*
X140995000Y-67985000D01*
%TO.N,/PD0*%
X143884999Y-70525000D02*
X146405000Y-70525000D01*
X146405000Y-70525000D02*
X149350000Y-73470000D01*
%TO.N,GND*%
X169164000Y-69951600D02*
X169062400Y-70053200D01*
X169164000Y-69799200D02*
X169164000Y-69951600D01*
%TO.N,+12V*%
X144194600Y-62204600D02*
X143782199Y-62204600D01*
%TO.N,/PC8*%
X146761200Y-80721200D02*
X129540000Y-63500000D01*
X146761200Y-81460300D02*
X146761200Y-103073200D01*
X146761200Y-81460300D02*
X146761200Y-80721200D01*
%TO.N,/PC9*%
X139141200Y-75641200D02*
X139141200Y-103073200D01*
X129540000Y-66040000D02*
X139141200Y-75641200D01*
%TO.N,/PC10*%
X136601200Y-103073200D02*
X136601200Y-93370400D01*
X136601200Y-93370400D02*
X135265200Y-92034400D01*
X131060000Y-70100000D02*
X129540000Y-68580000D01*
X135265200Y-83445200D02*
X131060000Y-79240000D01*
X135265200Y-92034400D02*
X135265200Y-83445200D01*
X131060000Y-79240000D02*
X131060000Y-70100000D01*
X136970750Y-103102750D02*
X136956800Y-103088800D01*
%TO.N,/PC11*%
X128270000Y-83419720D02*
X128270000Y-72390000D01*
X141681200Y-103073200D02*
X140157200Y-104597200D01*
X140157200Y-104597200D02*
X134059263Y-104597200D01*
X134059263Y-104597200D02*
X130810000Y-101347937D01*
X130810000Y-85959720D02*
X128270000Y-83419720D01*
X128270000Y-72390000D02*
X129540000Y-71120000D01*
X130810000Y-101347937D02*
X130810000Y-85959720D01*
%TO.N,/PG2*%
X134815200Y-84015200D02*
X134815200Y-102319200D01*
X129540000Y-78740000D02*
X134815200Y-84015200D01*
X134815200Y-102319200D02*
X134061200Y-103073200D01*
%TO.N,/PD0*%
X157010000Y-81130000D02*
X157010000Y-81670000D01*
X128075000Y-115765000D02*
X127000000Y-116840000D01*
X149350000Y-73470000D02*
X157010000Y-81130000D01*
X144618604Y-115765000D02*
X128075000Y-115765000D01*
X157010000Y-81670000D02*
X157010000Y-103373604D01*
X157010000Y-103373604D02*
X144618604Y-115765000D01*
%TO.N,/PD1*%
X128075000Y-118305000D02*
X130795000Y-118305000D01*
X127000000Y-119380000D02*
X128075000Y-118305000D01*
X157550000Y-103470000D02*
X157550000Y-80650000D01*
X130795000Y-118305000D02*
X131840000Y-117260000D01*
X157550000Y-80580000D02*
X157550000Y-80650000D01*
X143760000Y-117260000D02*
X157550000Y-103470000D01*
X131840000Y-117260000D02*
X143760000Y-117260000D01*
%TO.N,/PG0*%
X170880000Y-111900000D02*
X170880000Y-58280000D01*
X170880000Y-58280000D02*
X167720000Y-55120000D01*
%TO.N,/PG1*%
X162640000Y-94869000D02*
X162361000Y-94869000D01*
%TD*%
%TA.AperFunction,Conductor*%
%TO.N,+3.3V*%
G36*
X145555087Y-51327685D02*
G01*
X145600842Y-51380489D01*
X145610786Y-51449647D01*
X145581761Y-51513203D01*
X145575726Y-51519684D01*
X145560213Y-51535196D01*
X145545424Y-51547827D01*
X145529214Y-51559604D01*
X145529211Y-51559607D01*
X145501373Y-51593258D01*
X145493511Y-51601897D01*
X144178430Y-52916978D01*
X144117107Y-52950463D01*
X144077494Y-52952587D01*
X144071184Y-52951908D01*
X144071183Y-52951908D01*
X144011573Y-52945499D01*
X144011565Y-52945499D01*
X143947805Y-52945499D01*
X143940711Y-52945296D01*
X143924105Y-52944344D01*
X143924096Y-52944344D01*
X143915915Y-52945046D01*
X143905323Y-52945499D01*
X142937929Y-52945499D01*
X142937923Y-52945500D01*
X142878316Y-52951907D01*
X142743471Y-53002201D01*
X142743464Y-53002205D01*
X142628255Y-53088451D01*
X142628252Y-53088454D01*
X142542006Y-53203663D01*
X142542002Y-53203670D01*
X142491710Y-53338512D01*
X142491709Y-53338516D01*
X142485300Y-53398126D01*
X142485300Y-53398133D01*
X142485300Y-53398134D01*
X142485300Y-54001869D01*
X142485301Y-54001875D01*
X142491708Y-54061482D01*
X142542002Y-54196327D01*
X142542006Y-54196334D01*
X142628252Y-54311543D01*
X142628255Y-54311546D01*
X142743464Y-54397792D01*
X142743471Y-54397796D01*
X142878317Y-54448090D01*
X142878316Y-54448090D01*
X142885244Y-54448834D01*
X142937927Y-54454499D01*
X143972731Y-54454498D01*
X143980854Y-54454764D01*
X143981411Y-54454800D01*
X143999132Y-54455964D01*
X144008060Y-54455273D01*
X144021413Y-54453516D01*
X144023141Y-54453289D01*
X144026052Y-54452940D01*
X144071183Y-54448090D01*
X144161347Y-54414459D01*
X144164639Y-54413287D01*
X144197952Y-54401985D01*
X144327793Y-54336041D01*
X144371080Y-54324960D01*
X144370917Y-54323929D01*
X144378616Y-54322708D01*
X144378628Y-54322708D01*
X144397870Y-54317116D01*
X144416913Y-54313173D01*
X144436793Y-54310663D01*
X144477402Y-54294584D01*
X144488445Y-54290802D01*
X144530391Y-54278617D01*
X144547630Y-54268421D01*
X144565104Y-54259861D01*
X144583728Y-54252487D01*
X144583728Y-54252486D01*
X144583733Y-54252485D01*
X144619084Y-54226799D01*
X144628815Y-54220407D01*
X144666421Y-54198169D01*
X144680590Y-54183998D01*
X144695380Y-54171367D01*
X144711588Y-54159593D01*
X144739439Y-54125925D01*
X144747280Y-54117308D01*
X145004121Y-53860467D01*
X145065442Y-53826984D01*
X145135134Y-53831968D01*
X145191067Y-53873840D01*
X145215484Y-53939304D01*
X145215800Y-53948148D01*
X145215800Y-54001868D01*
X145215801Y-54001875D01*
X145222209Y-54061483D01*
X145248385Y-54131667D01*
X145253369Y-54201359D01*
X145248385Y-54218331D01*
X145222210Y-54288511D01*
X145222209Y-54288515D01*
X145222209Y-54288517D01*
X145215800Y-54348127D01*
X145215800Y-54348134D01*
X145215800Y-54348135D01*
X145215800Y-54951870D01*
X145215801Y-54951876D01*
X145222209Y-55011484D01*
X145248385Y-55081668D01*
X145253369Y-55151360D01*
X145248385Y-55168332D01*
X145222210Y-55238512D01*
X145222210Y-55238514D01*
X145222209Y-55238518D01*
X145215800Y-55298128D01*
X145215800Y-55463547D01*
X145215801Y-55600500D01*
X145196117Y-55667539D01*
X145143313Y-55713294D01*
X145091801Y-55724500D01*
X144588199Y-55724500D01*
X144521160Y-55704815D01*
X144475405Y-55652011D01*
X144464199Y-55600500D01*
X144464199Y-55298130D01*
X144464198Y-55298124D01*
X144457791Y-55238517D01*
X144407497Y-55103672D01*
X144407493Y-55103665D01*
X144321247Y-54988456D01*
X144321244Y-54988453D01*
X144206035Y-54902207D01*
X144206028Y-54902203D01*
X144071182Y-54851909D01*
X144071183Y-54851909D01*
X144011583Y-54845502D01*
X144011581Y-54845501D01*
X144011573Y-54845501D01*
X144011564Y-54845501D01*
X142937929Y-54845501D01*
X142937923Y-54845502D01*
X142878316Y-54851909D01*
X142743471Y-54902203D01*
X142743464Y-54902207D01*
X142628255Y-54988453D01*
X142628252Y-54988456D01*
X142542006Y-55103665D01*
X142542002Y-55103672D01*
X142501046Y-55213483D01*
X142491709Y-55238518D01*
X142485300Y-55298128D01*
X142485300Y-55298135D01*
X142485300Y-55298136D01*
X142485300Y-55901871D01*
X142485301Y-55901877D01*
X142491708Y-55961484D01*
X142542002Y-56096329D01*
X142542006Y-56096336D01*
X142628252Y-56211545D01*
X142628255Y-56211548D01*
X142743464Y-56297794D01*
X142743471Y-56297798D01*
X142785987Y-56313655D01*
X142878317Y-56348092D01*
X142937927Y-56354501D01*
X143188029Y-56354500D01*
X143251433Y-56371936D01*
X143511341Y-56526576D01*
X143535618Y-56545459D01*
X143723943Y-56733784D01*
X143733768Y-56746048D01*
X143733989Y-56745866D01*
X143738959Y-56751874D01*
X143787988Y-56797915D01*
X143790785Y-56800626D01*
X143810279Y-56820120D01*
X143813444Y-56822575D01*
X143822320Y-56830156D01*
X143854167Y-56860062D01*
X143854171Y-56860064D01*
X143871722Y-56869713D01*
X143887980Y-56880392D01*
X143903813Y-56892674D01*
X143929049Y-56903594D01*
X143943904Y-56910022D01*
X143954384Y-56915155D01*
X143992657Y-56936197D01*
X144012061Y-56941179D01*
X144030459Y-56947478D01*
X144048854Y-56955438D01*
X144092003Y-56962271D01*
X144103429Y-56964638D01*
X144145730Y-56975500D01*
X144165765Y-56975500D01*
X144185162Y-56977026D01*
X144204945Y-56980160D01*
X144248424Y-56976050D01*
X144260093Y-56975500D01*
X146729548Y-56975500D01*
X146796587Y-56995185D01*
X146817229Y-57011819D01*
X148528181Y-58722771D01*
X148561666Y-58784094D01*
X148564500Y-58810452D01*
X148564500Y-60804424D01*
X148552271Y-60858120D01*
X148026651Y-61952225D01*
X147979877Y-62004129D01*
X147912468Y-62022506D01*
X147845824Y-62001521D01*
X147811074Y-61966354D01*
X147720100Y-61827108D01*
X147720093Y-61827101D01*
X147720093Y-61827099D01*
X147568418Y-61662338D01*
X147568408Y-61662329D01*
X147391682Y-61524777D01*
X147391673Y-61524771D01*
X147194718Y-61418185D01*
X147194715Y-61418184D01*
X147194712Y-61418182D01*
X147194706Y-61418180D01*
X147194704Y-61418179D01*
X146982888Y-61345462D01*
X146761980Y-61308600D01*
X146538020Y-61308600D01*
X146317111Y-61345462D01*
X146105295Y-61418179D01*
X146105281Y-61418185D01*
X145908326Y-61524771D01*
X145908317Y-61524777D01*
X145731591Y-61662329D01*
X145731581Y-61662338D01*
X145579906Y-61827099D01*
X145579898Y-61827110D01*
X145483808Y-61974186D01*
X145430662Y-62019543D01*
X145361430Y-62028966D01*
X145298095Y-61999463D01*
X145276192Y-61974186D01*
X145183880Y-61832894D01*
X145180100Y-61827108D01*
X145180097Y-61827105D01*
X145180093Y-61827099D01*
X145028418Y-61662338D01*
X145028408Y-61662329D01*
X144851682Y-61524777D01*
X144851673Y-61524771D01*
X144654718Y-61418185D01*
X144654715Y-61418184D01*
X144654712Y-61418182D01*
X144654706Y-61418180D01*
X144654704Y-61418179D01*
X144442888Y-61345462D01*
X144221980Y-61308600D01*
X143998020Y-61308600D01*
X143777111Y-61345462D01*
X143565295Y-61418179D01*
X143565281Y-61418185D01*
X143368326Y-61524771D01*
X143368317Y-61524777D01*
X143191591Y-61662329D01*
X143191581Y-61662338D01*
X143039906Y-61827099D01*
X143039898Y-61827110D01*
X142917405Y-62014598D01*
X142827441Y-62219698D01*
X142772463Y-62436800D01*
X142772461Y-62436812D01*
X142753968Y-62659994D01*
X142753968Y-62660005D01*
X142772461Y-62883187D01*
X142772463Y-62883199D01*
X142827441Y-63100301D01*
X142917405Y-63305401D01*
X143039898Y-63492889D01*
X143039906Y-63492900D01*
X143191581Y-63657661D01*
X143191591Y-63657670D01*
X143368317Y-63795222D01*
X143368321Y-63795225D01*
X143368323Y-63795226D01*
X143368326Y-63795228D01*
X143465155Y-63847629D01*
X143565288Y-63901818D01*
X143777114Y-63974538D01*
X143998020Y-64011400D01*
X144221980Y-64011400D01*
X144442886Y-63974538D01*
X144654712Y-63901818D01*
X144851679Y-63795225D01*
X145028415Y-63657665D01*
X145163688Y-63510720D01*
X145180093Y-63492900D01*
X145180094Y-63492898D01*
X145180100Y-63492892D01*
X145270612Y-63354353D01*
X145276192Y-63345813D01*
X145329338Y-63300457D01*
X145398569Y-63291033D01*
X145461905Y-63320535D01*
X145483808Y-63345813D01*
X145579898Y-63492889D01*
X145579906Y-63492900D01*
X145731581Y-63657661D01*
X145731591Y-63657670D01*
X145908317Y-63795222D01*
X145908321Y-63795225D01*
X145908323Y-63795226D01*
X145908326Y-63795228D01*
X146005155Y-63847629D01*
X146105288Y-63901818D01*
X146317114Y-63974538D01*
X146538020Y-64011400D01*
X146761980Y-64011400D01*
X146982886Y-63974538D01*
X147194712Y-63901818D01*
X147391679Y-63795225D01*
X147568415Y-63657665D01*
X147703688Y-63510720D01*
X147720093Y-63492900D01*
X147720094Y-63492898D01*
X147720100Y-63492892D01*
X147810612Y-63354353D01*
X147816192Y-63345813D01*
X147869338Y-63300457D01*
X147938569Y-63291033D01*
X148001905Y-63320535D01*
X148023808Y-63345813D01*
X148119898Y-63492889D01*
X148119906Y-63492900D01*
X148271581Y-63657661D01*
X148271591Y-63657670D01*
X148448317Y-63795222D01*
X148448321Y-63795225D01*
X148448323Y-63795226D01*
X148448326Y-63795228D01*
X148545155Y-63847629D01*
X148645288Y-63901818D01*
X148857114Y-63974538D01*
X149078020Y-64011400D01*
X149301980Y-64011400D01*
X149522886Y-63974538D01*
X149734712Y-63901818D01*
X149931679Y-63795225D01*
X150108415Y-63657665D01*
X150243688Y-63510720D01*
X150260093Y-63492900D01*
X150260094Y-63492898D01*
X150260100Y-63492892D01*
X150382595Y-63305400D01*
X150472558Y-63100303D01*
X150527537Y-62883196D01*
X150527538Y-62883187D01*
X150546032Y-62660005D01*
X150546032Y-62659994D01*
X150527538Y-62436812D01*
X150527536Y-62436800D01*
X150516306Y-62392454D01*
X150472558Y-62219697D01*
X150440490Y-62146589D01*
X150435773Y-62134025D01*
X150426428Y-62104347D01*
X149827729Y-60858122D01*
X149815500Y-60804426D01*
X149815500Y-58815007D01*
X149835185Y-58747968D01*
X149887989Y-58702213D01*
X149957147Y-58692269D01*
X149962261Y-58693114D01*
X150108757Y-58720500D01*
X150108758Y-58720500D01*
X150331241Y-58720500D01*
X150331243Y-58720500D01*
X150549940Y-58679618D01*
X150757401Y-58599247D01*
X150946562Y-58482124D01*
X151110981Y-58332236D01*
X151245058Y-58154689D01*
X151344229Y-57955528D01*
X151344816Y-57953464D01*
X151347751Y-57944470D01*
X151354437Y-57926355D01*
X151396116Y-57870279D01*
X151461497Y-57845638D01*
X151529820Y-57860256D01*
X151579394Y-57909492D01*
X151590032Y-57935357D01*
X151595769Y-57955523D01*
X151595775Y-57955538D01*
X151694938Y-58154683D01*
X151694943Y-58154691D01*
X151829020Y-58332238D01*
X151993437Y-58482123D01*
X151993439Y-58482125D01*
X152182595Y-58599245D01*
X152182596Y-58599245D01*
X152182599Y-58599247D01*
X152390060Y-58679618D01*
X152608757Y-58720500D01*
X152608759Y-58720500D01*
X152831241Y-58720500D01*
X152831243Y-58720500D01*
X153049940Y-58679618D01*
X153257401Y-58599247D01*
X153446562Y-58482124D01*
X153610981Y-58332236D01*
X153745058Y-58154689D01*
X153844229Y-57955528D01*
X153905115Y-57741536D01*
X153925643Y-57520000D01*
X153905115Y-57298464D01*
X153844229Y-57084472D01*
X153808052Y-57011819D01*
X153745061Y-56885316D01*
X153745056Y-56885308D01*
X153610979Y-56707761D01*
X153446562Y-56557876D01*
X153446560Y-56557874D01*
X153257404Y-56440754D01*
X153257398Y-56440752D01*
X153049940Y-56360382D01*
X152831243Y-56319500D01*
X152608757Y-56319500D01*
X152604451Y-56319500D01*
X152537412Y-56299815D01*
X152491657Y-56247011D01*
X152481713Y-56177853D01*
X152510738Y-56114297D01*
X152516770Y-56107819D01*
X152563368Y-56061222D01*
X152842771Y-55781819D01*
X152904094Y-55748334D01*
X152930452Y-55745500D01*
X155789655Y-55745500D01*
X155856694Y-55765185D01*
X155868043Y-55773420D01*
X156051173Y-55922829D01*
X156493236Y-56283493D01*
X156511497Y-56298391D01*
X156521838Y-56308891D01*
X156522181Y-56308549D01*
X156527287Y-56313655D01*
X156527288Y-56313656D01*
X156651344Y-56437712D01*
X156800666Y-56529814D01*
X156967203Y-56584999D01*
X157069991Y-56595500D01*
X158370008Y-56595499D01*
X158472797Y-56584999D01*
X158639334Y-56529814D01*
X158788656Y-56437712D01*
X158912712Y-56313656D01*
X159004814Y-56164334D01*
X159004814Y-56164331D01*
X159008178Y-56158879D01*
X159060126Y-56112154D01*
X159129088Y-56100931D01*
X159193170Y-56128774D01*
X159201398Y-56136294D01*
X159348599Y-56283495D01*
X159440850Y-56348090D01*
X159542165Y-56419032D01*
X159542167Y-56419033D01*
X159542170Y-56419035D01*
X159756337Y-56518903D01*
X159984592Y-56580063D01*
X160161034Y-56595500D01*
X160219999Y-56600659D01*
X160220000Y-56600659D01*
X160220001Y-56600659D01*
X160278966Y-56595500D01*
X160455408Y-56580063D01*
X160683663Y-56518903D01*
X160897829Y-56419035D01*
X161091401Y-56283495D01*
X161258495Y-56116401D01*
X161297132Y-56061220D01*
X161351708Y-56017596D01*
X161421206Y-56010402D01*
X161483561Y-56041924D01*
X161518976Y-56102154D01*
X161520502Y-56109065D01*
X161581060Y-56425898D01*
X161574311Y-56495441D01*
X161546946Y-56536858D01*
X156026360Y-62057444D01*
X155965037Y-62090929D01*
X155895345Y-62085945D01*
X155839412Y-62044073D01*
X155815423Y-61983325D01*
X155798871Y-61832894D01*
X155728469Y-61563601D01*
X155619607Y-61307428D01*
X155474607Y-61069836D01*
X155392122Y-60970720D01*
X155296559Y-60855889D01*
X155296553Y-60855883D01*
X155089255Y-60670144D01*
X154857119Y-60516564D01*
X154857117Y-60516563D01*
X154605091Y-60398418D01*
X154605086Y-60398416D01*
X154605081Y-60398414D01*
X154338560Y-60318229D01*
X154338546Y-60318226D01*
X154219723Y-60300739D01*
X154063172Y-60277700D01*
X153854511Y-60277700D01*
X153854493Y-60277700D01*
X153646399Y-60292932D01*
X153646385Y-60292934D01*
X153374720Y-60353449D01*
X153374713Y-60353452D01*
X153114734Y-60452886D01*
X152872010Y-60589109D01*
X152872008Y-60589110D01*
X152872007Y-60589111D01*
X152817381Y-60631292D01*
X152651694Y-60759231D01*
X152458511Y-60959604D01*
X152458509Y-60959606D01*
X152296552Y-61185980D01*
X152296549Y-61185984D01*
X152169287Y-61433509D01*
X152169278Y-61433531D01*
X152079412Y-61696947D01*
X152079408Y-61696965D01*
X152028852Y-61970674D01*
X152028851Y-61970681D01*
X152018685Y-62248830D01*
X152049128Y-62525501D01*
X152049130Y-62525512D01*
X152102354Y-62729096D01*
X152119531Y-62794799D01*
X152179373Y-62935619D01*
X152209509Y-63006536D01*
X152228393Y-63050972D01*
X152307002Y-63179777D01*
X152373390Y-63288560D01*
X152373397Y-63288569D01*
X152551440Y-63502510D01*
X152551446Y-63502516D01*
X152627299Y-63570480D01*
X152758745Y-63688256D01*
X152990883Y-63841837D01*
X153242909Y-63959982D01*
X153242916Y-63959984D01*
X153242918Y-63959985D01*
X153509439Y-64040170D01*
X153509446Y-64040171D01*
X153509451Y-64040173D01*
X153731039Y-64072783D01*
X153794494Y-64102018D01*
X153832073Y-64160921D01*
X153831842Y-64230790D01*
X153800662Y-64283142D01*
X150760625Y-67323181D01*
X150699302Y-67356666D01*
X150672944Y-67359500D01*
X150524801Y-67359500D01*
X150457762Y-67339815D01*
X150412007Y-67287011D01*
X150402063Y-67217853D01*
X150419807Y-67169528D01*
X150452291Y-67117829D01*
X150485787Y-67064521D01*
X150545366Y-66894255D01*
X150553414Y-66822825D01*
X150565563Y-66715003D01*
X150565563Y-66714996D01*
X150545367Y-66535753D01*
X150545365Y-66535742D01*
X150485787Y-66365479D01*
X150485785Y-66365476D01*
X150481467Y-66358604D01*
X150389814Y-66212739D01*
X150262260Y-66085185D01*
X150217507Y-66057065D01*
X150109522Y-65989213D01*
X150109519Y-65989211D01*
X149939256Y-65929633D01*
X149939245Y-65929631D01*
X149804959Y-65914501D01*
X149804953Y-65914501D01*
X148865043Y-65914501D01*
X148865036Y-65914501D01*
X148730750Y-65929631D01*
X148730739Y-65929633D01*
X148560476Y-65989211D01*
X148560473Y-65989213D01*
X148407735Y-66085185D01*
X148280182Y-66212738D01*
X148184210Y-66365476D01*
X148184208Y-66365479D01*
X148124630Y-66535742D01*
X148124628Y-66535753D01*
X148104433Y-66714996D01*
X148104433Y-66715003D01*
X148124628Y-66894246D01*
X148124630Y-66894257D01*
X148184208Y-67064520D01*
X148184210Y-67064523D01*
X148280182Y-67217261D01*
X148325240Y-67262319D01*
X148358725Y-67323642D01*
X148353741Y-67393334D01*
X148325240Y-67437681D01*
X148280182Y-67482738D01*
X148184210Y-67635476D01*
X148184208Y-67635479D01*
X148124630Y-67805742D01*
X148124628Y-67805753D01*
X148104433Y-67984996D01*
X148104433Y-67985003D01*
X148124628Y-68164246D01*
X148124630Y-68164257D01*
X148184208Y-68334520D01*
X148184210Y-68334523D01*
X148280182Y-68487261D01*
X148325240Y-68532319D01*
X148358725Y-68593642D01*
X148353741Y-68663334D01*
X148325240Y-68707681D01*
X148280182Y-68752738D01*
X148184210Y-68905476D01*
X148184208Y-68905479D01*
X148124630Y-69075742D01*
X148124628Y-69075753D01*
X148104433Y-69254996D01*
X148104433Y-69255003D01*
X148124628Y-69434246D01*
X148124630Y-69434257D01*
X148184208Y-69604520D01*
X148184210Y-69604523D01*
X148280182Y-69757261D01*
X148325240Y-69802319D01*
X148358725Y-69863642D01*
X148353741Y-69933334D01*
X148325240Y-69977681D01*
X148285878Y-70017043D01*
X148224555Y-70050528D01*
X148154863Y-70045544D01*
X148110516Y-70017043D01*
X145122559Y-67029086D01*
X145089074Y-66967763D01*
X145093198Y-66900451D01*
X145095367Y-66894255D01*
X145103415Y-66822825D01*
X145115564Y-66715003D01*
X145115564Y-66714996D01*
X145095368Y-66535753D01*
X145095366Y-66535742D01*
X145035788Y-66365479D01*
X145035786Y-66365476D01*
X145031468Y-66358604D01*
X144939815Y-66212739D01*
X144812261Y-66085185D01*
X144767508Y-66057065D01*
X144659523Y-65989213D01*
X144659520Y-65989211D01*
X144489257Y-65929633D01*
X144489246Y-65929631D01*
X144354960Y-65914501D01*
X144354954Y-65914501D01*
X143415044Y-65914501D01*
X143415037Y-65914501D01*
X143280751Y-65929631D01*
X143280740Y-65929633D01*
X143110477Y-65989211D01*
X143110474Y-65989213D01*
X142957736Y-66085185D01*
X142830183Y-66212738D01*
X142734211Y-66365476D01*
X142734209Y-66365479D01*
X142674631Y-66535742D01*
X142674629Y-66535753D01*
X142654434Y-66714996D01*
X142654434Y-66715003D01*
X142674629Y-66894246D01*
X142674631Y-66894257D01*
X142734209Y-67064520D01*
X142734211Y-67064523D01*
X142800190Y-67169528D01*
X142819190Y-67236765D01*
X142798822Y-67303600D01*
X142745554Y-67348814D01*
X142695196Y-67359500D01*
X141305452Y-67359500D01*
X141238413Y-67339815D01*
X141217771Y-67323181D01*
X139538657Y-65644066D01*
X139513317Y-65607398D01*
X139506521Y-65592342D01*
X139376268Y-65303760D01*
X139274951Y-65079286D01*
X139274936Y-65079255D01*
X139273555Y-65076531D01*
X139269877Y-65067626D01*
X139269821Y-65067652D01*
X139267182Y-65061726D01*
X139267179Y-65061716D01*
X139259579Y-65048552D01*
X139256369Y-65042626D01*
X139254316Y-65038576D01*
X139251207Y-65033651D01*
X139251356Y-65033556D01*
X139248198Y-65028839D01*
X139172534Y-64897785D01*
X139045870Y-64757111D01*
X138892734Y-64645851D01*
X138892729Y-64645848D01*
X138719807Y-64568857D01*
X138719802Y-64568855D01*
X138574001Y-64537865D01*
X138534646Y-64529500D01*
X138345354Y-64529500D01*
X138312897Y-64536398D01*
X138160197Y-64568855D01*
X138160192Y-64568857D01*
X137987270Y-64645848D01*
X137987265Y-64645851D01*
X137834129Y-64757111D01*
X137707466Y-64897785D01*
X137612821Y-65061715D01*
X137612818Y-65061722D01*
X137554327Y-65241740D01*
X137554326Y-65241744D01*
X137534540Y-65430000D01*
X137554326Y-65618256D01*
X137554327Y-65618259D01*
X137612818Y-65798277D01*
X137612821Y-65798284D01*
X137707467Y-65962216D01*
X137792870Y-66057065D01*
X137834129Y-66102888D01*
X137987265Y-66214148D01*
X137987267Y-66214149D01*
X137987270Y-66214151D01*
X138030013Y-66233181D01*
X138052757Y-66243308D01*
X138068898Y-66251977D01*
X138089271Y-66264943D01*
X138089274Y-66264945D01*
X138089278Y-66264946D01*
X138089280Y-66264948D01*
X138617400Y-66503318D01*
X138654067Y-66528657D01*
X140494194Y-68368784D01*
X140504019Y-68381048D01*
X140504240Y-68380866D01*
X140509210Y-68386874D01*
X140558239Y-68432915D01*
X140561036Y-68435626D01*
X140580530Y-68455120D01*
X140583695Y-68457575D01*
X140592571Y-68465156D01*
X140624418Y-68495062D01*
X140624422Y-68495064D01*
X140641973Y-68504713D01*
X140658231Y-68515392D01*
X140674064Y-68527674D01*
X140684799Y-68532319D01*
X140714155Y-68545022D01*
X140724635Y-68550155D01*
X140762908Y-68571197D01*
X140782312Y-68576179D01*
X140800710Y-68582478D01*
X140819105Y-68590438D01*
X140862254Y-68597271D01*
X140873680Y-68599638D01*
X140915981Y-68610500D01*
X140936016Y-68610500D01*
X140955413Y-68612026D01*
X140975196Y-68615160D01*
X141018675Y-68611050D01*
X141030344Y-68610500D01*
X142747664Y-68610500D01*
X142784769Y-68616181D01*
X143189354Y-68743065D01*
X143224636Y-68752161D01*
X143235079Y-68754854D01*
X143245075Y-68757886D01*
X143280746Y-68770368D01*
X143382544Y-68781837D01*
X143415038Y-68785498D01*
X143415041Y-68785499D01*
X143415044Y-68785499D01*
X144354957Y-68785499D01*
X144354958Y-68785498D01*
X144489255Y-68770367D01*
X144659521Y-68710788D01*
X144806430Y-68618479D01*
X144873667Y-68599479D01*
X144940502Y-68619847D01*
X144960083Y-68635792D01*
X145499259Y-69174968D01*
X146012111Y-69687819D01*
X146045596Y-69749142D01*
X146040612Y-69818834D01*
X145998740Y-69874767D01*
X145933276Y-69899184D01*
X145924430Y-69899500D01*
X145022338Y-69899500D01*
X144985232Y-69893818D01*
X144977981Y-69891544D01*
X144580647Y-69766935D01*
X144580648Y-69766935D01*
X144580644Y-69766934D01*
X144580641Y-69766933D01*
X144557385Y-69760937D01*
X144534914Y-69755143D01*
X144524923Y-69752112D01*
X144489258Y-69739633D01*
X144489253Y-69739632D01*
X144354960Y-69724501D01*
X144354954Y-69724501D01*
X143415044Y-69724501D01*
X143415037Y-69724501D01*
X143280751Y-69739631D01*
X143280740Y-69739633D01*
X143110477Y-69799211D01*
X143110474Y-69799213D01*
X142957736Y-69895185D01*
X142830183Y-70022738D01*
X142734211Y-70175476D01*
X142734209Y-70175479D01*
X142674631Y-70345742D01*
X142674629Y-70345753D01*
X142654434Y-70524996D01*
X142654434Y-70525003D01*
X142674629Y-70704246D01*
X142674631Y-70704257D01*
X142734209Y-70874520D01*
X142734211Y-70874523D01*
X142830183Y-71027261D01*
X142957737Y-71154815D01*
X143110477Y-71250788D01*
X143280743Y-71310367D01*
X143280749Y-71310367D01*
X143280751Y-71310368D01*
X143323483Y-71315182D01*
X143415038Y-71325498D01*
X143415041Y-71325499D01*
X143415044Y-71325499D01*
X144354957Y-71325499D01*
X144354958Y-71325498D01*
X144457907Y-71313898D01*
X144489247Y-71310368D01*
X144489247Y-71310367D01*
X144489255Y-71310367D01*
X144545393Y-71290722D01*
X144566452Y-71285371D01*
X144580643Y-71283066D01*
X144985231Y-71156181D01*
X145022337Y-71150500D01*
X146094548Y-71150500D01*
X146161587Y-71170185D01*
X146182228Y-71186818D01*
X147252652Y-72257243D01*
X148251340Y-73255931D01*
X148276680Y-73292599D01*
X148515058Y-73820734D01*
X148516455Y-73823491D01*
X148520123Y-73832371D01*
X148520178Y-73832347D01*
X148522824Y-73838290D01*
X148530421Y-73851450D01*
X148533631Y-73857377D01*
X148535679Y-73861418D01*
X148538792Y-73866348D01*
X148538642Y-73866442D01*
X148541804Y-73871165D01*
X148617466Y-74002214D01*
X148617465Y-74002214D01*
X148744129Y-74142888D01*
X148897265Y-74254148D01*
X148897267Y-74254149D01*
X148897270Y-74254151D01*
X148940013Y-74273181D01*
X148962757Y-74283308D01*
X148978898Y-74291977D01*
X148999271Y-74304943D01*
X148999274Y-74304945D01*
X148999278Y-74304946D01*
X148999280Y-74304948D01*
X149527400Y-74543318D01*
X149564067Y-74568657D01*
X156348181Y-81352771D01*
X156381666Y-81414094D01*
X156384500Y-81440452D01*
X156384500Y-103063151D01*
X156364815Y-103130190D01*
X156348181Y-103150832D01*
X144395832Y-115103181D01*
X144334509Y-115136666D01*
X144308151Y-115139500D01*
X130864652Y-115139500D01*
X130797613Y-115119815D01*
X130751858Y-115067011D01*
X130741914Y-114997853D01*
X130761165Y-114947189D01*
X130795636Y-114894966D01*
X130884100Y-114687995D01*
X130884099Y-114687995D01*
X130884103Y-114687988D01*
X130934191Y-114468537D01*
X130944290Y-114243670D01*
X130914075Y-114020613D01*
X130844517Y-113806536D01*
X130737852Y-113608319D01*
X130665167Y-113517175D01*
X130597510Y-113432336D01*
X130597508Y-113432334D01*
X130427996Y-113284235D01*
X130234767Y-113168787D01*
X130234768Y-113168787D01*
X130234766Y-113168786D01*
X130234764Y-113168785D01*
X130175896Y-113146691D01*
X130120050Y-113104706D01*
X130095767Y-113039191D01*
X130110759Y-112970949D01*
X130160265Y-112921645D01*
X130165610Y-112918907D01*
X130333973Y-112837829D01*
X130516078Y-112705522D01*
X130671632Y-112542825D01*
X130795635Y-112354968D01*
X130816275Y-112306680D01*
X130884100Y-112147995D01*
X130884099Y-112147995D01*
X130884103Y-112147988D01*
X130934191Y-111928537D01*
X130944290Y-111703670D01*
X130914075Y-111480613D01*
X130844517Y-111266536D01*
X130737852Y-111068319D01*
X130636345Y-110941034D01*
X130597510Y-110892336D01*
X130577970Y-110875264D01*
X130427996Y-110744235D01*
X130234767Y-110628787D01*
X130234768Y-110628787D01*
X130234766Y-110628786D01*
X130234764Y-110628785D01*
X130175896Y-110606691D01*
X130120050Y-110564706D01*
X130095767Y-110499191D01*
X130110759Y-110430949D01*
X130160265Y-110381645D01*
X130165610Y-110378907D01*
X130333973Y-110297829D01*
X130516078Y-110165522D01*
X130671632Y-110002825D01*
X130795635Y-109814968D01*
X130884103Y-109607988D01*
X130934191Y-109388537D01*
X130944290Y-109163670D01*
X130914075Y-108940613D01*
X130844517Y-108726536D01*
X130737852Y-108528319D01*
X130665167Y-108437175D01*
X130597510Y-108352336D01*
X130577970Y-108335264D01*
X130427996Y-108204235D01*
X130234767Y-108088787D01*
X130234768Y-108088787D01*
X130234766Y-108088786D01*
X130234764Y-108088785D01*
X130175896Y-108066691D01*
X130120050Y-108024706D01*
X130095767Y-107959191D01*
X130110759Y-107890949D01*
X130160265Y-107841645D01*
X130165610Y-107838907D01*
X130333973Y-107757829D01*
X130516078Y-107625522D01*
X130671632Y-107462825D01*
X130795635Y-107274968D01*
X130884103Y-107067988D01*
X130934191Y-106848537D01*
X130944290Y-106623670D01*
X130914075Y-106400613D01*
X130844517Y-106186536D01*
X130737852Y-105988319D01*
X130665167Y-105897175D01*
X130597510Y-105812336D01*
X130577970Y-105795264D01*
X130427996Y-105664235D01*
X130234767Y-105548787D01*
X130234768Y-105548787D01*
X130234766Y-105548786D01*
X130234764Y-105548785D01*
X130175896Y-105526691D01*
X130120050Y-105484706D01*
X130095767Y-105419191D01*
X130110759Y-105350949D01*
X130160265Y-105301645D01*
X130165610Y-105298907D01*
X130333973Y-105217829D01*
X130516078Y-105085522D01*
X130671632Y-104922825D01*
X130795635Y-104734968D01*
X130815497Y-104688500D01*
X130884100Y-104527995D01*
X130884099Y-104527995D01*
X130884103Y-104527988D01*
X130934191Y-104308537D01*
X130944290Y-104083670D01*
X130914075Y-103860613D01*
X130844517Y-103646536D01*
X130737852Y-103448319D01*
X130665167Y-103357175D01*
X130597510Y-103272336D01*
X130577970Y-103255264D01*
X130427996Y-103124235D01*
X130234767Y-103008787D01*
X130234768Y-103008787D01*
X130234766Y-103008786D01*
X130234764Y-103008785D01*
X130175896Y-102986691D01*
X130120050Y-102944706D01*
X130095767Y-102879191D01*
X130110759Y-102810949D01*
X130160265Y-102761645D01*
X130165610Y-102758907D01*
X130333973Y-102677829D01*
X130516078Y-102545522D01*
X130671632Y-102382825D01*
X130702699Y-102335758D01*
X130756056Y-102290657D01*
X130825331Y-102281560D01*
X130888527Y-102311360D01*
X130893864Y-102316391D01*
X132280314Y-103702842D01*
X133558460Y-104980988D01*
X133568285Y-104993251D01*
X133568506Y-104993069D01*
X133573474Y-104999074D01*
X133622485Y-105045099D01*
X133625284Y-105047812D01*
X133644785Y-105067314D01*
X133644789Y-105067317D01*
X133644792Y-105067320D01*
X133647965Y-105069781D01*
X133656837Y-105077359D01*
X133688681Y-105107262D01*
X133706239Y-105116914D01*
X133722496Y-105127593D01*
X133738327Y-105139873D01*
X133768066Y-105152742D01*
X133778415Y-105157221D01*
X133788904Y-105162360D01*
X133812720Y-105175452D01*
X133827171Y-105183397D01*
X133839786Y-105186635D01*
X133846568Y-105188377D01*
X133864982Y-105194681D01*
X133883367Y-105202638D01*
X133926524Y-105209473D01*
X133937919Y-105211832D01*
X133980244Y-105222700D01*
X134000279Y-105222700D01*
X134019676Y-105224226D01*
X134039459Y-105227360D01*
X134082938Y-105223250D01*
X134094607Y-105222700D01*
X140074457Y-105222700D01*
X140090077Y-105224424D01*
X140090104Y-105224139D01*
X140097860Y-105224871D01*
X140097867Y-105224873D01*
X140165073Y-105222761D01*
X140168968Y-105222700D01*
X140196546Y-105222700D01*
X140196550Y-105222700D01*
X140200524Y-105222197D01*
X140212163Y-105221280D01*
X140255827Y-105219909D01*
X140275069Y-105214317D01*
X140294112Y-105210374D01*
X140313992Y-105207864D01*
X140354601Y-105191785D01*
X140365644Y-105188003D01*
X140407590Y-105175818D01*
X140424829Y-105165622D01*
X140442303Y-105157062D01*
X140460927Y-105149688D01*
X140460927Y-105149687D01*
X140460932Y-105149686D01*
X140496283Y-105124000D01*
X140506014Y-105117608D01*
X140543620Y-105095370D01*
X140557789Y-105081199D01*
X140572579Y-105068568D01*
X140588787Y-105056794D01*
X140616638Y-105023126D01*
X140624479Y-105014509D01*
X140950490Y-104688498D01*
X140995988Y-104659576D01*
X142100424Y-104260087D01*
X142110491Y-104256924D01*
X142111903Y-104256547D01*
X142112722Y-104256164D01*
X142122941Y-104251943D01*
X142130185Y-104249323D01*
X142140423Y-104245494D01*
X142140907Y-104245307D01*
X142200425Y-104217750D01*
X142200427Y-104217748D01*
X142205956Y-104214453D01*
X142206041Y-104214596D01*
X142220827Y-104205754D01*
X142310846Y-104163779D01*
X142490657Y-104037874D01*
X142645874Y-103882657D01*
X142771779Y-103702846D01*
X142838818Y-103559078D01*
X142884990Y-103506639D01*
X142952183Y-103487487D01*
X143019064Y-103507702D01*
X143063582Y-103559079D01*
X143130619Y-103702842D01*
X143130623Y-103702850D01*
X143256522Y-103882652D01*
X143256527Y-103882658D01*
X143411741Y-104037872D01*
X143411747Y-104037877D01*
X143591549Y-104163776D01*
X143591551Y-104163777D01*
X143591554Y-104163779D01*
X143790497Y-104256547D01*
X144002526Y-104313361D01*
X144158721Y-104327026D01*
X144221198Y-104332492D01*
X144221200Y-104332492D01*
X144221202Y-104332492D01*
X144275868Y-104327709D01*
X144439874Y-104313361D01*
X144651903Y-104256547D01*
X144850846Y-104163779D01*
X145030657Y-104037874D01*
X145185874Y-103882657D01*
X145311779Y-103702846D01*
X145378818Y-103559078D01*
X145424990Y-103506639D01*
X145492183Y-103487487D01*
X145559064Y-103507702D01*
X145603582Y-103559079D01*
X145670619Y-103702842D01*
X145670623Y-103702850D01*
X145796522Y-103882652D01*
X145796527Y-103882658D01*
X145951741Y-104037872D01*
X145951747Y-104037877D01*
X146131549Y-104163776D01*
X146131551Y-104163777D01*
X146131554Y-104163779D01*
X146330497Y-104256547D01*
X146542526Y-104313361D01*
X146698721Y-104327026D01*
X146761198Y-104332492D01*
X146761200Y-104332492D01*
X146761202Y-104332492D01*
X146815868Y-104327709D01*
X146979874Y-104313361D01*
X147191903Y-104256547D01*
X147390846Y-104163779D01*
X147570657Y-104037874D01*
X147725874Y-103882657D01*
X147851779Y-103702846D01*
X147918818Y-103559078D01*
X147964990Y-103506639D01*
X148032183Y-103487487D01*
X148099064Y-103507702D01*
X148143582Y-103559079D01*
X148210619Y-103702842D01*
X148210623Y-103702850D01*
X148336522Y-103882652D01*
X148336527Y-103882658D01*
X148491741Y-104037872D01*
X148491747Y-104037877D01*
X148671549Y-104163776D01*
X148671551Y-104163777D01*
X148671554Y-104163779D01*
X148870497Y-104256547D01*
X149082526Y-104313361D01*
X149238721Y-104327026D01*
X149301198Y-104332492D01*
X149301200Y-104332492D01*
X149301202Y-104332492D01*
X149355868Y-104327709D01*
X149519874Y-104313361D01*
X149731903Y-104256547D01*
X149930846Y-104163779D01*
X150110657Y-104037874D01*
X150265874Y-103882657D01*
X150391779Y-103702846D01*
X150458818Y-103559078D01*
X150504990Y-103506639D01*
X150572183Y-103487487D01*
X150639064Y-103507702D01*
X150683582Y-103559079D01*
X150750619Y-103702842D01*
X150750623Y-103702850D01*
X150876522Y-103882652D01*
X150876527Y-103882658D01*
X151031741Y-104037872D01*
X151031747Y-104037877D01*
X151211549Y-104163776D01*
X151211551Y-104163777D01*
X151211554Y-104163779D01*
X151410497Y-104256547D01*
X151622526Y-104313361D01*
X151778721Y-104327026D01*
X151841198Y-104332492D01*
X151841200Y-104332492D01*
X151841202Y-104332492D01*
X151895868Y-104327709D01*
X152059874Y-104313361D01*
X152271903Y-104256547D01*
X152470846Y-104163779D01*
X152650657Y-104037874D01*
X152805874Y-103882657D01*
X152931779Y-103702846D01*
X153024547Y-103503903D01*
X153081361Y-103291874D01*
X153100492Y-103073200D01*
X153081361Y-102854526D01*
X153024547Y-102642497D01*
X152931779Y-102443554D01*
X152931777Y-102443551D01*
X152931776Y-102443549D01*
X152805877Y-102263747D01*
X152805872Y-102263741D01*
X152650658Y-102108527D01*
X152650652Y-102108522D01*
X152470850Y-101982623D01*
X152470842Y-101982619D01*
X152271908Y-101889855D01*
X152271906Y-101889854D01*
X152271903Y-101889853D01*
X152121085Y-101849440D01*
X152059875Y-101833039D01*
X152059868Y-101833038D01*
X151841202Y-101813908D01*
X151841198Y-101813908D01*
X151622531Y-101833038D01*
X151622524Y-101833039D01*
X151500102Y-101865842D01*
X151410497Y-101889853D01*
X151410495Y-101889853D01*
X151410491Y-101889855D01*
X151211557Y-101982619D01*
X151211549Y-101982623D01*
X151031747Y-102108522D01*
X151031741Y-102108527D01*
X150876527Y-102263741D01*
X150876522Y-102263747D01*
X150750623Y-102443549D01*
X150750619Y-102443557D01*
X150683582Y-102587320D01*
X150637410Y-102639760D01*
X150570217Y-102658912D01*
X150503335Y-102638696D01*
X150458818Y-102587320D01*
X150415813Y-102495096D01*
X150391779Y-102443554D01*
X150391777Y-102443551D01*
X150391776Y-102443549D01*
X150265877Y-102263747D01*
X150265872Y-102263741D01*
X150110658Y-102108527D01*
X150110652Y-102108522D01*
X149930850Y-101982623D01*
X149930842Y-101982619D01*
X149731908Y-101889855D01*
X149731906Y-101889854D01*
X149731903Y-101889853D01*
X149581085Y-101849440D01*
X149519875Y-101833039D01*
X149519868Y-101833038D01*
X149301202Y-101813908D01*
X149301198Y-101813908D01*
X149082531Y-101833038D01*
X149082524Y-101833039D01*
X148960102Y-101865842D01*
X148870497Y-101889853D01*
X148870495Y-101889853D01*
X148870491Y-101889855D01*
X148671557Y-101982619D01*
X148671549Y-101982623D01*
X148491747Y-102108522D01*
X148491741Y-102108527D01*
X148336527Y-102263741D01*
X148336522Y-102263747D01*
X148210623Y-102443549D01*
X148210621Y-102443553D01*
X148144429Y-102585503D01*
X148098257Y-102637942D01*
X148031063Y-102657094D01*
X147964182Y-102636878D01*
X147918847Y-102583713D01*
X147913426Y-102569223D01*
X147910325Y-102559034D01*
X147434386Y-101543670D01*
X147398423Y-101466946D01*
X147386700Y-101414317D01*
X147386700Y-80803942D01*
X147388424Y-80788322D01*
X147388139Y-80788295D01*
X147388873Y-80780533D01*
X147386761Y-80713312D01*
X147386700Y-80709418D01*
X147386700Y-80681856D01*
X147386700Y-80681850D01*
X147386196Y-80677868D01*
X147385281Y-80666229D01*
X147383910Y-80622573D01*
X147378319Y-80603330D01*
X147374373Y-80584278D01*
X147371864Y-80564408D01*
X147355779Y-80523783D01*
X147352006Y-80512762D01*
X147339818Y-80470810D01*
X147339817Y-80470809D01*
X147339817Y-80470807D01*
X147339816Y-80470806D01*
X147329623Y-80453571D01*
X147321061Y-80436094D01*
X147313687Y-80417469D01*
X147300615Y-80399477D01*
X147288011Y-80382130D01*
X147281605Y-80372377D01*
X147259370Y-80334780D01*
X147259368Y-80334778D01*
X147259365Y-80334774D01*
X147245206Y-80320615D01*
X147232568Y-80305819D01*
X147229625Y-80301768D01*
X147220794Y-80289613D01*
X147187140Y-80261772D01*
X147178499Y-80253909D01*
X131225284Y-64300693D01*
X131193654Y-64246788D01*
X131112462Y-63959982D01*
X130986609Y-63515410D01*
X130926484Y-63303020D01*
X130922917Y-63285889D01*
X130921677Y-63276733D01*
X130914075Y-63220613D01*
X130844517Y-63006536D01*
X130737852Y-62808319D01*
X130691070Y-62749657D01*
X130597510Y-62632336D01*
X130559187Y-62598854D01*
X130427996Y-62484235D01*
X130234764Y-62368785D01*
X130116775Y-62324503D01*
X130024023Y-62289692D01*
X129802550Y-62249500D01*
X129802547Y-62249500D01*
X129333845Y-62249500D01*
X129295399Y-62252960D01*
X129165813Y-62264622D01*
X129165807Y-62264623D01*
X128948839Y-62324503D01*
X128948826Y-62324508D01*
X128746033Y-62422167D01*
X128746025Y-62422171D01*
X128563927Y-62554473D01*
X128563917Y-62554481D01*
X128554814Y-62564003D01*
X128494257Y-62598854D01*
X128424471Y-62595433D01*
X128367613Y-62554825D01*
X128349008Y-62521642D01*
X128343797Y-62507671D01*
X128343793Y-62507664D01*
X128257547Y-62392455D01*
X128257544Y-62392452D01*
X128142335Y-62306206D01*
X128142328Y-62306202D01*
X128007482Y-62255908D01*
X128007483Y-62255908D01*
X127947883Y-62249501D01*
X127947881Y-62249500D01*
X127947873Y-62249500D01*
X127947864Y-62249500D01*
X126052129Y-62249500D01*
X126052123Y-62249501D01*
X125992516Y-62255908D01*
X125857671Y-62306202D01*
X125857664Y-62306206D01*
X125742455Y-62392452D01*
X125742452Y-62392455D01*
X125656206Y-62507664D01*
X125656202Y-62507671D01*
X125605908Y-62642517D01*
X125599501Y-62702116D01*
X125599500Y-62702135D01*
X125599500Y-64297870D01*
X125599501Y-64297876D01*
X125605908Y-64357483D01*
X125656202Y-64492328D01*
X125656206Y-64492335D01*
X125742452Y-64607544D01*
X125742455Y-64607547D01*
X125857664Y-64693793D01*
X125857671Y-64693797D01*
X125992517Y-64744091D01*
X125992516Y-64744091D01*
X125999444Y-64744835D01*
X126052127Y-64750500D01*
X126115735Y-64750499D01*
X126182772Y-64770183D01*
X126228528Y-64822986D01*
X126238472Y-64892144D01*
X126209448Y-64955700D01*
X126188620Y-64974817D01*
X126023924Y-65094476D01*
X125868366Y-65257176D01*
X125744363Y-65445033D01*
X125655899Y-65652004D01*
X125655895Y-65652017D01*
X125605810Y-65871457D01*
X125605808Y-65871468D01*
X125595710Y-66096325D01*
X125595710Y-66096330D01*
X125625925Y-66319387D01*
X125625926Y-66319390D01*
X125695483Y-66533465D01*
X125802146Y-66731678D01*
X125802148Y-66731681D01*
X125942489Y-66907663D01*
X125942491Y-66907664D01*
X125942492Y-66907666D01*
X126112004Y-67055765D01*
X126305236Y-67171215D01*
X126364102Y-67193307D01*
X126419949Y-67235292D01*
X126444232Y-67300806D01*
X126429241Y-67369049D01*
X126379735Y-67418353D01*
X126374331Y-67421120D01*
X126206033Y-67502167D01*
X126206025Y-67502171D01*
X126023927Y-67634473D01*
X126023925Y-67634474D01*
X125868366Y-67797176D01*
X125744363Y-67985033D01*
X125655899Y-68192004D01*
X125655895Y-68192017D01*
X125605810Y-68411457D01*
X125605808Y-68411468D01*
X125596017Y-68629500D01*
X125595710Y-68636330D01*
X125625925Y-68859387D01*
X125625926Y-68859390D01*
X125695483Y-69073465D01*
X125802146Y-69271678D01*
X125802148Y-69271681D01*
X125942489Y-69447663D01*
X125942491Y-69447664D01*
X125942492Y-69447666D01*
X126112004Y-69595765D01*
X126305236Y-69711215D01*
X126515976Y-69790307D01*
X126737450Y-69830500D01*
X126737453Y-69830500D01*
X127206148Y-69830500D01*
X127206155Y-69830500D01*
X127374188Y-69815377D01*
X127421502Y-69802319D01*
X127591160Y-69755496D01*
X127591162Y-69755495D01*
X127591170Y-69755493D01*
X127793973Y-69657829D01*
X127976078Y-69525522D01*
X128131632Y-69362825D01*
X128165864Y-69310964D01*
X128219221Y-69265861D01*
X128288496Y-69256763D01*
X128351692Y-69286562D01*
X128366297Y-69301963D01*
X128482489Y-69447663D01*
X128482491Y-69447664D01*
X128482492Y-69447666D01*
X128652004Y-69595765D01*
X128845236Y-69711215D01*
X128904102Y-69733307D01*
X128959949Y-69775292D01*
X128984232Y-69840806D01*
X128969241Y-69909049D01*
X128919735Y-69958353D01*
X128914331Y-69961120D01*
X128746033Y-70042167D01*
X128746025Y-70042171D01*
X128563927Y-70174473D01*
X128563925Y-70174474D01*
X128408366Y-70337176D01*
X128284363Y-70525033D01*
X128195899Y-70732004D01*
X128195896Y-70732015D01*
X128147958Y-70942042D01*
X128146378Y-70948225D01*
X127887271Y-71863510D01*
X127858351Y-71914620D01*
X127822099Y-71953223D01*
X127819391Y-71956016D01*
X127799889Y-71975517D01*
X127799875Y-71975534D01*
X127797407Y-71978715D01*
X127789843Y-71987570D01*
X127759937Y-72019418D01*
X127759936Y-72019420D01*
X127750284Y-72036976D01*
X127739610Y-72053226D01*
X127727329Y-72069061D01*
X127727324Y-72069068D01*
X127709975Y-72109158D01*
X127704838Y-72119644D01*
X127683803Y-72157906D01*
X127678822Y-72177307D01*
X127672521Y-72195710D01*
X127664562Y-72214102D01*
X127664561Y-72214105D01*
X127657728Y-72257243D01*
X127655360Y-72268674D01*
X127644501Y-72310971D01*
X127644500Y-72310982D01*
X127644500Y-72331016D01*
X127642845Y-72351209D01*
X127642828Y-72351312D01*
X127612489Y-72414251D01*
X127552939Y-72450796D01*
X127489508Y-72450655D01*
X127489503Y-72450687D01*
X127489326Y-72450655D01*
X127487496Y-72450651D01*
X127484022Y-72449692D01*
X127262550Y-72409500D01*
X127262547Y-72409500D01*
X126793845Y-72409500D01*
X126755399Y-72412960D01*
X126625813Y-72424622D01*
X126625807Y-72424623D01*
X126408839Y-72484503D01*
X126408826Y-72484508D01*
X126206033Y-72582167D01*
X126206025Y-72582171D01*
X126023927Y-72714473D01*
X126023925Y-72714474D01*
X125868366Y-72877176D01*
X125744363Y-73065033D01*
X125655899Y-73272004D01*
X125655895Y-73272017D01*
X125605810Y-73491457D01*
X125605808Y-73491468D01*
X125595710Y-73716325D01*
X125595710Y-73716330D01*
X125625925Y-73939387D01*
X125625926Y-73939390D01*
X125695483Y-74153465D01*
X125802146Y-74351678D01*
X125802148Y-74351681D01*
X125942489Y-74527663D01*
X125942491Y-74527664D01*
X125942492Y-74527666D01*
X126112004Y-74675765D01*
X126305236Y-74791215D01*
X126364102Y-74813307D01*
X126419949Y-74855292D01*
X126444232Y-74920806D01*
X126429241Y-74989049D01*
X126379735Y-75038353D01*
X126374331Y-75041120D01*
X126206033Y-75122167D01*
X126206025Y-75122171D01*
X126023927Y-75254473D01*
X126023925Y-75254474D01*
X125868366Y-75417176D01*
X125744363Y-75605033D01*
X125655899Y-75812004D01*
X125655895Y-75812017D01*
X125605810Y-76031457D01*
X125605808Y-76031468D01*
X125595710Y-76256325D01*
X125595710Y-76256330D01*
X125625925Y-76479387D01*
X125625926Y-76479390D01*
X125695483Y-76693465D01*
X125802146Y-76891678D01*
X125802148Y-76891681D01*
X125942489Y-77067663D01*
X125942491Y-77067664D01*
X125942492Y-77067666D01*
X126112004Y-77215765D01*
X126305236Y-77331215D01*
X126364102Y-77353307D01*
X126419949Y-77395292D01*
X126444232Y-77460806D01*
X126429241Y-77529049D01*
X126379735Y-77578353D01*
X126374331Y-77581120D01*
X126206033Y-77662167D01*
X126206025Y-77662171D01*
X126023927Y-77794473D01*
X126023925Y-77794474D01*
X125868366Y-77957176D01*
X125744363Y-78145033D01*
X125655899Y-78352004D01*
X125655895Y-78352017D01*
X125605810Y-78571457D01*
X125605808Y-78571468D01*
X125602084Y-78654403D01*
X125595710Y-78796330D01*
X125625925Y-79019387D01*
X125625926Y-79019390D01*
X125695483Y-79233465D01*
X125802146Y-79431678D01*
X125802148Y-79431681D01*
X125942489Y-79607663D01*
X125942491Y-79607664D01*
X125942492Y-79607666D01*
X126112004Y-79755765D01*
X126305236Y-79871215D01*
X126364102Y-79893307D01*
X126419949Y-79935292D01*
X126444232Y-80000806D01*
X126429241Y-80069049D01*
X126379735Y-80118353D01*
X126374331Y-80121120D01*
X126206033Y-80202167D01*
X126206025Y-80202171D01*
X126023927Y-80334473D01*
X126023925Y-80334474D01*
X125868366Y-80497176D01*
X125744363Y-80685033D01*
X125655899Y-80892004D01*
X125655895Y-80892017D01*
X125605810Y-81111457D01*
X125605808Y-81111468D01*
X125595710Y-81336325D01*
X125595710Y-81336330D01*
X125625925Y-81559387D01*
X125625926Y-81559390D01*
X125695483Y-81773465D01*
X125802146Y-81971678D01*
X125802148Y-81971681D01*
X125942489Y-82147663D01*
X125942491Y-82147664D01*
X125942492Y-82147666D01*
X126112004Y-82295765D01*
X126305236Y-82411215D01*
X126475969Y-82475292D01*
X126515976Y-82490307D01*
X126737450Y-82530500D01*
X126737453Y-82530500D01*
X127206148Y-82530500D01*
X127206155Y-82530500D01*
X127374188Y-82515377D01*
X127487512Y-82484101D01*
X127557371Y-82485240D01*
X127615525Y-82523968D01*
X127643509Y-82587989D01*
X127644500Y-82603632D01*
X127644500Y-83336975D01*
X127642775Y-83352592D01*
X127643061Y-83352619D01*
X127642326Y-83360385D01*
X127644439Y-83427592D01*
X127644500Y-83431487D01*
X127644500Y-83459077D01*
X127645003Y-83463055D01*
X127645918Y-83474687D01*
X127647290Y-83518344D01*
X127647291Y-83518347D01*
X127652880Y-83537587D01*
X127656824Y-83556631D01*
X127659336Y-83576512D01*
X127675414Y-83617123D01*
X127679197Y-83628172D01*
X127691381Y-83670108D01*
X127701580Y-83687354D01*
X127710138Y-83704823D01*
X127717514Y-83723452D01*
X127743181Y-83758780D01*
X127749593Y-83768541D01*
X127771828Y-83806137D01*
X127771833Y-83806144D01*
X127785990Y-83820300D01*
X127798628Y-83835096D01*
X127810405Y-83851306D01*
X127810406Y-83851307D01*
X127844057Y-83879145D01*
X127852698Y-83887008D01*
X128961169Y-84995479D01*
X128994654Y-85056802D01*
X128989670Y-85126494D01*
X128947798Y-85182427D01*
X128927289Y-85194880D01*
X128746033Y-85282167D01*
X128746025Y-85282171D01*
X128563927Y-85414473D01*
X128563917Y-85414481D01*
X128554814Y-85424003D01*
X128494257Y-85458854D01*
X128424471Y-85455433D01*
X128367613Y-85414825D01*
X128349008Y-85381642D01*
X128343797Y-85367671D01*
X128343793Y-85367664D01*
X128257547Y-85252455D01*
X128257544Y-85252452D01*
X128142335Y-85166206D01*
X128142328Y-85166202D01*
X128007482Y-85115908D01*
X128007483Y-85115908D01*
X127947883Y-85109501D01*
X127947881Y-85109500D01*
X127947873Y-85109500D01*
X127947864Y-85109500D01*
X126052129Y-85109500D01*
X126052123Y-85109501D01*
X125992516Y-85115908D01*
X125857671Y-85166202D01*
X125857664Y-85166206D01*
X125742455Y-85252452D01*
X125742452Y-85252455D01*
X125656206Y-85367664D01*
X125656202Y-85367671D01*
X125605908Y-85502517D01*
X125599501Y-85562116D01*
X125599500Y-85562135D01*
X125599500Y-87157870D01*
X125599501Y-87157876D01*
X125605908Y-87217483D01*
X125656202Y-87352328D01*
X125656206Y-87352335D01*
X125742452Y-87467544D01*
X125742455Y-87467547D01*
X125857664Y-87553793D01*
X125857671Y-87553797D01*
X125992517Y-87604091D01*
X125992516Y-87604091D01*
X125999444Y-87604835D01*
X126052127Y-87610500D01*
X126115735Y-87610499D01*
X126182772Y-87630183D01*
X126228528Y-87682986D01*
X126238472Y-87752144D01*
X126209448Y-87815700D01*
X126188620Y-87834817D01*
X126023924Y-87954476D01*
X125868366Y-88117176D01*
X125744363Y-88305033D01*
X125655899Y-88512004D01*
X125655895Y-88512017D01*
X125605810Y-88731457D01*
X125605808Y-88731468D01*
X125595710Y-88956325D01*
X125595710Y-88956330D01*
X125625925Y-89179387D01*
X125625926Y-89179390D01*
X125695483Y-89393465D01*
X125802146Y-89591678D01*
X125802148Y-89591681D01*
X125942489Y-89767663D01*
X125942491Y-89767664D01*
X125942492Y-89767666D01*
X126112004Y-89915765D01*
X126305236Y-90031215D01*
X126364102Y-90053307D01*
X126419949Y-90095292D01*
X126444232Y-90160806D01*
X126429241Y-90229049D01*
X126379735Y-90278353D01*
X126374331Y-90281120D01*
X126206033Y-90362167D01*
X126206025Y-90362171D01*
X126023927Y-90494473D01*
X126023925Y-90494474D01*
X125868366Y-90657176D01*
X125744363Y-90845033D01*
X125655899Y-91052004D01*
X125655895Y-91052017D01*
X125605810Y-91271457D01*
X125605808Y-91271468D01*
X125598578Y-91432461D01*
X125595710Y-91496330D01*
X125625925Y-91719387D01*
X125625926Y-91719390D01*
X125695483Y-91933465D01*
X125802146Y-92131678D01*
X125802148Y-92131681D01*
X125942489Y-92307663D01*
X125942491Y-92307664D01*
X125942492Y-92307666D01*
X126112004Y-92455765D01*
X126305236Y-92571215D01*
X126364102Y-92593307D01*
X126419949Y-92635292D01*
X126444232Y-92700806D01*
X126429241Y-92769049D01*
X126379735Y-92818353D01*
X126374331Y-92821120D01*
X126206033Y-92902167D01*
X126206025Y-92902171D01*
X126023927Y-93034473D01*
X126023925Y-93034474D01*
X125868366Y-93197176D01*
X125744363Y-93385033D01*
X125655899Y-93592004D01*
X125655895Y-93592017D01*
X125605810Y-93811457D01*
X125605808Y-93811468D01*
X125600769Y-93923674D01*
X125595710Y-94036330D01*
X125625925Y-94259387D01*
X125625926Y-94259390D01*
X125695483Y-94473465D01*
X125802146Y-94671678D01*
X125802148Y-94671681D01*
X125942489Y-94847663D01*
X125942491Y-94847664D01*
X125942492Y-94847666D01*
X126112004Y-94995765D01*
X126305236Y-95111215D01*
X126364102Y-95133307D01*
X126419949Y-95175292D01*
X126444232Y-95240806D01*
X126429241Y-95309049D01*
X126379735Y-95358353D01*
X126374331Y-95361120D01*
X126206033Y-95442167D01*
X126206025Y-95442171D01*
X126023927Y-95574473D01*
X126023925Y-95574474D01*
X125868366Y-95737176D01*
X125744363Y-95925033D01*
X125655899Y-96132004D01*
X125655895Y-96132017D01*
X125605810Y-96351457D01*
X125605808Y-96351468D01*
X125598237Y-96520061D01*
X125595710Y-96576330D01*
X125625925Y-96799387D01*
X125625926Y-96799390D01*
X125695483Y-97013465D01*
X125802146Y-97211678D01*
X125802148Y-97211681D01*
X125942489Y-97387663D01*
X125942491Y-97387664D01*
X125942492Y-97387666D01*
X126112004Y-97535765D01*
X126305236Y-97651215D01*
X126364102Y-97673307D01*
X126419949Y-97715292D01*
X126444232Y-97780806D01*
X126429241Y-97849049D01*
X126379735Y-97898353D01*
X126374331Y-97901120D01*
X126206033Y-97982167D01*
X126206025Y-97982171D01*
X126023927Y-98114473D01*
X126023925Y-98114474D01*
X125868366Y-98277176D01*
X125744363Y-98465033D01*
X125655899Y-98672004D01*
X125655895Y-98672017D01*
X125605810Y-98891457D01*
X125605808Y-98891468D01*
X125600769Y-99003674D01*
X125595710Y-99116330D01*
X125625925Y-99339387D01*
X125625926Y-99339390D01*
X125695483Y-99553465D01*
X125802146Y-99751678D01*
X125802148Y-99751681D01*
X125942489Y-99927663D01*
X125942491Y-99927664D01*
X125942492Y-99927666D01*
X126112004Y-100075765D01*
X126305236Y-100191215D01*
X126364102Y-100213307D01*
X126419949Y-100255292D01*
X126444232Y-100320806D01*
X126429241Y-100389049D01*
X126379735Y-100438353D01*
X126374331Y-100441120D01*
X126206033Y-100522167D01*
X126206025Y-100522171D01*
X126023927Y-100654473D01*
X126023925Y-100654474D01*
X125868366Y-100817176D01*
X125744363Y-101005033D01*
X125655899Y-101212004D01*
X125655895Y-101212017D01*
X125605810Y-101431457D01*
X125605808Y-101431468D01*
X125595710Y-101656325D01*
X125595710Y-101656330D01*
X125625925Y-101879387D01*
X125625926Y-101879390D01*
X125695483Y-102093465D01*
X125802146Y-102291678D01*
X125802148Y-102291681D01*
X125942489Y-102467663D01*
X125942491Y-102467664D01*
X125942492Y-102467666D01*
X126112004Y-102615765D01*
X126305236Y-102731215D01*
X126364102Y-102753307D01*
X126419949Y-102795292D01*
X126444232Y-102860806D01*
X126429241Y-102929049D01*
X126379735Y-102978353D01*
X126374331Y-102981120D01*
X126206033Y-103062167D01*
X126206025Y-103062171D01*
X126023927Y-103194473D01*
X126023925Y-103194474D01*
X125868366Y-103357176D01*
X125744363Y-103545033D01*
X125655899Y-103752004D01*
X125655895Y-103752017D01*
X125605810Y-103971457D01*
X125605808Y-103971468D01*
X125600769Y-104083674D01*
X125595710Y-104196330D01*
X125625925Y-104419387D01*
X125625926Y-104419390D01*
X125695483Y-104633465D01*
X125802146Y-104831678D01*
X125802148Y-104831681D01*
X125942489Y-105007663D01*
X125942491Y-105007664D01*
X125942492Y-105007666D01*
X126112004Y-105155765D01*
X126305236Y-105271215D01*
X126364102Y-105293307D01*
X126419949Y-105335292D01*
X126444232Y-105400806D01*
X126429241Y-105469049D01*
X126379735Y-105518353D01*
X126374331Y-105521120D01*
X126206033Y-105602167D01*
X126206025Y-105602171D01*
X126023927Y-105734473D01*
X126023925Y-105734474D01*
X125868366Y-105897176D01*
X125744363Y-106085033D01*
X125655899Y-106292004D01*
X125655895Y-106292017D01*
X125605810Y-106511457D01*
X125605808Y-106511468D01*
X125600769Y-106623674D01*
X125595710Y-106736330D01*
X125625925Y-106959387D01*
X125625926Y-106959390D01*
X125695483Y-107173465D01*
X125802146Y-107371678D01*
X125802148Y-107371681D01*
X125942489Y-107547663D01*
X125942491Y-107547664D01*
X125942492Y-107547666D01*
X126112004Y-107695765D01*
X126305236Y-107811215D01*
X126364102Y-107833307D01*
X126419949Y-107875292D01*
X126444232Y-107940806D01*
X126429241Y-108009049D01*
X126379735Y-108058353D01*
X126374331Y-108061120D01*
X126206033Y-108142167D01*
X126206025Y-108142171D01*
X126023927Y-108274473D01*
X126023925Y-108274474D01*
X125868366Y-108437176D01*
X125744363Y-108625033D01*
X125655899Y-108832004D01*
X125655895Y-108832017D01*
X125605810Y-109051457D01*
X125605808Y-109051468D01*
X125600769Y-109163674D01*
X125595710Y-109276330D01*
X125625925Y-109499387D01*
X125625926Y-109499390D01*
X125695483Y-109713465D01*
X125802146Y-109911678D01*
X125802148Y-109911681D01*
X125942489Y-110087663D01*
X125942491Y-110087664D01*
X125942492Y-110087666D01*
X126112004Y-110235765D01*
X126305236Y-110351215D01*
X126364102Y-110373307D01*
X126419949Y-110415292D01*
X126444232Y-110480806D01*
X126429241Y-110549049D01*
X126379735Y-110598353D01*
X126374331Y-110601120D01*
X126206033Y-110682167D01*
X126206025Y-110682171D01*
X126023927Y-110814473D01*
X126023925Y-110814474D01*
X125868366Y-110977176D01*
X125744363Y-111165033D01*
X125655899Y-111372004D01*
X125655895Y-111372017D01*
X125605810Y-111591457D01*
X125605808Y-111591468D01*
X125598075Y-111763663D01*
X125595710Y-111816330D01*
X125625925Y-112039387D01*
X125625926Y-112039390D01*
X125695483Y-112253465D01*
X125802146Y-112451678D01*
X125802148Y-112451681D01*
X125942489Y-112627663D01*
X125942491Y-112627664D01*
X125942492Y-112627666D01*
X126112004Y-112775765D01*
X126305236Y-112891215D01*
X126364102Y-112913307D01*
X126419949Y-112955292D01*
X126444232Y-113020806D01*
X126429241Y-113089049D01*
X126379735Y-113138353D01*
X126374331Y-113141120D01*
X126206033Y-113222167D01*
X126206025Y-113222171D01*
X126023927Y-113354473D01*
X126023925Y-113354474D01*
X125868366Y-113517176D01*
X125744363Y-113705033D01*
X125655899Y-113912004D01*
X125655895Y-113912017D01*
X125605810Y-114131457D01*
X125605808Y-114131468D01*
X125600769Y-114243674D01*
X125595710Y-114356330D01*
X125625925Y-114579387D01*
X125625926Y-114579390D01*
X125695483Y-114793465D01*
X125802146Y-114991678D01*
X125802148Y-114991681D01*
X125942489Y-115167663D01*
X125942491Y-115167664D01*
X125942492Y-115167666D01*
X126112004Y-115315765D01*
X126305236Y-115431215D01*
X126364102Y-115453307D01*
X126419949Y-115495292D01*
X126444232Y-115560806D01*
X126429241Y-115629049D01*
X126379735Y-115678353D01*
X126374331Y-115681120D01*
X126206033Y-115762167D01*
X126206025Y-115762171D01*
X126023927Y-115894473D01*
X126023925Y-115894474D01*
X125868366Y-116057176D01*
X125744363Y-116245033D01*
X125655899Y-116452004D01*
X125655895Y-116452017D01*
X125605810Y-116671457D01*
X125605808Y-116671468D01*
X125595710Y-116896325D01*
X125595710Y-116896330D01*
X125625925Y-117119387D01*
X125625926Y-117119390D01*
X125695483Y-117333465D01*
X125802146Y-117531678D01*
X125802148Y-117531681D01*
X125942489Y-117707663D01*
X125942491Y-117707664D01*
X125942492Y-117707666D01*
X126112004Y-117855765D01*
X126305236Y-117971215D01*
X126364102Y-117993307D01*
X126419949Y-118035292D01*
X126444232Y-118100806D01*
X126429241Y-118169049D01*
X126379735Y-118218353D01*
X126374331Y-118221120D01*
X126206033Y-118302167D01*
X126206025Y-118302171D01*
X126023927Y-118434473D01*
X126023925Y-118434474D01*
X125868366Y-118597176D01*
X125744363Y-118785033D01*
X125655899Y-118992004D01*
X125655895Y-118992017D01*
X125605810Y-119211457D01*
X125605808Y-119211468D01*
X125600769Y-119323674D01*
X125595710Y-119436330D01*
X125625925Y-119659387D01*
X125625926Y-119659390D01*
X125695483Y-119873465D01*
X125802146Y-120071678D01*
X125802148Y-120071681D01*
X125942489Y-120247663D01*
X125942491Y-120247664D01*
X125942492Y-120247666D01*
X126112004Y-120395765D01*
X126305236Y-120511215D01*
X126364102Y-120533307D01*
X126419949Y-120575292D01*
X126444232Y-120640806D01*
X126429241Y-120709049D01*
X126379735Y-120758353D01*
X126374331Y-120761120D01*
X126206033Y-120842167D01*
X126206025Y-120842171D01*
X126023927Y-120974473D01*
X126023925Y-120974474D01*
X125868366Y-121137176D01*
X125744363Y-121325033D01*
X125655899Y-121532004D01*
X125655895Y-121532017D01*
X125605810Y-121751457D01*
X125605808Y-121751468D01*
X125596328Y-121962560D01*
X125595710Y-121976330D01*
X125625925Y-122199387D01*
X125625926Y-122199390D01*
X125695483Y-122413465D01*
X125802146Y-122611678D01*
X125802148Y-122611681D01*
X125942489Y-122787663D01*
X125942491Y-122787664D01*
X125942492Y-122787666D01*
X126112004Y-122935765D01*
X126305236Y-123051215D01*
X126515976Y-123130307D01*
X126737450Y-123170500D01*
X126737453Y-123170500D01*
X127206148Y-123170500D01*
X127206155Y-123170500D01*
X127374188Y-123155377D01*
X127374192Y-123155376D01*
X127591160Y-123095496D01*
X127591162Y-123095495D01*
X127591170Y-123095493D01*
X127793973Y-122997829D01*
X127976078Y-122865522D01*
X128131632Y-122702825D01*
X128165864Y-122650964D01*
X128219221Y-122605861D01*
X128288496Y-122596763D01*
X128351692Y-122626562D01*
X128366297Y-122641963D01*
X128482489Y-122787663D01*
X128482491Y-122787664D01*
X128482492Y-122787666D01*
X128652004Y-122935765D01*
X128845236Y-123051215D01*
X129055976Y-123130307D01*
X129277450Y-123170500D01*
X129277453Y-123170500D01*
X129746148Y-123170500D01*
X129746155Y-123170500D01*
X129914188Y-123155377D01*
X129914192Y-123155376D01*
X130131160Y-123095496D01*
X130131162Y-123095495D01*
X130131170Y-123095493D01*
X130333973Y-122997829D01*
X130516078Y-122865522D01*
X130671632Y-122702825D01*
X130795635Y-122514968D01*
X130884103Y-122307988D01*
X130932051Y-122097906D01*
X130933630Y-122091729D01*
X130934534Y-122088537D01*
X131193654Y-121173208D01*
X131225282Y-121119307D01*
X131346188Y-120998401D01*
X131358442Y-120988586D01*
X131358259Y-120988364D01*
X131364268Y-120983391D01*
X131364277Y-120983386D01*
X131410349Y-120934322D01*
X131412966Y-120931623D01*
X131421760Y-120922830D01*
X132155885Y-120922830D01*
X132186328Y-121199501D01*
X132186330Y-121199512D01*
X132249374Y-121440659D01*
X132256731Y-121468799D01*
X132312007Y-121598875D01*
X132329742Y-121640609D01*
X132365593Y-121724972D01*
X132444202Y-121853777D01*
X132510590Y-121962560D01*
X132510597Y-121962569D01*
X132688640Y-122176510D01*
X132688646Y-122176516D01*
X132835378Y-122307988D01*
X132895945Y-122362256D01*
X133128083Y-122515837D01*
X133380109Y-122633982D01*
X133380116Y-122633984D01*
X133380118Y-122633985D01*
X133646639Y-122714170D01*
X133646646Y-122714171D01*
X133646651Y-122714173D01*
X133922028Y-122754700D01*
X133922033Y-122754700D01*
X134130687Y-122754700D01*
X134130689Y-122754700D01*
X134130694Y-122754699D01*
X134130706Y-122754699D01*
X134169286Y-122751875D01*
X134338801Y-122739468D01*
X134452355Y-122714173D01*
X134610479Y-122678950D01*
X134610481Y-122678949D01*
X134610486Y-122678948D01*
X134870463Y-122579515D01*
X135113193Y-122443289D01*
X135333501Y-122273172D01*
X135526692Y-122072792D01*
X135688649Y-121846418D01*
X135751088Y-121724972D01*
X135815912Y-121598890D01*
X135815914Y-121598883D01*
X135815919Y-121598875D01*
X135876922Y-121420061D01*
X135905787Y-121335452D01*
X135905787Y-121335448D01*
X135905791Y-121335439D01*
X135956348Y-121061726D01*
X135961424Y-120922830D01*
X152475885Y-120922830D01*
X152506328Y-121199501D01*
X152506330Y-121199512D01*
X152569374Y-121440659D01*
X152576731Y-121468799D01*
X152632007Y-121598875D01*
X152649742Y-121640609D01*
X152685593Y-121724972D01*
X152764202Y-121853777D01*
X152830590Y-121962560D01*
X152830597Y-121962569D01*
X153008640Y-122176510D01*
X153008646Y-122176516D01*
X153155378Y-122307988D01*
X153215945Y-122362256D01*
X153448083Y-122515837D01*
X153700109Y-122633982D01*
X153700116Y-122633984D01*
X153700118Y-122633985D01*
X153966639Y-122714170D01*
X153966646Y-122714171D01*
X153966651Y-122714173D01*
X154242028Y-122754700D01*
X154242033Y-122754700D01*
X154450687Y-122754700D01*
X154450689Y-122754700D01*
X154450694Y-122754699D01*
X154450706Y-122754699D01*
X154489286Y-122751875D01*
X154658801Y-122739468D01*
X154772355Y-122714173D01*
X154930479Y-122678950D01*
X154930481Y-122678949D01*
X154930486Y-122678948D01*
X155190463Y-122579515D01*
X155433193Y-122443289D01*
X155653501Y-122273172D01*
X155846692Y-122072792D01*
X156008649Y-121846418D01*
X156071088Y-121724972D01*
X156135912Y-121598890D01*
X156135914Y-121598883D01*
X156135919Y-121598875D01*
X156196922Y-121420061D01*
X156225787Y-121335452D01*
X156225787Y-121335448D01*
X156225791Y-121335439D01*
X156276348Y-121061726D01*
X156286514Y-120783568D01*
X156256071Y-120506894D01*
X156185669Y-120237601D01*
X156076807Y-119981428D01*
X155931807Y-119743836D01*
X155873866Y-119674213D01*
X155753759Y-119529889D01*
X155753753Y-119529883D01*
X155546455Y-119344144D01*
X155314319Y-119190564D01*
X155314317Y-119190563D01*
X155062291Y-119072418D01*
X155062286Y-119072416D01*
X155062281Y-119072414D01*
X154795760Y-118992229D01*
X154795746Y-118992226D01*
X154676923Y-118974739D01*
X154520372Y-118951700D01*
X154311711Y-118951700D01*
X154311693Y-118951700D01*
X154103599Y-118966932D01*
X154103585Y-118966934D01*
X153831920Y-119027449D01*
X153831913Y-119027452D01*
X153571934Y-119126886D01*
X153329210Y-119263109D01*
X153108894Y-119433231D01*
X152915711Y-119633604D01*
X152915709Y-119633606D01*
X152753752Y-119859980D01*
X152753749Y-119859984D01*
X152626487Y-120107509D01*
X152626478Y-120107531D01*
X152536612Y-120370947D01*
X152536608Y-120370965D01*
X152486052Y-120644674D01*
X152486051Y-120644681D01*
X152475885Y-120922830D01*
X135961424Y-120922830D01*
X135966514Y-120783568D01*
X135936071Y-120506894D01*
X135865669Y-120237601D01*
X135756807Y-119981428D01*
X135611807Y-119743836D01*
X135553866Y-119674213D01*
X135433759Y-119529889D01*
X135433753Y-119529883D01*
X135226455Y-119344144D01*
X134994319Y-119190564D01*
X134994317Y-119190563D01*
X134742291Y-119072418D01*
X134742286Y-119072416D01*
X134742281Y-119072414D01*
X134475760Y-118992229D01*
X134475746Y-118992226D01*
X134356923Y-118974739D01*
X134200372Y-118951700D01*
X133991711Y-118951700D01*
X133991693Y-118951700D01*
X133783599Y-118966932D01*
X133783585Y-118966934D01*
X133511920Y-119027449D01*
X133511913Y-119027452D01*
X133251934Y-119126886D01*
X133009210Y-119263109D01*
X132788894Y-119433231D01*
X132595711Y-119633604D01*
X132595709Y-119633606D01*
X132433752Y-119859980D01*
X132433749Y-119859984D01*
X132306487Y-120107509D01*
X132306478Y-120107531D01*
X132216612Y-120370947D01*
X132216608Y-120370965D01*
X132166052Y-120644674D01*
X132166051Y-120644681D01*
X132155885Y-120922830D01*
X131421760Y-120922830D01*
X131432520Y-120912071D01*
X131434976Y-120908903D01*
X131442556Y-120900027D01*
X131472462Y-120868182D01*
X131482113Y-120850624D01*
X131492796Y-120834361D01*
X131505073Y-120818536D01*
X131522421Y-120778444D01*
X131527551Y-120767971D01*
X131548597Y-120729692D01*
X131553580Y-120710280D01*
X131559881Y-120691880D01*
X131567837Y-120673496D01*
X131574670Y-120630348D01*
X131577033Y-120618938D01*
X131587900Y-120576619D01*
X131587900Y-120556583D01*
X131589427Y-120537182D01*
X131590041Y-120533307D01*
X131592560Y-120517404D01*
X131588450Y-120473924D01*
X131587900Y-120462255D01*
X131587900Y-119741252D01*
X131607585Y-119674213D01*
X131624219Y-119653571D01*
X132556772Y-118721019D01*
X132618095Y-118687534D01*
X132644453Y-118684700D01*
X144308057Y-118684700D01*
X144323677Y-118686424D01*
X144323704Y-118686139D01*
X144331460Y-118686871D01*
X144331467Y-118686873D01*
X144398673Y-118684761D01*
X144402568Y-118684700D01*
X144430146Y-118684700D01*
X144430150Y-118684700D01*
X144434124Y-118684197D01*
X144445763Y-118683280D01*
X144489427Y-118681909D01*
X144508669Y-118676317D01*
X144527712Y-118672374D01*
X144547592Y-118669864D01*
X144588201Y-118653785D01*
X144599244Y-118650003D01*
X144641190Y-118637818D01*
X144658429Y-118627622D01*
X144675903Y-118619062D01*
X144694527Y-118611688D01*
X144694527Y-118611687D01*
X144694532Y-118611686D01*
X144729883Y-118586000D01*
X144739614Y-118579608D01*
X144777220Y-118557370D01*
X144791389Y-118543199D01*
X144806179Y-118530568D01*
X144822387Y-118518794D01*
X144850238Y-118485126D01*
X144858079Y-118476509D01*
X149554587Y-113780001D01*
X158274532Y-113780001D01*
X158294364Y-114006686D01*
X158294366Y-114006697D01*
X158353258Y-114226488D01*
X158353261Y-114226497D01*
X158449431Y-114432732D01*
X158449432Y-114432734D01*
X158579954Y-114619141D01*
X158740858Y-114780045D01*
X158740861Y-114780047D01*
X158927266Y-114910568D01*
X159133504Y-115006739D01*
X159353308Y-115065635D01*
X159515230Y-115079801D01*
X159579998Y-115085468D01*
X159580000Y-115085468D01*
X159580002Y-115085468D01*
X159636673Y-115080509D01*
X159806692Y-115065635D01*
X160026496Y-115006739D01*
X160232734Y-114910568D01*
X160419139Y-114780047D01*
X160580047Y-114619139D01*
X160710568Y-114432734D01*
X160806739Y-114226496D01*
X160865635Y-114006692D01*
X160885468Y-113780000D01*
X160865635Y-113553308D01*
X160806739Y-113333504D01*
X160710568Y-113127266D01*
X160580047Y-112940861D01*
X160580045Y-112940858D01*
X160419141Y-112779954D01*
X160232734Y-112649432D01*
X160232732Y-112649431D01*
X160026497Y-112553261D01*
X160026488Y-112553258D01*
X159806697Y-112494366D01*
X159806693Y-112494365D01*
X159806692Y-112494365D01*
X159806691Y-112494364D01*
X159806686Y-112494364D01*
X159580002Y-112474532D01*
X159579998Y-112474532D01*
X159353313Y-112494364D01*
X159353302Y-112494366D01*
X159133511Y-112553258D01*
X159133502Y-112553261D01*
X158927267Y-112649431D01*
X158927265Y-112649432D01*
X158740858Y-112779954D01*
X158579954Y-112940858D01*
X158449432Y-113127265D01*
X158449431Y-113127267D01*
X158353261Y-113333502D01*
X158353258Y-113333511D01*
X158294366Y-113553302D01*
X158294364Y-113553313D01*
X158274532Y-113779998D01*
X158274532Y-113780001D01*
X149554587Y-113780001D01*
X151975621Y-111358967D01*
X163069500Y-111358967D01*
X163084936Y-111535403D01*
X163084938Y-111535413D01*
X163146094Y-111763655D01*
X163146096Y-111763659D01*
X163146097Y-111763663D01*
X163170654Y-111816325D01*
X163245964Y-111977828D01*
X163245965Y-111977830D01*
X163381505Y-112171402D01*
X163480686Y-112270582D01*
X163548599Y-112338495D01*
X163623247Y-112390764D01*
X163742165Y-112474032D01*
X163742167Y-112474033D01*
X163742170Y-112474035D01*
X163956337Y-112573903D01*
X164184592Y-112635063D01*
X164348827Y-112649432D01*
X164419999Y-112655659D01*
X164420000Y-112655659D01*
X164420001Y-112655659D01*
X164491173Y-112649432D01*
X164655408Y-112635063D01*
X164883663Y-112573903D01*
X165097829Y-112474035D01*
X165291401Y-112338495D01*
X165458495Y-112171401D01*
X165594035Y-111977829D01*
X165693903Y-111763663D01*
X165755063Y-111535408D01*
X165770500Y-111358966D01*
X165770500Y-110941034D01*
X165755063Y-110764592D01*
X165693903Y-110536337D01*
X165594035Y-110322171D01*
X165576990Y-110297827D01*
X165458494Y-110128597D01*
X165291402Y-109961506D01*
X165291395Y-109961501D01*
X165097834Y-109825967D01*
X165097830Y-109825965D01*
X164997688Y-109779268D01*
X164883663Y-109726097D01*
X164883659Y-109726096D01*
X164883655Y-109726094D01*
X164655413Y-109664938D01*
X164655403Y-109664936D01*
X164420001Y-109644341D01*
X164419999Y-109644341D01*
X164184596Y-109664936D01*
X164184586Y-109664938D01*
X163956344Y-109726094D01*
X163956335Y-109726098D01*
X163742171Y-109825964D01*
X163742169Y-109825965D01*
X163548597Y-109961505D01*
X163381505Y-110128597D01*
X163245965Y-110322169D01*
X163245964Y-110322171D01*
X163146098Y-110536335D01*
X163146094Y-110536344D01*
X163084938Y-110764586D01*
X163084936Y-110764596D01*
X163069500Y-110941032D01*
X163069500Y-111358967D01*
X151975621Y-111358967D01*
X158383788Y-104950801D01*
X158396042Y-104940986D01*
X158395859Y-104940764D01*
X158401868Y-104935791D01*
X158401877Y-104935786D01*
X158447949Y-104886722D01*
X158450566Y-104884023D01*
X158470120Y-104864471D01*
X158472576Y-104861303D01*
X158480156Y-104852427D01*
X158510062Y-104820582D01*
X158519713Y-104803024D01*
X158530396Y-104786761D01*
X158542673Y-104770936D01*
X158560021Y-104730844D01*
X158565151Y-104720371D01*
X158586197Y-104682092D01*
X158591180Y-104662680D01*
X158597481Y-104644280D01*
X158605437Y-104625896D01*
X158612270Y-104582748D01*
X158614633Y-104571338D01*
X158625500Y-104529019D01*
X158625500Y-104508983D01*
X158627027Y-104489582D01*
X158630160Y-104469804D01*
X158626050Y-104426324D01*
X158625500Y-104414655D01*
X158625500Y-103298967D01*
X162969500Y-103298967D01*
X162984936Y-103475403D01*
X162984938Y-103475413D01*
X163046094Y-103703655D01*
X163046096Y-103703659D01*
X163046097Y-103703663D01*
X163068639Y-103752004D01*
X163145964Y-103917828D01*
X163145965Y-103917830D01*
X163281505Y-104111402D01*
X163366429Y-104196325D01*
X163448599Y-104278495D01*
X163498393Y-104313361D01*
X163642165Y-104414032D01*
X163642167Y-104414033D01*
X163642170Y-104414035D01*
X163856337Y-104513903D01*
X164084592Y-104575063D01*
X164272918Y-104591539D01*
X164319999Y-104595659D01*
X164320000Y-104595659D01*
X164320001Y-104595659D01*
X164359234Y-104592226D01*
X164555408Y-104575063D01*
X164783663Y-104513903D01*
X164997829Y-104414035D01*
X165191401Y-104278495D01*
X165358495Y-104111401D01*
X165494035Y-103917829D01*
X165593903Y-103703663D01*
X165655063Y-103475408D01*
X165670500Y-103298966D01*
X165670500Y-102881034D01*
X165655063Y-102704592D01*
X165593903Y-102476337D01*
X165494035Y-102262171D01*
X165493036Y-102260743D01*
X165358494Y-102068597D01*
X165191402Y-101901506D01*
X165191395Y-101901501D01*
X165159817Y-101879390D01*
X165093622Y-101833039D01*
X164997834Y-101765967D01*
X164997830Y-101765965D01*
X164997828Y-101765964D01*
X164783663Y-101666097D01*
X164783659Y-101666096D01*
X164783655Y-101666094D01*
X164555413Y-101604938D01*
X164555403Y-101604936D01*
X164320001Y-101584341D01*
X164319999Y-101584341D01*
X164084596Y-101604936D01*
X164084586Y-101604938D01*
X163856344Y-101666094D01*
X163856335Y-101666098D01*
X163642171Y-101765964D01*
X163642169Y-101765965D01*
X163448597Y-101901505D01*
X163281505Y-102068597D01*
X163145965Y-102262169D01*
X163145964Y-102262171D01*
X163046098Y-102476335D01*
X163046094Y-102476344D01*
X162984938Y-102704586D01*
X162984936Y-102704596D01*
X162969500Y-102881032D01*
X162969500Y-103298967D01*
X158625500Y-103298967D01*
X158625500Y-98520451D01*
X158645185Y-98453412D01*
X158661814Y-98432775D01*
X160684436Y-96410152D01*
X160745757Y-96376669D01*
X160790371Y-96375187D01*
X161578868Y-96492568D01*
X161592688Y-96495437D01*
X161684592Y-96520063D01*
X161872918Y-96536539D01*
X161919999Y-96540659D01*
X161920000Y-96540659D01*
X161920001Y-96540659D01*
X161959234Y-96537226D01*
X162155408Y-96520063D01*
X162383663Y-96458903D01*
X162597829Y-96359035D01*
X162791401Y-96223495D01*
X162958495Y-96056401D01*
X163068426Y-95899401D01*
X163123001Y-95855778D01*
X163192500Y-95848584D01*
X163254855Y-95880106D01*
X163271571Y-95899398D01*
X163342144Y-96000187D01*
X163381506Y-96056403D01*
X163548597Y-96223493D01*
X163548599Y-96223495D01*
X163645384Y-96291265D01*
X163742165Y-96359032D01*
X163742167Y-96359033D01*
X163742170Y-96359035D01*
X163956337Y-96458903D01*
X164184592Y-96520063D01*
X164372918Y-96536539D01*
X164419999Y-96540659D01*
X164420000Y-96540659D01*
X164420001Y-96540659D01*
X164459234Y-96537226D01*
X164655408Y-96520063D01*
X164883663Y-96458903D01*
X165097829Y-96359035D01*
X165291401Y-96223495D01*
X165458495Y-96056401D01*
X165594035Y-95862829D01*
X165693903Y-95648663D01*
X165755063Y-95420408D01*
X165770500Y-95243966D01*
X165770500Y-94876034D01*
X165755063Y-94699592D01*
X165693903Y-94471337D01*
X165594035Y-94257171D01*
X165581936Y-94239891D01*
X165458494Y-94063597D01*
X165291402Y-93896506D01*
X165291395Y-93896501D01*
X165097834Y-93760967D01*
X165097830Y-93760965D01*
X165047685Y-93737582D01*
X164883663Y-93661097D01*
X164883659Y-93661096D01*
X164883655Y-93661094D01*
X164655413Y-93599938D01*
X164655403Y-93599936D01*
X164420001Y-93579341D01*
X164419999Y-93579341D01*
X164184596Y-93599936D01*
X164184586Y-93599938D01*
X163956344Y-93661094D01*
X163956335Y-93661098D01*
X163742171Y-93760964D01*
X163742169Y-93760965D01*
X163548597Y-93896505D01*
X163381505Y-94063597D01*
X163271575Y-94220595D01*
X163216998Y-94264220D01*
X163147500Y-94271414D01*
X163085145Y-94239891D01*
X163068425Y-94220595D01*
X162958494Y-94063597D01*
X162791402Y-93896506D01*
X162791395Y-93896501D01*
X162597834Y-93760967D01*
X162597830Y-93760965D01*
X162547685Y-93737582D01*
X162383663Y-93661097D01*
X162383659Y-93661096D01*
X162383655Y-93661094D01*
X162155413Y-93599938D01*
X162155403Y-93599936D01*
X161920001Y-93579341D01*
X161919999Y-93579341D01*
X161684596Y-93599936D01*
X161684586Y-93599938D01*
X161456344Y-93661094D01*
X161456335Y-93661098D01*
X161242171Y-93760964D01*
X161242169Y-93760965D01*
X161048597Y-93896505D01*
X160881505Y-94063597D01*
X160745965Y-94257169D01*
X160729915Y-94291587D01*
X160718395Y-94311311D01*
X159981840Y-95341198D01*
X159968661Y-95356746D01*
X158387181Y-96938227D01*
X158325858Y-96971712D01*
X158256166Y-96966728D01*
X158200233Y-96924856D01*
X158175816Y-96859392D01*
X158175500Y-96850546D01*
X158175500Y-80423860D01*
X158177224Y-80408240D01*
X158176939Y-80408214D01*
X158177671Y-80400458D01*
X158177673Y-80400451D01*
X158175561Y-80333244D01*
X158175500Y-80329349D01*
X158175500Y-77413987D01*
X158179513Y-77382697D01*
X158196561Y-77317323D01*
X158326128Y-76820466D01*
X158330518Y-76802257D01*
X158330518Y-76802244D01*
X158330991Y-76799242D01*
X158335559Y-76780161D01*
X158340551Y-76764799D01*
X158355674Y-76718256D01*
X158375460Y-76530000D01*
X158355674Y-76341744D01*
X158315737Y-76218830D01*
X165988685Y-76218830D01*
X166019128Y-76495501D01*
X166019130Y-76495512D01*
X166089529Y-76764793D01*
X166089531Y-76764799D01*
X166144807Y-76894875D01*
X166154467Y-76917607D01*
X166198393Y-77020972D01*
X166226888Y-77067663D01*
X166343390Y-77258560D01*
X166343397Y-77258569D01*
X166521440Y-77472510D01*
X166521446Y-77472516D01*
X166673532Y-77608785D01*
X166728745Y-77658256D01*
X166960883Y-77811837D01*
X167212909Y-77929982D01*
X167212916Y-77929984D01*
X167212918Y-77929985D01*
X167479439Y-78010170D01*
X167479446Y-78010171D01*
X167479451Y-78010173D01*
X167754828Y-78050700D01*
X167754833Y-78050700D01*
X167963487Y-78050700D01*
X167963489Y-78050700D01*
X167963494Y-78050699D01*
X167963506Y-78050699D01*
X168002086Y-78047875D01*
X168171601Y-78035468D01*
X168285155Y-78010173D01*
X168443279Y-77974950D01*
X168443281Y-77974949D01*
X168443286Y-77974948D01*
X168703263Y-77875515D01*
X168945993Y-77739289D01*
X169166301Y-77569172D01*
X169359492Y-77368792D01*
X169521449Y-77142418D01*
X169583888Y-77020972D01*
X169648712Y-76894890D01*
X169648714Y-76894883D01*
X169648719Y-76894875D01*
X169708972Y-76718259D01*
X169738587Y-76631452D01*
X169738587Y-76631448D01*
X169738591Y-76631439D01*
X169789148Y-76357726D01*
X169799314Y-76079568D01*
X169768871Y-75802894D01*
X169698469Y-75533601D01*
X169589607Y-75277428D01*
X169444607Y-75039836D01*
X169371896Y-74952465D01*
X169266559Y-74825889D01*
X169266553Y-74825883D01*
X169059255Y-74640144D01*
X168827119Y-74486564D01*
X168827117Y-74486563D01*
X168575091Y-74368418D01*
X168575086Y-74368416D01*
X168575081Y-74368414D01*
X168308560Y-74288229D01*
X168308546Y-74288226D01*
X168189723Y-74270739D01*
X168033172Y-74247700D01*
X167824511Y-74247700D01*
X167824493Y-74247700D01*
X167616399Y-74262932D01*
X167616385Y-74262934D01*
X167344720Y-74323449D01*
X167344713Y-74323452D01*
X167084734Y-74422886D01*
X166842010Y-74559109D01*
X166621694Y-74729231D01*
X166428511Y-74929604D01*
X166428509Y-74929606D01*
X166266552Y-75155980D01*
X166266549Y-75155984D01*
X166139287Y-75403509D01*
X166139278Y-75403531D01*
X166049412Y-75666947D01*
X166049408Y-75666965D01*
X165998852Y-75940674D01*
X165998851Y-75940681D01*
X165988685Y-76218830D01*
X158315737Y-76218830D01*
X158297179Y-76161716D01*
X158202533Y-75997784D01*
X158075871Y-75857112D01*
X158037601Y-75829307D01*
X157922734Y-75745851D01*
X157922729Y-75745848D01*
X157749807Y-75668857D01*
X157749802Y-75668855D01*
X157604001Y-75637865D01*
X157564646Y-75629500D01*
X157375354Y-75629500D01*
X157342897Y-75636398D01*
X157190197Y-75668855D01*
X157190192Y-75668857D01*
X157017270Y-75745848D01*
X157017265Y-75745851D01*
X156864129Y-75857111D01*
X156737466Y-75997785D01*
X156642821Y-76161715D01*
X156642818Y-76161722D01*
X156599055Y-76296412D01*
X156584326Y-76341744D01*
X156564540Y-76530000D01*
X156584326Y-76718256D01*
X156584327Y-76718258D01*
X156584327Y-76718259D01*
X156642821Y-76898286D01*
X156648027Y-76907303D01*
X156654579Y-76921649D01*
X156654979Y-76921479D01*
X156656721Y-76925559D01*
X156910769Y-77419493D01*
X156924500Y-77476208D01*
X156924500Y-78531665D01*
X156904815Y-78598704D01*
X156852011Y-78644459D01*
X156782853Y-78654403D01*
X156719297Y-78625378D01*
X156712819Y-78619346D01*
X149630653Y-71537180D01*
X149597168Y-71475857D01*
X149602152Y-71406165D01*
X149644024Y-71350232D01*
X149709488Y-71325815D01*
X149718334Y-71325499D01*
X149804956Y-71325499D01*
X149804957Y-71325498D01*
X149939254Y-71310367D01*
X150109520Y-71250788D01*
X150262260Y-71154815D01*
X150389814Y-71027261D01*
X150485787Y-70874521D01*
X150545366Y-70704255D01*
X150548962Y-70672342D01*
X150565563Y-70525003D01*
X150565563Y-70524996D01*
X150545367Y-70345753D01*
X150545365Y-70345742D01*
X150485787Y-70175479D01*
X150485785Y-70175476D01*
X150485155Y-70174474D01*
X150433404Y-70092112D01*
X150419807Y-70070472D01*
X150400807Y-70003235D01*
X150421175Y-69936400D01*
X150474443Y-69891186D01*
X150524801Y-69880500D01*
X151002257Y-69880500D01*
X151017877Y-69882224D01*
X151017904Y-69881939D01*
X151025660Y-69882671D01*
X151025667Y-69882673D01*
X151092873Y-69880561D01*
X151096768Y-69880500D01*
X151124346Y-69880500D01*
X151124350Y-69880500D01*
X151128324Y-69879997D01*
X151139963Y-69879080D01*
X151183627Y-69877709D01*
X151202869Y-69872117D01*
X151221912Y-69868174D01*
X151241792Y-69865664D01*
X151282401Y-69849585D01*
X151293444Y-69845803D01*
X151335390Y-69833618D01*
X151352629Y-69823422D01*
X151370103Y-69814862D01*
X151388727Y-69807488D01*
X151388727Y-69807487D01*
X151388732Y-69807486D01*
X151424083Y-69781800D01*
X151433814Y-69775408D01*
X151471420Y-69753170D01*
X151485589Y-69738999D01*
X151500379Y-69726368D01*
X151516587Y-69714594D01*
X151544438Y-69680926D01*
X151552279Y-69672309D01*
X164289633Y-56934955D01*
X164342604Y-56903595D01*
X165441163Y-56583322D01*
X165454333Y-56580252D01*
X165455398Y-56580063D01*
X165455408Y-56580063D01*
X165683663Y-56518903D01*
X165897829Y-56419035D01*
X166091401Y-56283495D01*
X166258495Y-56116401D01*
X166368426Y-55959401D01*
X166423001Y-55915778D01*
X166492500Y-55908584D01*
X166554855Y-55940106D01*
X166571571Y-55959398D01*
X166613366Y-56019088D01*
X166681506Y-56116403D01*
X166776649Y-56211545D01*
X166848599Y-56283495D01*
X166940850Y-56348090D01*
X167042165Y-56419032D01*
X167042167Y-56419033D01*
X167042170Y-56419035D01*
X167256337Y-56518903D01*
X167256343Y-56518904D01*
X167256344Y-56518905D01*
X167317514Y-56535295D01*
X167484592Y-56580063D01*
X167484593Y-56580063D01*
X167484597Y-56580064D01*
X167485662Y-56580252D01*
X167498841Y-56583324D01*
X168597393Y-56903594D01*
X168650367Y-56934957D01*
X170218181Y-58502771D01*
X170251666Y-58564094D01*
X170254500Y-58590452D01*
X170254500Y-61184891D01*
X170234815Y-61251930D01*
X170182011Y-61297685D01*
X170112853Y-61307629D01*
X170049297Y-61278604D01*
X170042819Y-61272573D01*
X170022176Y-61251930D01*
X169978620Y-61208374D01*
X169978616Y-61208371D01*
X169978615Y-61208370D01*
X169797666Y-61081668D01*
X169797662Y-61081666D01*
X169772292Y-61069836D01*
X169597450Y-60988306D01*
X169597447Y-60988305D01*
X169597445Y-60988304D01*
X169384070Y-60931130D01*
X169384062Y-60931129D01*
X169164002Y-60911877D01*
X169163998Y-60911877D01*
X168943937Y-60931129D01*
X168943929Y-60931130D01*
X168730554Y-60988304D01*
X168730548Y-60988307D01*
X168530340Y-61081665D01*
X168530338Y-61081666D01*
X168349377Y-61208375D01*
X168193175Y-61364577D01*
X168066466Y-61545538D01*
X168066465Y-61545540D01*
X167973107Y-61745748D01*
X167973104Y-61745754D01*
X167915930Y-61959129D01*
X167915929Y-61959137D01*
X167896677Y-62179197D01*
X167896677Y-62179202D01*
X167915929Y-62399262D01*
X167915930Y-62399270D01*
X167973104Y-62612645D01*
X167973105Y-62612647D01*
X167973106Y-62612650D01*
X168058040Y-62794793D01*
X168066466Y-62812862D01*
X168066468Y-62812866D01*
X168193170Y-62993815D01*
X168193175Y-62993821D01*
X168349378Y-63150024D01*
X168349384Y-63150029D01*
X168530333Y-63276731D01*
X168530335Y-63276732D01*
X168530338Y-63276734D01*
X168624270Y-63320535D01*
X168659189Y-63336818D01*
X168711628Y-63382990D01*
X168730780Y-63450184D01*
X168710564Y-63517065D01*
X168659189Y-63561582D01*
X168530340Y-63621665D01*
X168530338Y-63621666D01*
X168349377Y-63748375D01*
X168193175Y-63904577D01*
X168066466Y-64085538D01*
X168066465Y-64085540D01*
X167973107Y-64285748D01*
X167973104Y-64285754D01*
X167915930Y-64499129D01*
X167915929Y-64499137D01*
X167896677Y-64719197D01*
X167896677Y-64719202D01*
X167915929Y-64939262D01*
X167915930Y-64939270D01*
X167973104Y-65152645D01*
X167973105Y-65152647D01*
X167973106Y-65152650D01*
X168014649Y-65241740D01*
X168066466Y-65352862D01*
X168066468Y-65352866D01*
X168193170Y-65533815D01*
X168193175Y-65533821D01*
X168349378Y-65690024D01*
X168349384Y-65690029D01*
X168530333Y-65816731D01*
X168530335Y-65816732D01*
X168530338Y-65816734D01*
X168647692Y-65871457D01*
X168659189Y-65876818D01*
X168711628Y-65922990D01*
X168730780Y-65990184D01*
X168710564Y-66057065D01*
X168659189Y-66101582D01*
X168530340Y-66161665D01*
X168530338Y-66161666D01*
X168349377Y-66288375D01*
X168193175Y-66444577D01*
X168066466Y-66625538D01*
X168066465Y-66625540D01*
X167973107Y-66825748D01*
X167973104Y-66825754D01*
X167915930Y-67039129D01*
X167915929Y-67039137D01*
X167896677Y-67259197D01*
X167896677Y-67259202D01*
X167915929Y-67479262D01*
X167915930Y-67479270D01*
X167973104Y-67692645D01*
X167973105Y-67692647D01*
X167973106Y-67692650D01*
X168025843Y-67805745D01*
X168066466Y-67892862D01*
X168066468Y-67892866D01*
X168193170Y-68073815D01*
X168193175Y-68073821D01*
X168349378Y-68230024D01*
X168349384Y-68230029D01*
X168530333Y-68356731D01*
X168530335Y-68356732D01*
X168530338Y-68356734D01*
X168647692Y-68411457D01*
X168659189Y-68416818D01*
X168711628Y-68462990D01*
X168730780Y-68530184D01*
X168710564Y-68597065D01*
X168659189Y-68641582D01*
X168530340Y-68701665D01*
X168530338Y-68701666D01*
X168349377Y-68828375D01*
X168193175Y-68984577D01*
X168066466Y-69165538D01*
X168066465Y-69165540D01*
X167973107Y-69365748D01*
X167973104Y-69365754D01*
X167915930Y-69579129D01*
X167915929Y-69579137D01*
X167896677Y-69799197D01*
X167896677Y-69799202D01*
X167915929Y-70019262D01*
X167915930Y-70019270D01*
X167973104Y-70232645D01*
X167973105Y-70232647D01*
X167973106Y-70232650D01*
X168025843Y-70345745D01*
X168066466Y-70432862D01*
X168066468Y-70432866D01*
X168193170Y-70613815D01*
X168193175Y-70613821D01*
X168349378Y-70770024D01*
X168349384Y-70770029D01*
X168530333Y-70896731D01*
X168530335Y-70896732D01*
X168530338Y-70896734D01*
X168627502Y-70942042D01*
X168659189Y-70956818D01*
X168711628Y-71002990D01*
X168730780Y-71070184D01*
X168710564Y-71137065D01*
X168659189Y-71181582D01*
X168530340Y-71241665D01*
X168530338Y-71241666D01*
X168349377Y-71368375D01*
X168193175Y-71524577D01*
X168066466Y-71705538D01*
X168066465Y-71705540D01*
X167992803Y-71863510D01*
X167976311Y-71898878D01*
X167973107Y-71905748D01*
X167973104Y-71905754D01*
X167915930Y-72119129D01*
X167915929Y-72119137D01*
X167896677Y-72339197D01*
X167896677Y-72339202D01*
X167915929Y-72559262D01*
X167915930Y-72559270D01*
X167973104Y-72772645D01*
X167973105Y-72772647D01*
X167973106Y-72772650D01*
X168021847Y-72877175D01*
X168066466Y-72972862D01*
X168066468Y-72972866D01*
X168193170Y-73153815D01*
X168193175Y-73153821D01*
X168349378Y-73310024D01*
X168349384Y-73310029D01*
X168530333Y-73436731D01*
X168530335Y-73436732D01*
X168530338Y-73436734D01*
X168730550Y-73530094D01*
X168943932Y-73587270D01*
X169101123Y-73601022D01*
X169163998Y-73606523D01*
X169164000Y-73606523D01*
X169164002Y-73606523D01*
X169219017Y-73601709D01*
X169384068Y-73587270D01*
X169597450Y-73530094D01*
X169797662Y-73436734D01*
X169978620Y-73310026D01*
X170042819Y-73245827D01*
X170104142Y-73212342D01*
X170173834Y-73217326D01*
X170229767Y-73259198D01*
X170254184Y-73324662D01*
X170254500Y-73333508D01*
X170254500Y-111589546D01*
X170234815Y-111656585D01*
X170218181Y-111677227D01*
X161241812Y-120653595D01*
X161180489Y-120687080D01*
X161110797Y-120682096D01*
X161100962Y-120677936D01*
X160114011Y-120209497D01*
X160102312Y-120204127D01*
X160102294Y-120204119D01*
X160101778Y-120203890D01*
X160061335Y-120189023D01*
X160051716Y-120185021D01*
X160026498Y-120173262D01*
X160026488Y-120173258D01*
X159806697Y-120114366D01*
X159806693Y-120114365D01*
X159806692Y-120114365D01*
X159806691Y-120114364D01*
X159806686Y-120114364D01*
X159580002Y-120094532D01*
X159579998Y-120094532D01*
X159353313Y-120114364D01*
X159353302Y-120114366D01*
X159133511Y-120173258D01*
X159133502Y-120173261D01*
X158927267Y-120269431D01*
X158927265Y-120269432D01*
X158740858Y-120399954D01*
X158579954Y-120560858D01*
X158449432Y-120747265D01*
X158449431Y-120747267D01*
X158353261Y-120953502D01*
X158353258Y-120953511D01*
X158294366Y-121173302D01*
X158294364Y-121173313D01*
X158274532Y-121399998D01*
X158274532Y-121400001D01*
X158294364Y-121626686D01*
X158294366Y-121626697D01*
X158353258Y-121846488D01*
X158353261Y-121846497D01*
X158449431Y-122052732D01*
X158449432Y-122052734D01*
X158579954Y-122239141D01*
X158740858Y-122400045D01*
X158740861Y-122400047D01*
X158927266Y-122530568D01*
X159133504Y-122626739D01*
X159133509Y-122626740D01*
X159133511Y-122626741D01*
X159186415Y-122640916D01*
X159353308Y-122685635D01*
X159515230Y-122699801D01*
X159579998Y-122705468D01*
X159580000Y-122705468D01*
X159580002Y-122705468D01*
X159636673Y-122700509D01*
X159806692Y-122685635D01*
X160026496Y-122626739D01*
X160077160Y-122603112D01*
X160092872Y-122597048D01*
X160114002Y-122590505D01*
X161274962Y-122039475D01*
X161324229Y-122027561D01*
X161383584Y-122025695D01*
X161387875Y-122025561D01*
X161391768Y-122025500D01*
X161419346Y-122025500D01*
X161419350Y-122025500D01*
X161423324Y-122024997D01*
X161434963Y-122024080D01*
X161478627Y-122022709D01*
X161497869Y-122017117D01*
X161516912Y-122013174D01*
X161536792Y-122010664D01*
X161577401Y-121994585D01*
X161588444Y-121990803D01*
X161630390Y-121978618D01*
X161647629Y-121968422D01*
X161665103Y-121959862D01*
X161683727Y-121952488D01*
X161683727Y-121952487D01*
X161683732Y-121952486D01*
X161719083Y-121926800D01*
X161728814Y-121920408D01*
X161766420Y-121898170D01*
X161780589Y-121883999D01*
X161795379Y-121871368D01*
X161811587Y-121859594D01*
X161839438Y-121825926D01*
X161847279Y-121817309D01*
X163177136Y-120487452D01*
X163238457Y-120453969D01*
X163308149Y-120458953D01*
X163364082Y-120500825D01*
X163384588Y-120543036D01*
X163386092Y-120548648D01*
X163386095Y-120548657D01*
X163386097Y-120548663D01*
X163418862Y-120618927D01*
X163485964Y-120762828D01*
X163485965Y-120762830D01*
X163621505Y-120956402D01*
X163717438Y-121052334D01*
X163788599Y-121123495D01*
X163882201Y-121189036D01*
X163982165Y-121259032D01*
X163982167Y-121259033D01*
X163982170Y-121259035D01*
X164196337Y-121358903D01*
X164424592Y-121420063D01*
X164601034Y-121435500D01*
X164659999Y-121440659D01*
X164660000Y-121440659D01*
X164660001Y-121440659D01*
X164718966Y-121435500D01*
X164895408Y-121420063D01*
X165123663Y-121358903D01*
X165337829Y-121259035D01*
X165531401Y-121123495D01*
X165678602Y-120976293D01*
X165739924Y-120942810D01*
X165809615Y-120947794D01*
X165865549Y-120989665D01*
X165871821Y-120998879D01*
X165910585Y-121061725D01*
X165967288Y-121153656D01*
X166091344Y-121277712D01*
X166240666Y-121369814D01*
X166407203Y-121424999D01*
X166509991Y-121435500D01*
X167810008Y-121435499D01*
X167912797Y-121424999D01*
X168079334Y-121369814D01*
X168228656Y-121277712D01*
X168352712Y-121153656D01*
X168444814Y-121004334D01*
X168499999Y-120837797D01*
X168510500Y-120735009D01*
X168510499Y-119134992D01*
X168499999Y-119032203D01*
X168444814Y-118865666D01*
X168352712Y-118716344D01*
X168228656Y-118592288D01*
X168135888Y-118535069D01*
X168079336Y-118500187D01*
X168079331Y-118500185D01*
X168024627Y-118482058D01*
X167912797Y-118445001D01*
X167912795Y-118445000D01*
X167810010Y-118434500D01*
X166509998Y-118434500D01*
X166509981Y-118434501D01*
X166407203Y-118445000D01*
X166407200Y-118445001D01*
X166240668Y-118500185D01*
X166240663Y-118500187D01*
X166091342Y-118592289D01*
X165967289Y-118716342D01*
X165871821Y-118871121D01*
X165819873Y-118917845D01*
X165750910Y-118929068D01*
X165686828Y-118901224D01*
X165678601Y-118893705D01*
X165531402Y-118746506D01*
X165531395Y-118746501D01*
X165337831Y-118610965D01*
X165337829Y-118610964D01*
X165304503Y-118595424D01*
X165252064Y-118549251D01*
X165232912Y-118482058D01*
X165253128Y-118415177D01*
X165269222Y-118395366D01*
X171263788Y-112400801D01*
X171276042Y-112390986D01*
X171275859Y-112390764D01*
X171281868Y-112385791D01*
X171281877Y-112385786D01*
X171294136Y-112372731D01*
X171354373Y-112337337D01*
X171424187Y-112340128D01*
X171481409Y-112380221D01*
X171493721Y-112398855D01*
X171522146Y-112451678D01*
X171522148Y-112451681D01*
X171662489Y-112627663D01*
X171662491Y-112627664D01*
X171662492Y-112627666D01*
X171832004Y-112775765D01*
X172025236Y-112891215D01*
X172084102Y-112913307D01*
X172139949Y-112955292D01*
X172164232Y-113020806D01*
X172149241Y-113089049D01*
X172099735Y-113138353D01*
X172094331Y-113141120D01*
X171926033Y-113222167D01*
X171926025Y-113222171D01*
X171743927Y-113354473D01*
X171743925Y-113354474D01*
X171588366Y-113517176D01*
X171464363Y-113705033D01*
X171375899Y-113912004D01*
X171375895Y-113912017D01*
X171325810Y-114131457D01*
X171325808Y-114131468D01*
X171320769Y-114243674D01*
X171315710Y-114356330D01*
X171345925Y-114579387D01*
X171345926Y-114579390D01*
X171415483Y-114793465D01*
X171522146Y-114991678D01*
X171522148Y-114991681D01*
X171662489Y-115167663D01*
X171662491Y-115167664D01*
X171662492Y-115167666D01*
X171832004Y-115315765D01*
X172025236Y-115431215D01*
X172084102Y-115453307D01*
X172139949Y-115495292D01*
X172164232Y-115560806D01*
X172149241Y-115629049D01*
X172099735Y-115678353D01*
X172094331Y-115681120D01*
X171926033Y-115762167D01*
X171926025Y-115762171D01*
X171743927Y-115894473D01*
X171743925Y-115894474D01*
X171588366Y-116057176D01*
X171464363Y-116245033D01*
X171375899Y-116452004D01*
X171375895Y-116452017D01*
X171325810Y-116671457D01*
X171325808Y-116671468D01*
X171315710Y-116896325D01*
X171315710Y-116896330D01*
X171345925Y-117119387D01*
X171345926Y-117119390D01*
X171415483Y-117333465D01*
X171522146Y-117531678D01*
X171522148Y-117531681D01*
X171662489Y-117707663D01*
X171662491Y-117707664D01*
X171662492Y-117707666D01*
X171832004Y-117855765D01*
X172025236Y-117971215D01*
X172084102Y-117993307D01*
X172139949Y-118035292D01*
X172164232Y-118100806D01*
X172149241Y-118169049D01*
X172099735Y-118218353D01*
X172094331Y-118221120D01*
X171926033Y-118302167D01*
X171926025Y-118302171D01*
X171743927Y-118434473D01*
X171743925Y-118434474D01*
X171588366Y-118597176D01*
X171464363Y-118785033D01*
X171375899Y-118992004D01*
X171375895Y-118992017D01*
X171325810Y-119211457D01*
X171325808Y-119211468D01*
X171320769Y-119323674D01*
X171315710Y-119436330D01*
X171345925Y-119659387D01*
X171345926Y-119659390D01*
X171415483Y-119873465D01*
X171522146Y-120071678D01*
X171522148Y-120071681D01*
X171662489Y-120247663D01*
X171662491Y-120247664D01*
X171662492Y-120247666D01*
X171832004Y-120395765D01*
X172025236Y-120511215D01*
X172084102Y-120533307D01*
X172139949Y-120575292D01*
X172164232Y-120640806D01*
X172149241Y-120709049D01*
X172099735Y-120758353D01*
X172094331Y-120761120D01*
X171926033Y-120842167D01*
X171926025Y-120842171D01*
X171743927Y-120974473D01*
X171743925Y-120974474D01*
X171588366Y-121137176D01*
X171464363Y-121325033D01*
X171375899Y-121532004D01*
X171375895Y-121532017D01*
X171325810Y-121751457D01*
X171325808Y-121751468D01*
X171316328Y-121962560D01*
X171315710Y-121976330D01*
X171345925Y-122199387D01*
X171345926Y-122199390D01*
X171415483Y-122413465D01*
X171522146Y-122611678D01*
X171522148Y-122611681D01*
X171662489Y-122787663D01*
X171662491Y-122787664D01*
X171662492Y-122787666D01*
X171832004Y-122935765D01*
X172025236Y-123051215D01*
X172235976Y-123130307D01*
X172457450Y-123170500D01*
X172457453Y-123170500D01*
X172926148Y-123170500D01*
X172926155Y-123170500D01*
X173094188Y-123155377D01*
X173094192Y-123155376D01*
X173311160Y-123095496D01*
X173311162Y-123095495D01*
X173311170Y-123095493D01*
X173513973Y-122997829D01*
X173696078Y-122865522D01*
X173851632Y-122702825D01*
X173885864Y-122650964D01*
X173939221Y-122605861D01*
X174008496Y-122596763D01*
X174071692Y-122626562D01*
X174086297Y-122641963D01*
X174202489Y-122787663D01*
X174202491Y-122787664D01*
X174202492Y-122787666D01*
X174372004Y-122935765D01*
X174565236Y-123051215D01*
X174775976Y-123130307D01*
X174997450Y-123170500D01*
X174997453Y-123170500D01*
X175466148Y-123170500D01*
X175466155Y-123170500D01*
X175634188Y-123155377D01*
X175634192Y-123155376D01*
X175851160Y-123095496D01*
X175851162Y-123095495D01*
X175851170Y-123095493D01*
X176053973Y-122997829D01*
X176236078Y-122865522D01*
X176391632Y-122702825D01*
X176515635Y-122514968D01*
X176604103Y-122307988D01*
X176654191Y-122088537D01*
X176664290Y-121863670D01*
X176634075Y-121640613D01*
X176564517Y-121426536D01*
X176457852Y-121228319D01*
X176324992Y-121061718D01*
X176317510Y-121052336D01*
X176262570Y-121004336D01*
X176147996Y-120904235D01*
X175954767Y-120788787D01*
X175954768Y-120788787D01*
X175954766Y-120788786D01*
X175954764Y-120788785D01*
X175895896Y-120766691D01*
X175840050Y-120724706D01*
X175815767Y-120659191D01*
X175830759Y-120590949D01*
X175880265Y-120541645D01*
X175885610Y-120538907D01*
X176053973Y-120457829D01*
X176236078Y-120325522D01*
X176391632Y-120162825D01*
X176515635Y-119974968D01*
X176604103Y-119767988D01*
X176654191Y-119548537D01*
X176664290Y-119323670D01*
X176634075Y-119100613D01*
X176564517Y-118886536D01*
X176553287Y-118865668D01*
X176457853Y-118688321D01*
X176457851Y-118688318D01*
X176456113Y-118686139D01*
X176381270Y-118592289D01*
X176317510Y-118512336D01*
X176317508Y-118512334D01*
X176147996Y-118364235D01*
X175954767Y-118248787D01*
X175954768Y-118248787D01*
X175954766Y-118248786D01*
X175954764Y-118248785D01*
X175895896Y-118226691D01*
X175840050Y-118184706D01*
X175815767Y-118119191D01*
X175830759Y-118050949D01*
X175880265Y-118001645D01*
X175885610Y-117998907D01*
X176053973Y-117917829D01*
X176236078Y-117785522D01*
X176391632Y-117622825D01*
X176515635Y-117434968D01*
X176604103Y-117227988D01*
X176654191Y-117008537D01*
X176664290Y-116783670D01*
X176634075Y-116560613D01*
X176564517Y-116346536D01*
X176457852Y-116148319D01*
X176385167Y-116057175D01*
X176317510Y-115972336D01*
X176317508Y-115972334D01*
X176147996Y-115824235D01*
X175954767Y-115708787D01*
X175954768Y-115708787D01*
X175954766Y-115708786D01*
X175954764Y-115708785D01*
X175895896Y-115686691D01*
X175840050Y-115644706D01*
X175815767Y-115579191D01*
X175830759Y-115510949D01*
X175880265Y-115461645D01*
X175885610Y-115458907D01*
X176053973Y-115377829D01*
X176236078Y-115245522D01*
X176391632Y-115082825D01*
X176515635Y-114894968D01*
X176604103Y-114687988D01*
X176654191Y-114468537D01*
X176664290Y-114243670D01*
X176634075Y-114020613D01*
X176564517Y-113806536D01*
X176457852Y-113608319D01*
X176385167Y-113517175D01*
X176317510Y-113432336D01*
X176317508Y-113432334D01*
X176147996Y-113284235D01*
X175954767Y-113168787D01*
X175954768Y-113168787D01*
X175954766Y-113168786D01*
X175954764Y-113168785D01*
X175895896Y-113146691D01*
X175840050Y-113104706D01*
X175815767Y-113039191D01*
X175830759Y-112970949D01*
X175880265Y-112921645D01*
X175885610Y-112918907D01*
X176053973Y-112837829D01*
X176236078Y-112705522D01*
X176391632Y-112542825D01*
X176515635Y-112354968D01*
X176536275Y-112306680D01*
X176604100Y-112147995D01*
X176604099Y-112147995D01*
X176604103Y-112147988D01*
X176654191Y-111928537D01*
X176664290Y-111703670D01*
X176634075Y-111480613D01*
X176564517Y-111266536D01*
X176457852Y-111068319D01*
X176356345Y-110941034D01*
X176317510Y-110892336D01*
X176297970Y-110875264D01*
X176147996Y-110744235D01*
X175954767Y-110628787D01*
X175954768Y-110628787D01*
X175954766Y-110628786D01*
X175954764Y-110628785D01*
X175895896Y-110606691D01*
X175840050Y-110564706D01*
X175815767Y-110499191D01*
X175830759Y-110430949D01*
X175880265Y-110381645D01*
X175885610Y-110378907D01*
X176053973Y-110297829D01*
X176236078Y-110165522D01*
X176391632Y-110002825D01*
X176515635Y-109814968D01*
X176604103Y-109607988D01*
X176654191Y-109388537D01*
X176664290Y-109163670D01*
X176634075Y-108940613D01*
X176564517Y-108726536D01*
X176457852Y-108528319D01*
X176385167Y-108437175D01*
X176317510Y-108352336D01*
X176297970Y-108335264D01*
X176147996Y-108204235D01*
X175954767Y-108088787D01*
X175954768Y-108088787D01*
X175954766Y-108088786D01*
X175954764Y-108088785D01*
X175895896Y-108066691D01*
X175840050Y-108024706D01*
X175815767Y-107959191D01*
X175830759Y-107890949D01*
X175880265Y-107841645D01*
X175885610Y-107838907D01*
X176053973Y-107757829D01*
X176236078Y-107625522D01*
X176391632Y-107462825D01*
X176515635Y-107274968D01*
X176604103Y-107067988D01*
X176654191Y-106848537D01*
X176664290Y-106623670D01*
X176634075Y-106400613D01*
X176564517Y-106186536D01*
X176457852Y-105988319D01*
X176385167Y-105897175D01*
X176317510Y-105812336D01*
X176297970Y-105795264D01*
X176147996Y-105664235D01*
X175954767Y-105548787D01*
X175954768Y-105548787D01*
X175954766Y-105548786D01*
X175954764Y-105548785D01*
X175895896Y-105526691D01*
X175840050Y-105484706D01*
X175815767Y-105419191D01*
X175830759Y-105350949D01*
X175880265Y-105301645D01*
X175885610Y-105298907D01*
X176053973Y-105217829D01*
X176236078Y-105085522D01*
X176391632Y-104922825D01*
X176515635Y-104734968D01*
X176535497Y-104688500D01*
X176604100Y-104527995D01*
X176604099Y-104527995D01*
X176604103Y-104527988D01*
X176654191Y-104308537D01*
X176664290Y-104083670D01*
X176634075Y-103860613D01*
X176564517Y-103646536D01*
X176457852Y-103448319D01*
X176385167Y-103357175D01*
X176317510Y-103272336D01*
X176297970Y-103255264D01*
X176147996Y-103124235D01*
X175954767Y-103008787D01*
X175954768Y-103008787D01*
X175954766Y-103008786D01*
X175954764Y-103008785D01*
X175895896Y-102986691D01*
X175840050Y-102944706D01*
X175815767Y-102879191D01*
X175830759Y-102810949D01*
X175880265Y-102761645D01*
X175885610Y-102758907D01*
X176053973Y-102677829D01*
X176236078Y-102545522D01*
X176391632Y-102382825D01*
X176515635Y-102194968D01*
X176604103Y-101987988D01*
X176654191Y-101768537D01*
X176664290Y-101543670D01*
X176634075Y-101320613D01*
X176564517Y-101106536D01*
X176457852Y-100908319D01*
X176385167Y-100817175D01*
X176317510Y-100732336D01*
X176297970Y-100715264D01*
X176147996Y-100584235D01*
X175954767Y-100468787D01*
X175954768Y-100468787D01*
X175954766Y-100468786D01*
X175954764Y-100468785D01*
X175895896Y-100446691D01*
X175840050Y-100404706D01*
X175815767Y-100339191D01*
X175830759Y-100270949D01*
X175880265Y-100221645D01*
X175885610Y-100218907D01*
X176053973Y-100137829D01*
X176236078Y-100005522D01*
X176391632Y-99842825D01*
X176515635Y-99654968D01*
X176604103Y-99447988D01*
X176654191Y-99228537D01*
X176664290Y-99003670D01*
X176634075Y-98780613D01*
X176564517Y-98566536D01*
X176457852Y-98368319D01*
X176385167Y-98277175D01*
X176317510Y-98192336D01*
X176297970Y-98175264D01*
X176147996Y-98044235D01*
X175954767Y-97928787D01*
X175954768Y-97928787D01*
X175954766Y-97928786D01*
X175954764Y-97928785D01*
X175895896Y-97906691D01*
X175840050Y-97864706D01*
X175815767Y-97799191D01*
X175830759Y-97730949D01*
X175880265Y-97681645D01*
X175885610Y-97678907D01*
X176053973Y-97597829D01*
X176236078Y-97465522D01*
X176391632Y-97302825D01*
X176515635Y-97114968D01*
X176604103Y-96907988D01*
X176654191Y-96688537D01*
X176664290Y-96463670D01*
X176634075Y-96240613D01*
X176564517Y-96026536D01*
X176457852Y-95828319D01*
X176385167Y-95737175D01*
X176317510Y-95652336D01*
X176297970Y-95635264D01*
X176147996Y-95504235D01*
X175954767Y-95388787D01*
X175954768Y-95388787D01*
X175954766Y-95388786D01*
X175954764Y-95388785D01*
X175895896Y-95366691D01*
X175840050Y-95324706D01*
X175815767Y-95259191D01*
X175830759Y-95190949D01*
X175880265Y-95141645D01*
X175885610Y-95138907D01*
X176053973Y-95057829D01*
X176236078Y-94925522D01*
X176391632Y-94762825D01*
X176515635Y-94574968D01*
X176604103Y-94367988D01*
X176654191Y-94148537D01*
X176664290Y-93923670D01*
X176634075Y-93700613D01*
X176564517Y-93486536D01*
X176538127Y-93437496D01*
X176480847Y-93331051D01*
X176457852Y-93288319D01*
X176385167Y-93197175D01*
X176317510Y-93112336D01*
X176297084Y-93094490D01*
X176147996Y-92964235D01*
X175954767Y-92848787D01*
X175954768Y-92848787D01*
X175954766Y-92848786D01*
X175954764Y-92848785D01*
X175895896Y-92826691D01*
X175840050Y-92784706D01*
X175815767Y-92719191D01*
X175830759Y-92650949D01*
X175880265Y-92601645D01*
X175885610Y-92598907D01*
X176053973Y-92517829D01*
X176236078Y-92385522D01*
X176391632Y-92222825D01*
X176515635Y-92034968D01*
X176527818Y-92006466D01*
X176604100Y-91827995D01*
X176604099Y-91827995D01*
X176604103Y-91827988D01*
X176654191Y-91608537D01*
X176664290Y-91383670D01*
X176634075Y-91160613D01*
X176564517Y-90946536D01*
X176457852Y-90748319D01*
X176385167Y-90657175D01*
X176317510Y-90572336D01*
X176297970Y-90555264D01*
X176147996Y-90424235D01*
X175954767Y-90308787D01*
X175954768Y-90308787D01*
X175954766Y-90308786D01*
X175954764Y-90308785D01*
X175895896Y-90286691D01*
X175840050Y-90244706D01*
X175815767Y-90179191D01*
X175830759Y-90110949D01*
X175880265Y-90061645D01*
X175885610Y-90058907D01*
X176053973Y-89977829D01*
X176236078Y-89845522D01*
X176391632Y-89682825D01*
X176515635Y-89494968D01*
X176604103Y-89287988D01*
X176654191Y-89068537D01*
X176664290Y-88843670D01*
X176634075Y-88620613D01*
X176564517Y-88406536D01*
X176457852Y-88208319D01*
X176385167Y-88117175D01*
X176317510Y-88032336D01*
X176297970Y-88015264D01*
X176147996Y-87884235D01*
X175954767Y-87768787D01*
X175954768Y-87768787D01*
X175954766Y-87768786D01*
X175954764Y-87768785D01*
X175895896Y-87746691D01*
X175840050Y-87704706D01*
X175815767Y-87639191D01*
X175830759Y-87570949D01*
X175880265Y-87521645D01*
X175885610Y-87518907D01*
X176053973Y-87437829D01*
X176236078Y-87305522D01*
X176391632Y-87142825D01*
X176515635Y-86954968D01*
X176604103Y-86747988D01*
X176654191Y-86528537D01*
X176664290Y-86303670D01*
X176634075Y-86080613D01*
X176564517Y-85866536D01*
X176561587Y-85861092D01*
X176457853Y-85668321D01*
X176457851Y-85668318D01*
X176448017Y-85655987D01*
X176411070Y-85609657D01*
X176317510Y-85492336D01*
X176297970Y-85475264D01*
X176147996Y-85344235D01*
X175954767Y-85228787D01*
X175954768Y-85228787D01*
X175954766Y-85228786D01*
X175954764Y-85228785D01*
X175895896Y-85206691D01*
X175840050Y-85164706D01*
X175815767Y-85099191D01*
X175830759Y-85030949D01*
X175880265Y-84981645D01*
X175885610Y-84978907D01*
X176053973Y-84897829D01*
X176236078Y-84765522D01*
X176391632Y-84602825D01*
X176515635Y-84414968D01*
X176527818Y-84386466D01*
X176604100Y-84207995D01*
X176604099Y-84207995D01*
X176604103Y-84207988D01*
X176654191Y-83988537D01*
X176664290Y-83763670D01*
X176634075Y-83540613D01*
X176564517Y-83326536D01*
X176543999Y-83288408D01*
X176464928Y-83141468D01*
X176457852Y-83128319D01*
X176344174Y-82985772D01*
X176317510Y-82952336D01*
X176297970Y-82935264D01*
X176147996Y-82804235D01*
X175954767Y-82688787D01*
X175954768Y-82688787D01*
X175954766Y-82688786D01*
X175954764Y-82688785D01*
X175895896Y-82666691D01*
X175840050Y-82624706D01*
X175815767Y-82559191D01*
X175830759Y-82490949D01*
X175880265Y-82441645D01*
X175885610Y-82438907D01*
X176053973Y-82357829D01*
X176236078Y-82225522D01*
X176391632Y-82062825D01*
X176515635Y-81874968D01*
X176604103Y-81667988D01*
X176652051Y-81457906D01*
X176653630Y-81451729D01*
X176654534Y-81448537D01*
X176913654Y-80533208D01*
X176945289Y-80479300D01*
X176955120Y-80469470D01*
X176957570Y-80466310D01*
X176965154Y-80457429D01*
X176995062Y-80425582D01*
X177004714Y-80408023D01*
X177015389Y-80391772D01*
X177027674Y-80375936D01*
X177045030Y-80335825D01*
X177050162Y-80325352D01*
X177059342Y-80308656D01*
X177108891Y-80259395D01*
X177177207Y-80244742D01*
X177242600Y-80269350D01*
X177284308Y-80325405D01*
X177292000Y-80368400D01*
X177292000Y-123828000D01*
X177272315Y-123895039D01*
X177219511Y-123940794D01*
X177168000Y-123952000D01*
X125092000Y-123952000D01*
X125024961Y-123932315D01*
X124979206Y-123879511D01*
X124968000Y-123828000D01*
X124968000Y-60230000D01*
X128384357Y-60230000D01*
X128404884Y-60451535D01*
X128404885Y-60451537D01*
X128465769Y-60665523D01*
X128465775Y-60665538D01*
X128564938Y-60864683D01*
X128564943Y-60864691D01*
X128699020Y-61042238D01*
X128863437Y-61192123D01*
X128863439Y-61192125D01*
X129052595Y-61309245D01*
X129052596Y-61309245D01*
X129052599Y-61309247D01*
X129260060Y-61389618D01*
X129478757Y-61430500D01*
X129478759Y-61430500D01*
X129701241Y-61430500D01*
X129701243Y-61430500D01*
X129919940Y-61389618D01*
X130127401Y-61309247D01*
X130316562Y-61192124D01*
X130480981Y-61042236D01*
X130615058Y-60864689D01*
X130714229Y-60665528D01*
X130775115Y-60451536D01*
X130795643Y-60230000D01*
X130775115Y-60008464D01*
X130714229Y-59794472D01*
X130714224Y-59794461D01*
X130615061Y-59595316D01*
X130615056Y-59595308D01*
X130480979Y-59417761D01*
X130316562Y-59267876D01*
X130316560Y-59267874D01*
X130127404Y-59150754D01*
X130127398Y-59150752D01*
X129919940Y-59070382D01*
X129701243Y-59029500D01*
X129478757Y-59029500D01*
X129260060Y-59070382D01*
X129128864Y-59121207D01*
X129052601Y-59150752D01*
X129052595Y-59150754D01*
X128863439Y-59267874D01*
X128863437Y-59267876D01*
X128699020Y-59417761D01*
X128564943Y-59595308D01*
X128564938Y-59595316D01*
X128465775Y-59794461D01*
X128465769Y-59794476D01*
X128404885Y-60008462D01*
X128404884Y-60008464D01*
X128384357Y-60229999D01*
X128384357Y-60230000D01*
X124968000Y-60230000D01*
X124968000Y-58460000D01*
X142174357Y-58460000D01*
X142194884Y-58681535D01*
X142194885Y-58681537D01*
X142255769Y-58895523D01*
X142255775Y-58895538D01*
X142354938Y-59094683D01*
X142354943Y-59094691D01*
X142489020Y-59272238D01*
X142653437Y-59422123D01*
X142653439Y-59422125D01*
X142842595Y-59539245D01*
X142842596Y-59539245D01*
X142842599Y-59539247D01*
X143050060Y-59619618D01*
X143268757Y-59660500D01*
X143268759Y-59660500D01*
X143491241Y-59660500D01*
X143491243Y-59660500D01*
X143709940Y-59619618D01*
X143917401Y-59539247D01*
X144106562Y-59422124D01*
X144270981Y-59272236D01*
X144405058Y-59094689D01*
X144504229Y-58895528D01*
X144510734Y-58872661D01*
X144548012Y-58813571D01*
X144611322Y-58784013D01*
X144680561Y-58793375D01*
X144733748Y-58838684D01*
X144749264Y-58872658D01*
X144755770Y-58895523D01*
X144755772Y-58895530D01*
X144755775Y-58895538D01*
X144854938Y-59094683D01*
X144854943Y-59094691D01*
X144989020Y-59272238D01*
X145153437Y-59422123D01*
X145153439Y-59422125D01*
X145342595Y-59539245D01*
X145342596Y-59539245D01*
X145342599Y-59539247D01*
X145550060Y-59619618D01*
X145768757Y-59660500D01*
X145768759Y-59660500D01*
X145991241Y-59660500D01*
X145991243Y-59660500D01*
X146209940Y-59619618D01*
X146417401Y-59539247D01*
X146606562Y-59422124D01*
X146770981Y-59272236D01*
X146905058Y-59094689D01*
X147004229Y-58895528D01*
X147065115Y-58681536D01*
X147085643Y-58460000D01*
X147075183Y-58347122D01*
X147065115Y-58238464D01*
X147065114Y-58238462D01*
X147041279Y-58154691D01*
X147004229Y-58024472D01*
X147004064Y-58024140D01*
X146905061Y-57825316D01*
X146905056Y-57825308D01*
X146770979Y-57647761D01*
X146606562Y-57497876D01*
X146606560Y-57497874D01*
X146417404Y-57380754D01*
X146417398Y-57380752D01*
X146209940Y-57300382D01*
X145991243Y-57259500D01*
X145768757Y-57259500D01*
X145550060Y-57300382D01*
X145418864Y-57351207D01*
X145342601Y-57380752D01*
X145342595Y-57380754D01*
X145153439Y-57497874D01*
X145153437Y-57497876D01*
X144989020Y-57647761D01*
X144854943Y-57825308D01*
X144854938Y-57825316D01*
X144755775Y-58024461D01*
X144755769Y-58024476D01*
X144749266Y-58047335D01*
X144711987Y-58106429D01*
X144648677Y-58135986D01*
X144579438Y-58126624D01*
X144526251Y-58081314D01*
X144510734Y-58047335D01*
X144505009Y-58027213D01*
X144504229Y-58024472D01*
X144504064Y-58024140D01*
X144405061Y-57825316D01*
X144405056Y-57825308D01*
X144270979Y-57647761D01*
X144106562Y-57497876D01*
X144106560Y-57497874D01*
X143917404Y-57380754D01*
X143917398Y-57380752D01*
X143709940Y-57300382D01*
X143491243Y-57259500D01*
X143268757Y-57259500D01*
X143050060Y-57300382D01*
X142918864Y-57351207D01*
X142842601Y-57380752D01*
X142842595Y-57380754D01*
X142653439Y-57497874D01*
X142653437Y-57497876D01*
X142489020Y-57647761D01*
X142354943Y-57825308D01*
X142354938Y-57825316D01*
X142255775Y-58024461D01*
X142255769Y-58024476D01*
X142194885Y-58238462D01*
X142194884Y-58238464D01*
X142174357Y-58459999D01*
X142174357Y-58460000D01*
X124968000Y-58460000D01*
X124968000Y-51432000D01*
X124987685Y-51364961D01*
X125040489Y-51319206D01*
X125092000Y-51308000D01*
X145488048Y-51308000D01*
X145555087Y-51327685D01*
G37*
%TD.AperFunction*%
%TA.AperFunction,Conductor*%
G36*
X131199686Y-68594744D02*
G01*
X131234761Y-68619351D01*
X137369021Y-74753612D01*
X137402506Y-74814935D01*
X137397522Y-74884627D01*
X137355650Y-74940560D01*
X137340840Y-74949429D01*
X137341030Y-74949758D01*
X137336338Y-74952466D01*
X137155377Y-75079175D01*
X136999175Y-75235377D01*
X136872466Y-75416338D01*
X136872465Y-75416340D01*
X136812382Y-75545189D01*
X136766209Y-75597628D01*
X136699016Y-75616780D01*
X136632135Y-75596564D01*
X136587618Y-75545189D01*
X136527924Y-75417176D01*
X136527534Y-75416339D01*
X136430268Y-75277428D01*
X136400827Y-75235381D01*
X136343497Y-75178051D01*
X136244620Y-75079174D01*
X136244616Y-75079171D01*
X136244615Y-75079170D01*
X136063666Y-74952468D01*
X136063662Y-74952466D01*
X136038127Y-74940559D01*
X135863450Y-74859106D01*
X135863447Y-74859105D01*
X135863445Y-74859104D01*
X135650070Y-74801930D01*
X135650062Y-74801929D01*
X135430002Y-74782677D01*
X135429998Y-74782677D01*
X135209937Y-74801929D01*
X135209929Y-74801930D01*
X134996554Y-74859104D01*
X134996548Y-74859107D01*
X134796340Y-74952465D01*
X134796338Y-74952466D01*
X134615377Y-75079175D01*
X134459175Y-75235377D01*
X134332466Y-75416338D01*
X134332465Y-75416340D01*
X134277786Y-75533601D01*
X134244477Y-75605033D01*
X134239107Y-75616548D01*
X134239104Y-75616554D01*
X134181930Y-75829929D01*
X134181929Y-75829937D01*
X134162677Y-76049997D01*
X134162677Y-76050002D01*
X134181929Y-76270062D01*
X134181930Y-76270070D01*
X134239104Y-76483445D01*
X134239105Y-76483447D01*
X134239106Y-76483450D01*
X134308112Y-76631434D01*
X134332466Y-76683662D01*
X134332468Y-76683666D01*
X134459170Y-76864615D01*
X134459175Y-76864621D01*
X134615378Y-77020824D01*
X134615384Y-77020829D01*
X134796333Y-77147531D01*
X134796335Y-77147532D01*
X134796338Y-77147534D01*
X134996550Y-77240894D01*
X135209932Y-77298070D01*
X135367123Y-77311822D01*
X135429998Y-77317323D01*
X135430000Y-77317323D01*
X135430002Y-77317323D01*
X135485017Y-77312509D01*
X135650068Y-77298070D01*
X135863450Y-77240894D01*
X136063662Y-77147534D01*
X136244620Y-77020826D01*
X136400826Y-76864620D01*
X136527534Y-76683662D01*
X136587618Y-76554811D01*
X136633790Y-76502371D01*
X136700983Y-76483219D01*
X136767865Y-76503435D01*
X136812382Y-76554811D01*
X136872464Y-76683658D01*
X136872468Y-76683666D01*
X136999170Y-76864615D01*
X136999175Y-76864621D01*
X137155378Y-77020824D01*
X137155384Y-77020829D01*
X137336333Y-77147531D01*
X137336335Y-77147532D01*
X137336338Y-77147534D01*
X137536550Y-77240894D01*
X137749932Y-77298070D01*
X137907123Y-77311822D01*
X137969998Y-77317323D01*
X137970000Y-77317323D01*
X137970002Y-77317323D01*
X138025017Y-77312509D01*
X138190068Y-77298070D01*
X138359606Y-77252642D01*
X138429456Y-77254305D01*
X138487319Y-77293467D01*
X138514823Y-77357696D01*
X138515700Y-77372417D01*
X138515700Y-101414319D01*
X138503977Y-101466948D01*
X137992088Y-102559004D01*
X137987031Y-102570138D01*
X137986840Y-102570572D01*
X137986104Y-102572403D01*
X137985588Y-102572195D01*
X137945370Y-102626625D01*
X137880059Y-102651450D01*
X137811695Y-102637023D01*
X137761982Y-102587927D01*
X137751818Y-102563937D01*
X137750327Y-102559040D01*
X137750324Y-102559032D01*
X137238423Y-101466946D01*
X137226700Y-101414317D01*
X137226700Y-93453137D01*
X137228424Y-93437523D01*
X137228138Y-93437496D01*
X137228872Y-93429733D01*
X137226761Y-93362544D01*
X137226700Y-93358650D01*
X137226700Y-93331051D01*
X137226700Y-93331050D01*
X137226197Y-93327070D01*
X137225280Y-93315421D01*
X137223909Y-93271773D01*
X137218321Y-93252539D01*
X137214374Y-93233481D01*
X137211864Y-93213608D01*
X137205358Y-93197176D01*
X137195783Y-93172992D01*
X137191999Y-93161939D01*
X137179818Y-93120015D01*
X137179817Y-93120010D01*
X137169620Y-93102768D01*
X137161063Y-93085302D01*
X137153686Y-93066668D01*
X137128009Y-93031326D01*
X137121612Y-93021590D01*
X137099370Y-92983979D01*
X137099367Y-92983976D01*
X137099365Y-92983973D01*
X137085205Y-92969813D01*
X137072570Y-92955020D01*
X137060793Y-92938812D01*
X137027145Y-92910976D01*
X137018504Y-92903113D01*
X135927019Y-91811628D01*
X135893534Y-91750305D01*
X135890700Y-91723947D01*
X135890700Y-88823383D01*
X135910385Y-88756344D01*
X135963189Y-88710589D01*
X136032347Y-88700645D01*
X136079974Y-88717954D01*
X136165399Y-88770847D01*
X136372860Y-88851218D01*
X136591557Y-88892100D01*
X136591559Y-88892100D01*
X136814041Y-88892100D01*
X136814043Y-88892100D01*
X137032740Y-88851218D01*
X137240201Y-88770847D01*
X137429362Y-88653724D01*
X137593781Y-88503836D01*
X137727858Y-88326289D01*
X137827029Y-88127128D01*
X137887915Y-87913136D01*
X137908443Y-87691600D01*
X137887915Y-87470064D01*
X137827029Y-87256072D01*
X137819406Y-87240763D01*
X137727861Y-87056916D01*
X137727856Y-87056908D01*
X137593779Y-86879361D01*
X137429362Y-86729476D01*
X137429360Y-86729474D01*
X137240204Y-86612354D01*
X137240195Y-86612350D01*
X137168360Y-86584521D01*
X137097901Y-86557225D01*
X137042501Y-86514654D01*
X137018910Y-86448888D01*
X137034621Y-86380807D01*
X137084644Y-86332028D01*
X137097893Y-86325977D01*
X137240201Y-86270847D01*
X137429362Y-86153724D01*
X137593781Y-86003836D01*
X137727858Y-85826289D01*
X137827029Y-85627128D01*
X137887915Y-85413136D01*
X137908443Y-85191600D01*
X137887915Y-84970064D01*
X137827029Y-84756072D01*
X137814107Y-84730121D01*
X137727861Y-84556916D01*
X137727856Y-84556908D01*
X137593779Y-84379361D01*
X137429362Y-84229476D01*
X137429360Y-84229474D01*
X137240204Y-84112354D01*
X137240198Y-84112352D01*
X137032740Y-84031982D01*
X136814043Y-83991100D01*
X136591557Y-83991100D01*
X136372860Y-84031982D01*
X136241664Y-84082807D01*
X136165401Y-84112352D01*
X136165395Y-84112355D01*
X136079977Y-84165243D01*
X136012616Y-84183798D01*
X135945917Y-84162990D01*
X135901056Y-84109425D01*
X135890700Y-84059816D01*
X135890700Y-83527942D01*
X135892424Y-83512322D01*
X135892139Y-83512296D01*
X135892871Y-83504540D01*
X135892873Y-83504533D01*
X135890761Y-83437324D01*
X135890700Y-83433429D01*
X135890700Y-83405854D01*
X135890700Y-83405850D01*
X135890196Y-83401865D01*
X135889280Y-83390221D01*
X135887909Y-83346573D01*
X135882322Y-83327344D01*
X135878374Y-83308284D01*
X135875863Y-83288404D01*
X135859788Y-83247804D01*
X135856004Y-83236752D01*
X135843818Y-83194809D01*
X135843816Y-83194806D01*
X135833623Y-83177571D01*
X135825061Y-83160094D01*
X135817687Y-83141469D01*
X135797318Y-83113434D01*
X135792011Y-83106130D01*
X135785605Y-83096377D01*
X135763370Y-83058780D01*
X135763368Y-83058778D01*
X135763365Y-83058774D01*
X135749206Y-83044615D01*
X135736568Y-83029819D01*
X135724794Y-83013613D01*
X135691140Y-82985772D01*
X135682499Y-82977909D01*
X131721819Y-79017228D01*
X131688334Y-78955905D01*
X131685500Y-78929547D01*
X131685500Y-70182742D01*
X131687224Y-70167122D01*
X131686939Y-70167095D01*
X131687673Y-70159333D01*
X131685561Y-70092112D01*
X131685500Y-70088218D01*
X131685500Y-70060656D01*
X131685500Y-70060650D01*
X131684996Y-70056668D01*
X131684081Y-70045029D01*
X131682710Y-70001373D01*
X131677119Y-69982130D01*
X131673173Y-69963078D01*
X131670664Y-69943208D01*
X131654579Y-69902583D01*
X131650806Y-69891562D01*
X131638618Y-69849610D01*
X131638617Y-69849609D01*
X131638617Y-69849607D01*
X131638616Y-69849606D01*
X131628423Y-69832371D01*
X131619861Y-69814894D01*
X131612487Y-69796269D01*
X131591174Y-69766935D01*
X131586811Y-69760930D01*
X131580405Y-69751177D01*
X131558170Y-69713580D01*
X131558168Y-69713578D01*
X131558165Y-69713574D01*
X131544006Y-69699415D01*
X131531368Y-69684619D01*
X131519594Y-69668413D01*
X131485940Y-69640572D01*
X131477299Y-69632709D01*
X131225284Y-69380694D01*
X131193654Y-69326789D01*
X131176406Y-69265861D01*
X131027769Y-68740806D01*
X131028448Y-68670941D01*
X131066793Y-68612534D01*
X131130628Y-68584128D01*
X131199686Y-68594744D01*
G37*
%TD.AperFunction*%
%TD*%
%TA.AperFunction,Conductor*%
%TO.N,+12VA*%
G36*
X149315914Y-60961627D02*
G01*
X149318187Y-60964834D01*
X149970780Y-62323242D01*
X149971274Y-62332183D01*
X149965300Y-62338854D01*
X149964723Y-62339113D01*
X149194489Y-62659134D01*
X149185534Y-62659143D01*
X149185511Y-62659134D01*
X148415276Y-62339113D01*
X148408951Y-62332774D01*
X148408960Y-62323819D01*
X148409219Y-62323242D01*
X149061813Y-60964834D01*
X149068484Y-60958860D01*
X149072359Y-60958200D01*
X149307641Y-60958200D01*
X149315914Y-60961627D01*
G37*
%TD.AperFunction*%
%TD*%
%TA.AperFunction,Conductor*%
%TO.N,+12VA*%
G36*
X156916100Y-54277819D02*
G01*
X157713273Y-55111916D01*
X157716512Y-55120265D01*
X157713273Y-55128084D01*
X156916100Y-55962180D01*
X156907907Y-55965793D01*
X156900246Y-55963162D01*
X156024304Y-55248511D01*
X156020060Y-55240625D01*
X156020000Y-55239445D01*
X156020000Y-55000554D01*
X156023427Y-54992281D01*
X156024298Y-54991493D01*
X156900247Y-54276836D01*
X156908822Y-54274263D01*
X156916100Y-54277819D01*
G37*
%TD.AperFunction*%
%TD*%
%TA.AperFunction,Conductor*%
%TO.N,+12VA*%
G36*
X151123481Y-56444605D02*
G01*
X151126857Y-56446958D01*
X151293041Y-56613142D01*
X151296468Y-56621415D01*
X151295744Y-56625466D01*
X150870923Y-57776478D01*
X150864844Y-57783053D01*
X150855896Y-57783403D01*
X150855484Y-57783242D01*
X150223789Y-57522562D01*
X150217449Y-57516239D01*
X150217437Y-57516210D01*
X149956757Y-56884515D01*
X149956769Y-56875560D01*
X149963109Y-56869237D01*
X149963483Y-56869090D01*
X151114535Y-56444255D01*
X151123481Y-56444605D01*
G37*
%TD.AperFunction*%
%TD*%
%TA.AperFunction,Conductor*%
%TO.N,+12VA*%
G36*
X143956306Y-55727771D02*
G01*
X143963418Y-55733212D01*
X143964859Y-55737304D01*
X143995844Y-55939361D01*
X143993711Y-55948058D01*
X143992552Y-55949407D01*
X143826400Y-56115559D01*
X143818127Y-56118986D01*
X143812145Y-56117341D01*
X143669326Y-56032367D01*
X143378212Y-55859160D01*
X143372854Y-55851985D01*
X143373369Y-55844666D01*
X143470141Y-55608803D01*
X143476450Y-55602452D01*
X143483975Y-55601940D01*
X143956306Y-55727771D01*
G37*
%TD.AperFunction*%
%TD*%
%TA.AperFunction,Conductor*%
%TO.N,/PF12*%
G36*
X146699425Y-55348449D02*
G01*
X146941464Y-55461845D01*
X146947502Y-55468458D01*
X146948200Y-55472440D01*
X146948200Y-55707907D01*
X146944773Y-55716180D01*
X146941909Y-55718281D01*
X146699524Y-55844661D01*
X146690604Y-55845448D01*
X146688841Y-55844731D01*
X146224660Y-55610308D01*
X146218820Y-55603519D01*
X146219490Y-55594590D01*
X146224547Y-55589478D01*
X146689076Y-55348656D01*
X146697998Y-55347891D01*
X146699425Y-55348449D01*
G37*
%TD.AperFunction*%
%TD*%
%TA.AperFunction,Conductor*%
%TO.N,/PF12*%
G36*
X174143455Y-76070390D02*
G01*
X175567507Y-76496054D01*
X175574452Y-76501707D01*
X175575366Y-76510615D01*
X175574842Y-76512028D01*
X175262898Y-77211790D01*
X175256400Y-77217951D01*
X175255547Y-77218241D01*
X174420957Y-77466416D01*
X174412050Y-77465489D01*
X174406642Y-77459241D01*
X174058167Y-76512028D01*
X173962574Y-76252189D01*
X173962933Y-76243242D01*
X173965278Y-76239880D01*
X174131832Y-76073326D01*
X174140104Y-76069900D01*
X174143455Y-76070390D01*
G37*
%TD.AperFunction*%
%TD*%
%TA.AperFunction,Conductor*%
%TO.N,/PF13*%
G36*
X143969050Y-53448716D02*
G01*
X144211298Y-53571748D01*
X144217123Y-53578549D01*
X144217700Y-53582179D01*
X144217700Y-53817818D01*
X144214273Y-53826091D01*
X144211298Y-53828250D01*
X143969052Y-53951280D01*
X143960124Y-53951971D01*
X143958369Y-53951235D01*
X143721138Y-53828250D01*
X143493784Y-53710385D01*
X143488017Y-53703536D01*
X143488783Y-53694614D01*
X143493784Y-53689612D01*
X143958370Y-53448761D01*
X143967291Y-53447996D01*
X143969050Y-53448716D01*
G37*
%TD.AperFunction*%
%TD*%
%TA.AperFunction,Conductor*%
%TO.N,/PF13*%
G36*
X176294308Y-80073807D02*
G01*
X176297607Y-80076124D01*
X176464275Y-80242792D01*
X176467702Y-80251065D01*
X176467260Y-80254252D01*
X176123145Y-81469819D01*
X176117594Y-81476846D01*
X176109241Y-81478029D01*
X175264695Y-81281961D01*
X175257411Y-81276752D01*
X175256844Y-81275731D01*
X175230351Y-81221903D01*
X174915221Y-80581622D01*
X174914643Y-80572688D01*
X174920552Y-80565960D01*
X174921739Y-80565455D01*
X176285363Y-80073392D01*
X176294308Y-80073807D01*
G37*
%TD.AperFunction*%
%TD*%
%TA.AperFunction,Conductor*%
%TO.N,GND*%
G36*
X148019797Y-54090789D02*
G01*
X148376500Y-54238141D01*
X148382838Y-54244467D01*
X148382853Y-54244503D01*
X148527725Y-54596557D01*
X148527704Y-54605511D01*
X148521357Y-54611829D01*
X148519323Y-54612456D01*
X147763945Y-54772017D01*
X147755142Y-54770374D01*
X147750080Y-54762988D01*
X147749827Y-54760570D01*
X147749827Y-54528216D01*
X147751471Y-54522235D01*
X148005276Y-54095620D01*
X148012450Y-54090263D01*
X148019797Y-54090789D01*
G37*
%TD.AperFunction*%
%TD*%
%TA.AperFunction,Conductor*%
%TO.N,GND*%
G36*
X146699550Y-54398717D02*
G01*
X146941798Y-54521749D01*
X146947623Y-54528550D01*
X146948200Y-54532180D01*
X146948200Y-54767819D01*
X146944773Y-54776092D01*
X146941798Y-54778251D01*
X146699552Y-54901281D01*
X146690624Y-54901972D01*
X146688869Y-54901236D01*
X146451638Y-54778251D01*
X146224284Y-54660386D01*
X146218517Y-54653537D01*
X146219283Y-54644615D01*
X146224284Y-54639613D01*
X146688870Y-54398762D01*
X146697791Y-54397997D01*
X146699550Y-54398717D01*
G37*
%TD.AperFunction*%
%TD*%
%TA.AperFunction,Conductor*%
%TO.N,/PG1*%
G36*
X161260473Y-94442441D02*
G01*
X161261655Y-94443410D01*
X161916701Y-95055550D01*
X161920406Y-95063702D01*
X161920394Y-95064764D01*
X161866405Y-96011401D01*
X161862513Y-96019466D01*
X161854058Y-96022416D01*
X161853001Y-96022307D01*
X160561167Y-95829997D01*
X160554617Y-95826698D01*
X160387583Y-95659664D01*
X160384156Y-95651391D01*
X160386337Y-95644588D01*
X161244151Y-94445150D01*
X161251750Y-94440416D01*
X161260473Y-94442441D01*
G37*
%TD.AperFunction*%
%TD*%
%TA.AperFunction,Conductor*%
%TO.N,/PG1*%
G36*
X130574308Y-120713807D02*
G01*
X130577607Y-120716124D01*
X130744275Y-120882792D01*
X130747702Y-120891065D01*
X130747260Y-120894252D01*
X130403145Y-122109819D01*
X130397594Y-122116846D01*
X130389241Y-122118029D01*
X129544695Y-121921961D01*
X129537411Y-121916752D01*
X129536844Y-121915731D01*
X129510351Y-121861903D01*
X129195221Y-121221622D01*
X129194643Y-121212688D01*
X129200552Y-121205960D01*
X129201739Y-121205455D01*
X130565363Y-120713392D01*
X130574308Y-120713807D01*
G37*
%TD.AperFunction*%
%TD*%
%TA.AperFunction,Conductor*%
%TO.N,/CANL*%
G36*
X150351799Y-69127429D02*
G01*
X150358667Y-69133174D01*
X150359997Y-69138592D01*
X150359997Y-69371407D01*
X150356570Y-69379680D01*
X150351798Y-69382571D01*
X149879375Y-69530729D01*
X149870538Y-69529977D01*
X149354313Y-69265411D01*
X149348514Y-69258589D01*
X149349238Y-69249664D01*
X149354314Y-69244588D01*
X149870541Y-68980021D01*
X149879373Y-68979270D01*
X150351799Y-69127429D01*
G37*
%TD.AperFunction*%
%TD*%
%TA.AperFunction,Conductor*%
%TO.N,/CANL*%
G36*
X164438352Y-54717677D02*
G01*
X165216317Y-55117039D01*
X165222112Y-55123866D01*
X165222157Y-55124008D01*
X165499975Y-56027266D01*
X165499132Y-56036181D01*
X165492232Y-56041889D01*
X165492067Y-56041938D01*
X164062889Y-56458599D01*
X164053987Y-56457625D01*
X164051341Y-56455640D01*
X163884649Y-56288948D01*
X163881222Y-56280675D01*
X163881871Y-56276834D01*
X164421963Y-54724242D01*
X164427916Y-54717556D01*
X164436856Y-54717038D01*
X164438352Y-54717677D01*
G37*
%TD.AperFunction*%
%TD*%
%TA.AperFunction,Conductor*%
%TO.N,/CANH*%
G36*
X150351799Y-67857429D02*
G01*
X150358667Y-67863174D01*
X150359997Y-67868592D01*
X150359997Y-68101407D01*
X150356570Y-68109680D01*
X150351798Y-68112571D01*
X149879375Y-68260729D01*
X149870538Y-68259977D01*
X149354313Y-67995411D01*
X149348514Y-67988589D01*
X149349238Y-67979664D01*
X149354314Y-67974588D01*
X149870541Y-67710021D01*
X149879373Y-67709270D01*
X150351799Y-67857429D01*
G37*
%TD.AperFunction*%
%TD*%
%TA.AperFunction,Conductor*%
%TO.N,/CANH*%
G36*
X162722864Y-55122437D02*
G01*
X162724909Y-55124380D01*
X163314190Y-55837747D01*
X163316817Y-55846307D01*
X163313352Y-55853562D01*
X162324088Y-56821266D01*
X162315777Y-56824601D01*
X162307633Y-56821175D01*
X162141582Y-56655124D01*
X162138364Y-56649050D01*
X161872291Y-55256986D01*
X161874104Y-55248216D01*
X161881586Y-55243297D01*
X161882024Y-55243223D01*
X162714180Y-55120257D01*
X162722864Y-55122437D01*
G37*
%TD.AperFunction*%
%TD*%
%TA.AperFunction,Conductor*%
%TO.N,/PG0*%
G36*
X159896724Y-120665932D02*
G01*
X159897240Y-120666161D01*
X161173317Y-121271828D01*
X161179321Y-121278471D01*
X161180000Y-121282398D01*
X161180000Y-121517601D01*
X161176573Y-121525874D01*
X161173317Y-121528171D01*
X159897251Y-122133833D01*
X159888307Y-122134284D01*
X159881664Y-122128280D01*
X159881430Y-122127753D01*
X159851898Y-122056690D01*
X159580864Y-121404487D01*
X159580854Y-121395538D01*
X159881430Y-120672245D01*
X159887769Y-120665921D01*
X159896724Y-120665932D01*
G37*
%TD.AperFunction*%
%TD*%
%TA.AperFunction,Conductor*%
%TO.N,/PD1*%
G36*
X157830167Y-76679160D02*
G01*
X157836485Y-76685507D01*
X157836986Y-76692911D01*
X157677281Y-77305339D01*
X157671878Y-77312480D01*
X157665960Y-77314087D01*
X157432138Y-77314087D01*
X157423865Y-77310660D01*
X157421734Y-77307738D01*
X157106244Y-76694343D01*
X157105508Y-76685421D01*
X157111298Y-76678590D01*
X157112137Y-76678199D01*
X157465500Y-76530875D01*
X157474449Y-76530855D01*
X157830167Y-76679160D01*
G37*
%TD.AperFunction*%
%TD*%
%TA.AperFunction,Conductor*%
%TO.N,/PD1*%
G36*
X144525579Y-66906297D02*
G01*
X144532521Y-66911952D01*
X144533912Y-66918009D01*
X144524596Y-67134191D01*
X144521180Y-67141960D01*
X144353674Y-67309466D01*
X144345401Y-67312893D01*
X144340022Y-67311583D01*
X143776497Y-67019834D01*
X143770725Y-67012987D01*
X143770973Y-67005200D01*
X143880375Y-66724347D01*
X143886570Y-66717884D01*
X143894629Y-66717388D01*
X144525579Y-66906297D01*
G37*
%TD.AperFunction*%
%TD*%
%TA.AperFunction,Conductor*%
%TO.N,GND*%
G36*
X138808044Y-65281253D02*
G01*
X138814206Y-65287239D01*
X139090747Y-65899928D01*
X139091027Y-65908878D01*
X139088356Y-65913014D01*
X138923014Y-66078356D01*
X138914741Y-66081783D01*
X138909928Y-66080747D01*
X138297239Y-65804206D01*
X138291108Y-65797679D01*
X138291232Y-65789090D01*
X138437437Y-65433802D01*
X138443753Y-65427457D01*
X138799090Y-65281232D01*
X138808044Y-65281253D01*
G37*
%TD.AperFunction*%
%TD*%
%TA.AperFunction,Conductor*%
%TO.N,GND*%
G36*
X143349456Y-67710021D02*
G01*
X143642719Y-67860319D01*
X143865682Y-67974588D01*
X143871482Y-67981411D01*
X143870758Y-67990336D01*
X143865682Y-67995412D01*
X143349458Y-68259977D01*
X143340621Y-68260729D01*
X142868199Y-68112571D01*
X142861330Y-68106825D01*
X142860000Y-68101407D01*
X142860000Y-67868592D01*
X142863427Y-67860319D01*
X142868196Y-67857429D01*
X143340623Y-67709270D01*
X143349456Y-67710021D01*
G37*
%TD.AperFunction*%
%TD*%
%TA.AperFunction,Conductor*%
%TO.N,/PD0*%
G36*
X144901800Y-70397429D02*
G01*
X144908668Y-70403174D01*
X144909998Y-70408592D01*
X144909998Y-70641407D01*
X144906571Y-70649680D01*
X144901799Y-70652571D01*
X144429376Y-70800729D01*
X144420539Y-70799977D01*
X143904314Y-70535411D01*
X143898515Y-70528589D01*
X143899239Y-70519664D01*
X143904315Y-70514588D01*
X144420542Y-70250021D01*
X144429374Y-70249270D01*
X144901800Y-70397429D01*
G37*
%TD.AperFunction*%
%TD*%
%TA.AperFunction,Conductor*%
%TO.N,/PD0*%
G36*
X148880071Y-72819252D02*
G01*
X149492760Y-73095793D01*
X149498891Y-73102320D01*
X149498767Y-73110909D01*
X149352563Y-73466195D01*
X149346245Y-73472542D01*
X149346195Y-73472563D01*
X148990909Y-73618767D01*
X148981955Y-73618746D01*
X148975793Y-73612760D01*
X148911676Y-73470707D01*
X148749279Y-73110909D01*
X148699252Y-73000071D01*
X148698972Y-72991121D01*
X148701641Y-72986987D01*
X148866986Y-72821642D01*
X148875258Y-72818216D01*
X148880071Y-72819252D01*
G37*
%TD.AperFunction*%
%TD*%
%TA.AperFunction,Conductor*%
%TO.N,/PC8*%
G36*
X130398076Y-63303437D02*
G01*
X130403146Y-63310180D01*
X130747260Y-64525747D01*
X130746216Y-64534641D01*
X130744275Y-64537207D01*
X130577607Y-64703875D01*
X130569334Y-64707302D01*
X130565363Y-64706607D01*
X129201748Y-64214546D01*
X129195129Y-64208515D01*
X129194714Y-64199570D01*
X129195214Y-64198391D01*
X129536845Y-63504265D01*
X129543570Y-63498359D01*
X129544673Y-63498043D01*
X130389243Y-63301970D01*
X130398076Y-63303437D01*
G37*
%TD.AperFunction*%
%TD*%
%TA.AperFunction,Conductor*%
%TO.N,/PC8*%
G36*
X146887035Y-101568627D02*
G01*
X146889356Y-101571934D01*
X147452613Y-102773581D01*
X147453021Y-102782527D01*
X147446985Y-102789141D01*
X147446510Y-102789351D01*
X146765691Y-103072333D01*
X146756736Y-103072344D01*
X146756709Y-103072333D01*
X146075889Y-102789351D01*
X146069565Y-102783011D01*
X146069576Y-102774056D01*
X146069773Y-102773608D01*
X146633044Y-101571934D01*
X146639658Y-101565898D01*
X146643638Y-101565200D01*
X146878762Y-101565200D01*
X146887035Y-101568627D01*
G37*
%TD.AperFunction*%
%TD*%
%TA.AperFunction,Conductor*%
%TO.N,/PC9*%
G36*
X139267035Y-101568627D02*
G01*
X139269356Y-101571934D01*
X139832613Y-102773581D01*
X139833021Y-102782527D01*
X139826985Y-102789141D01*
X139826510Y-102789351D01*
X139145691Y-103072333D01*
X139136736Y-103072344D01*
X139136709Y-103072333D01*
X138455889Y-102789351D01*
X138449565Y-102783011D01*
X138449576Y-102774056D01*
X138449773Y-102773608D01*
X139013044Y-101571934D01*
X139019658Y-101565898D01*
X139023638Y-101565200D01*
X139258762Y-101565200D01*
X139267035Y-101568627D01*
G37*
%TD.AperFunction*%
%TD*%
%TA.AperFunction,Conductor*%
%TO.N,/PC9*%
G36*
X130398076Y-65843437D02*
G01*
X130403146Y-65850180D01*
X130747260Y-67065747D01*
X130746216Y-67074641D01*
X130744275Y-67077207D01*
X130577607Y-67243875D01*
X130569334Y-67247302D01*
X130565363Y-67246607D01*
X129201748Y-66754546D01*
X129195129Y-66748515D01*
X129194714Y-66739570D01*
X129195214Y-66738391D01*
X129536845Y-66044265D01*
X129543570Y-66038359D01*
X129544673Y-66038043D01*
X130389243Y-65841970D01*
X130398076Y-65843437D01*
G37*
%TD.AperFunction*%
%TD*%
%TA.AperFunction,Conductor*%
%TO.N,/PC10*%
G36*
X136727035Y-101568627D02*
G01*
X136729356Y-101571934D01*
X137292613Y-102773581D01*
X137293021Y-102782527D01*
X137286985Y-102789141D01*
X137286510Y-102789351D01*
X136605691Y-103072333D01*
X136596736Y-103072344D01*
X136596709Y-103072333D01*
X135915889Y-102789351D01*
X135909565Y-102783011D01*
X135909576Y-102774056D01*
X135909773Y-102773608D01*
X136473044Y-101571934D01*
X136479658Y-101565898D01*
X136483638Y-101565200D01*
X136718762Y-101565200D01*
X136727035Y-101568627D01*
G37*
%TD.AperFunction*%
%TD*%
%TA.AperFunction,Conductor*%
%TO.N,/PC10*%
G36*
X130398076Y-68383437D02*
G01*
X130403146Y-68390180D01*
X130747260Y-69605747D01*
X130746216Y-69614641D01*
X130744275Y-69617207D01*
X130577607Y-69783875D01*
X130569334Y-69787302D01*
X130565363Y-69786607D01*
X129201748Y-69294546D01*
X129195129Y-69288515D01*
X129194714Y-69279570D01*
X129195214Y-69278391D01*
X129536845Y-68584265D01*
X129543570Y-68578359D01*
X129544673Y-68578043D01*
X130389243Y-68381970D01*
X130398076Y-68383437D01*
G37*
%TD.AperFunction*%
%TD*%
%TA.AperFunction,Conductor*%
%TO.N,/PC11*%
G36*
X140995882Y-102789316D02*
G01*
X141677411Y-103070637D01*
X141683751Y-103076961D01*
X141683762Y-103076988D01*
X141965076Y-103758499D01*
X141965065Y-103767454D01*
X141958725Y-103773778D01*
X141958241Y-103773965D01*
X140710265Y-104225375D01*
X140701319Y-104224967D01*
X140698012Y-104222646D01*
X140531753Y-104056387D01*
X140528326Y-104048114D01*
X140529022Y-104044140D01*
X140980435Y-102796156D01*
X140986470Y-102789544D01*
X140995416Y-102789136D01*
X140995882Y-102789316D01*
G37*
%TD.AperFunction*%
%TD*%
%TA.AperFunction,Conductor*%
%TO.N,/PC11*%
G36*
X129535306Y-71118039D02*
G01*
X129542589Y-71123247D01*
X129543156Y-71124268D01*
X129884777Y-71818373D01*
X129885356Y-71827309D01*
X129879447Y-71834037D01*
X129878251Y-71834545D01*
X128514636Y-72326607D01*
X128505691Y-72326192D01*
X128502392Y-72323875D01*
X128335724Y-72157207D01*
X128332297Y-72148934D01*
X128332737Y-72145754D01*
X128676853Y-70930178D01*
X128682403Y-70923153D01*
X128690754Y-70921970D01*
X129535306Y-71118039D01*
G37*
%TD.AperFunction*%
%TD*%
%TA.AperFunction,Conductor*%
%TO.N,/PG2*%
G36*
X130398076Y-78543437D02*
G01*
X130403146Y-78550180D01*
X130747260Y-79765747D01*
X130746216Y-79774641D01*
X130744275Y-79777207D01*
X130577607Y-79943875D01*
X130569334Y-79947302D01*
X130565363Y-79946607D01*
X129201748Y-79454546D01*
X129195129Y-79448515D01*
X129194714Y-79439570D01*
X129195214Y-79438391D01*
X129536845Y-78744265D01*
X129543570Y-78738359D01*
X129544673Y-78738043D01*
X130389243Y-78541970D01*
X130398076Y-78543437D01*
G37*
%TD.AperFunction*%
%TD*%
%TA.AperFunction,Conductor*%
%TO.N,/PG2*%
G36*
X134935486Y-101880943D02*
G01*
X134938913Y-101889216D01*
X134938850Y-101890433D01*
X134816294Y-103062730D01*
X134812025Y-103070602D01*
X134804673Y-103073213D01*
X134069034Y-103074189D01*
X134060756Y-103070773D01*
X134058206Y-103066961D01*
X133776678Y-102386317D01*
X133776683Y-102377362D01*
X133781899Y-102371567D01*
X134444592Y-102011109D01*
X134687586Y-101878938D01*
X134693176Y-101877516D01*
X134927213Y-101877516D01*
X134935486Y-101880943D01*
G37*
%TD.AperFunction*%
%TD*%
%TA.AperFunction,Conductor*%
%TO.N,/PD0*%
G36*
X128133256Y-115645729D02*
G01*
X128139101Y-115652513D01*
X128139690Y-115656177D01*
X128139690Y-115888604D01*
X128139361Y-115891358D01*
X127858380Y-117051750D01*
X127853103Y-117058984D01*
X127844255Y-117060367D01*
X127844057Y-117060318D01*
X127004284Y-116841377D01*
X126997143Y-116835973D01*
X126996662Y-116835064D01*
X126934479Y-116703789D01*
X126667165Y-116139464D01*
X126666722Y-116130522D01*
X126672731Y-116123883D01*
X126674072Y-116123347D01*
X128124328Y-115645066D01*
X128133256Y-115645729D01*
G37*
%TD.AperFunction*%
%TD*%
%TA.AperFunction,Conductor*%
%TO.N,/PD0*%
G36*
X149718044Y-73321253D02*
G01*
X149724206Y-73327239D01*
X150000747Y-73939928D01*
X150001027Y-73948878D01*
X149998356Y-73953014D01*
X149833014Y-74118356D01*
X149824741Y-74121783D01*
X149819928Y-74120747D01*
X149207239Y-73844206D01*
X149201108Y-73837679D01*
X149201232Y-73829090D01*
X149347437Y-73473802D01*
X149353753Y-73467457D01*
X149709090Y-73321232D01*
X149718044Y-73321253D01*
G37*
%TD.AperFunction*%
%TD*%
%TA.AperFunction,Conductor*%
%TO.N,/PD1*%
G36*
X128133256Y-118185729D02*
G01*
X128139101Y-118192513D01*
X128139690Y-118196177D01*
X128139690Y-118428604D01*
X128139361Y-118431358D01*
X127858380Y-119591750D01*
X127853103Y-119598984D01*
X127844255Y-119600367D01*
X127844057Y-119600318D01*
X127004284Y-119381377D01*
X126997143Y-119375973D01*
X126996662Y-119375064D01*
X126934479Y-119243789D01*
X126667165Y-118679464D01*
X126666722Y-118670522D01*
X126672731Y-118663883D01*
X126674072Y-118663347D01*
X128124328Y-118185066D01*
X128133256Y-118185729D01*
G37*
%TD.AperFunction*%
%TD*%
%TA.AperFunction,Conductor*%
%TO.N,/PG0*%
G36*
X168517395Y-54722744D02*
G01*
X168518036Y-54724243D01*
X169058127Y-56276831D01*
X169057609Y-56285771D01*
X169055350Y-56288948D01*
X168888658Y-56455640D01*
X168880385Y-56459067D01*
X168877110Y-56458599D01*
X167447931Y-56041938D01*
X167440948Y-56036333D01*
X167439974Y-56027431D01*
X167440004Y-56027328D01*
X167717843Y-55124006D01*
X167723550Y-55117108D01*
X167723582Y-55117091D01*
X168501644Y-54717677D01*
X168510568Y-54716949D01*
X168517395Y-54722744D01*
G37*
%TD.AperFunction*%
%TD*%
M02*
